M48
;DRILL file {PCBnew (20090216-final)} date mar 15 feb 2011 15:55:31 WET
;FORMAT={-.-/ absolute / metric / decimal}
R,T
VER,1
FMAT,2
METRIC,TZ
TCST,OFF
ICI,OFF
ATC,ON
T1C0.813
T2C0.998
T3C1.016
T4C1.224
T5C1.499
T6C2.032
T7C2.540
T8C3.175
%
M47
G05
M71
T1
X48.260Y40.640
X50.800Y40.640
X57.150Y43.180
X64.770Y43.180
X70.866Y100.330
X73.406Y100.330
X75.946Y100.330
X78.486Y100.330
X80.010Y52.070
X81.026Y100.330
X82.550Y52.070
X83.566Y100.330
X85.090Y52.070
X86.106Y100.330
X87.630Y52.070
X88.646Y100.330
X90.170Y52.070
X92.710Y52.070
X92.710Y100.330
X95.250Y100.330
X97.790Y52.070
X97.790Y100.330
X97.790Y105.410
X97.790Y113.030
X100.330Y52.070
X100.330Y100.330
X102.870Y52.070
X102.870Y100.330
X102.870Y105.410
X102.870Y113.030
X105.410Y52.070
X105.410Y100.330
X107.950Y52.070
X107.950Y100.330
X110.490Y52.070
X110.490Y100.330
X113.030Y52.070
X115.570Y52.070
X115.570Y100.330
X118.110Y100.330
X120.650Y52.070
X120.650Y100.330
X123.190Y52.070
X123.190Y100.330
X123.190Y120.650
X123.190Y128.270
X125.730Y52.070
X125.730Y100.330
X128.270Y52.070
X128.270Y100.330
X130.810Y52.070
X130.810Y100.330
X133.350Y52.070
X133.350Y100.330
X135.890Y52.070
X138.430Y52.070
X140.970Y57.150
X140.970Y59.690
X140.970Y62.230
X140.970Y64.770
X140.970Y67.310
X140.970Y69.850
X140.970Y72.390
X140.970Y74.930
X140.970Y77.470
X140.970Y80.010
X140.970Y82.550
X140.970Y85.090
X140.970Y87.630
X140.970Y90.170
X140.970Y92.710
X140.970Y95.250
X140.970Y97.790
X140.970Y100.330
X143.510Y57.150
X143.510Y59.690
X143.510Y62.230
X143.510Y64.770
X143.510Y67.310
X143.510Y69.850
X143.510Y72.390
X143.510Y74.930
X143.510Y77.470
X143.510Y80.010
X143.510Y82.550
X143.510Y85.090
X143.510Y87.630
X143.510Y90.170
X143.510Y92.710
X143.510Y95.250
X143.510Y97.790
X143.510Y100.330
X143.510Y119.380
X143.510Y123.190
X151.130Y119.380
X151.130Y123.190
X151.130Y127.000
X153.670Y127.000
X158.750Y119.380
X158.750Y121.920
X158.750Y124.460
X158.750Y127.000
X166.370Y119.380
X166.370Y121.920
X166.370Y124.460
X166.370Y127.000
X170.180Y124.460
X170.180Y127.000
T2
X165.100Y33.020
X165.100Y40.640
X165.100Y45.720
X165.100Y53.340
X172.720Y33.020
X172.720Y40.640
X172.720Y45.720
X172.720Y53.340
X177.800Y33.020
X177.800Y40.640
X177.800Y45.720
X177.800Y53.340
X182.880Y33.020
X182.880Y40.640
X182.880Y45.720
X182.880Y53.340
T3
X48.260Y123.190
X50.800Y123.190
X53.340Y123.190
X55.880Y123.190
X58.420Y123.190
X60.960Y123.190
X63.500Y123.190
X66.040Y123.190
X68.580Y123.190
X71.120Y123.190
X73.660Y123.190
X76.200Y123.190
X78.740Y123.190
X80.010Y113.030
X81.280Y123.190
X82.550Y113.030
X83.820Y123.190
X85.090Y113.030
X86.360Y123.190
X92.710Y41.910
X95.250Y41.910
X97.790Y41.910
X97.790Y123.190
X100.330Y123.190
X102.870Y123.190
X113.030Y123.190
X115.570Y123.190
X129.540Y123.190
X132.080Y123.190
X134.620Y123.190
X137.160Y123.190
X200.025Y121.920
T4
X114.300Y40.640
X119.380Y40.640
X124.460Y40.640
X129.540Y40.640
X138.430Y40.640
X143.510Y40.640
X148.590Y40.640
X153.670Y40.640
X190.500Y34.290
X190.500Y39.370
X190.500Y46.990
X190.500Y52.070
X190.500Y60.960
X190.500Y66.040
X190.500Y76.200
X190.500Y81.280
X190.500Y91.440
X190.500Y96.520
X190.500Y106.680
X190.500Y111.760
T5
X156.411Y59.751
X156.411Y67.249
X156.411Y74.991
X156.411Y82.489
X156.411Y90.231
X156.411Y97.729
X156.411Y105.471
X156.411Y112.969
X161.412Y59.751
X161.412Y67.249
X161.412Y74.991
X161.412Y82.489
X161.412Y90.231
X161.412Y97.729
X161.412Y105.471
X161.412Y112.969
X166.411Y59.751
X166.411Y67.249
X166.411Y74.991
X166.411Y82.489
X166.411Y90.231
X166.411Y97.729
X166.411Y105.471
X166.411Y112.969
X181.409Y59.751
X181.409Y67.249
X181.409Y74.991
X181.409Y82.489
X181.409Y90.231
X181.409Y97.729
X181.409Y105.471
X181.409Y112.969
T6
X195.580Y119.380
X200.025Y127.000
X204.470Y119.380
T7
X190.500Y121.920
T8
X50.800Y76.200
X60.960Y52.070
X62.230Y100.330
X208.280Y81.280
T0
M30
