G04 (created by PCBnew (20090216-final)) date jue 19 abr 2012 08:35:57 WEST*
G01*
G70*
G90*
%MOIN*%
G04 Gerber Fmt 3.4, Leading zero omitted, Abs format*
%FSLAX34Y34*%
G04 APERTURE LIST*
%ADD10C,0.015000*%
%ADD11R,0.100000X0.100000*%
%ADD12C,0.100000*%
%ADD13C,0.150000*%
%ADD14R,0.150000X0.150000*%
%ADD15C,0.066000*%
%ADD16R,0.060000X0.060000*%
%ADD17C,0.060000*%
%ADD18C,0.055000*%
%ADD19C,0.062900*%
%ADD20O,0.177100X0.088500*%
%ADD21O,0.060000X0.100000*%
%ADD22C,0.155000*%
%ADD23C,0.140000*%
%ADD24C,0.085000*%
%ADD25C,0.052000*%
%ADD26R,0.055000X0.055000*%
%ADD27C,0.045000*%
%ADD28C,0.025000*%
%ADD29C,0.010000*%
%ADD30C,0.005000*%
%ADD31C,0.001000*%
%ADD32C,0.012000*%
G04 APERTURE END LIST*
G54D10*
X17500Y-50500D02*
X17500Y-49500D01*
X80000Y-50500D02*
X17500Y-50500D01*
X80000Y-50000D02*
X80000Y-50500D01*
X80000Y-50000D02*
X80000Y-12000D01*
X17500Y-12000D02*
X17500Y-50000D01*
X80000Y-12000D02*
X17500Y-12000D01*
G54D30*
X30750Y-21750D02*
X30726Y-21992D01*
X30726Y-21992D02*
X30655Y-22226D01*
X30655Y-22226D02*
X30541Y-22441D01*
X30541Y-22441D02*
X30386Y-22630D01*
X30386Y-22630D02*
X30198Y-22786D01*
X30198Y-22786D02*
X29984Y-22902D01*
X29984Y-22902D02*
X29751Y-22974D01*
X29751Y-22974D02*
X29508Y-22999D01*
X29508Y-22999D02*
X29266Y-22977D01*
X29266Y-22977D02*
X29032Y-22908D01*
X29032Y-22908D02*
X28816Y-22795D01*
X28816Y-22795D02*
X28626Y-22643D01*
X28626Y-22643D02*
X28469Y-22456D01*
X28469Y-22456D02*
X28352Y-22242D01*
X28352Y-22242D02*
X28278Y-22009D01*
X28278Y-22009D02*
X28251Y-21767D01*
X28251Y-21767D02*
X28271Y-21525D01*
X28271Y-21525D02*
X28338Y-21290D01*
X28338Y-21290D02*
X28450Y-21073D01*
X28450Y-21073D02*
X28601Y-20882D01*
X28601Y-20882D02*
X28787Y-20724D01*
X28787Y-20724D02*
X29000Y-20605D01*
X29000Y-20605D02*
X29232Y-20530D01*
X29232Y-20530D02*
X29474Y-20501D01*
X29474Y-20501D02*
X29717Y-20519D01*
X29717Y-20519D02*
X29952Y-20585D01*
X29952Y-20585D02*
X30169Y-20695D01*
X30169Y-20695D02*
X30362Y-20845D01*
X30362Y-20845D02*
X30521Y-21030D01*
X30521Y-21030D02*
X30641Y-21242D01*
X30641Y-21242D02*
X30718Y-21474D01*
X30718Y-21474D02*
X30749Y-21716D01*
X30749Y-21716D02*
X30750Y-21750D01*
X27750Y-21750D02*
X27726Y-21992D01*
X27726Y-21992D02*
X27655Y-22226D01*
X27655Y-22226D02*
X27541Y-22441D01*
X27541Y-22441D02*
X27386Y-22630D01*
X27386Y-22630D02*
X27198Y-22786D01*
X27198Y-22786D02*
X26984Y-22902D01*
X26984Y-22902D02*
X26751Y-22974D01*
X26751Y-22974D02*
X26508Y-22999D01*
X26508Y-22999D02*
X26266Y-22977D01*
X26266Y-22977D02*
X26032Y-22908D01*
X26032Y-22908D02*
X25816Y-22795D01*
X25816Y-22795D02*
X25626Y-22643D01*
X25626Y-22643D02*
X25469Y-22456D01*
X25469Y-22456D02*
X25352Y-22242D01*
X25352Y-22242D02*
X25278Y-22009D01*
X25278Y-22009D02*
X25251Y-21767D01*
X25251Y-21767D02*
X25271Y-21525D01*
X25271Y-21525D02*
X25338Y-21290D01*
X25338Y-21290D02*
X25450Y-21073D01*
X25450Y-21073D02*
X25601Y-20882D01*
X25601Y-20882D02*
X25787Y-20724D01*
X25787Y-20724D02*
X26000Y-20605D01*
X26000Y-20605D02*
X26232Y-20530D01*
X26232Y-20530D02*
X26474Y-20501D01*
X26474Y-20501D02*
X26717Y-20519D01*
X26717Y-20519D02*
X26952Y-20585D01*
X26952Y-20585D02*
X27169Y-20695D01*
X27169Y-20695D02*
X27362Y-20845D01*
X27362Y-20845D02*
X27521Y-21030D01*
X27521Y-21030D02*
X27641Y-21242D01*
X27641Y-21242D02*
X27718Y-21474D01*
X27718Y-21474D02*
X27749Y-21716D01*
X27749Y-21716D02*
X27750Y-21750D01*
X18500Y-24500D02*
X23250Y-24500D01*
X23250Y-24500D02*
X23250Y-19500D01*
X18500Y-37000D02*
X22250Y-37000D01*
X22250Y-37000D02*
X22250Y-32000D01*
X22250Y-32000D02*
X18500Y-32000D01*
X43050Y-32000D02*
X43050Y-29000D01*
X43050Y-29000D02*
X45050Y-29000D01*
X45050Y-29000D02*
X45050Y-32000D01*
X45050Y-32000D02*
X43050Y-32000D01*
X48500Y-30500D02*
X48484Y-30655D01*
X48484Y-30655D02*
X48439Y-30804D01*
X48439Y-30804D02*
X48366Y-30942D01*
X48366Y-30942D02*
X48267Y-31063D01*
X48267Y-31063D02*
X48147Y-31163D01*
X48147Y-31163D02*
X48010Y-31237D01*
X48010Y-31237D02*
X47860Y-31283D01*
X47860Y-31283D02*
X47705Y-31299D01*
X47705Y-31299D02*
X47551Y-31285D01*
X47551Y-31285D02*
X47401Y-31241D01*
X47401Y-31241D02*
X47262Y-31169D01*
X47262Y-31169D02*
X47141Y-31071D01*
X47141Y-31071D02*
X47040Y-30951D01*
X47040Y-30951D02*
X46965Y-30815D01*
X46965Y-30815D02*
X46918Y-30666D01*
X46918Y-30666D02*
X46901Y-30511D01*
X46901Y-30511D02*
X46914Y-30356D01*
X46914Y-30356D02*
X46957Y-30206D01*
X46957Y-30206D02*
X47028Y-30067D01*
X47028Y-30067D02*
X47125Y-29945D01*
X47125Y-29945D02*
X47244Y-29844D01*
X47244Y-29844D02*
X47380Y-29767D01*
X47380Y-29767D02*
X47529Y-29719D01*
X47529Y-29719D02*
X47684Y-29701D01*
X47684Y-29701D02*
X47838Y-29713D01*
X47838Y-29713D02*
X47989Y-29755D01*
X47989Y-29755D02*
X48128Y-29825D01*
X48128Y-29825D02*
X48251Y-29921D01*
X48251Y-29921D02*
X48353Y-30039D01*
X48353Y-30039D02*
X48430Y-30175D01*
X48430Y-30175D02*
X48480Y-30323D01*
X48480Y-30323D02*
X48499Y-30478D01*
X48499Y-30478D02*
X48500Y-30500D01*
G54D10*
X57500Y-19500D02*
X18500Y-19500D01*
X57000Y-40500D02*
X18500Y-40500D01*
X57500Y-35500D02*
X57500Y-40000D01*
X57500Y-40000D02*
X57000Y-40500D01*
X18500Y-19500D02*
X18500Y-40500D01*
X57500Y-35500D02*
X58500Y-34500D01*
X58500Y-34500D02*
X58500Y-21500D01*
X58500Y-21500D02*
X57500Y-20500D01*
X57500Y-20500D02*
X57500Y-19500D01*
G54D31*
X74500Y-18000D02*
X75500Y-18000D01*
X75500Y-18000D02*
X75500Y-19000D01*
X75500Y-19000D02*
X74500Y-19000D01*
X74500Y-19000D02*
X74500Y-18000D01*
X75500Y-20500D02*
X75490Y-20597D01*
X75490Y-20597D02*
X75462Y-20690D01*
X75462Y-20690D02*
X75416Y-20776D01*
X75416Y-20776D02*
X75354Y-20852D01*
X75354Y-20852D02*
X75279Y-20914D01*
X75279Y-20914D02*
X75193Y-20960D01*
X75193Y-20960D02*
X75100Y-20989D01*
X75100Y-20989D02*
X75003Y-20999D01*
X75003Y-20999D02*
X74907Y-20991D01*
X74907Y-20991D02*
X74813Y-20963D01*
X74813Y-20963D02*
X74727Y-20918D01*
X74727Y-20918D02*
X74651Y-20857D01*
X74651Y-20857D02*
X74588Y-20782D01*
X74588Y-20782D02*
X74541Y-20696D01*
X74541Y-20696D02*
X74511Y-20603D01*
X74511Y-20603D02*
X74501Y-20506D01*
X74501Y-20506D02*
X74509Y-20410D01*
X74509Y-20410D02*
X74536Y-20316D01*
X74536Y-20316D02*
X74580Y-20230D01*
X74580Y-20230D02*
X74641Y-20153D01*
X74641Y-20153D02*
X74715Y-20090D01*
X74715Y-20090D02*
X74800Y-20042D01*
X74800Y-20042D02*
X74893Y-20012D01*
X74893Y-20012D02*
X74990Y-20001D01*
X74990Y-20001D02*
X75086Y-20008D01*
X75086Y-20008D02*
X75180Y-20034D01*
X75180Y-20034D02*
X75267Y-20078D01*
X75267Y-20078D02*
X75344Y-20138D01*
X75344Y-20138D02*
X75408Y-20212D01*
X75408Y-20212D02*
X75456Y-20297D01*
X75456Y-20297D02*
X75487Y-20390D01*
X75487Y-20390D02*
X75499Y-20487D01*
X75499Y-20487D02*
X75500Y-20500D01*
X74500Y-13000D02*
X75500Y-13000D01*
X75500Y-13000D02*
X75500Y-14000D01*
X75500Y-14000D02*
X74500Y-14000D01*
X74500Y-14000D02*
X74500Y-13000D01*
X75500Y-15500D02*
X75490Y-15597D01*
X75490Y-15597D02*
X75462Y-15690D01*
X75462Y-15690D02*
X75416Y-15776D01*
X75416Y-15776D02*
X75354Y-15852D01*
X75354Y-15852D02*
X75279Y-15914D01*
X75279Y-15914D02*
X75193Y-15960D01*
X75193Y-15960D02*
X75100Y-15989D01*
X75100Y-15989D02*
X75003Y-15999D01*
X75003Y-15999D02*
X74907Y-15991D01*
X74907Y-15991D02*
X74813Y-15963D01*
X74813Y-15963D02*
X74727Y-15918D01*
X74727Y-15918D02*
X74651Y-15857D01*
X74651Y-15857D02*
X74588Y-15782D01*
X74588Y-15782D02*
X74541Y-15696D01*
X74541Y-15696D02*
X74511Y-15603D01*
X74511Y-15603D02*
X74501Y-15506D01*
X74501Y-15506D02*
X74509Y-15410D01*
X74509Y-15410D02*
X74536Y-15316D01*
X74536Y-15316D02*
X74580Y-15230D01*
X74580Y-15230D02*
X74641Y-15153D01*
X74641Y-15153D02*
X74715Y-15090D01*
X74715Y-15090D02*
X74800Y-15042D01*
X74800Y-15042D02*
X74893Y-15012D01*
X74893Y-15012D02*
X74990Y-15001D01*
X74990Y-15001D02*
X75086Y-15008D01*
X75086Y-15008D02*
X75180Y-15034D01*
X75180Y-15034D02*
X75267Y-15078D01*
X75267Y-15078D02*
X75344Y-15138D01*
X75344Y-15138D02*
X75408Y-15212D01*
X75408Y-15212D02*
X75456Y-15297D01*
X75456Y-15297D02*
X75487Y-15390D01*
X75487Y-15390D02*
X75499Y-15487D01*
X75499Y-15487D02*
X75500Y-15500D01*
X74500Y-23500D02*
X75500Y-23500D01*
X75500Y-23500D02*
X75500Y-24500D01*
X75500Y-24500D02*
X74500Y-24500D01*
X74500Y-24500D02*
X74500Y-23500D01*
X75500Y-26000D02*
X75490Y-26097D01*
X75490Y-26097D02*
X75462Y-26190D01*
X75462Y-26190D02*
X75416Y-26276D01*
X75416Y-26276D02*
X75354Y-26352D01*
X75354Y-26352D02*
X75279Y-26414D01*
X75279Y-26414D02*
X75193Y-26460D01*
X75193Y-26460D02*
X75100Y-26489D01*
X75100Y-26489D02*
X75003Y-26499D01*
X75003Y-26499D02*
X74907Y-26491D01*
X74907Y-26491D02*
X74813Y-26463D01*
X74813Y-26463D02*
X74727Y-26418D01*
X74727Y-26418D02*
X74651Y-26357D01*
X74651Y-26357D02*
X74588Y-26282D01*
X74588Y-26282D02*
X74541Y-26196D01*
X74541Y-26196D02*
X74511Y-26103D01*
X74511Y-26103D02*
X74501Y-26006D01*
X74501Y-26006D02*
X74509Y-25910D01*
X74509Y-25910D02*
X74536Y-25816D01*
X74536Y-25816D02*
X74580Y-25730D01*
X74580Y-25730D02*
X74641Y-25653D01*
X74641Y-25653D02*
X74715Y-25590D01*
X74715Y-25590D02*
X74800Y-25542D01*
X74800Y-25542D02*
X74893Y-25512D01*
X74893Y-25512D02*
X74990Y-25501D01*
X74990Y-25501D02*
X75086Y-25508D01*
X75086Y-25508D02*
X75180Y-25534D01*
X75180Y-25534D02*
X75267Y-25578D01*
X75267Y-25578D02*
X75344Y-25638D01*
X75344Y-25638D02*
X75408Y-25712D01*
X75408Y-25712D02*
X75456Y-25797D01*
X75456Y-25797D02*
X75487Y-25890D01*
X75487Y-25890D02*
X75499Y-25987D01*
X75499Y-25987D02*
X75500Y-26000D01*
X74500Y-29500D02*
X75500Y-29500D01*
X75500Y-29500D02*
X75500Y-30500D01*
X75500Y-30500D02*
X74500Y-30500D01*
X74500Y-30500D02*
X74500Y-29500D01*
X75500Y-32000D02*
X75490Y-32097D01*
X75490Y-32097D02*
X75462Y-32190D01*
X75462Y-32190D02*
X75416Y-32276D01*
X75416Y-32276D02*
X75354Y-32352D01*
X75354Y-32352D02*
X75279Y-32414D01*
X75279Y-32414D02*
X75193Y-32460D01*
X75193Y-32460D02*
X75100Y-32489D01*
X75100Y-32489D02*
X75003Y-32499D01*
X75003Y-32499D02*
X74907Y-32491D01*
X74907Y-32491D02*
X74813Y-32463D01*
X74813Y-32463D02*
X74727Y-32418D01*
X74727Y-32418D02*
X74651Y-32357D01*
X74651Y-32357D02*
X74588Y-32282D01*
X74588Y-32282D02*
X74541Y-32196D01*
X74541Y-32196D02*
X74511Y-32103D01*
X74511Y-32103D02*
X74501Y-32006D01*
X74501Y-32006D02*
X74509Y-31910D01*
X74509Y-31910D02*
X74536Y-31816D01*
X74536Y-31816D02*
X74580Y-31730D01*
X74580Y-31730D02*
X74641Y-31653D01*
X74641Y-31653D02*
X74715Y-31590D01*
X74715Y-31590D02*
X74800Y-31542D01*
X74800Y-31542D02*
X74893Y-31512D01*
X74893Y-31512D02*
X74990Y-31501D01*
X74990Y-31501D02*
X75086Y-31508D01*
X75086Y-31508D02*
X75180Y-31534D01*
X75180Y-31534D02*
X75267Y-31578D01*
X75267Y-31578D02*
X75344Y-31638D01*
X75344Y-31638D02*
X75408Y-31712D01*
X75408Y-31712D02*
X75456Y-31797D01*
X75456Y-31797D02*
X75487Y-31890D01*
X75487Y-31890D02*
X75499Y-31987D01*
X75499Y-31987D02*
X75500Y-32000D01*
X74500Y-41500D02*
X75500Y-41500D01*
X75500Y-41500D02*
X75500Y-42500D01*
X75500Y-42500D02*
X74500Y-42500D01*
X74500Y-42500D02*
X74500Y-41500D01*
X75500Y-44000D02*
X75490Y-44097D01*
X75490Y-44097D02*
X75462Y-44190D01*
X75462Y-44190D02*
X75416Y-44276D01*
X75416Y-44276D02*
X75354Y-44352D01*
X75354Y-44352D02*
X75279Y-44414D01*
X75279Y-44414D02*
X75193Y-44460D01*
X75193Y-44460D02*
X75100Y-44489D01*
X75100Y-44489D02*
X75003Y-44499D01*
X75003Y-44499D02*
X74907Y-44491D01*
X74907Y-44491D02*
X74813Y-44463D01*
X74813Y-44463D02*
X74727Y-44418D01*
X74727Y-44418D02*
X74651Y-44357D01*
X74651Y-44357D02*
X74588Y-44282D01*
X74588Y-44282D02*
X74541Y-44196D01*
X74541Y-44196D02*
X74511Y-44103D01*
X74511Y-44103D02*
X74501Y-44006D01*
X74501Y-44006D02*
X74509Y-43910D01*
X74509Y-43910D02*
X74536Y-43816D01*
X74536Y-43816D02*
X74580Y-43730D01*
X74580Y-43730D02*
X74641Y-43653D01*
X74641Y-43653D02*
X74715Y-43590D01*
X74715Y-43590D02*
X74800Y-43542D01*
X74800Y-43542D02*
X74893Y-43512D01*
X74893Y-43512D02*
X74990Y-43501D01*
X74990Y-43501D02*
X75086Y-43508D01*
X75086Y-43508D02*
X75180Y-43534D01*
X75180Y-43534D02*
X75267Y-43578D01*
X75267Y-43578D02*
X75344Y-43638D01*
X75344Y-43638D02*
X75408Y-43712D01*
X75408Y-43712D02*
X75456Y-43797D01*
X75456Y-43797D02*
X75487Y-43890D01*
X75487Y-43890D02*
X75499Y-43987D01*
X75499Y-43987D02*
X75500Y-44000D01*
X74500Y-35500D02*
X75500Y-35500D01*
X75500Y-35500D02*
X75500Y-36500D01*
X75500Y-36500D02*
X74500Y-36500D01*
X74500Y-36500D02*
X74500Y-35500D01*
X75500Y-38000D02*
X75490Y-38097D01*
X75490Y-38097D02*
X75462Y-38190D01*
X75462Y-38190D02*
X75416Y-38276D01*
X75416Y-38276D02*
X75354Y-38352D01*
X75354Y-38352D02*
X75279Y-38414D01*
X75279Y-38414D02*
X75193Y-38460D01*
X75193Y-38460D02*
X75100Y-38489D01*
X75100Y-38489D02*
X75003Y-38499D01*
X75003Y-38499D02*
X74907Y-38491D01*
X74907Y-38491D02*
X74813Y-38463D01*
X74813Y-38463D02*
X74727Y-38418D01*
X74727Y-38418D02*
X74651Y-38357D01*
X74651Y-38357D02*
X74588Y-38282D01*
X74588Y-38282D02*
X74541Y-38196D01*
X74541Y-38196D02*
X74511Y-38103D01*
X74511Y-38103D02*
X74501Y-38006D01*
X74501Y-38006D02*
X74509Y-37910D01*
X74509Y-37910D02*
X74536Y-37816D01*
X74536Y-37816D02*
X74580Y-37730D01*
X74580Y-37730D02*
X74641Y-37653D01*
X74641Y-37653D02*
X74715Y-37590D01*
X74715Y-37590D02*
X74800Y-37542D01*
X74800Y-37542D02*
X74893Y-37512D01*
X74893Y-37512D02*
X74990Y-37501D01*
X74990Y-37501D02*
X75086Y-37508D01*
X75086Y-37508D02*
X75180Y-37534D01*
X75180Y-37534D02*
X75267Y-37578D01*
X75267Y-37578D02*
X75344Y-37638D01*
X75344Y-37638D02*
X75408Y-37712D01*
X75408Y-37712D02*
X75456Y-37797D01*
X75456Y-37797D02*
X75487Y-37890D01*
X75487Y-37890D02*
X75499Y-37987D01*
X75499Y-37987D02*
X75500Y-38000D01*
X57250Y-16000D02*
X57235Y-16145D01*
X57235Y-16145D02*
X57193Y-16285D01*
X57193Y-16285D02*
X57124Y-16415D01*
X57124Y-16415D02*
X57032Y-16528D01*
X57032Y-16528D02*
X56919Y-16621D01*
X56919Y-16621D02*
X56790Y-16691D01*
X56790Y-16691D02*
X56650Y-16734D01*
X56650Y-16734D02*
X56505Y-16749D01*
X56505Y-16749D02*
X56360Y-16736D01*
X56360Y-16736D02*
X56220Y-16695D01*
X56220Y-16695D02*
X56090Y-16627D01*
X56090Y-16627D02*
X55976Y-16535D01*
X55976Y-16535D02*
X55882Y-16423D01*
X55882Y-16423D02*
X55811Y-16295D01*
X55811Y-16295D02*
X55767Y-16155D01*
X55767Y-16155D02*
X55751Y-16010D01*
X55751Y-16010D02*
X55763Y-15865D01*
X55763Y-15865D02*
X55803Y-15724D01*
X55803Y-15724D02*
X55870Y-15594D01*
X55870Y-15594D02*
X55961Y-15480D01*
X55961Y-15480D02*
X56072Y-15385D01*
X56072Y-15385D02*
X56200Y-15313D01*
X56200Y-15313D02*
X56339Y-15268D01*
X56339Y-15268D02*
X56485Y-15251D01*
X56485Y-15251D02*
X56630Y-15262D01*
X56630Y-15262D02*
X56771Y-15301D01*
X56771Y-15301D02*
X56901Y-15367D01*
X56901Y-15367D02*
X57017Y-15457D01*
X57017Y-15457D02*
X57112Y-15568D01*
X57112Y-15568D02*
X57185Y-15695D01*
X57185Y-15695D02*
X57231Y-15834D01*
X57231Y-15834D02*
X57249Y-15980D01*
X57249Y-15980D02*
X57250Y-16000D01*
X59250Y-16000D02*
X59235Y-16145D01*
X59235Y-16145D02*
X59193Y-16285D01*
X59193Y-16285D02*
X59124Y-16415D01*
X59124Y-16415D02*
X59032Y-16528D01*
X59032Y-16528D02*
X58919Y-16621D01*
X58919Y-16621D02*
X58790Y-16691D01*
X58790Y-16691D02*
X58650Y-16734D01*
X58650Y-16734D02*
X58505Y-16749D01*
X58505Y-16749D02*
X58360Y-16736D01*
X58360Y-16736D02*
X58220Y-16695D01*
X58220Y-16695D02*
X58090Y-16627D01*
X58090Y-16627D02*
X57976Y-16535D01*
X57976Y-16535D02*
X57882Y-16423D01*
X57882Y-16423D02*
X57811Y-16295D01*
X57811Y-16295D02*
X57767Y-16155D01*
X57767Y-16155D02*
X57751Y-16010D01*
X57751Y-16010D02*
X57763Y-15865D01*
X57763Y-15865D02*
X57803Y-15724D01*
X57803Y-15724D02*
X57870Y-15594D01*
X57870Y-15594D02*
X57961Y-15480D01*
X57961Y-15480D02*
X58072Y-15385D01*
X58072Y-15385D02*
X58200Y-15313D01*
X58200Y-15313D02*
X58339Y-15268D01*
X58339Y-15268D02*
X58485Y-15251D01*
X58485Y-15251D02*
X58630Y-15262D01*
X58630Y-15262D02*
X58771Y-15301D01*
X58771Y-15301D02*
X58901Y-15367D01*
X58901Y-15367D02*
X59017Y-15457D01*
X59017Y-15457D02*
X59112Y-15568D01*
X59112Y-15568D02*
X59185Y-15695D01*
X59185Y-15695D02*
X59231Y-15834D01*
X59231Y-15834D02*
X59249Y-15980D01*
X59249Y-15980D02*
X59250Y-16000D01*
X53750Y-16750D02*
X53750Y-15250D01*
X53750Y-15250D02*
X55250Y-15250D01*
X55250Y-15250D02*
X55250Y-16750D01*
X55250Y-16750D02*
X53750Y-16750D01*
X61250Y-16000D02*
X61235Y-16145D01*
X61235Y-16145D02*
X61193Y-16285D01*
X61193Y-16285D02*
X61124Y-16415D01*
X61124Y-16415D02*
X61032Y-16528D01*
X61032Y-16528D02*
X60919Y-16621D01*
X60919Y-16621D02*
X60790Y-16691D01*
X60790Y-16691D02*
X60650Y-16734D01*
X60650Y-16734D02*
X60505Y-16749D01*
X60505Y-16749D02*
X60360Y-16736D01*
X60360Y-16736D02*
X60220Y-16695D01*
X60220Y-16695D02*
X60090Y-16627D01*
X60090Y-16627D02*
X59976Y-16535D01*
X59976Y-16535D02*
X59882Y-16423D01*
X59882Y-16423D02*
X59811Y-16295D01*
X59811Y-16295D02*
X59767Y-16155D01*
X59767Y-16155D02*
X59751Y-16010D01*
X59751Y-16010D02*
X59763Y-15865D01*
X59763Y-15865D02*
X59803Y-15724D01*
X59803Y-15724D02*
X59870Y-15594D01*
X59870Y-15594D02*
X59961Y-15480D01*
X59961Y-15480D02*
X60072Y-15385D01*
X60072Y-15385D02*
X60200Y-15313D01*
X60200Y-15313D02*
X60339Y-15268D01*
X60339Y-15268D02*
X60485Y-15251D01*
X60485Y-15251D02*
X60630Y-15262D01*
X60630Y-15262D02*
X60771Y-15301D01*
X60771Y-15301D02*
X60901Y-15367D01*
X60901Y-15367D02*
X61017Y-15457D01*
X61017Y-15457D02*
X61112Y-15568D01*
X61112Y-15568D02*
X61185Y-15695D01*
X61185Y-15695D02*
X61231Y-15834D01*
X61231Y-15834D02*
X61249Y-15980D01*
X61249Y-15980D02*
X61250Y-16000D01*
X47750Y-16000D02*
X47735Y-16145D01*
X47735Y-16145D02*
X47693Y-16285D01*
X47693Y-16285D02*
X47624Y-16415D01*
X47624Y-16415D02*
X47532Y-16528D01*
X47532Y-16528D02*
X47419Y-16621D01*
X47419Y-16621D02*
X47290Y-16691D01*
X47290Y-16691D02*
X47150Y-16734D01*
X47150Y-16734D02*
X47005Y-16749D01*
X47005Y-16749D02*
X46860Y-16736D01*
X46860Y-16736D02*
X46720Y-16695D01*
X46720Y-16695D02*
X46590Y-16627D01*
X46590Y-16627D02*
X46476Y-16535D01*
X46476Y-16535D02*
X46382Y-16423D01*
X46382Y-16423D02*
X46311Y-16295D01*
X46311Y-16295D02*
X46267Y-16155D01*
X46267Y-16155D02*
X46251Y-16010D01*
X46251Y-16010D02*
X46263Y-15865D01*
X46263Y-15865D02*
X46303Y-15724D01*
X46303Y-15724D02*
X46370Y-15594D01*
X46370Y-15594D02*
X46461Y-15480D01*
X46461Y-15480D02*
X46572Y-15385D01*
X46572Y-15385D02*
X46700Y-15313D01*
X46700Y-15313D02*
X46839Y-15268D01*
X46839Y-15268D02*
X46985Y-15251D01*
X46985Y-15251D02*
X47130Y-15262D01*
X47130Y-15262D02*
X47271Y-15301D01*
X47271Y-15301D02*
X47401Y-15367D01*
X47401Y-15367D02*
X47517Y-15457D01*
X47517Y-15457D02*
X47612Y-15568D01*
X47612Y-15568D02*
X47685Y-15695D01*
X47685Y-15695D02*
X47731Y-15834D01*
X47731Y-15834D02*
X47749Y-15980D01*
X47749Y-15980D02*
X47750Y-16000D01*
X49750Y-16000D02*
X49735Y-16145D01*
X49735Y-16145D02*
X49693Y-16285D01*
X49693Y-16285D02*
X49624Y-16415D01*
X49624Y-16415D02*
X49532Y-16528D01*
X49532Y-16528D02*
X49419Y-16621D01*
X49419Y-16621D02*
X49290Y-16691D01*
X49290Y-16691D02*
X49150Y-16734D01*
X49150Y-16734D02*
X49005Y-16749D01*
X49005Y-16749D02*
X48860Y-16736D01*
X48860Y-16736D02*
X48720Y-16695D01*
X48720Y-16695D02*
X48590Y-16627D01*
X48590Y-16627D02*
X48476Y-16535D01*
X48476Y-16535D02*
X48382Y-16423D01*
X48382Y-16423D02*
X48311Y-16295D01*
X48311Y-16295D02*
X48267Y-16155D01*
X48267Y-16155D02*
X48251Y-16010D01*
X48251Y-16010D02*
X48263Y-15865D01*
X48263Y-15865D02*
X48303Y-15724D01*
X48303Y-15724D02*
X48370Y-15594D01*
X48370Y-15594D02*
X48461Y-15480D01*
X48461Y-15480D02*
X48572Y-15385D01*
X48572Y-15385D02*
X48700Y-15313D01*
X48700Y-15313D02*
X48839Y-15268D01*
X48839Y-15268D02*
X48985Y-15251D01*
X48985Y-15251D02*
X49130Y-15262D01*
X49130Y-15262D02*
X49271Y-15301D01*
X49271Y-15301D02*
X49401Y-15367D01*
X49401Y-15367D02*
X49517Y-15457D01*
X49517Y-15457D02*
X49612Y-15568D01*
X49612Y-15568D02*
X49685Y-15695D01*
X49685Y-15695D02*
X49731Y-15834D01*
X49731Y-15834D02*
X49749Y-15980D01*
X49749Y-15980D02*
X49750Y-16000D01*
X44250Y-16750D02*
X44250Y-15250D01*
X44250Y-15250D02*
X45750Y-15250D01*
X45750Y-15250D02*
X45750Y-16750D01*
X45750Y-16750D02*
X44250Y-16750D01*
X51750Y-16000D02*
X51735Y-16145D01*
X51735Y-16145D02*
X51693Y-16285D01*
X51693Y-16285D02*
X51624Y-16415D01*
X51624Y-16415D02*
X51532Y-16528D01*
X51532Y-16528D02*
X51419Y-16621D01*
X51419Y-16621D02*
X51290Y-16691D01*
X51290Y-16691D02*
X51150Y-16734D01*
X51150Y-16734D02*
X51005Y-16749D01*
X51005Y-16749D02*
X50860Y-16736D01*
X50860Y-16736D02*
X50720Y-16695D01*
X50720Y-16695D02*
X50590Y-16627D01*
X50590Y-16627D02*
X50476Y-16535D01*
X50476Y-16535D02*
X50382Y-16423D01*
X50382Y-16423D02*
X50311Y-16295D01*
X50311Y-16295D02*
X50267Y-16155D01*
X50267Y-16155D02*
X50251Y-16010D01*
X50251Y-16010D02*
X50263Y-15865D01*
X50263Y-15865D02*
X50303Y-15724D01*
X50303Y-15724D02*
X50370Y-15594D01*
X50370Y-15594D02*
X50461Y-15480D01*
X50461Y-15480D02*
X50572Y-15385D01*
X50572Y-15385D02*
X50700Y-15313D01*
X50700Y-15313D02*
X50839Y-15268D01*
X50839Y-15268D02*
X50985Y-15251D01*
X50985Y-15251D02*
X51130Y-15262D01*
X51130Y-15262D02*
X51271Y-15301D01*
X51271Y-15301D02*
X51401Y-15367D01*
X51401Y-15367D02*
X51517Y-15457D01*
X51517Y-15457D02*
X51612Y-15568D01*
X51612Y-15568D02*
X51685Y-15695D01*
X51685Y-15695D02*
X51731Y-15834D01*
X51731Y-15834D02*
X51749Y-15980D01*
X51749Y-15980D02*
X51750Y-16000D01*
X19330Y-16000D02*
X19323Y-16064D01*
X19323Y-16064D02*
X19305Y-16125D01*
X19305Y-16125D02*
X19274Y-16182D01*
X19274Y-16182D02*
X19234Y-16232D01*
X19234Y-16232D02*
X19184Y-16273D01*
X19184Y-16273D02*
X19127Y-16304D01*
X19127Y-16304D02*
X19066Y-16323D01*
X19066Y-16323D02*
X19002Y-16329D01*
X19002Y-16329D02*
X18939Y-16324D01*
X18939Y-16324D02*
X18877Y-16305D01*
X18877Y-16305D02*
X18820Y-16276D01*
X18820Y-16276D02*
X18770Y-16235D01*
X18770Y-16235D02*
X18728Y-16186D01*
X18728Y-16186D02*
X18697Y-16130D01*
X18697Y-16130D02*
X18678Y-16068D01*
X18678Y-16068D02*
X18671Y-16004D01*
X18671Y-16004D02*
X18676Y-15941D01*
X18676Y-15941D02*
X18694Y-15879D01*
X18694Y-15879D02*
X18723Y-15822D01*
X18723Y-15822D02*
X18763Y-15771D01*
X18763Y-15771D02*
X18812Y-15730D01*
X18812Y-15730D02*
X18868Y-15698D01*
X18868Y-15698D02*
X18930Y-15678D01*
X18930Y-15678D02*
X18994Y-15671D01*
X18994Y-15671D02*
X19057Y-15676D01*
X19057Y-15676D02*
X19119Y-15693D01*
X19119Y-15693D02*
X19176Y-15722D01*
X19176Y-15722D02*
X19227Y-15762D01*
X19227Y-15762D02*
X19269Y-15810D01*
X19269Y-15810D02*
X19301Y-15866D01*
X19301Y-15866D02*
X19321Y-15927D01*
X19321Y-15927D02*
X19329Y-15991D01*
X19329Y-15991D02*
X19330Y-16000D01*
X20330Y-16000D02*
X20323Y-16064D01*
X20323Y-16064D02*
X20305Y-16125D01*
X20305Y-16125D02*
X20274Y-16182D01*
X20274Y-16182D02*
X20234Y-16232D01*
X20234Y-16232D02*
X20184Y-16273D01*
X20184Y-16273D02*
X20127Y-16304D01*
X20127Y-16304D02*
X20066Y-16323D01*
X20066Y-16323D02*
X20002Y-16329D01*
X20002Y-16329D02*
X19939Y-16324D01*
X19939Y-16324D02*
X19877Y-16305D01*
X19877Y-16305D02*
X19820Y-16276D01*
X19820Y-16276D02*
X19770Y-16235D01*
X19770Y-16235D02*
X19728Y-16186D01*
X19728Y-16186D02*
X19697Y-16130D01*
X19697Y-16130D02*
X19678Y-16068D01*
X19678Y-16068D02*
X19671Y-16004D01*
X19671Y-16004D02*
X19676Y-15941D01*
X19676Y-15941D02*
X19694Y-15879D01*
X19694Y-15879D02*
X19723Y-15822D01*
X19723Y-15822D02*
X19763Y-15771D01*
X19763Y-15771D02*
X19812Y-15730D01*
X19812Y-15730D02*
X19868Y-15698D01*
X19868Y-15698D02*
X19930Y-15678D01*
X19930Y-15678D02*
X19994Y-15671D01*
X19994Y-15671D02*
X20057Y-15676D01*
X20057Y-15676D02*
X20119Y-15693D01*
X20119Y-15693D02*
X20176Y-15722D01*
X20176Y-15722D02*
X20227Y-15762D01*
X20227Y-15762D02*
X20269Y-15810D01*
X20269Y-15810D02*
X20301Y-15866D01*
X20301Y-15866D02*
X20321Y-15927D01*
X20321Y-15927D02*
X20329Y-15991D01*
X20329Y-15991D02*
X20330Y-16000D01*
X35800Y-42700D02*
X35800Y-43300D01*
X35800Y-43300D02*
X35200Y-43300D01*
X35200Y-43300D02*
X35200Y-42700D01*
X35200Y-42700D02*
X35800Y-42700D01*
X34800Y-43000D02*
X34794Y-43058D01*
X34794Y-43058D02*
X34777Y-43114D01*
X34777Y-43114D02*
X34749Y-43166D01*
X34749Y-43166D02*
X34712Y-43211D01*
X34712Y-43211D02*
X34667Y-43248D01*
X34667Y-43248D02*
X34616Y-43276D01*
X34616Y-43276D02*
X34560Y-43293D01*
X34560Y-43293D02*
X34502Y-43299D01*
X34502Y-43299D02*
X34444Y-43294D01*
X34444Y-43294D02*
X34388Y-43278D01*
X34388Y-43278D02*
X34336Y-43251D01*
X34336Y-43251D02*
X34291Y-43214D01*
X34291Y-43214D02*
X34253Y-43169D01*
X34253Y-43169D02*
X34225Y-43118D01*
X34225Y-43118D02*
X34207Y-43062D01*
X34207Y-43062D02*
X34201Y-43004D01*
X34201Y-43004D02*
X34205Y-42946D01*
X34205Y-42946D02*
X34222Y-42890D01*
X34222Y-42890D02*
X34248Y-42838D01*
X34248Y-42838D02*
X34285Y-42792D01*
X34285Y-42792D02*
X34329Y-42754D01*
X34329Y-42754D02*
X34380Y-42726D01*
X34380Y-42726D02*
X34436Y-42707D01*
X34436Y-42707D02*
X34494Y-42701D01*
X34494Y-42701D02*
X34552Y-42705D01*
X34552Y-42705D02*
X34608Y-42721D01*
X34608Y-42721D02*
X34660Y-42747D01*
X34660Y-42747D02*
X34706Y-42783D01*
X34706Y-42783D02*
X34745Y-42828D01*
X34745Y-42828D02*
X34774Y-42878D01*
X34774Y-42878D02*
X34792Y-42934D01*
X34792Y-42934D02*
X34799Y-42992D01*
X34799Y-42992D02*
X34800Y-43000D01*
X33800Y-43000D02*
X33794Y-43058D01*
X33794Y-43058D02*
X33777Y-43114D01*
X33777Y-43114D02*
X33749Y-43166D01*
X33749Y-43166D02*
X33712Y-43211D01*
X33712Y-43211D02*
X33667Y-43248D01*
X33667Y-43248D02*
X33616Y-43276D01*
X33616Y-43276D02*
X33560Y-43293D01*
X33560Y-43293D02*
X33502Y-43299D01*
X33502Y-43299D02*
X33444Y-43294D01*
X33444Y-43294D02*
X33388Y-43278D01*
X33388Y-43278D02*
X33336Y-43251D01*
X33336Y-43251D02*
X33291Y-43214D01*
X33291Y-43214D02*
X33253Y-43169D01*
X33253Y-43169D02*
X33225Y-43118D01*
X33225Y-43118D02*
X33207Y-43062D01*
X33207Y-43062D02*
X33201Y-43004D01*
X33201Y-43004D02*
X33205Y-42946D01*
X33205Y-42946D02*
X33222Y-42890D01*
X33222Y-42890D02*
X33248Y-42838D01*
X33248Y-42838D02*
X33285Y-42792D01*
X33285Y-42792D02*
X33329Y-42754D01*
X33329Y-42754D02*
X33380Y-42726D01*
X33380Y-42726D02*
X33436Y-42707D01*
X33436Y-42707D02*
X33494Y-42701D01*
X33494Y-42701D02*
X33552Y-42705D01*
X33552Y-42705D02*
X33608Y-42721D01*
X33608Y-42721D02*
X33660Y-42747D01*
X33660Y-42747D02*
X33706Y-42783D01*
X33706Y-42783D02*
X33745Y-42828D01*
X33745Y-42828D02*
X33774Y-42878D01*
X33774Y-42878D02*
X33792Y-42934D01*
X33792Y-42934D02*
X33799Y-42992D01*
X33799Y-42992D02*
X33800Y-43000D01*
X32800Y-43000D02*
X32794Y-43058D01*
X32794Y-43058D02*
X32777Y-43114D01*
X32777Y-43114D02*
X32749Y-43166D01*
X32749Y-43166D02*
X32712Y-43211D01*
X32712Y-43211D02*
X32667Y-43248D01*
X32667Y-43248D02*
X32616Y-43276D01*
X32616Y-43276D02*
X32560Y-43293D01*
X32560Y-43293D02*
X32502Y-43299D01*
X32502Y-43299D02*
X32444Y-43294D01*
X32444Y-43294D02*
X32388Y-43278D01*
X32388Y-43278D02*
X32336Y-43251D01*
X32336Y-43251D02*
X32291Y-43214D01*
X32291Y-43214D02*
X32253Y-43169D01*
X32253Y-43169D02*
X32225Y-43118D01*
X32225Y-43118D02*
X32207Y-43062D01*
X32207Y-43062D02*
X32201Y-43004D01*
X32201Y-43004D02*
X32205Y-42946D01*
X32205Y-42946D02*
X32222Y-42890D01*
X32222Y-42890D02*
X32248Y-42838D01*
X32248Y-42838D02*
X32285Y-42792D01*
X32285Y-42792D02*
X32329Y-42754D01*
X32329Y-42754D02*
X32380Y-42726D01*
X32380Y-42726D02*
X32436Y-42707D01*
X32436Y-42707D02*
X32494Y-42701D01*
X32494Y-42701D02*
X32552Y-42705D01*
X32552Y-42705D02*
X32608Y-42721D01*
X32608Y-42721D02*
X32660Y-42747D01*
X32660Y-42747D02*
X32706Y-42783D01*
X32706Y-42783D02*
X32745Y-42828D01*
X32745Y-42828D02*
X32774Y-42878D01*
X32774Y-42878D02*
X32792Y-42934D01*
X32792Y-42934D02*
X32799Y-42992D01*
X32799Y-42992D02*
X32800Y-43000D01*
X31800Y-43000D02*
X31794Y-43058D01*
X31794Y-43058D02*
X31777Y-43114D01*
X31777Y-43114D02*
X31749Y-43166D01*
X31749Y-43166D02*
X31712Y-43211D01*
X31712Y-43211D02*
X31667Y-43248D01*
X31667Y-43248D02*
X31616Y-43276D01*
X31616Y-43276D02*
X31560Y-43293D01*
X31560Y-43293D02*
X31502Y-43299D01*
X31502Y-43299D02*
X31444Y-43294D01*
X31444Y-43294D02*
X31388Y-43278D01*
X31388Y-43278D02*
X31336Y-43251D01*
X31336Y-43251D02*
X31291Y-43214D01*
X31291Y-43214D02*
X31253Y-43169D01*
X31253Y-43169D02*
X31225Y-43118D01*
X31225Y-43118D02*
X31207Y-43062D01*
X31207Y-43062D02*
X31201Y-43004D01*
X31201Y-43004D02*
X31205Y-42946D01*
X31205Y-42946D02*
X31222Y-42890D01*
X31222Y-42890D02*
X31248Y-42838D01*
X31248Y-42838D02*
X31285Y-42792D01*
X31285Y-42792D02*
X31329Y-42754D01*
X31329Y-42754D02*
X31380Y-42726D01*
X31380Y-42726D02*
X31436Y-42707D01*
X31436Y-42707D02*
X31494Y-42701D01*
X31494Y-42701D02*
X31552Y-42705D01*
X31552Y-42705D02*
X31608Y-42721D01*
X31608Y-42721D02*
X31660Y-42747D01*
X31660Y-42747D02*
X31706Y-42783D01*
X31706Y-42783D02*
X31745Y-42828D01*
X31745Y-42828D02*
X31774Y-42878D01*
X31774Y-42878D02*
X31792Y-42934D01*
X31792Y-42934D02*
X31799Y-42992D01*
X31799Y-42992D02*
X31800Y-43000D01*
X30800Y-43000D02*
X30794Y-43058D01*
X30794Y-43058D02*
X30777Y-43114D01*
X30777Y-43114D02*
X30749Y-43166D01*
X30749Y-43166D02*
X30712Y-43211D01*
X30712Y-43211D02*
X30667Y-43248D01*
X30667Y-43248D02*
X30616Y-43276D01*
X30616Y-43276D02*
X30560Y-43293D01*
X30560Y-43293D02*
X30502Y-43299D01*
X30502Y-43299D02*
X30444Y-43294D01*
X30444Y-43294D02*
X30388Y-43278D01*
X30388Y-43278D02*
X30336Y-43251D01*
X30336Y-43251D02*
X30291Y-43214D01*
X30291Y-43214D02*
X30253Y-43169D01*
X30253Y-43169D02*
X30225Y-43118D01*
X30225Y-43118D02*
X30207Y-43062D01*
X30207Y-43062D02*
X30201Y-43004D01*
X30201Y-43004D02*
X30205Y-42946D01*
X30205Y-42946D02*
X30222Y-42890D01*
X30222Y-42890D02*
X30248Y-42838D01*
X30248Y-42838D02*
X30285Y-42792D01*
X30285Y-42792D02*
X30329Y-42754D01*
X30329Y-42754D02*
X30380Y-42726D01*
X30380Y-42726D02*
X30436Y-42707D01*
X30436Y-42707D02*
X30494Y-42701D01*
X30494Y-42701D02*
X30552Y-42705D01*
X30552Y-42705D02*
X30608Y-42721D01*
X30608Y-42721D02*
X30660Y-42747D01*
X30660Y-42747D02*
X30706Y-42783D01*
X30706Y-42783D02*
X30745Y-42828D01*
X30745Y-42828D02*
X30774Y-42878D01*
X30774Y-42878D02*
X30792Y-42934D01*
X30792Y-42934D02*
X30799Y-42992D01*
X30799Y-42992D02*
X30800Y-43000D01*
X29800Y-43000D02*
X29794Y-43058D01*
X29794Y-43058D02*
X29777Y-43114D01*
X29777Y-43114D02*
X29749Y-43166D01*
X29749Y-43166D02*
X29712Y-43211D01*
X29712Y-43211D02*
X29667Y-43248D01*
X29667Y-43248D02*
X29616Y-43276D01*
X29616Y-43276D02*
X29560Y-43293D01*
X29560Y-43293D02*
X29502Y-43299D01*
X29502Y-43299D02*
X29444Y-43294D01*
X29444Y-43294D02*
X29388Y-43278D01*
X29388Y-43278D02*
X29336Y-43251D01*
X29336Y-43251D02*
X29291Y-43214D01*
X29291Y-43214D02*
X29253Y-43169D01*
X29253Y-43169D02*
X29225Y-43118D01*
X29225Y-43118D02*
X29207Y-43062D01*
X29207Y-43062D02*
X29201Y-43004D01*
X29201Y-43004D02*
X29205Y-42946D01*
X29205Y-42946D02*
X29222Y-42890D01*
X29222Y-42890D02*
X29248Y-42838D01*
X29248Y-42838D02*
X29285Y-42792D01*
X29285Y-42792D02*
X29329Y-42754D01*
X29329Y-42754D02*
X29380Y-42726D01*
X29380Y-42726D02*
X29436Y-42707D01*
X29436Y-42707D02*
X29494Y-42701D01*
X29494Y-42701D02*
X29552Y-42705D01*
X29552Y-42705D02*
X29608Y-42721D01*
X29608Y-42721D02*
X29660Y-42747D01*
X29660Y-42747D02*
X29706Y-42783D01*
X29706Y-42783D02*
X29745Y-42828D01*
X29745Y-42828D02*
X29774Y-42878D01*
X29774Y-42878D02*
X29792Y-42934D01*
X29792Y-42934D02*
X29799Y-42992D01*
X29799Y-42992D02*
X29800Y-43000D01*
X28800Y-43000D02*
X28794Y-43058D01*
X28794Y-43058D02*
X28777Y-43114D01*
X28777Y-43114D02*
X28749Y-43166D01*
X28749Y-43166D02*
X28712Y-43211D01*
X28712Y-43211D02*
X28667Y-43248D01*
X28667Y-43248D02*
X28616Y-43276D01*
X28616Y-43276D02*
X28560Y-43293D01*
X28560Y-43293D02*
X28502Y-43299D01*
X28502Y-43299D02*
X28444Y-43294D01*
X28444Y-43294D02*
X28388Y-43278D01*
X28388Y-43278D02*
X28336Y-43251D01*
X28336Y-43251D02*
X28291Y-43214D01*
X28291Y-43214D02*
X28253Y-43169D01*
X28253Y-43169D02*
X28225Y-43118D01*
X28225Y-43118D02*
X28207Y-43062D01*
X28207Y-43062D02*
X28201Y-43004D01*
X28201Y-43004D02*
X28205Y-42946D01*
X28205Y-42946D02*
X28222Y-42890D01*
X28222Y-42890D02*
X28248Y-42838D01*
X28248Y-42838D02*
X28285Y-42792D01*
X28285Y-42792D02*
X28329Y-42754D01*
X28329Y-42754D02*
X28380Y-42726D01*
X28380Y-42726D02*
X28436Y-42707D01*
X28436Y-42707D02*
X28494Y-42701D01*
X28494Y-42701D02*
X28552Y-42705D01*
X28552Y-42705D02*
X28608Y-42721D01*
X28608Y-42721D02*
X28660Y-42747D01*
X28660Y-42747D02*
X28706Y-42783D01*
X28706Y-42783D02*
X28745Y-42828D01*
X28745Y-42828D02*
X28774Y-42878D01*
X28774Y-42878D02*
X28792Y-42934D01*
X28792Y-42934D02*
X28799Y-42992D01*
X28799Y-42992D02*
X28800Y-43000D01*
X27800Y-43000D02*
X27794Y-43058D01*
X27794Y-43058D02*
X27777Y-43114D01*
X27777Y-43114D02*
X27749Y-43166D01*
X27749Y-43166D02*
X27712Y-43211D01*
X27712Y-43211D02*
X27667Y-43248D01*
X27667Y-43248D02*
X27616Y-43276D01*
X27616Y-43276D02*
X27560Y-43293D01*
X27560Y-43293D02*
X27502Y-43299D01*
X27502Y-43299D02*
X27444Y-43294D01*
X27444Y-43294D02*
X27388Y-43278D01*
X27388Y-43278D02*
X27336Y-43251D01*
X27336Y-43251D02*
X27291Y-43214D01*
X27291Y-43214D02*
X27253Y-43169D01*
X27253Y-43169D02*
X27225Y-43118D01*
X27225Y-43118D02*
X27207Y-43062D01*
X27207Y-43062D02*
X27201Y-43004D01*
X27201Y-43004D02*
X27205Y-42946D01*
X27205Y-42946D02*
X27222Y-42890D01*
X27222Y-42890D02*
X27248Y-42838D01*
X27248Y-42838D02*
X27285Y-42792D01*
X27285Y-42792D02*
X27329Y-42754D01*
X27329Y-42754D02*
X27380Y-42726D01*
X27380Y-42726D02*
X27436Y-42707D01*
X27436Y-42707D02*
X27494Y-42701D01*
X27494Y-42701D02*
X27552Y-42705D01*
X27552Y-42705D02*
X27608Y-42721D01*
X27608Y-42721D02*
X27660Y-42747D01*
X27660Y-42747D02*
X27706Y-42783D01*
X27706Y-42783D02*
X27745Y-42828D01*
X27745Y-42828D02*
X27774Y-42878D01*
X27774Y-42878D02*
X27792Y-42934D01*
X27792Y-42934D02*
X27799Y-42992D01*
X27799Y-42992D02*
X27800Y-43000D01*
X26800Y-43000D02*
X26794Y-43058D01*
X26794Y-43058D02*
X26777Y-43114D01*
X26777Y-43114D02*
X26749Y-43166D01*
X26749Y-43166D02*
X26712Y-43211D01*
X26712Y-43211D02*
X26667Y-43248D01*
X26667Y-43248D02*
X26616Y-43276D01*
X26616Y-43276D02*
X26560Y-43293D01*
X26560Y-43293D02*
X26502Y-43299D01*
X26502Y-43299D02*
X26444Y-43294D01*
X26444Y-43294D02*
X26388Y-43278D01*
X26388Y-43278D02*
X26336Y-43251D01*
X26336Y-43251D02*
X26291Y-43214D01*
X26291Y-43214D02*
X26253Y-43169D01*
X26253Y-43169D02*
X26225Y-43118D01*
X26225Y-43118D02*
X26207Y-43062D01*
X26207Y-43062D02*
X26201Y-43004D01*
X26201Y-43004D02*
X26205Y-42946D01*
X26205Y-42946D02*
X26222Y-42890D01*
X26222Y-42890D02*
X26248Y-42838D01*
X26248Y-42838D02*
X26285Y-42792D01*
X26285Y-42792D02*
X26329Y-42754D01*
X26329Y-42754D02*
X26380Y-42726D01*
X26380Y-42726D02*
X26436Y-42707D01*
X26436Y-42707D02*
X26494Y-42701D01*
X26494Y-42701D02*
X26552Y-42705D01*
X26552Y-42705D02*
X26608Y-42721D01*
X26608Y-42721D02*
X26660Y-42747D01*
X26660Y-42747D02*
X26706Y-42783D01*
X26706Y-42783D02*
X26745Y-42828D01*
X26745Y-42828D02*
X26774Y-42878D01*
X26774Y-42878D02*
X26792Y-42934D01*
X26792Y-42934D02*
X26799Y-42992D01*
X26799Y-42992D02*
X26800Y-43000D01*
X25800Y-43000D02*
X25794Y-43058D01*
X25794Y-43058D02*
X25777Y-43114D01*
X25777Y-43114D02*
X25749Y-43166D01*
X25749Y-43166D02*
X25712Y-43211D01*
X25712Y-43211D02*
X25667Y-43248D01*
X25667Y-43248D02*
X25616Y-43276D01*
X25616Y-43276D02*
X25560Y-43293D01*
X25560Y-43293D02*
X25502Y-43299D01*
X25502Y-43299D02*
X25444Y-43294D01*
X25444Y-43294D02*
X25388Y-43278D01*
X25388Y-43278D02*
X25336Y-43251D01*
X25336Y-43251D02*
X25291Y-43214D01*
X25291Y-43214D02*
X25253Y-43169D01*
X25253Y-43169D02*
X25225Y-43118D01*
X25225Y-43118D02*
X25207Y-43062D01*
X25207Y-43062D02*
X25201Y-43004D01*
X25201Y-43004D02*
X25205Y-42946D01*
X25205Y-42946D02*
X25222Y-42890D01*
X25222Y-42890D02*
X25248Y-42838D01*
X25248Y-42838D02*
X25285Y-42792D01*
X25285Y-42792D02*
X25329Y-42754D01*
X25329Y-42754D02*
X25380Y-42726D01*
X25380Y-42726D02*
X25436Y-42707D01*
X25436Y-42707D02*
X25494Y-42701D01*
X25494Y-42701D02*
X25552Y-42705D01*
X25552Y-42705D02*
X25608Y-42721D01*
X25608Y-42721D02*
X25660Y-42747D01*
X25660Y-42747D02*
X25706Y-42783D01*
X25706Y-42783D02*
X25745Y-42828D01*
X25745Y-42828D02*
X25774Y-42878D01*
X25774Y-42878D02*
X25792Y-42934D01*
X25792Y-42934D02*
X25799Y-42992D01*
X25799Y-42992D02*
X25800Y-43000D01*
X24800Y-43000D02*
X24794Y-43058D01*
X24794Y-43058D02*
X24777Y-43114D01*
X24777Y-43114D02*
X24749Y-43166D01*
X24749Y-43166D02*
X24712Y-43211D01*
X24712Y-43211D02*
X24667Y-43248D01*
X24667Y-43248D02*
X24616Y-43276D01*
X24616Y-43276D02*
X24560Y-43293D01*
X24560Y-43293D02*
X24502Y-43299D01*
X24502Y-43299D02*
X24444Y-43294D01*
X24444Y-43294D02*
X24388Y-43278D01*
X24388Y-43278D02*
X24336Y-43251D01*
X24336Y-43251D02*
X24291Y-43214D01*
X24291Y-43214D02*
X24253Y-43169D01*
X24253Y-43169D02*
X24225Y-43118D01*
X24225Y-43118D02*
X24207Y-43062D01*
X24207Y-43062D02*
X24201Y-43004D01*
X24201Y-43004D02*
X24205Y-42946D01*
X24205Y-42946D02*
X24222Y-42890D01*
X24222Y-42890D02*
X24248Y-42838D01*
X24248Y-42838D02*
X24285Y-42792D01*
X24285Y-42792D02*
X24329Y-42754D01*
X24329Y-42754D02*
X24380Y-42726D01*
X24380Y-42726D02*
X24436Y-42707D01*
X24436Y-42707D02*
X24494Y-42701D01*
X24494Y-42701D02*
X24552Y-42705D01*
X24552Y-42705D02*
X24608Y-42721D01*
X24608Y-42721D02*
X24660Y-42747D01*
X24660Y-42747D02*
X24706Y-42783D01*
X24706Y-42783D02*
X24745Y-42828D01*
X24745Y-42828D02*
X24774Y-42878D01*
X24774Y-42878D02*
X24792Y-42934D01*
X24792Y-42934D02*
X24799Y-42992D01*
X24799Y-42992D02*
X24800Y-43000D01*
X23800Y-43000D02*
X23794Y-43058D01*
X23794Y-43058D02*
X23777Y-43114D01*
X23777Y-43114D02*
X23749Y-43166D01*
X23749Y-43166D02*
X23712Y-43211D01*
X23712Y-43211D02*
X23667Y-43248D01*
X23667Y-43248D02*
X23616Y-43276D01*
X23616Y-43276D02*
X23560Y-43293D01*
X23560Y-43293D02*
X23502Y-43299D01*
X23502Y-43299D02*
X23444Y-43294D01*
X23444Y-43294D02*
X23388Y-43278D01*
X23388Y-43278D02*
X23336Y-43251D01*
X23336Y-43251D02*
X23291Y-43214D01*
X23291Y-43214D02*
X23253Y-43169D01*
X23253Y-43169D02*
X23225Y-43118D01*
X23225Y-43118D02*
X23207Y-43062D01*
X23207Y-43062D02*
X23201Y-43004D01*
X23201Y-43004D02*
X23205Y-42946D01*
X23205Y-42946D02*
X23222Y-42890D01*
X23222Y-42890D02*
X23248Y-42838D01*
X23248Y-42838D02*
X23285Y-42792D01*
X23285Y-42792D02*
X23329Y-42754D01*
X23329Y-42754D02*
X23380Y-42726D01*
X23380Y-42726D02*
X23436Y-42707D01*
X23436Y-42707D02*
X23494Y-42701D01*
X23494Y-42701D02*
X23552Y-42705D01*
X23552Y-42705D02*
X23608Y-42721D01*
X23608Y-42721D02*
X23660Y-42747D01*
X23660Y-42747D02*
X23706Y-42783D01*
X23706Y-42783D02*
X23745Y-42828D01*
X23745Y-42828D02*
X23774Y-42878D01*
X23774Y-42878D02*
X23792Y-42934D01*
X23792Y-42934D02*
X23799Y-42992D01*
X23799Y-42992D02*
X23800Y-43000D01*
X22800Y-43000D02*
X22794Y-43058D01*
X22794Y-43058D02*
X22777Y-43114D01*
X22777Y-43114D02*
X22749Y-43166D01*
X22749Y-43166D02*
X22712Y-43211D01*
X22712Y-43211D02*
X22667Y-43248D01*
X22667Y-43248D02*
X22616Y-43276D01*
X22616Y-43276D02*
X22560Y-43293D01*
X22560Y-43293D02*
X22502Y-43299D01*
X22502Y-43299D02*
X22444Y-43294D01*
X22444Y-43294D02*
X22388Y-43278D01*
X22388Y-43278D02*
X22336Y-43251D01*
X22336Y-43251D02*
X22291Y-43214D01*
X22291Y-43214D02*
X22253Y-43169D01*
X22253Y-43169D02*
X22225Y-43118D01*
X22225Y-43118D02*
X22207Y-43062D01*
X22207Y-43062D02*
X22201Y-43004D01*
X22201Y-43004D02*
X22205Y-42946D01*
X22205Y-42946D02*
X22222Y-42890D01*
X22222Y-42890D02*
X22248Y-42838D01*
X22248Y-42838D02*
X22285Y-42792D01*
X22285Y-42792D02*
X22329Y-42754D01*
X22329Y-42754D02*
X22380Y-42726D01*
X22380Y-42726D02*
X22436Y-42707D01*
X22436Y-42707D02*
X22494Y-42701D01*
X22494Y-42701D02*
X22552Y-42705D01*
X22552Y-42705D02*
X22608Y-42721D01*
X22608Y-42721D02*
X22660Y-42747D01*
X22660Y-42747D02*
X22706Y-42783D01*
X22706Y-42783D02*
X22745Y-42828D01*
X22745Y-42828D02*
X22774Y-42878D01*
X22774Y-42878D02*
X22792Y-42934D01*
X22792Y-42934D02*
X22799Y-42992D01*
X22799Y-42992D02*
X22800Y-43000D01*
X21800Y-43000D02*
X21794Y-43058D01*
X21794Y-43058D02*
X21777Y-43114D01*
X21777Y-43114D02*
X21749Y-43166D01*
X21749Y-43166D02*
X21712Y-43211D01*
X21712Y-43211D02*
X21667Y-43248D01*
X21667Y-43248D02*
X21616Y-43276D01*
X21616Y-43276D02*
X21560Y-43293D01*
X21560Y-43293D02*
X21502Y-43299D01*
X21502Y-43299D02*
X21444Y-43294D01*
X21444Y-43294D02*
X21388Y-43278D01*
X21388Y-43278D02*
X21336Y-43251D01*
X21336Y-43251D02*
X21291Y-43214D01*
X21291Y-43214D02*
X21253Y-43169D01*
X21253Y-43169D02*
X21225Y-43118D01*
X21225Y-43118D02*
X21207Y-43062D01*
X21207Y-43062D02*
X21201Y-43004D01*
X21201Y-43004D02*
X21205Y-42946D01*
X21205Y-42946D02*
X21222Y-42890D01*
X21222Y-42890D02*
X21248Y-42838D01*
X21248Y-42838D02*
X21285Y-42792D01*
X21285Y-42792D02*
X21329Y-42754D01*
X21329Y-42754D02*
X21380Y-42726D01*
X21380Y-42726D02*
X21436Y-42707D01*
X21436Y-42707D02*
X21494Y-42701D01*
X21494Y-42701D02*
X21552Y-42705D01*
X21552Y-42705D02*
X21608Y-42721D01*
X21608Y-42721D02*
X21660Y-42747D01*
X21660Y-42747D02*
X21706Y-42783D01*
X21706Y-42783D02*
X21745Y-42828D01*
X21745Y-42828D02*
X21774Y-42878D01*
X21774Y-42878D02*
X21792Y-42934D01*
X21792Y-42934D02*
X21799Y-42992D01*
X21799Y-42992D02*
X21800Y-43000D01*
X20800Y-43000D02*
X20794Y-43058D01*
X20794Y-43058D02*
X20777Y-43114D01*
X20777Y-43114D02*
X20749Y-43166D01*
X20749Y-43166D02*
X20712Y-43211D01*
X20712Y-43211D02*
X20667Y-43248D01*
X20667Y-43248D02*
X20616Y-43276D01*
X20616Y-43276D02*
X20560Y-43293D01*
X20560Y-43293D02*
X20502Y-43299D01*
X20502Y-43299D02*
X20444Y-43294D01*
X20444Y-43294D02*
X20388Y-43278D01*
X20388Y-43278D02*
X20336Y-43251D01*
X20336Y-43251D02*
X20291Y-43214D01*
X20291Y-43214D02*
X20253Y-43169D01*
X20253Y-43169D02*
X20225Y-43118D01*
X20225Y-43118D02*
X20207Y-43062D01*
X20207Y-43062D02*
X20201Y-43004D01*
X20201Y-43004D02*
X20205Y-42946D01*
X20205Y-42946D02*
X20222Y-42890D01*
X20222Y-42890D02*
X20248Y-42838D01*
X20248Y-42838D02*
X20285Y-42792D01*
X20285Y-42792D02*
X20329Y-42754D01*
X20329Y-42754D02*
X20380Y-42726D01*
X20380Y-42726D02*
X20436Y-42707D01*
X20436Y-42707D02*
X20494Y-42701D01*
X20494Y-42701D02*
X20552Y-42705D01*
X20552Y-42705D02*
X20608Y-42721D01*
X20608Y-42721D02*
X20660Y-42747D01*
X20660Y-42747D02*
X20706Y-42783D01*
X20706Y-42783D02*
X20745Y-42828D01*
X20745Y-42828D02*
X20774Y-42878D01*
X20774Y-42878D02*
X20792Y-42934D01*
X20792Y-42934D02*
X20799Y-42992D01*
X20799Y-42992D02*
X20800Y-43000D01*
X41700Y-42800D02*
X41700Y-42200D01*
X41700Y-42200D02*
X42300Y-42200D01*
X42300Y-42200D02*
X42300Y-42800D01*
X42300Y-42800D02*
X41700Y-42800D01*
X43300Y-42500D02*
X43294Y-42558D01*
X43294Y-42558D02*
X43277Y-42614D01*
X43277Y-42614D02*
X43249Y-42666D01*
X43249Y-42666D02*
X43212Y-42711D01*
X43212Y-42711D02*
X43167Y-42748D01*
X43167Y-42748D02*
X43116Y-42776D01*
X43116Y-42776D02*
X43060Y-42793D01*
X43060Y-42793D02*
X43002Y-42799D01*
X43002Y-42799D02*
X42944Y-42794D01*
X42944Y-42794D02*
X42888Y-42778D01*
X42888Y-42778D02*
X42836Y-42751D01*
X42836Y-42751D02*
X42791Y-42714D01*
X42791Y-42714D02*
X42753Y-42669D01*
X42753Y-42669D02*
X42725Y-42618D01*
X42725Y-42618D02*
X42707Y-42562D01*
X42707Y-42562D02*
X42701Y-42504D01*
X42701Y-42504D02*
X42705Y-42446D01*
X42705Y-42446D02*
X42722Y-42390D01*
X42722Y-42390D02*
X42748Y-42338D01*
X42748Y-42338D02*
X42785Y-42292D01*
X42785Y-42292D02*
X42829Y-42254D01*
X42829Y-42254D02*
X42880Y-42226D01*
X42880Y-42226D02*
X42936Y-42207D01*
X42936Y-42207D02*
X42994Y-42201D01*
X42994Y-42201D02*
X43052Y-42205D01*
X43052Y-42205D02*
X43108Y-42221D01*
X43108Y-42221D02*
X43160Y-42247D01*
X43160Y-42247D02*
X43206Y-42283D01*
X43206Y-42283D02*
X43245Y-42328D01*
X43245Y-42328D02*
X43274Y-42378D01*
X43274Y-42378D02*
X43292Y-42434D01*
X43292Y-42434D02*
X43299Y-42492D01*
X43299Y-42492D02*
X43300Y-42500D01*
X44300Y-42500D02*
X44294Y-42558D01*
X44294Y-42558D02*
X44277Y-42614D01*
X44277Y-42614D02*
X44249Y-42666D01*
X44249Y-42666D02*
X44212Y-42711D01*
X44212Y-42711D02*
X44167Y-42748D01*
X44167Y-42748D02*
X44116Y-42776D01*
X44116Y-42776D02*
X44060Y-42793D01*
X44060Y-42793D02*
X44002Y-42799D01*
X44002Y-42799D02*
X43944Y-42794D01*
X43944Y-42794D02*
X43888Y-42778D01*
X43888Y-42778D02*
X43836Y-42751D01*
X43836Y-42751D02*
X43791Y-42714D01*
X43791Y-42714D02*
X43753Y-42669D01*
X43753Y-42669D02*
X43725Y-42618D01*
X43725Y-42618D02*
X43707Y-42562D01*
X43707Y-42562D02*
X43701Y-42504D01*
X43701Y-42504D02*
X43705Y-42446D01*
X43705Y-42446D02*
X43722Y-42390D01*
X43722Y-42390D02*
X43748Y-42338D01*
X43748Y-42338D02*
X43785Y-42292D01*
X43785Y-42292D02*
X43829Y-42254D01*
X43829Y-42254D02*
X43880Y-42226D01*
X43880Y-42226D02*
X43936Y-42207D01*
X43936Y-42207D02*
X43994Y-42201D01*
X43994Y-42201D02*
X44052Y-42205D01*
X44052Y-42205D02*
X44108Y-42221D01*
X44108Y-42221D02*
X44160Y-42247D01*
X44160Y-42247D02*
X44206Y-42283D01*
X44206Y-42283D02*
X44245Y-42328D01*
X44245Y-42328D02*
X44274Y-42378D01*
X44274Y-42378D02*
X44292Y-42434D01*
X44292Y-42434D02*
X44299Y-42492D01*
X44299Y-42492D02*
X44300Y-42500D01*
X38800Y-44300D02*
X38200Y-44300D01*
X38200Y-44300D02*
X38200Y-43700D01*
X38200Y-43700D02*
X38800Y-43700D01*
X38800Y-43700D02*
X38800Y-44300D01*
X38800Y-43000D02*
X38794Y-43058D01*
X38794Y-43058D02*
X38777Y-43114D01*
X38777Y-43114D02*
X38749Y-43166D01*
X38749Y-43166D02*
X38712Y-43211D01*
X38712Y-43211D02*
X38667Y-43248D01*
X38667Y-43248D02*
X38616Y-43276D01*
X38616Y-43276D02*
X38560Y-43293D01*
X38560Y-43293D02*
X38502Y-43299D01*
X38502Y-43299D02*
X38444Y-43294D01*
X38444Y-43294D02*
X38388Y-43278D01*
X38388Y-43278D02*
X38336Y-43251D01*
X38336Y-43251D02*
X38291Y-43214D01*
X38291Y-43214D02*
X38253Y-43169D01*
X38253Y-43169D02*
X38225Y-43118D01*
X38225Y-43118D02*
X38207Y-43062D01*
X38207Y-43062D02*
X38201Y-43004D01*
X38201Y-43004D02*
X38205Y-42946D01*
X38205Y-42946D02*
X38222Y-42890D01*
X38222Y-42890D02*
X38248Y-42838D01*
X38248Y-42838D02*
X38285Y-42792D01*
X38285Y-42792D02*
X38329Y-42754D01*
X38329Y-42754D02*
X38380Y-42726D01*
X38380Y-42726D02*
X38436Y-42707D01*
X38436Y-42707D02*
X38494Y-42701D01*
X38494Y-42701D02*
X38552Y-42705D01*
X38552Y-42705D02*
X38608Y-42721D01*
X38608Y-42721D02*
X38660Y-42747D01*
X38660Y-42747D02*
X38706Y-42783D01*
X38706Y-42783D02*
X38745Y-42828D01*
X38745Y-42828D02*
X38774Y-42878D01*
X38774Y-42878D02*
X38792Y-42934D01*
X38792Y-42934D02*
X38799Y-42992D01*
X38799Y-42992D02*
X38800Y-43000D01*
X38800Y-42000D02*
X38794Y-42058D01*
X38794Y-42058D02*
X38777Y-42114D01*
X38777Y-42114D02*
X38749Y-42166D01*
X38749Y-42166D02*
X38712Y-42211D01*
X38712Y-42211D02*
X38667Y-42248D01*
X38667Y-42248D02*
X38616Y-42276D01*
X38616Y-42276D02*
X38560Y-42293D01*
X38560Y-42293D02*
X38502Y-42299D01*
X38502Y-42299D02*
X38444Y-42294D01*
X38444Y-42294D02*
X38388Y-42278D01*
X38388Y-42278D02*
X38336Y-42251D01*
X38336Y-42251D02*
X38291Y-42214D01*
X38291Y-42214D02*
X38253Y-42169D01*
X38253Y-42169D02*
X38225Y-42118D01*
X38225Y-42118D02*
X38207Y-42062D01*
X38207Y-42062D02*
X38201Y-42004D01*
X38201Y-42004D02*
X38205Y-41946D01*
X38205Y-41946D02*
X38222Y-41890D01*
X38222Y-41890D02*
X38248Y-41838D01*
X38248Y-41838D02*
X38285Y-41792D01*
X38285Y-41792D02*
X38329Y-41754D01*
X38329Y-41754D02*
X38380Y-41726D01*
X38380Y-41726D02*
X38436Y-41707D01*
X38436Y-41707D02*
X38494Y-41701D01*
X38494Y-41701D02*
X38552Y-41705D01*
X38552Y-41705D02*
X38608Y-41721D01*
X38608Y-41721D02*
X38660Y-41747D01*
X38660Y-41747D02*
X38706Y-41783D01*
X38706Y-41783D02*
X38745Y-41828D01*
X38745Y-41828D02*
X38774Y-41878D01*
X38774Y-41878D02*
X38792Y-41934D01*
X38792Y-41934D02*
X38799Y-41992D01*
X38799Y-41992D02*
X38800Y-42000D01*
X50700Y-42800D02*
X50700Y-42200D01*
X50700Y-42200D02*
X51300Y-42200D01*
X51300Y-42200D02*
X51300Y-42800D01*
X51300Y-42800D02*
X50700Y-42800D01*
X52300Y-42500D02*
X52294Y-42558D01*
X52294Y-42558D02*
X52277Y-42614D01*
X52277Y-42614D02*
X52249Y-42666D01*
X52249Y-42666D02*
X52212Y-42711D01*
X52212Y-42711D02*
X52167Y-42748D01*
X52167Y-42748D02*
X52116Y-42776D01*
X52116Y-42776D02*
X52060Y-42793D01*
X52060Y-42793D02*
X52002Y-42799D01*
X52002Y-42799D02*
X51944Y-42794D01*
X51944Y-42794D02*
X51888Y-42778D01*
X51888Y-42778D02*
X51836Y-42751D01*
X51836Y-42751D02*
X51791Y-42714D01*
X51791Y-42714D02*
X51753Y-42669D01*
X51753Y-42669D02*
X51725Y-42618D01*
X51725Y-42618D02*
X51707Y-42562D01*
X51707Y-42562D02*
X51701Y-42504D01*
X51701Y-42504D02*
X51705Y-42446D01*
X51705Y-42446D02*
X51722Y-42390D01*
X51722Y-42390D02*
X51748Y-42338D01*
X51748Y-42338D02*
X51785Y-42292D01*
X51785Y-42292D02*
X51829Y-42254D01*
X51829Y-42254D02*
X51880Y-42226D01*
X51880Y-42226D02*
X51936Y-42207D01*
X51936Y-42207D02*
X51994Y-42201D01*
X51994Y-42201D02*
X52052Y-42205D01*
X52052Y-42205D02*
X52108Y-42221D01*
X52108Y-42221D02*
X52160Y-42247D01*
X52160Y-42247D02*
X52206Y-42283D01*
X52206Y-42283D02*
X52245Y-42328D01*
X52245Y-42328D02*
X52274Y-42378D01*
X52274Y-42378D02*
X52292Y-42434D01*
X52292Y-42434D02*
X52299Y-42492D01*
X52299Y-42492D02*
X52300Y-42500D01*
X53300Y-42500D02*
X53294Y-42558D01*
X53294Y-42558D02*
X53277Y-42614D01*
X53277Y-42614D02*
X53249Y-42666D01*
X53249Y-42666D02*
X53212Y-42711D01*
X53212Y-42711D02*
X53167Y-42748D01*
X53167Y-42748D02*
X53116Y-42776D01*
X53116Y-42776D02*
X53060Y-42793D01*
X53060Y-42793D02*
X53002Y-42799D01*
X53002Y-42799D02*
X52944Y-42794D01*
X52944Y-42794D02*
X52888Y-42778D01*
X52888Y-42778D02*
X52836Y-42751D01*
X52836Y-42751D02*
X52791Y-42714D01*
X52791Y-42714D02*
X52753Y-42669D01*
X52753Y-42669D02*
X52725Y-42618D01*
X52725Y-42618D02*
X52707Y-42562D01*
X52707Y-42562D02*
X52701Y-42504D01*
X52701Y-42504D02*
X52705Y-42446D01*
X52705Y-42446D02*
X52722Y-42390D01*
X52722Y-42390D02*
X52748Y-42338D01*
X52748Y-42338D02*
X52785Y-42292D01*
X52785Y-42292D02*
X52829Y-42254D01*
X52829Y-42254D02*
X52880Y-42226D01*
X52880Y-42226D02*
X52936Y-42207D01*
X52936Y-42207D02*
X52994Y-42201D01*
X52994Y-42201D02*
X53052Y-42205D01*
X53052Y-42205D02*
X53108Y-42221D01*
X53108Y-42221D02*
X53160Y-42247D01*
X53160Y-42247D02*
X53206Y-42283D01*
X53206Y-42283D02*
X53245Y-42328D01*
X53245Y-42328D02*
X53274Y-42378D01*
X53274Y-42378D02*
X53292Y-42434D01*
X53292Y-42434D02*
X53299Y-42492D01*
X53299Y-42492D02*
X53300Y-42500D01*
X54300Y-42500D02*
X54294Y-42558D01*
X54294Y-42558D02*
X54277Y-42614D01*
X54277Y-42614D02*
X54249Y-42666D01*
X54249Y-42666D02*
X54212Y-42711D01*
X54212Y-42711D02*
X54167Y-42748D01*
X54167Y-42748D02*
X54116Y-42776D01*
X54116Y-42776D02*
X54060Y-42793D01*
X54060Y-42793D02*
X54002Y-42799D01*
X54002Y-42799D02*
X53944Y-42794D01*
X53944Y-42794D02*
X53888Y-42778D01*
X53888Y-42778D02*
X53836Y-42751D01*
X53836Y-42751D02*
X53791Y-42714D01*
X53791Y-42714D02*
X53753Y-42669D01*
X53753Y-42669D02*
X53725Y-42618D01*
X53725Y-42618D02*
X53707Y-42562D01*
X53707Y-42562D02*
X53701Y-42504D01*
X53701Y-42504D02*
X53705Y-42446D01*
X53705Y-42446D02*
X53722Y-42390D01*
X53722Y-42390D02*
X53748Y-42338D01*
X53748Y-42338D02*
X53785Y-42292D01*
X53785Y-42292D02*
X53829Y-42254D01*
X53829Y-42254D02*
X53880Y-42226D01*
X53880Y-42226D02*
X53936Y-42207D01*
X53936Y-42207D02*
X53994Y-42201D01*
X53994Y-42201D02*
X54052Y-42205D01*
X54052Y-42205D02*
X54108Y-42221D01*
X54108Y-42221D02*
X54160Y-42247D01*
X54160Y-42247D02*
X54206Y-42283D01*
X54206Y-42283D02*
X54245Y-42328D01*
X54245Y-42328D02*
X54274Y-42378D01*
X54274Y-42378D02*
X54292Y-42434D01*
X54292Y-42434D02*
X54299Y-42492D01*
X54299Y-42492D02*
X54300Y-42500D01*
X40775Y-34500D02*
X40769Y-34553D01*
X40769Y-34553D02*
X40754Y-34604D01*
X40754Y-34604D02*
X40729Y-34652D01*
X40729Y-34652D02*
X40695Y-34693D01*
X40695Y-34693D02*
X40653Y-34727D01*
X40653Y-34727D02*
X40606Y-34753D01*
X40606Y-34753D02*
X40555Y-34769D01*
X40555Y-34769D02*
X40501Y-34774D01*
X40501Y-34774D02*
X40449Y-34770D01*
X40449Y-34770D02*
X40397Y-34754D01*
X40397Y-34754D02*
X40350Y-34730D01*
X40350Y-34730D02*
X40308Y-34696D01*
X40308Y-34696D02*
X40274Y-34655D01*
X40274Y-34655D02*
X40248Y-34608D01*
X40248Y-34608D02*
X40232Y-34557D01*
X40232Y-34557D02*
X40226Y-34503D01*
X40226Y-34503D02*
X40230Y-34451D01*
X40230Y-34451D02*
X40245Y-34399D01*
X40245Y-34399D02*
X40269Y-34352D01*
X40269Y-34352D02*
X40303Y-34309D01*
X40303Y-34309D02*
X40344Y-34275D01*
X40344Y-34275D02*
X40390Y-34249D01*
X40390Y-34249D02*
X40441Y-34232D01*
X40441Y-34232D02*
X40495Y-34226D01*
X40495Y-34226D02*
X40547Y-34230D01*
X40547Y-34230D02*
X40599Y-34244D01*
X40599Y-34244D02*
X40647Y-34268D01*
X40647Y-34268D02*
X40689Y-34301D01*
X40689Y-34301D02*
X40724Y-34342D01*
X40724Y-34342D02*
X40751Y-34389D01*
X40751Y-34389D02*
X40768Y-34440D01*
X40768Y-34440D02*
X40774Y-34493D01*
X40774Y-34493D02*
X40775Y-34500D01*
X40775Y-37500D02*
X40769Y-37553D01*
X40769Y-37553D02*
X40754Y-37604D01*
X40754Y-37604D02*
X40729Y-37652D01*
X40729Y-37652D02*
X40695Y-37693D01*
X40695Y-37693D02*
X40653Y-37727D01*
X40653Y-37727D02*
X40606Y-37753D01*
X40606Y-37753D02*
X40555Y-37769D01*
X40555Y-37769D02*
X40501Y-37774D01*
X40501Y-37774D02*
X40449Y-37770D01*
X40449Y-37770D02*
X40397Y-37754D01*
X40397Y-37754D02*
X40350Y-37730D01*
X40350Y-37730D02*
X40308Y-37696D01*
X40308Y-37696D02*
X40274Y-37655D01*
X40274Y-37655D02*
X40248Y-37608D01*
X40248Y-37608D02*
X40232Y-37557D01*
X40232Y-37557D02*
X40226Y-37503D01*
X40226Y-37503D02*
X40230Y-37451D01*
X40230Y-37451D02*
X40245Y-37399D01*
X40245Y-37399D02*
X40269Y-37352D01*
X40269Y-37352D02*
X40303Y-37309D01*
X40303Y-37309D02*
X40344Y-37275D01*
X40344Y-37275D02*
X40390Y-37249D01*
X40390Y-37249D02*
X40441Y-37232D01*
X40441Y-37232D02*
X40495Y-37226D01*
X40495Y-37226D02*
X40547Y-37230D01*
X40547Y-37230D02*
X40599Y-37244D01*
X40599Y-37244D02*
X40647Y-37268D01*
X40647Y-37268D02*
X40689Y-37301D01*
X40689Y-37301D02*
X40724Y-37342D01*
X40724Y-37342D02*
X40751Y-37389D01*
X40751Y-37389D02*
X40768Y-37440D01*
X40768Y-37440D02*
X40774Y-37493D01*
X40774Y-37493D02*
X40775Y-37500D01*
X38775Y-34500D02*
X38769Y-34553D01*
X38769Y-34553D02*
X38754Y-34604D01*
X38754Y-34604D02*
X38729Y-34652D01*
X38729Y-34652D02*
X38695Y-34693D01*
X38695Y-34693D02*
X38653Y-34727D01*
X38653Y-34727D02*
X38606Y-34753D01*
X38606Y-34753D02*
X38555Y-34769D01*
X38555Y-34769D02*
X38501Y-34774D01*
X38501Y-34774D02*
X38449Y-34770D01*
X38449Y-34770D02*
X38397Y-34754D01*
X38397Y-34754D02*
X38350Y-34730D01*
X38350Y-34730D02*
X38308Y-34696D01*
X38308Y-34696D02*
X38274Y-34655D01*
X38274Y-34655D02*
X38248Y-34608D01*
X38248Y-34608D02*
X38232Y-34557D01*
X38232Y-34557D02*
X38226Y-34503D01*
X38226Y-34503D02*
X38230Y-34451D01*
X38230Y-34451D02*
X38245Y-34399D01*
X38245Y-34399D02*
X38269Y-34352D01*
X38269Y-34352D02*
X38303Y-34309D01*
X38303Y-34309D02*
X38344Y-34275D01*
X38344Y-34275D02*
X38390Y-34249D01*
X38390Y-34249D02*
X38441Y-34232D01*
X38441Y-34232D02*
X38495Y-34226D01*
X38495Y-34226D02*
X38547Y-34230D01*
X38547Y-34230D02*
X38599Y-34244D01*
X38599Y-34244D02*
X38647Y-34268D01*
X38647Y-34268D02*
X38689Y-34301D01*
X38689Y-34301D02*
X38724Y-34342D01*
X38724Y-34342D02*
X38751Y-34389D01*
X38751Y-34389D02*
X38768Y-34440D01*
X38768Y-34440D02*
X38774Y-34493D01*
X38774Y-34493D02*
X38775Y-34500D01*
X38775Y-37500D02*
X38769Y-37553D01*
X38769Y-37553D02*
X38754Y-37604D01*
X38754Y-37604D02*
X38729Y-37652D01*
X38729Y-37652D02*
X38695Y-37693D01*
X38695Y-37693D02*
X38653Y-37727D01*
X38653Y-37727D02*
X38606Y-37753D01*
X38606Y-37753D02*
X38555Y-37769D01*
X38555Y-37769D02*
X38501Y-37774D01*
X38501Y-37774D02*
X38449Y-37770D01*
X38449Y-37770D02*
X38397Y-37754D01*
X38397Y-37754D02*
X38350Y-37730D01*
X38350Y-37730D02*
X38308Y-37696D01*
X38308Y-37696D02*
X38274Y-37655D01*
X38274Y-37655D02*
X38248Y-37608D01*
X38248Y-37608D02*
X38232Y-37557D01*
X38232Y-37557D02*
X38226Y-37503D01*
X38226Y-37503D02*
X38230Y-37451D01*
X38230Y-37451D02*
X38245Y-37399D01*
X38245Y-37399D02*
X38269Y-37352D01*
X38269Y-37352D02*
X38303Y-37309D01*
X38303Y-37309D02*
X38344Y-37275D01*
X38344Y-37275D02*
X38390Y-37249D01*
X38390Y-37249D02*
X38441Y-37232D01*
X38441Y-37232D02*
X38495Y-37226D01*
X38495Y-37226D02*
X38547Y-37230D01*
X38547Y-37230D02*
X38599Y-37244D01*
X38599Y-37244D02*
X38647Y-37268D01*
X38647Y-37268D02*
X38689Y-37301D01*
X38689Y-37301D02*
X38724Y-37342D01*
X38724Y-37342D02*
X38751Y-37389D01*
X38751Y-37389D02*
X38768Y-37440D01*
X38768Y-37440D02*
X38774Y-37493D01*
X38774Y-37493D02*
X38775Y-37500D01*
X22775Y-17000D02*
X22769Y-17053D01*
X22769Y-17053D02*
X22754Y-17104D01*
X22754Y-17104D02*
X22729Y-17152D01*
X22729Y-17152D02*
X22695Y-17193D01*
X22695Y-17193D02*
X22653Y-17227D01*
X22653Y-17227D02*
X22606Y-17253D01*
X22606Y-17253D02*
X22555Y-17269D01*
X22555Y-17269D02*
X22501Y-17274D01*
X22501Y-17274D02*
X22449Y-17270D01*
X22449Y-17270D02*
X22397Y-17254D01*
X22397Y-17254D02*
X22350Y-17230D01*
X22350Y-17230D02*
X22308Y-17196D01*
X22308Y-17196D02*
X22274Y-17155D01*
X22274Y-17155D02*
X22248Y-17108D01*
X22248Y-17108D02*
X22232Y-17057D01*
X22232Y-17057D02*
X22226Y-17003D01*
X22226Y-17003D02*
X22230Y-16951D01*
X22230Y-16951D02*
X22245Y-16899D01*
X22245Y-16899D02*
X22269Y-16852D01*
X22269Y-16852D02*
X22303Y-16809D01*
X22303Y-16809D02*
X22344Y-16775D01*
X22344Y-16775D02*
X22390Y-16749D01*
X22390Y-16749D02*
X22441Y-16732D01*
X22441Y-16732D02*
X22495Y-16726D01*
X22495Y-16726D02*
X22547Y-16730D01*
X22547Y-16730D02*
X22599Y-16744D01*
X22599Y-16744D02*
X22647Y-16768D01*
X22647Y-16768D02*
X22689Y-16801D01*
X22689Y-16801D02*
X22724Y-16842D01*
X22724Y-16842D02*
X22751Y-16889D01*
X22751Y-16889D02*
X22768Y-16940D01*
X22768Y-16940D02*
X22774Y-16993D01*
X22774Y-16993D02*
X22775Y-17000D01*
X25775Y-17000D02*
X25769Y-17053D01*
X25769Y-17053D02*
X25754Y-17104D01*
X25754Y-17104D02*
X25729Y-17152D01*
X25729Y-17152D02*
X25695Y-17193D01*
X25695Y-17193D02*
X25653Y-17227D01*
X25653Y-17227D02*
X25606Y-17253D01*
X25606Y-17253D02*
X25555Y-17269D01*
X25555Y-17269D02*
X25501Y-17274D01*
X25501Y-17274D02*
X25449Y-17270D01*
X25449Y-17270D02*
X25397Y-17254D01*
X25397Y-17254D02*
X25350Y-17230D01*
X25350Y-17230D02*
X25308Y-17196D01*
X25308Y-17196D02*
X25274Y-17155D01*
X25274Y-17155D02*
X25248Y-17108D01*
X25248Y-17108D02*
X25232Y-17057D01*
X25232Y-17057D02*
X25226Y-17003D01*
X25226Y-17003D02*
X25230Y-16951D01*
X25230Y-16951D02*
X25245Y-16899D01*
X25245Y-16899D02*
X25269Y-16852D01*
X25269Y-16852D02*
X25303Y-16809D01*
X25303Y-16809D02*
X25344Y-16775D01*
X25344Y-16775D02*
X25390Y-16749D01*
X25390Y-16749D02*
X25441Y-16732D01*
X25441Y-16732D02*
X25495Y-16726D01*
X25495Y-16726D02*
X25547Y-16730D01*
X25547Y-16730D02*
X25599Y-16744D01*
X25599Y-16744D02*
X25647Y-16768D01*
X25647Y-16768D02*
X25689Y-16801D01*
X25689Y-16801D02*
X25724Y-16842D01*
X25724Y-16842D02*
X25751Y-16889D01*
X25751Y-16889D02*
X25768Y-16940D01*
X25768Y-16940D02*
X25774Y-16993D01*
X25774Y-16993D02*
X25775Y-17000D01*
X68314Y-21000D02*
X68308Y-21060D01*
X68308Y-21060D02*
X68290Y-21119D01*
X68290Y-21119D02*
X68261Y-21173D01*
X68261Y-21173D02*
X68222Y-21221D01*
X68222Y-21221D02*
X68175Y-21260D01*
X68175Y-21260D02*
X68121Y-21289D01*
X68121Y-21289D02*
X68063Y-21307D01*
X68063Y-21307D02*
X68002Y-21313D01*
X68002Y-21313D02*
X67942Y-21308D01*
X67942Y-21308D02*
X67883Y-21291D01*
X67883Y-21291D02*
X67829Y-21262D01*
X67829Y-21262D02*
X67781Y-21224D01*
X67781Y-21224D02*
X67741Y-21177D01*
X67741Y-21177D02*
X67712Y-21123D01*
X67712Y-21123D02*
X67693Y-21065D01*
X67693Y-21065D02*
X67687Y-21004D01*
X67687Y-21004D02*
X67692Y-20944D01*
X67692Y-20944D02*
X67709Y-20885D01*
X67709Y-20885D02*
X67737Y-20830D01*
X67737Y-20830D02*
X67775Y-20782D01*
X67775Y-20782D02*
X67821Y-20743D01*
X67821Y-20743D02*
X67875Y-20713D01*
X67875Y-20713D02*
X67933Y-20694D01*
X67933Y-20694D02*
X67994Y-20687D01*
X67994Y-20687D02*
X68054Y-20691D01*
X68054Y-20691D02*
X68113Y-20708D01*
X68113Y-20708D02*
X68168Y-20735D01*
X68168Y-20735D02*
X68216Y-20773D01*
X68216Y-20773D02*
X68256Y-20820D01*
X68256Y-20820D02*
X68286Y-20873D01*
X68286Y-20873D02*
X68306Y-20931D01*
X68306Y-20931D02*
X68313Y-20992D01*
X68313Y-20992D02*
X68314Y-21000D01*
X70314Y-21000D02*
X70308Y-21060D01*
X70308Y-21060D02*
X70290Y-21119D01*
X70290Y-21119D02*
X70261Y-21173D01*
X70261Y-21173D02*
X70222Y-21221D01*
X70222Y-21221D02*
X70175Y-21260D01*
X70175Y-21260D02*
X70121Y-21289D01*
X70121Y-21289D02*
X70063Y-21307D01*
X70063Y-21307D02*
X70002Y-21313D01*
X70002Y-21313D02*
X69942Y-21308D01*
X69942Y-21308D02*
X69883Y-21291D01*
X69883Y-21291D02*
X69829Y-21262D01*
X69829Y-21262D02*
X69781Y-21224D01*
X69781Y-21224D02*
X69741Y-21177D01*
X69741Y-21177D02*
X69712Y-21123D01*
X69712Y-21123D02*
X69693Y-21065D01*
X69693Y-21065D02*
X69687Y-21004D01*
X69687Y-21004D02*
X69692Y-20944D01*
X69692Y-20944D02*
X69709Y-20885D01*
X69709Y-20885D02*
X69737Y-20830D01*
X69737Y-20830D02*
X69775Y-20782D01*
X69775Y-20782D02*
X69821Y-20743D01*
X69821Y-20743D02*
X69875Y-20713D01*
X69875Y-20713D02*
X69933Y-20694D01*
X69933Y-20694D02*
X69994Y-20687D01*
X69994Y-20687D02*
X70054Y-20691D01*
X70054Y-20691D02*
X70113Y-20708D01*
X70113Y-20708D02*
X70168Y-20735D01*
X70168Y-20735D02*
X70216Y-20773D01*
X70216Y-20773D02*
X70256Y-20820D01*
X70256Y-20820D02*
X70286Y-20873D01*
X70286Y-20873D02*
X70306Y-20931D01*
X70306Y-20931D02*
X70313Y-20992D01*
X70313Y-20992D02*
X70314Y-21000D01*
X72314Y-21000D02*
X72308Y-21060D01*
X72308Y-21060D02*
X72290Y-21119D01*
X72290Y-21119D02*
X72261Y-21173D01*
X72261Y-21173D02*
X72222Y-21221D01*
X72222Y-21221D02*
X72175Y-21260D01*
X72175Y-21260D02*
X72121Y-21289D01*
X72121Y-21289D02*
X72063Y-21307D01*
X72063Y-21307D02*
X72002Y-21313D01*
X72002Y-21313D02*
X71942Y-21308D01*
X71942Y-21308D02*
X71883Y-21291D01*
X71883Y-21291D02*
X71829Y-21262D01*
X71829Y-21262D02*
X71781Y-21224D01*
X71781Y-21224D02*
X71741Y-21177D01*
X71741Y-21177D02*
X71712Y-21123D01*
X71712Y-21123D02*
X71693Y-21065D01*
X71693Y-21065D02*
X71687Y-21004D01*
X71687Y-21004D02*
X71692Y-20944D01*
X71692Y-20944D02*
X71709Y-20885D01*
X71709Y-20885D02*
X71737Y-20830D01*
X71737Y-20830D02*
X71775Y-20782D01*
X71775Y-20782D02*
X71821Y-20743D01*
X71821Y-20743D02*
X71875Y-20713D01*
X71875Y-20713D02*
X71933Y-20694D01*
X71933Y-20694D02*
X71994Y-20687D01*
X71994Y-20687D02*
X72054Y-20691D01*
X72054Y-20691D02*
X72113Y-20708D01*
X72113Y-20708D02*
X72168Y-20735D01*
X72168Y-20735D02*
X72216Y-20773D01*
X72216Y-20773D02*
X72256Y-20820D01*
X72256Y-20820D02*
X72286Y-20873D01*
X72286Y-20873D02*
X72306Y-20931D01*
X72306Y-20931D02*
X72313Y-20992D01*
X72313Y-20992D02*
X72314Y-21000D01*
X68314Y-18000D02*
X68308Y-18060D01*
X68308Y-18060D02*
X68290Y-18119D01*
X68290Y-18119D02*
X68261Y-18173D01*
X68261Y-18173D02*
X68222Y-18221D01*
X68222Y-18221D02*
X68175Y-18260D01*
X68175Y-18260D02*
X68121Y-18289D01*
X68121Y-18289D02*
X68063Y-18307D01*
X68063Y-18307D02*
X68002Y-18313D01*
X68002Y-18313D02*
X67942Y-18308D01*
X67942Y-18308D02*
X67883Y-18291D01*
X67883Y-18291D02*
X67829Y-18262D01*
X67829Y-18262D02*
X67781Y-18224D01*
X67781Y-18224D02*
X67741Y-18177D01*
X67741Y-18177D02*
X67712Y-18123D01*
X67712Y-18123D02*
X67693Y-18065D01*
X67693Y-18065D02*
X67687Y-18004D01*
X67687Y-18004D02*
X67692Y-17944D01*
X67692Y-17944D02*
X67709Y-17885D01*
X67709Y-17885D02*
X67737Y-17830D01*
X67737Y-17830D02*
X67775Y-17782D01*
X67775Y-17782D02*
X67821Y-17743D01*
X67821Y-17743D02*
X67875Y-17713D01*
X67875Y-17713D02*
X67933Y-17694D01*
X67933Y-17694D02*
X67994Y-17687D01*
X67994Y-17687D02*
X68054Y-17691D01*
X68054Y-17691D02*
X68113Y-17708D01*
X68113Y-17708D02*
X68168Y-17735D01*
X68168Y-17735D02*
X68216Y-17773D01*
X68216Y-17773D02*
X68256Y-17820D01*
X68256Y-17820D02*
X68286Y-17873D01*
X68286Y-17873D02*
X68306Y-17931D01*
X68306Y-17931D02*
X68313Y-17992D01*
X68313Y-17992D02*
X68314Y-18000D01*
X70314Y-18000D02*
X70308Y-18060D01*
X70308Y-18060D02*
X70290Y-18119D01*
X70290Y-18119D02*
X70261Y-18173D01*
X70261Y-18173D02*
X70222Y-18221D01*
X70222Y-18221D02*
X70175Y-18260D01*
X70175Y-18260D02*
X70121Y-18289D01*
X70121Y-18289D02*
X70063Y-18307D01*
X70063Y-18307D02*
X70002Y-18313D01*
X70002Y-18313D02*
X69942Y-18308D01*
X69942Y-18308D02*
X69883Y-18291D01*
X69883Y-18291D02*
X69829Y-18262D01*
X69829Y-18262D02*
X69781Y-18224D01*
X69781Y-18224D02*
X69741Y-18177D01*
X69741Y-18177D02*
X69712Y-18123D01*
X69712Y-18123D02*
X69693Y-18065D01*
X69693Y-18065D02*
X69687Y-18004D01*
X69687Y-18004D02*
X69692Y-17944D01*
X69692Y-17944D02*
X69709Y-17885D01*
X69709Y-17885D02*
X69737Y-17830D01*
X69737Y-17830D02*
X69775Y-17782D01*
X69775Y-17782D02*
X69821Y-17743D01*
X69821Y-17743D02*
X69875Y-17713D01*
X69875Y-17713D02*
X69933Y-17694D01*
X69933Y-17694D02*
X69994Y-17687D01*
X69994Y-17687D02*
X70054Y-17691D01*
X70054Y-17691D02*
X70113Y-17708D01*
X70113Y-17708D02*
X70168Y-17735D01*
X70168Y-17735D02*
X70216Y-17773D01*
X70216Y-17773D02*
X70256Y-17820D01*
X70256Y-17820D02*
X70286Y-17873D01*
X70286Y-17873D02*
X70306Y-17931D01*
X70306Y-17931D02*
X70313Y-17992D01*
X70313Y-17992D02*
X70314Y-18000D01*
X72314Y-18000D02*
X72308Y-18060D01*
X72308Y-18060D02*
X72290Y-18119D01*
X72290Y-18119D02*
X72261Y-18173D01*
X72261Y-18173D02*
X72222Y-18221D01*
X72222Y-18221D02*
X72175Y-18260D01*
X72175Y-18260D02*
X72121Y-18289D01*
X72121Y-18289D02*
X72063Y-18307D01*
X72063Y-18307D02*
X72002Y-18313D01*
X72002Y-18313D02*
X71942Y-18308D01*
X71942Y-18308D02*
X71883Y-18291D01*
X71883Y-18291D02*
X71829Y-18262D01*
X71829Y-18262D02*
X71781Y-18224D01*
X71781Y-18224D02*
X71741Y-18177D01*
X71741Y-18177D02*
X71712Y-18123D01*
X71712Y-18123D02*
X71693Y-18065D01*
X71693Y-18065D02*
X71687Y-18004D01*
X71687Y-18004D02*
X71692Y-17944D01*
X71692Y-17944D02*
X71709Y-17885D01*
X71709Y-17885D02*
X71737Y-17830D01*
X71737Y-17830D02*
X71775Y-17782D01*
X71775Y-17782D02*
X71821Y-17743D01*
X71821Y-17743D02*
X71875Y-17713D01*
X71875Y-17713D02*
X71933Y-17694D01*
X71933Y-17694D02*
X71994Y-17687D01*
X71994Y-17687D02*
X72054Y-17691D01*
X72054Y-17691D02*
X72113Y-17708D01*
X72113Y-17708D02*
X72168Y-17735D01*
X72168Y-17735D02*
X72216Y-17773D01*
X72216Y-17773D02*
X72256Y-17820D01*
X72256Y-17820D02*
X72286Y-17873D01*
X72286Y-17873D02*
X72306Y-17931D01*
X72306Y-17931D02*
X72313Y-17992D01*
X72313Y-17992D02*
X72314Y-18000D01*
X65314Y-21000D02*
X65308Y-21060D01*
X65308Y-21060D02*
X65290Y-21119D01*
X65290Y-21119D02*
X65261Y-21173D01*
X65261Y-21173D02*
X65222Y-21221D01*
X65222Y-21221D02*
X65175Y-21260D01*
X65175Y-21260D02*
X65121Y-21289D01*
X65121Y-21289D02*
X65063Y-21307D01*
X65063Y-21307D02*
X65002Y-21313D01*
X65002Y-21313D02*
X64942Y-21308D01*
X64942Y-21308D02*
X64883Y-21291D01*
X64883Y-21291D02*
X64829Y-21262D01*
X64829Y-21262D02*
X64781Y-21224D01*
X64781Y-21224D02*
X64741Y-21177D01*
X64741Y-21177D02*
X64712Y-21123D01*
X64712Y-21123D02*
X64693Y-21065D01*
X64693Y-21065D02*
X64687Y-21004D01*
X64687Y-21004D02*
X64692Y-20944D01*
X64692Y-20944D02*
X64709Y-20885D01*
X64709Y-20885D02*
X64737Y-20830D01*
X64737Y-20830D02*
X64775Y-20782D01*
X64775Y-20782D02*
X64821Y-20743D01*
X64821Y-20743D02*
X64875Y-20713D01*
X64875Y-20713D02*
X64933Y-20694D01*
X64933Y-20694D02*
X64994Y-20687D01*
X64994Y-20687D02*
X65054Y-20691D01*
X65054Y-20691D02*
X65113Y-20708D01*
X65113Y-20708D02*
X65168Y-20735D01*
X65168Y-20735D02*
X65216Y-20773D01*
X65216Y-20773D02*
X65256Y-20820D01*
X65256Y-20820D02*
X65286Y-20873D01*
X65286Y-20873D02*
X65306Y-20931D01*
X65306Y-20931D02*
X65313Y-20992D01*
X65313Y-20992D02*
X65314Y-21000D01*
X65314Y-18000D02*
X65308Y-18060D01*
X65308Y-18060D02*
X65290Y-18119D01*
X65290Y-18119D02*
X65261Y-18173D01*
X65261Y-18173D02*
X65222Y-18221D01*
X65222Y-18221D02*
X65175Y-18260D01*
X65175Y-18260D02*
X65121Y-18289D01*
X65121Y-18289D02*
X65063Y-18307D01*
X65063Y-18307D02*
X65002Y-18313D01*
X65002Y-18313D02*
X64942Y-18308D01*
X64942Y-18308D02*
X64883Y-18291D01*
X64883Y-18291D02*
X64829Y-18262D01*
X64829Y-18262D02*
X64781Y-18224D01*
X64781Y-18224D02*
X64741Y-18177D01*
X64741Y-18177D02*
X64712Y-18123D01*
X64712Y-18123D02*
X64693Y-18065D01*
X64693Y-18065D02*
X64687Y-18004D01*
X64687Y-18004D02*
X64692Y-17944D01*
X64692Y-17944D02*
X64709Y-17885D01*
X64709Y-17885D02*
X64737Y-17830D01*
X64737Y-17830D02*
X64775Y-17782D01*
X64775Y-17782D02*
X64821Y-17743D01*
X64821Y-17743D02*
X64875Y-17713D01*
X64875Y-17713D02*
X64933Y-17694D01*
X64933Y-17694D02*
X64994Y-17687D01*
X64994Y-17687D02*
X65054Y-17691D01*
X65054Y-17691D02*
X65113Y-17708D01*
X65113Y-17708D02*
X65168Y-17735D01*
X65168Y-17735D02*
X65216Y-17773D01*
X65216Y-17773D02*
X65256Y-17820D01*
X65256Y-17820D02*
X65286Y-17873D01*
X65286Y-17873D02*
X65306Y-17931D01*
X65306Y-17931D02*
X65313Y-17992D01*
X65313Y-17992D02*
X65314Y-18000D01*
X68314Y-16000D02*
X68308Y-16060D01*
X68308Y-16060D02*
X68290Y-16119D01*
X68290Y-16119D02*
X68261Y-16173D01*
X68261Y-16173D02*
X68222Y-16221D01*
X68222Y-16221D02*
X68175Y-16260D01*
X68175Y-16260D02*
X68121Y-16289D01*
X68121Y-16289D02*
X68063Y-16307D01*
X68063Y-16307D02*
X68002Y-16313D01*
X68002Y-16313D02*
X67942Y-16308D01*
X67942Y-16308D02*
X67883Y-16291D01*
X67883Y-16291D02*
X67829Y-16262D01*
X67829Y-16262D02*
X67781Y-16224D01*
X67781Y-16224D02*
X67741Y-16177D01*
X67741Y-16177D02*
X67712Y-16123D01*
X67712Y-16123D02*
X67693Y-16065D01*
X67693Y-16065D02*
X67687Y-16004D01*
X67687Y-16004D02*
X67692Y-15944D01*
X67692Y-15944D02*
X67709Y-15885D01*
X67709Y-15885D02*
X67737Y-15830D01*
X67737Y-15830D02*
X67775Y-15782D01*
X67775Y-15782D02*
X67821Y-15743D01*
X67821Y-15743D02*
X67875Y-15713D01*
X67875Y-15713D02*
X67933Y-15694D01*
X67933Y-15694D02*
X67994Y-15687D01*
X67994Y-15687D02*
X68054Y-15691D01*
X68054Y-15691D02*
X68113Y-15708D01*
X68113Y-15708D02*
X68168Y-15735D01*
X68168Y-15735D02*
X68216Y-15773D01*
X68216Y-15773D02*
X68256Y-15820D01*
X68256Y-15820D02*
X68286Y-15873D01*
X68286Y-15873D02*
X68306Y-15931D01*
X68306Y-15931D02*
X68313Y-15992D01*
X68313Y-15992D02*
X68314Y-16000D01*
X70314Y-16000D02*
X70308Y-16060D01*
X70308Y-16060D02*
X70290Y-16119D01*
X70290Y-16119D02*
X70261Y-16173D01*
X70261Y-16173D02*
X70222Y-16221D01*
X70222Y-16221D02*
X70175Y-16260D01*
X70175Y-16260D02*
X70121Y-16289D01*
X70121Y-16289D02*
X70063Y-16307D01*
X70063Y-16307D02*
X70002Y-16313D01*
X70002Y-16313D02*
X69942Y-16308D01*
X69942Y-16308D02*
X69883Y-16291D01*
X69883Y-16291D02*
X69829Y-16262D01*
X69829Y-16262D02*
X69781Y-16224D01*
X69781Y-16224D02*
X69741Y-16177D01*
X69741Y-16177D02*
X69712Y-16123D01*
X69712Y-16123D02*
X69693Y-16065D01*
X69693Y-16065D02*
X69687Y-16004D01*
X69687Y-16004D02*
X69692Y-15944D01*
X69692Y-15944D02*
X69709Y-15885D01*
X69709Y-15885D02*
X69737Y-15830D01*
X69737Y-15830D02*
X69775Y-15782D01*
X69775Y-15782D02*
X69821Y-15743D01*
X69821Y-15743D02*
X69875Y-15713D01*
X69875Y-15713D02*
X69933Y-15694D01*
X69933Y-15694D02*
X69994Y-15687D01*
X69994Y-15687D02*
X70054Y-15691D01*
X70054Y-15691D02*
X70113Y-15708D01*
X70113Y-15708D02*
X70168Y-15735D01*
X70168Y-15735D02*
X70216Y-15773D01*
X70216Y-15773D02*
X70256Y-15820D01*
X70256Y-15820D02*
X70286Y-15873D01*
X70286Y-15873D02*
X70306Y-15931D01*
X70306Y-15931D02*
X70313Y-15992D01*
X70313Y-15992D02*
X70314Y-16000D01*
X72314Y-16000D02*
X72308Y-16060D01*
X72308Y-16060D02*
X72290Y-16119D01*
X72290Y-16119D02*
X72261Y-16173D01*
X72261Y-16173D02*
X72222Y-16221D01*
X72222Y-16221D02*
X72175Y-16260D01*
X72175Y-16260D02*
X72121Y-16289D01*
X72121Y-16289D02*
X72063Y-16307D01*
X72063Y-16307D02*
X72002Y-16313D01*
X72002Y-16313D02*
X71942Y-16308D01*
X71942Y-16308D02*
X71883Y-16291D01*
X71883Y-16291D02*
X71829Y-16262D01*
X71829Y-16262D02*
X71781Y-16224D01*
X71781Y-16224D02*
X71741Y-16177D01*
X71741Y-16177D02*
X71712Y-16123D01*
X71712Y-16123D02*
X71693Y-16065D01*
X71693Y-16065D02*
X71687Y-16004D01*
X71687Y-16004D02*
X71692Y-15944D01*
X71692Y-15944D02*
X71709Y-15885D01*
X71709Y-15885D02*
X71737Y-15830D01*
X71737Y-15830D02*
X71775Y-15782D01*
X71775Y-15782D02*
X71821Y-15743D01*
X71821Y-15743D02*
X71875Y-15713D01*
X71875Y-15713D02*
X71933Y-15694D01*
X71933Y-15694D02*
X71994Y-15687D01*
X71994Y-15687D02*
X72054Y-15691D01*
X72054Y-15691D02*
X72113Y-15708D01*
X72113Y-15708D02*
X72168Y-15735D01*
X72168Y-15735D02*
X72216Y-15773D01*
X72216Y-15773D02*
X72256Y-15820D01*
X72256Y-15820D02*
X72286Y-15873D01*
X72286Y-15873D02*
X72306Y-15931D01*
X72306Y-15931D02*
X72313Y-15992D01*
X72313Y-15992D02*
X72314Y-16000D01*
X68314Y-13000D02*
X68308Y-13060D01*
X68308Y-13060D02*
X68290Y-13119D01*
X68290Y-13119D02*
X68261Y-13173D01*
X68261Y-13173D02*
X68222Y-13221D01*
X68222Y-13221D02*
X68175Y-13260D01*
X68175Y-13260D02*
X68121Y-13289D01*
X68121Y-13289D02*
X68063Y-13307D01*
X68063Y-13307D02*
X68002Y-13313D01*
X68002Y-13313D02*
X67942Y-13308D01*
X67942Y-13308D02*
X67883Y-13291D01*
X67883Y-13291D02*
X67829Y-13262D01*
X67829Y-13262D02*
X67781Y-13224D01*
X67781Y-13224D02*
X67741Y-13177D01*
X67741Y-13177D02*
X67712Y-13123D01*
X67712Y-13123D02*
X67693Y-13065D01*
X67693Y-13065D02*
X67687Y-13004D01*
X67687Y-13004D02*
X67692Y-12944D01*
X67692Y-12944D02*
X67709Y-12885D01*
X67709Y-12885D02*
X67737Y-12830D01*
X67737Y-12830D02*
X67775Y-12782D01*
X67775Y-12782D02*
X67821Y-12743D01*
X67821Y-12743D02*
X67875Y-12713D01*
X67875Y-12713D02*
X67933Y-12694D01*
X67933Y-12694D02*
X67994Y-12687D01*
X67994Y-12687D02*
X68054Y-12691D01*
X68054Y-12691D02*
X68113Y-12708D01*
X68113Y-12708D02*
X68168Y-12735D01*
X68168Y-12735D02*
X68216Y-12773D01*
X68216Y-12773D02*
X68256Y-12820D01*
X68256Y-12820D02*
X68286Y-12873D01*
X68286Y-12873D02*
X68306Y-12931D01*
X68306Y-12931D02*
X68313Y-12992D01*
X68313Y-12992D02*
X68314Y-13000D01*
X70314Y-13000D02*
X70308Y-13060D01*
X70308Y-13060D02*
X70290Y-13119D01*
X70290Y-13119D02*
X70261Y-13173D01*
X70261Y-13173D02*
X70222Y-13221D01*
X70222Y-13221D02*
X70175Y-13260D01*
X70175Y-13260D02*
X70121Y-13289D01*
X70121Y-13289D02*
X70063Y-13307D01*
X70063Y-13307D02*
X70002Y-13313D01*
X70002Y-13313D02*
X69942Y-13308D01*
X69942Y-13308D02*
X69883Y-13291D01*
X69883Y-13291D02*
X69829Y-13262D01*
X69829Y-13262D02*
X69781Y-13224D01*
X69781Y-13224D02*
X69741Y-13177D01*
X69741Y-13177D02*
X69712Y-13123D01*
X69712Y-13123D02*
X69693Y-13065D01*
X69693Y-13065D02*
X69687Y-13004D01*
X69687Y-13004D02*
X69692Y-12944D01*
X69692Y-12944D02*
X69709Y-12885D01*
X69709Y-12885D02*
X69737Y-12830D01*
X69737Y-12830D02*
X69775Y-12782D01*
X69775Y-12782D02*
X69821Y-12743D01*
X69821Y-12743D02*
X69875Y-12713D01*
X69875Y-12713D02*
X69933Y-12694D01*
X69933Y-12694D02*
X69994Y-12687D01*
X69994Y-12687D02*
X70054Y-12691D01*
X70054Y-12691D02*
X70113Y-12708D01*
X70113Y-12708D02*
X70168Y-12735D01*
X70168Y-12735D02*
X70216Y-12773D01*
X70216Y-12773D02*
X70256Y-12820D01*
X70256Y-12820D02*
X70286Y-12873D01*
X70286Y-12873D02*
X70306Y-12931D01*
X70306Y-12931D02*
X70313Y-12992D01*
X70313Y-12992D02*
X70314Y-13000D01*
X72314Y-13000D02*
X72308Y-13060D01*
X72308Y-13060D02*
X72290Y-13119D01*
X72290Y-13119D02*
X72261Y-13173D01*
X72261Y-13173D02*
X72222Y-13221D01*
X72222Y-13221D02*
X72175Y-13260D01*
X72175Y-13260D02*
X72121Y-13289D01*
X72121Y-13289D02*
X72063Y-13307D01*
X72063Y-13307D02*
X72002Y-13313D01*
X72002Y-13313D02*
X71942Y-13308D01*
X71942Y-13308D02*
X71883Y-13291D01*
X71883Y-13291D02*
X71829Y-13262D01*
X71829Y-13262D02*
X71781Y-13224D01*
X71781Y-13224D02*
X71741Y-13177D01*
X71741Y-13177D02*
X71712Y-13123D01*
X71712Y-13123D02*
X71693Y-13065D01*
X71693Y-13065D02*
X71687Y-13004D01*
X71687Y-13004D02*
X71692Y-12944D01*
X71692Y-12944D02*
X71709Y-12885D01*
X71709Y-12885D02*
X71737Y-12830D01*
X71737Y-12830D02*
X71775Y-12782D01*
X71775Y-12782D02*
X71821Y-12743D01*
X71821Y-12743D02*
X71875Y-12713D01*
X71875Y-12713D02*
X71933Y-12694D01*
X71933Y-12694D02*
X71994Y-12687D01*
X71994Y-12687D02*
X72054Y-12691D01*
X72054Y-12691D02*
X72113Y-12708D01*
X72113Y-12708D02*
X72168Y-12735D01*
X72168Y-12735D02*
X72216Y-12773D01*
X72216Y-12773D02*
X72256Y-12820D01*
X72256Y-12820D02*
X72286Y-12873D01*
X72286Y-12873D02*
X72306Y-12931D01*
X72306Y-12931D02*
X72313Y-12992D01*
X72313Y-12992D02*
X72314Y-13000D01*
X65314Y-16000D02*
X65308Y-16060D01*
X65308Y-16060D02*
X65290Y-16119D01*
X65290Y-16119D02*
X65261Y-16173D01*
X65261Y-16173D02*
X65222Y-16221D01*
X65222Y-16221D02*
X65175Y-16260D01*
X65175Y-16260D02*
X65121Y-16289D01*
X65121Y-16289D02*
X65063Y-16307D01*
X65063Y-16307D02*
X65002Y-16313D01*
X65002Y-16313D02*
X64942Y-16308D01*
X64942Y-16308D02*
X64883Y-16291D01*
X64883Y-16291D02*
X64829Y-16262D01*
X64829Y-16262D02*
X64781Y-16224D01*
X64781Y-16224D02*
X64741Y-16177D01*
X64741Y-16177D02*
X64712Y-16123D01*
X64712Y-16123D02*
X64693Y-16065D01*
X64693Y-16065D02*
X64687Y-16004D01*
X64687Y-16004D02*
X64692Y-15944D01*
X64692Y-15944D02*
X64709Y-15885D01*
X64709Y-15885D02*
X64737Y-15830D01*
X64737Y-15830D02*
X64775Y-15782D01*
X64775Y-15782D02*
X64821Y-15743D01*
X64821Y-15743D02*
X64875Y-15713D01*
X64875Y-15713D02*
X64933Y-15694D01*
X64933Y-15694D02*
X64994Y-15687D01*
X64994Y-15687D02*
X65054Y-15691D01*
X65054Y-15691D02*
X65113Y-15708D01*
X65113Y-15708D02*
X65168Y-15735D01*
X65168Y-15735D02*
X65216Y-15773D01*
X65216Y-15773D02*
X65256Y-15820D01*
X65256Y-15820D02*
X65286Y-15873D01*
X65286Y-15873D02*
X65306Y-15931D01*
X65306Y-15931D02*
X65313Y-15992D01*
X65313Y-15992D02*
X65314Y-16000D01*
X65314Y-13000D02*
X65308Y-13060D01*
X65308Y-13060D02*
X65290Y-13119D01*
X65290Y-13119D02*
X65261Y-13173D01*
X65261Y-13173D02*
X65222Y-13221D01*
X65222Y-13221D02*
X65175Y-13260D01*
X65175Y-13260D02*
X65121Y-13289D01*
X65121Y-13289D02*
X65063Y-13307D01*
X65063Y-13307D02*
X65002Y-13313D01*
X65002Y-13313D02*
X64942Y-13308D01*
X64942Y-13308D02*
X64883Y-13291D01*
X64883Y-13291D02*
X64829Y-13262D01*
X64829Y-13262D02*
X64781Y-13224D01*
X64781Y-13224D02*
X64741Y-13177D01*
X64741Y-13177D02*
X64712Y-13123D01*
X64712Y-13123D02*
X64693Y-13065D01*
X64693Y-13065D02*
X64687Y-13004D01*
X64687Y-13004D02*
X64692Y-12944D01*
X64692Y-12944D02*
X64709Y-12885D01*
X64709Y-12885D02*
X64737Y-12830D01*
X64737Y-12830D02*
X64775Y-12782D01*
X64775Y-12782D02*
X64821Y-12743D01*
X64821Y-12743D02*
X64875Y-12713D01*
X64875Y-12713D02*
X64933Y-12694D01*
X64933Y-12694D02*
X64994Y-12687D01*
X64994Y-12687D02*
X65054Y-12691D01*
X65054Y-12691D02*
X65113Y-12708D01*
X65113Y-12708D02*
X65168Y-12735D01*
X65168Y-12735D02*
X65216Y-12773D01*
X65216Y-12773D02*
X65256Y-12820D01*
X65256Y-12820D02*
X65286Y-12873D01*
X65286Y-12873D02*
X65306Y-12931D01*
X65306Y-12931D02*
X65313Y-12992D01*
X65313Y-12992D02*
X65314Y-13000D01*
X38800Y-16200D02*
X38800Y-16800D01*
X38800Y-16800D02*
X38200Y-16800D01*
X38200Y-16800D02*
X38200Y-16200D01*
X38200Y-16200D02*
X38800Y-16200D01*
X37800Y-16500D02*
X37794Y-16558D01*
X37794Y-16558D02*
X37777Y-16614D01*
X37777Y-16614D02*
X37749Y-16666D01*
X37749Y-16666D02*
X37712Y-16711D01*
X37712Y-16711D02*
X37667Y-16748D01*
X37667Y-16748D02*
X37616Y-16776D01*
X37616Y-16776D02*
X37560Y-16793D01*
X37560Y-16793D02*
X37502Y-16799D01*
X37502Y-16799D02*
X37444Y-16794D01*
X37444Y-16794D02*
X37388Y-16778D01*
X37388Y-16778D02*
X37336Y-16751D01*
X37336Y-16751D02*
X37291Y-16714D01*
X37291Y-16714D02*
X37253Y-16669D01*
X37253Y-16669D02*
X37225Y-16618D01*
X37225Y-16618D02*
X37207Y-16562D01*
X37207Y-16562D02*
X37201Y-16504D01*
X37201Y-16504D02*
X37205Y-16446D01*
X37205Y-16446D02*
X37222Y-16390D01*
X37222Y-16390D02*
X37248Y-16338D01*
X37248Y-16338D02*
X37285Y-16292D01*
X37285Y-16292D02*
X37329Y-16254D01*
X37329Y-16254D02*
X37380Y-16226D01*
X37380Y-16226D02*
X37436Y-16207D01*
X37436Y-16207D02*
X37494Y-16201D01*
X37494Y-16201D02*
X37552Y-16205D01*
X37552Y-16205D02*
X37608Y-16221D01*
X37608Y-16221D02*
X37660Y-16247D01*
X37660Y-16247D02*
X37706Y-16283D01*
X37706Y-16283D02*
X37745Y-16328D01*
X37745Y-16328D02*
X37774Y-16378D01*
X37774Y-16378D02*
X37792Y-16434D01*
X37792Y-16434D02*
X37799Y-16492D01*
X37799Y-16492D02*
X37800Y-16500D01*
X36800Y-16500D02*
X36794Y-16558D01*
X36794Y-16558D02*
X36777Y-16614D01*
X36777Y-16614D02*
X36749Y-16666D01*
X36749Y-16666D02*
X36712Y-16711D01*
X36712Y-16711D02*
X36667Y-16748D01*
X36667Y-16748D02*
X36616Y-16776D01*
X36616Y-16776D02*
X36560Y-16793D01*
X36560Y-16793D02*
X36502Y-16799D01*
X36502Y-16799D02*
X36444Y-16794D01*
X36444Y-16794D02*
X36388Y-16778D01*
X36388Y-16778D02*
X36336Y-16751D01*
X36336Y-16751D02*
X36291Y-16714D01*
X36291Y-16714D02*
X36253Y-16669D01*
X36253Y-16669D02*
X36225Y-16618D01*
X36225Y-16618D02*
X36207Y-16562D01*
X36207Y-16562D02*
X36201Y-16504D01*
X36201Y-16504D02*
X36205Y-16446D01*
X36205Y-16446D02*
X36222Y-16390D01*
X36222Y-16390D02*
X36248Y-16338D01*
X36248Y-16338D02*
X36285Y-16292D01*
X36285Y-16292D02*
X36329Y-16254D01*
X36329Y-16254D02*
X36380Y-16226D01*
X36380Y-16226D02*
X36436Y-16207D01*
X36436Y-16207D02*
X36494Y-16201D01*
X36494Y-16201D02*
X36552Y-16205D01*
X36552Y-16205D02*
X36608Y-16221D01*
X36608Y-16221D02*
X36660Y-16247D01*
X36660Y-16247D02*
X36706Y-16283D01*
X36706Y-16283D02*
X36745Y-16328D01*
X36745Y-16328D02*
X36774Y-16378D01*
X36774Y-16378D02*
X36792Y-16434D01*
X36792Y-16434D02*
X36799Y-16492D01*
X36799Y-16492D02*
X36800Y-16500D01*
X46700Y-42800D02*
X46700Y-42200D01*
X46700Y-42200D02*
X47300Y-42200D01*
X47300Y-42200D02*
X47300Y-42800D01*
X47300Y-42800D02*
X46700Y-42800D01*
X48300Y-42500D02*
X48294Y-42558D01*
X48294Y-42558D02*
X48277Y-42614D01*
X48277Y-42614D02*
X48249Y-42666D01*
X48249Y-42666D02*
X48212Y-42711D01*
X48212Y-42711D02*
X48167Y-42748D01*
X48167Y-42748D02*
X48116Y-42776D01*
X48116Y-42776D02*
X48060Y-42793D01*
X48060Y-42793D02*
X48002Y-42799D01*
X48002Y-42799D02*
X47944Y-42794D01*
X47944Y-42794D02*
X47888Y-42778D01*
X47888Y-42778D02*
X47836Y-42751D01*
X47836Y-42751D02*
X47791Y-42714D01*
X47791Y-42714D02*
X47753Y-42669D01*
X47753Y-42669D02*
X47725Y-42618D01*
X47725Y-42618D02*
X47707Y-42562D01*
X47707Y-42562D02*
X47701Y-42504D01*
X47701Y-42504D02*
X47705Y-42446D01*
X47705Y-42446D02*
X47722Y-42390D01*
X47722Y-42390D02*
X47748Y-42338D01*
X47748Y-42338D02*
X47785Y-42292D01*
X47785Y-42292D02*
X47829Y-42254D01*
X47829Y-42254D02*
X47880Y-42226D01*
X47880Y-42226D02*
X47936Y-42207D01*
X47936Y-42207D02*
X47994Y-42201D01*
X47994Y-42201D02*
X48052Y-42205D01*
X48052Y-42205D02*
X48108Y-42221D01*
X48108Y-42221D02*
X48160Y-42247D01*
X48160Y-42247D02*
X48206Y-42283D01*
X48206Y-42283D02*
X48245Y-42328D01*
X48245Y-42328D02*
X48274Y-42378D01*
X48274Y-42378D02*
X48292Y-42434D01*
X48292Y-42434D02*
X48299Y-42492D01*
X48299Y-42492D02*
X48300Y-42500D01*
X45775Y-34500D02*
X45769Y-34553D01*
X45769Y-34553D02*
X45754Y-34604D01*
X45754Y-34604D02*
X45729Y-34652D01*
X45729Y-34652D02*
X45695Y-34693D01*
X45695Y-34693D02*
X45653Y-34727D01*
X45653Y-34727D02*
X45606Y-34753D01*
X45606Y-34753D02*
X45555Y-34769D01*
X45555Y-34769D02*
X45501Y-34774D01*
X45501Y-34774D02*
X45449Y-34770D01*
X45449Y-34770D02*
X45397Y-34754D01*
X45397Y-34754D02*
X45350Y-34730D01*
X45350Y-34730D02*
X45308Y-34696D01*
X45308Y-34696D02*
X45274Y-34655D01*
X45274Y-34655D02*
X45248Y-34608D01*
X45248Y-34608D02*
X45232Y-34557D01*
X45232Y-34557D02*
X45226Y-34503D01*
X45226Y-34503D02*
X45230Y-34451D01*
X45230Y-34451D02*
X45245Y-34399D01*
X45245Y-34399D02*
X45269Y-34352D01*
X45269Y-34352D02*
X45303Y-34309D01*
X45303Y-34309D02*
X45344Y-34275D01*
X45344Y-34275D02*
X45390Y-34249D01*
X45390Y-34249D02*
X45441Y-34232D01*
X45441Y-34232D02*
X45495Y-34226D01*
X45495Y-34226D02*
X45547Y-34230D01*
X45547Y-34230D02*
X45599Y-34244D01*
X45599Y-34244D02*
X45647Y-34268D01*
X45647Y-34268D02*
X45689Y-34301D01*
X45689Y-34301D02*
X45724Y-34342D01*
X45724Y-34342D02*
X45751Y-34389D01*
X45751Y-34389D02*
X45768Y-34440D01*
X45768Y-34440D02*
X45774Y-34493D01*
X45774Y-34493D02*
X45775Y-34500D01*
X45775Y-37500D02*
X45769Y-37553D01*
X45769Y-37553D02*
X45754Y-37604D01*
X45754Y-37604D02*
X45729Y-37652D01*
X45729Y-37652D02*
X45695Y-37693D01*
X45695Y-37693D02*
X45653Y-37727D01*
X45653Y-37727D02*
X45606Y-37753D01*
X45606Y-37753D02*
X45555Y-37769D01*
X45555Y-37769D02*
X45501Y-37774D01*
X45501Y-37774D02*
X45449Y-37770D01*
X45449Y-37770D02*
X45397Y-37754D01*
X45397Y-37754D02*
X45350Y-37730D01*
X45350Y-37730D02*
X45308Y-37696D01*
X45308Y-37696D02*
X45274Y-37655D01*
X45274Y-37655D02*
X45248Y-37608D01*
X45248Y-37608D02*
X45232Y-37557D01*
X45232Y-37557D02*
X45226Y-37503D01*
X45226Y-37503D02*
X45230Y-37451D01*
X45230Y-37451D02*
X45245Y-37399D01*
X45245Y-37399D02*
X45269Y-37352D01*
X45269Y-37352D02*
X45303Y-37309D01*
X45303Y-37309D02*
X45344Y-37275D01*
X45344Y-37275D02*
X45390Y-37249D01*
X45390Y-37249D02*
X45441Y-37232D01*
X45441Y-37232D02*
X45495Y-37226D01*
X45495Y-37226D02*
X45547Y-37230D01*
X45547Y-37230D02*
X45599Y-37244D01*
X45599Y-37244D02*
X45647Y-37268D01*
X45647Y-37268D02*
X45689Y-37301D01*
X45689Y-37301D02*
X45724Y-37342D01*
X45724Y-37342D02*
X45751Y-37389D01*
X45751Y-37389D02*
X45768Y-37440D01*
X45768Y-37440D02*
X45774Y-37493D01*
X45774Y-37493D02*
X45775Y-37500D01*
X64433Y-26918D02*
X62663Y-26918D01*
X62663Y-26918D02*
X62663Y-26034D01*
X62663Y-26034D02*
X64433Y-26034D01*
X64433Y-26034D02*
X64433Y-26918D01*
X66401Y-26918D02*
X64631Y-26918D01*
X64631Y-26918D02*
X64631Y-26034D01*
X64631Y-26034D02*
X66401Y-26034D01*
X66401Y-26034D02*
X66401Y-26918D01*
X62464Y-26918D02*
X60694Y-26918D01*
X60694Y-26918D02*
X60694Y-26034D01*
X60694Y-26034D02*
X62464Y-26034D01*
X62464Y-26034D02*
X62464Y-26918D01*
X64433Y-23966D02*
X62663Y-23966D01*
X62663Y-23966D02*
X62663Y-23082D01*
X62663Y-23082D02*
X64433Y-23082D01*
X64433Y-23082D02*
X64433Y-23966D01*
X66401Y-23966D02*
X64631Y-23966D01*
X64631Y-23966D02*
X64631Y-23082D01*
X64631Y-23082D02*
X66401Y-23082D01*
X66401Y-23082D02*
X66401Y-23966D01*
X62464Y-23966D02*
X60694Y-23966D01*
X60694Y-23966D02*
X60694Y-23082D01*
X60694Y-23082D02*
X62464Y-23082D01*
X62464Y-23082D02*
X62464Y-23966D01*
X72306Y-26918D02*
X70536Y-26918D01*
X70536Y-26918D02*
X70536Y-26034D01*
X70536Y-26034D02*
X72306Y-26034D01*
X72306Y-26034D02*
X72306Y-26918D01*
X72306Y-23966D02*
X70536Y-23966D01*
X70536Y-23966D02*
X70536Y-23082D01*
X70536Y-23082D02*
X72306Y-23082D01*
X72306Y-23082D02*
X72306Y-23966D01*
X64433Y-32918D02*
X62663Y-32918D01*
X62663Y-32918D02*
X62663Y-32034D01*
X62663Y-32034D02*
X64433Y-32034D01*
X64433Y-32034D02*
X64433Y-32918D01*
X66401Y-32918D02*
X64631Y-32918D01*
X64631Y-32918D02*
X64631Y-32034D01*
X64631Y-32034D02*
X66401Y-32034D01*
X66401Y-32034D02*
X66401Y-32918D01*
X62464Y-32918D02*
X60694Y-32918D01*
X60694Y-32918D02*
X60694Y-32034D01*
X60694Y-32034D02*
X62464Y-32034D01*
X62464Y-32034D02*
X62464Y-32918D01*
X64433Y-29966D02*
X62663Y-29966D01*
X62663Y-29966D02*
X62663Y-29082D01*
X62663Y-29082D02*
X64433Y-29082D01*
X64433Y-29082D02*
X64433Y-29966D01*
X66401Y-29966D02*
X64631Y-29966D01*
X64631Y-29966D02*
X64631Y-29082D01*
X64631Y-29082D02*
X66401Y-29082D01*
X66401Y-29082D02*
X66401Y-29966D01*
X62464Y-29966D02*
X60694Y-29966D01*
X60694Y-29966D02*
X60694Y-29082D01*
X60694Y-29082D02*
X62464Y-29082D01*
X62464Y-29082D02*
X62464Y-29966D01*
X72306Y-32918D02*
X70536Y-32918D01*
X70536Y-32918D02*
X70536Y-32034D01*
X70536Y-32034D02*
X72306Y-32034D01*
X72306Y-32034D02*
X72306Y-32918D01*
X72306Y-29966D02*
X70536Y-29966D01*
X70536Y-29966D02*
X70536Y-29082D01*
X70536Y-29082D02*
X72306Y-29082D01*
X72306Y-29082D02*
X72306Y-29966D01*
X64433Y-44918D02*
X62663Y-44918D01*
X62663Y-44918D02*
X62663Y-44034D01*
X62663Y-44034D02*
X64433Y-44034D01*
X64433Y-44034D02*
X64433Y-44918D01*
X66401Y-44918D02*
X64631Y-44918D01*
X64631Y-44918D02*
X64631Y-44034D01*
X64631Y-44034D02*
X66401Y-44034D01*
X66401Y-44034D02*
X66401Y-44918D01*
X62464Y-44918D02*
X60694Y-44918D01*
X60694Y-44918D02*
X60694Y-44034D01*
X60694Y-44034D02*
X62464Y-44034D01*
X62464Y-44034D02*
X62464Y-44918D01*
X64433Y-41966D02*
X62663Y-41966D01*
X62663Y-41966D02*
X62663Y-41082D01*
X62663Y-41082D02*
X64433Y-41082D01*
X64433Y-41082D02*
X64433Y-41966D01*
X66401Y-41966D02*
X64631Y-41966D01*
X64631Y-41966D02*
X64631Y-41082D01*
X64631Y-41082D02*
X66401Y-41082D01*
X66401Y-41082D02*
X66401Y-41966D01*
X62464Y-41966D02*
X60694Y-41966D01*
X60694Y-41966D02*
X60694Y-41082D01*
X60694Y-41082D02*
X62464Y-41082D01*
X62464Y-41082D02*
X62464Y-41966D01*
X72306Y-44918D02*
X70536Y-44918D01*
X70536Y-44918D02*
X70536Y-44034D01*
X70536Y-44034D02*
X72306Y-44034D01*
X72306Y-44034D02*
X72306Y-44918D01*
X72306Y-41966D02*
X70536Y-41966D01*
X70536Y-41966D02*
X70536Y-41082D01*
X70536Y-41082D02*
X72306Y-41082D01*
X72306Y-41082D02*
X72306Y-41966D01*
X64433Y-38918D02*
X62663Y-38918D01*
X62663Y-38918D02*
X62663Y-38034D01*
X62663Y-38034D02*
X64433Y-38034D01*
X64433Y-38034D02*
X64433Y-38918D01*
X66401Y-38918D02*
X64631Y-38918D01*
X64631Y-38918D02*
X64631Y-38034D01*
X64631Y-38034D02*
X66401Y-38034D01*
X66401Y-38034D02*
X66401Y-38918D01*
X62464Y-38918D02*
X60694Y-38918D01*
X60694Y-38918D02*
X60694Y-38034D01*
X60694Y-38034D02*
X62464Y-38034D01*
X62464Y-38034D02*
X62464Y-38918D01*
X64433Y-35966D02*
X62663Y-35966D01*
X62663Y-35966D02*
X62663Y-35082D01*
X62663Y-35082D02*
X64433Y-35082D01*
X64433Y-35082D02*
X64433Y-35966D01*
X66401Y-35966D02*
X64631Y-35966D01*
X64631Y-35966D02*
X64631Y-35082D01*
X64631Y-35082D02*
X66401Y-35082D01*
X66401Y-35082D02*
X66401Y-35966D01*
X62464Y-35966D02*
X60694Y-35966D01*
X60694Y-35966D02*
X60694Y-35082D01*
X60694Y-35082D02*
X62464Y-35082D01*
X62464Y-35082D02*
X62464Y-35966D01*
X72306Y-38918D02*
X70536Y-38918D01*
X70536Y-38918D02*
X70536Y-38034D01*
X70536Y-38034D02*
X72306Y-38034D01*
X72306Y-38034D02*
X72306Y-38918D01*
X72306Y-35966D02*
X70536Y-35966D01*
X70536Y-35966D02*
X70536Y-35082D01*
X70536Y-35082D02*
X72306Y-35082D01*
X72306Y-35082D02*
X72306Y-35966D01*
X45200Y-39000D02*
X45800Y-39000D01*
X45800Y-39000D02*
X45800Y-40000D01*
X45800Y-40000D02*
X45200Y-40000D01*
X45200Y-40000D02*
X45200Y-39000D01*
X46200Y-39000D02*
X46800Y-39000D01*
X46800Y-39000D02*
X46800Y-40000D01*
X46800Y-40000D02*
X46200Y-40000D01*
X46200Y-40000D02*
X46200Y-39000D01*
X47200Y-39000D02*
X47800Y-39000D01*
X47800Y-39000D02*
X47800Y-40000D01*
X47800Y-40000D02*
X47200Y-40000D01*
X47200Y-40000D02*
X47200Y-39000D01*
X48200Y-39000D02*
X48800Y-39000D01*
X48800Y-39000D02*
X48800Y-40000D01*
X48800Y-40000D02*
X48200Y-40000D01*
X48200Y-40000D02*
X48200Y-39000D01*
X49200Y-39000D02*
X49800Y-39000D01*
X49800Y-39000D02*
X49800Y-40000D01*
X49800Y-40000D02*
X49200Y-40000D01*
X49200Y-40000D02*
X49200Y-39000D01*
X50200Y-39000D02*
X50800Y-39000D01*
X50800Y-39000D02*
X50800Y-40000D01*
X50800Y-40000D02*
X50200Y-40000D01*
X50200Y-40000D02*
X50200Y-39000D01*
X51200Y-39000D02*
X51800Y-39000D01*
X51800Y-39000D02*
X51800Y-40000D01*
X51800Y-40000D02*
X51200Y-40000D01*
X51200Y-40000D02*
X51200Y-39000D01*
X52200Y-39000D02*
X52800Y-39000D01*
X52800Y-39000D02*
X52800Y-40000D01*
X52800Y-40000D02*
X52200Y-40000D01*
X52200Y-40000D02*
X52200Y-39000D01*
X54200Y-20000D02*
X54800Y-20000D01*
X54800Y-20000D02*
X54800Y-21000D01*
X54800Y-21000D02*
X54200Y-21000D01*
X54200Y-21000D02*
X54200Y-20000D01*
X53200Y-20000D02*
X53800Y-20000D01*
X53800Y-20000D02*
X53800Y-21000D01*
X53800Y-21000D02*
X53200Y-21000D01*
X53200Y-21000D02*
X53200Y-20000D01*
X52200Y-20000D02*
X52800Y-20000D01*
X52800Y-20000D02*
X52800Y-21000D01*
X52800Y-21000D02*
X52200Y-21000D01*
X52200Y-21000D02*
X52200Y-20000D01*
X51200Y-20000D02*
X51800Y-20000D01*
X51800Y-20000D02*
X51800Y-21000D01*
X51800Y-21000D02*
X51200Y-21000D01*
X51200Y-21000D02*
X51200Y-20000D01*
X47200Y-20000D02*
X47800Y-20000D01*
X47800Y-20000D02*
X47800Y-21000D01*
X47800Y-21000D02*
X47200Y-21000D01*
X47200Y-21000D02*
X47200Y-20000D01*
X45200Y-20000D02*
X45800Y-20000D01*
X45800Y-20000D02*
X45800Y-21000D01*
X45800Y-21000D02*
X45200Y-21000D01*
X45200Y-21000D02*
X45200Y-20000D01*
X44200Y-20000D02*
X44800Y-20000D01*
X44800Y-20000D02*
X44800Y-21000D01*
X44800Y-21000D02*
X44200Y-21000D01*
X44200Y-21000D02*
X44200Y-20000D01*
X48200Y-20000D02*
X48800Y-20000D01*
X48800Y-20000D02*
X48800Y-21000D01*
X48800Y-21000D02*
X48200Y-21000D01*
X48200Y-21000D02*
X48200Y-20000D01*
X49200Y-20000D02*
X49800Y-20000D01*
X49800Y-20000D02*
X49800Y-21000D01*
X49800Y-21000D02*
X49200Y-21000D01*
X49200Y-21000D02*
X49200Y-20000D01*
X50200Y-20000D02*
X50800Y-20000D01*
X50800Y-20000D02*
X50800Y-21000D01*
X50800Y-21000D02*
X50200Y-21000D01*
X50200Y-21000D02*
X50200Y-20000D01*
X43200Y-20000D02*
X43800Y-20000D01*
X43800Y-20000D02*
X43800Y-21000D01*
X43800Y-21000D02*
X43200Y-21000D01*
X43200Y-21000D02*
X43200Y-20000D01*
X42200Y-20000D02*
X42800Y-20000D01*
X42800Y-20000D02*
X42800Y-21000D01*
X42800Y-21000D02*
X42200Y-21000D01*
X42200Y-21000D02*
X42200Y-20000D01*
X41200Y-20000D02*
X41800Y-20000D01*
X41800Y-20000D02*
X41800Y-21000D01*
X41800Y-21000D02*
X41200Y-21000D01*
X41200Y-21000D02*
X41200Y-20000D01*
X38200Y-20000D02*
X38800Y-20000D01*
X38800Y-20000D02*
X38800Y-21000D01*
X38800Y-21000D02*
X38200Y-21000D01*
X38200Y-21000D02*
X38200Y-20000D01*
X39200Y-20000D02*
X39800Y-20000D01*
X39800Y-20000D02*
X39800Y-21000D01*
X39800Y-21000D02*
X39200Y-21000D01*
X39200Y-21000D02*
X39200Y-20000D01*
X40200Y-20000D02*
X40800Y-20000D01*
X40800Y-20000D02*
X40800Y-21000D01*
X40800Y-21000D02*
X40200Y-21000D01*
X40200Y-21000D02*
X40200Y-20000D01*
X36200Y-20000D02*
X36800Y-20000D01*
X36800Y-20000D02*
X36800Y-21000D01*
X36800Y-21000D02*
X36200Y-21000D01*
X36200Y-21000D02*
X36200Y-20000D01*
X35200Y-20000D02*
X35800Y-20000D01*
X35800Y-20000D02*
X35800Y-21000D01*
X35800Y-21000D02*
X35200Y-21000D01*
X35200Y-21000D02*
X35200Y-20000D01*
X34200Y-20000D02*
X34800Y-20000D01*
X34800Y-20000D02*
X34800Y-21000D01*
X34800Y-21000D02*
X34200Y-21000D01*
X34200Y-21000D02*
X34200Y-20000D01*
X32200Y-20000D02*
X32800Y-20000D01*
X32800Y-20000D02*
X32800Y-21000D01*
X32800Y-21000D02*
X32200Y-21000D01*
X32200Y-21000D02*
X32200Y-20000D01*
X31200Y-20000D02*
X31800Y-20000D01*
X31800Y-20000D02*
X31800Y-21000D01*
X31800Y-21000D02*
X31200Y-21000D01*
X31200Y-21000D02*
X31200Y-20000D01*
X43200Y-39000D02*
X43800Y-39000D01*
X43800Y-39000D02*
X43800Y-40000D01*
X43800Y-40000D02*
X43200Y-40000D01*
X43200Y-40000D02*
X43200Y-39000D01*
X42200Y-39000D02*
X42800Y-39000D01*
X42800Y-39000D02*
X42800Y-40000D01*
X42800Y-40000D02*
X42200Y-40000D01*
X42200Y-40000D02*
X42200Y-39000D01*
X41200Y-39000D02*
X41800Y-39000D01*
X41800Y-39000D02*
X41800Y-40000D01*
X41800Y-40000D02*
X41200Y-40000D01*
X41200Y-40000D02*
X41200Y-39000D01*
X40200Y-39000D02*
X40800Y-39000D01*
X40800Y-39000D02*
X40800Y-40000D01*
X40800Y-40000D02*
X40200Y-40000D01*
X40200Y-40000D02*
X40200Y-39000D01*
X39200Y-39000D02*
X39800Y-39000D01*
X39800Y-39000D02*
X39800Y-40000D01*
X39800Y-40000D02*
X39200Y-40000D01*
X39200Y-40000D02*
X39200Y-39000D01*
X38200Y-39000D02*
X38800Y-39000D01*
X38800Y-39000D02*
X38800Y-40000D01*
X38800Y-40000D02*
X38200Y-40000D01*
X38200Y-40000D02*
X38200Y-39000D01*
X37200Y-39000D02*
X37800Y-39000D01*
X37800Y-39000D02*
X37800Y-40000D01*
X37800Y-40000D02*
X37200Y-40000D01*
X37200Y-40000D02*
X37200Y-39000D01*
X36200Y-39000D02*
X36800Y-39000D01*
X36800Y-39000D02*
X36800Y-40000D01*
X36800Y-40000D02*
X36200Y-40000D01*
X36200Y-40000D02*
X36200Y-39000D01*
X34600Y-39000D02*
X35200Y-39000D01*
X35200Y-39000D02*
X35200Y-40000D01*
X35200Y-40000D02*
X34600Y-40000D01*
X34600Y-40000D02*
X34600Y-39000D01*
X33600Y-39000D02*
X34200Y-39000D01*
X34200Y-39000D02*
X34200Y-40000D01*
X34200Y-40000D02*
X33600Y-40000D01*
X33600Y-40000D02*
X33600Y-39000D01*
X32600Y-39000D02*
X33200Y-39000D01*
X33200Y-39000D02*
X33200Y-40000D01*
X33200Y-40000D02*
X32600Y-40000D01*
X32600Y-40000D02*
X32600Y-39000D01*
X31600Y-39000D02*
X32200Y-39000D01*
X32200Y-39000D02*
X32200Y-40000D01*
X32200Y-40000D02*
X31600Y-40000D01*
X31600Y-40000D02*
X31600Y-39000D01*
X30600Y-39000D02*
X31200Y-39000D01*
X31200Y-39000D02*
X31200Y-40000D01*
X31200Y-40000D02*
X30600Y-40000D01*
X30600Y-40000D02*
X30600Y-39000D01*
X29600Y-39000D02*
X30200Y-39000D01*
X30200Y-39000D02*
X30200Y-40000D01*
X30200Y-40000D02*
X29600Y-40000D01*
X29600Y-40000D02*
X29600Y-39000D01*
X28600Y-39000D02*
X29200Y-39000D01*
X29200Y-39000D02*
X29200Y-40000D01*
X29200Y-40000D02*
X28600Y-40000D01*
X28600Y-40000D02*
X28600Y-39000D01*
X27600Y-39000D02*
X28200Y-39000D01*
X28200Y-39000D02*
X28200Y-40000D01*
X28200Y-40000D02*
X27600Y-40000D01*
X27600Y-40000D02*
X27600Y-39000D01*
X33200Y-20000D02*
X33800Y-20000D01*
X33800Y-20000D02*
X33800Y-21000D01*
X33800Y-21000D02*
X33200Y-21000D01*
X33200Y-21000D02*
X33200Y-20000D01*
X25275Y-39500D02*
X25260Y-39650D01*
X25260Y-39650D02*
X25216Y-39795D01*
X25216Y-39795D02*
X25145Y-39928D01*
X25145Y-39928D02*
X25049Y-40046D01*
X25049Y-40046D02*
X24933Y-40142D01*
X24933Y-40142D02*
X24800Y-40214D01*
X24800Y-40214D02*
X24655Y-40259D01*
X24655Y-40259D02*
X24505Y-40274D01*
X24505Y-40274D02*
X24355Y-40261D01*
X24355Y-40261D02*
X24210Y-40218D01*
X24210Y-40218D02*
X24076Y-40148D01*
X24076Y-40148D02*
X23958Y-40053D01*
X23958Y-40053D02*
X23861Y-39937D01*
X23861Y-39937D02*
X23788Y-39805D01*
X23788Y-39805D02*
X23742Y-39661D01*
X23742Y-39661D02*
X23726Y-39510D01*
X23726Y-39510D02*
X23738Y-39361D01*
X23738Y-39361D02*
X23780Y-39215D01*
X23780Y-39215D02*
X23849Y-39081D01*
X23849Y-39081D02*
X23943Y-38962D01*
X23943Y-38962D02*
X24058Y-38864D01*
X24058Y-38864D02*
X24190Y-38790D01*
X24190Y-38790D02*
X24334Y-38744D01*
X24334Y-38744D02*
X24484Y-38726D01*
X24484Y-38726D02*
X24634Y-38737D01*
X24634Y-38737D02*
X24780Y-38778D01*
X24780Y-38778D02*
X24915Y-38846D01*
X24915Y-38846D02*
X25034Y-38939D01*
X25034Y-38939D02*
X25133Y-39054D01*
X25133Y-39054D02*
X25207Y-39185D01*
X25207Y-39185D02*
X25255Y-39329D01*
X25255Y-39329D02*
X25274Y-39479D01*
X25274Y-39479D02*
X25275Y-39500D01*
X24775Y-20500D02*
X24760Y-20650D01*
X24760Y-20650D02*
X24716Y-20795D01*
X24716Y-20795D02*
X24645Y-20928D01*
X24645Y-20928D02*
X24549Y-21046D01*
X24549Y-21046D02*
X24433Y-21142D01*
X24433Y-21142D02*
X24300Y-21214D01*
X24300Y-21214D02*
X24155Y-21259D01*
X24155Y-21259D02*
X24005Y-21274D01*
X24005Y-21274D02*
X23855Y-21261D01*
X23855Y-21261D02*
X23710Y-21218D01*
X23710Y-21218D02*
X23576Y-21148D01*
X23576Y-21148D02*
X23458Y-21053D01*
X23458Y-21053D02*
X23361Y-20937D01*
X23361Y-20937D02*
X23288Y-20805D01*
X23288Y-20805D02*
X23242Y-20661D01*
X23242Y-20661D02*
X23226Y-20510D01*
X23226Y-20510D02*
X23238Y-20361D01*
X23238Y-20361D02*
X23280Y-20215D01*
X23280Y-20215D02*
X23349Y-20081D01*
X23349Y-20081D02*
X23443Y-19962D01*
X23443Y-19962D02*
X23558Y-19864D01*
X23558Y-19864D02*
X23690Y-19790D01*
X23690Y-19790D02*
X23834Y-19744D01*
X23834Y-19744D02*
X23984Y-19726D01*
X23984Y-19726D02*
X24134Y-19737D01*
X24134Y-19737D02*
X24280Y-19778D01*
X24280Y-19778D02*
X24415Y-19846D01*
X24415Y-19846D02*
X24534Y-19939D01*
X24534Y-19939D02*
X24633Y-20054D01*
X24633Y-20054D02*
X24707Y-20185D01*
X24707Y-20185D02*
X24755Y-20329D01*
X24755Y-20329D02*
X24774Y-20479D01*
X24774Y-20479D02*
X24775Y-20500D01*
X55800Y-38500D02*
X55794Y-38558D01*
X55794Y-38558D02*
X55777Y-38614D01*
X55777Y-38614D02*
X55749Y-38666D01*
X55749Y-38666D02*
X55712Y-38711D01*
X55712Y-38711D02*
X55667Y-38748D01*
X55667Y-38748D02*
X55616Y-38776D01*
X55616Y-38776D02*
X55560Y-38793D01*
X55560Y-38793D02*
X55502Y-38799D01*
X55502Y-38799D02*
X55444Y-38794D01*
X55444Y-38794D02*
X55388Y-38778D01*
X55388Y-38778D02*
X55336Y-38751D01*
X55336Y-38751D02*
X55291Y-38714D01*
X55291Y-38714D02*
X55253Y-38669D01*
X55253Y-38669D02*
X55225Y-38618D01*
X55225Y-38618D02*
X55207Y-38562D01*
X55207Y-38562D02*
X55201Y-38504D01*
X55201Y-38504D02*
X55205Y-38446D01*
X55205Y-38446D02*
X55222Y-38390D01*
X55222Y-38390D02*
X55248Y-38338D01*
X55248Y-38338D02*
X55285Y-38292D01*
X55285Y-38292D02*
X55329Y-38254D01*
X55329Y-38254D02*
X55380Y-38226D01*
X55380Y-38226D02*
X55436Y-38207D01*
X55436Y-38207D02*
X55494Y-38201D01*
X55494Y-38201D02*
X55552Y-38205D01*
X55552Y-38205D02*
X55608Y-38221D01*
X55608Y-38221D02*
X55660Y-38247D01*
X55660Y-38247D02*
X55706Y-38283D01*
X55706Y-38283D02*
X55745Y-38328D01*
X55745Y-38328D02*
X55774Y-38378D01*
X55774Y-38378D02*
X55792Y-38434D01*
X55792Y-38434D02*
X55799Y-38492D01*
X55799Y-38492D02*
X55800Y-38500D01*
X56800Y-38500D02*
X56794Y-38558D01*
X56794Y-38558D02*
X56777Y-38614D01*
X56777Y-38614D02*
X56749Y-38666D01*
X56749Y-38666D02*
X56712Y-38711D01*
X56712Y-38711D02*
X56667Y-38748D01*
X56667Y-38748D02*
X56616Y-38776D01*
X56616Y-38776D02*
X56560Y-38793D01*
X56560Y-38793D02*
X56502Y-38799D01*
X56502Y-38799D02*
X56444Y-38794D01*
X56444Y-38794D02*
X56388Y-38778D01*
X56388Y-38778D02*
X56336Y-38751D01*
X56336Y-38751D02*
X56291Y-38714D01*
X56291Y-38714D02*
X56253Y-38669D01*
X56253Y-38669D02*
X56225Y-38618D01*
X56225Y-38618D02*
X56207Y-38562D01*
X56207Y-38562D02*
X56201Y-38504D01*
X56201Y-38504D02*
X56205Y-38446D01*
X56205Y-38446D02*
X56222Y-38390D01*
X56222Y-38390D02*
X56248Y-38338D01*
X56248Y-38338D02*
X56285Y-38292D01*
X56285Y-38292D02*
X56329Y-38254D01*
X56329Y-38254D02*
X56380Y-38226D01*
X56380Y-38226D02*
X56436Y-38207D01*
X56436Y-38207D02*
X56494Y-38201D01*
X56494Y-38201D02*
X56552Y-38205D01*
X56552Y-38205D02*
X56608Y-38221D01*
X56608Y-38221D02*
X56660Y-38247D01*
X56660Y-38247D02*
X56706Y-38283D01*
X56706Y-38283D02*
X56745Y-38328D01*
X56745Y-38328D02*
X56774Y-38378D01*
X56774Y-38378D02*
X56792Y-38434D01*
X56792Y-38434D02*
X56799Y-38492D01*
X56799Y-38492D02*
X56800Y-38500D01*
X55800Y-37500D02*
X55794Y-37558D01*
X55794Y-37558D02*
X55777Y-37614D01*
X55777Y-37614D02*
X55749Y-37666D01*
X55749Y-37666D02*
X55712Y-37711D01*
X55712Y-37711D02*
X55667Y-37748D01*
X55667Y-37748D02*
X55616Y-37776D01*
X55616Y-37776D02*
X55560Y-37793D01*
X55560Y-37793D02*
X55502Y-37799D01*
X55502Y-37799D02*
X55444Y-37794D01*
X55444Y-37794D02*
X55388Y-37778D01*
X55388Y-37778D02*
X55336Y-37751D01*
X55336Y-37751D02*
X55291Y-37714D01*
X55291Y-37714D02*
X55253Y-37669D01*
X55253Y-37669D02*
X55225Y-37618D01*
X55225Y-37618D02*
X55207Y-37562D01*
X55207Y-37562D02*
X55201Y-37504D01*
X55201Y-37504D02*
X55205Y-37446D01*
X55205Y-37446D02*
X55222Y-37390D01*
X55222Y-37390D02*
X55248Y-37338D01*
X55248Y-37338D02*
X55285Y-37292D01*
X55285Y-37292D02*
X55329Y-37254D01*
X55329Y-37254D02*
X55380Y-37226D01*
X55380Y-37226D02*
X55436Y-37207D01*
X55436Y-37207D02*
X55494Y-37201D01*
X55494Y-37201D02*
X55552Y-37205D01*
X55552Y-37205D02*
X55608Y-37221D01*
X55608Y-37221D02*
X55660Y-37247D01*
X55660Y-37247D02*
X55706Y-37283D01*
X55706Y-37283D02*
X55745Y-37328D01*
X55745Y-37328D02*
X55774Y-37378D01*
X55774Y-37378D02*
X55792Y-37434D01*
X55792Y-37434D02*
X55799Y-37492D01*
X55799Y-37492D02*
X55800Y-37500D01*
X56800Y-37500D02*
X56794Y-37558D01*
X56794Y-37558D02*
X56777Y-37614D01*
X56777Y-37614D02*
X56749Y-37666D01*
X56749Y-37666D02*
X56712Y-37711D01*
X56712Y-37711D02*
X56667Y-37748D01*
X56667Y-37748D02*
X56616Y-37776D01*
X56616Y-37776D02*
X56560Y-37793D01*
X56560Y-37793D02*
X56502Y-37799D01*
X56502Y-37799D02*
X56444Y-37794D01*
X56444Y-37794D02*
X56388Y-37778D01*
X56388Y-37778D02*
X56336Y-37751D01*
X56336Y-37751D02*
X56291Y-37714D01*
X56291Y-37714D02*
X56253Y-37669D01*
X56253Y-37669D02*
X56225Y-37618D01*
X56225Y-37618D02*
X56207Y-37562D01*
X56207Y-37562D02*
X56201Y-37504D01*
X56201Y-37504D02*
X56205Y-37446D01*
X56205Y-37446D02*
X56222Y-37390D01*
X56222Y-37390D02*
X56248Y-37338D01*
X56248Y-37338D02*
X56285Y-37292D01*
X56285Y-37292D02*
X56329Y-37254D01*
X56329Y-37254D02*
X56380Y-37226D01*
X56380Y-37226D02*
X56436Y-37207D01*
X56436Y-37207D02*
X56494Y-37201D01*
X56494Y-37201D02*
X56552Y-37205D01*
X56552Y-37205D02*
X56608Y-37221D01*
X56608Y-37221D02*
X56660Y-37247D01*
X56660Y-37247D02*
X56706Y-37283D01*
X56706Y-37283D02*
X56745Y-37328D01*
X56745Y-37328D02*
X56774Y-37378D01*
X56774Y-37378D02*
X56792Y-37434D01*
X56792Y-37434D02*
X56799Y-37492D01*
X56799Y-37492D02*
X56800Y-37500D01*
X55800Y-36500D02*
X55794Y-36558D01*
X55794Y-36558D02*
X55777Y-36614D01*
X55777Y-36614D02*
X55749Y-36666D01*
X55749Y-36666D02*
X55712Y-36711D01*
X55712Y-36711D02*
X55667Y-36748D01*
X55667Y-36748D02*
X55616Y-36776D01*
X55616Y-36776D02*
X55560Y-36793D01*
X55560Y-36793D02*
X55502Y-36799D01*
X55502Y-36799D02*
X55444Y-36794D01*
X55444Y-36794D02*
X55388Y-36778D01*
X55388Y-36778D02*
X55336Y-36751D01*
X55336Y-36751D02*
X55291Y-36714D01*
X55291Y-36714D02*
X55253Y-36669D01*
X55253Y-36669D02*
X55225Y-36618D01*
X55225Y-36618D02*
X55207Y-36562D01*
X55207Y-36562D02*
X55201Y-36504D01*
X55201Y-36504D02*
X55205Y-36446D01*
X55205Y-36446D02*
X55222Y-36390D01*
X55222Y-36390D02*
X55248Y-36338D01*
X55248Y-36338D02*
X55285Y-36292D01*
X55285Y-36292D02*
X55329Y-36254D01*
X55329Y-36254D02*
X55380Y-36226D01*
X55380Y-36226D02*
X55436Y-36207D01*
X55436Y-36207D02*
X55494Y-36201D01*
X55494Y-36201D02*
X55552Y-36205D01*
X55552Y-36205D02*
X55608Y-36221D01*
X55608Y-36221D02*
X55660Y-36247D01*
X55660Y-36247D02*
X55706Y-36283D01*
X55706Y-36283D02*
X55745Y-36328D01*
X55745Y-36328D02*
X55774Y-36378D01*
X55774Y-36378D02*
X55792Y-36434D01*
X55792Y-36434D02*
X55799Y-36492D01*
X55799Y-36492D02*
X55800Y-36500D01*
X56800Y-36500D02*
X56794Y-36558D01*
X56794Y-36558D02*
X56777Y-36614D01*
X56777Y-36614D02*
X56749Y-36666D01*
X56749Y-36666D02*
X56712Y-36711D01*
X56712Y-36711D02*
X56667Y-36748D01*
X56667Y-36748D02*
X56616Y-36776D01*
X56616Y-36776D02*
X56560Y-36793D01*
X56560Y-36793D02*
X56502Y-36799D01*
X56502Y-36799D02*
X56444Y-36794D01*
X56444Y-36794D02*
X56388Y-36778D01*
X56388Y-36778D02*
X56336Y-36751D01*
X56336Y-36751D02*
X56291Y-36714D01*
X56291Y-36714D02*
X56253Y-36669D01*
X56253Y-36669D02*
X56225Y-36618D01*
X56225Y-36618D02*
X56207Y-36562D01*
X56207Y-36562D02*
X56201Y-36504D01*
X56201Y-36504D02*
X56205Y-36446D01*
X56205Y-36446D02*
X56222Y-36390D01*
X56222Y-36390D02*
X56248Y-36338D01*
X56248Y-36338D02*
X56285Y-36292D01*
X56285Y-36292D02*
X56329Y-36254D01*
X56329Y-36254D02*
X56380Y-36226D01*
X56380Y-36226D02*
X56436Y-36207D01*
X56436Y-36207D02*
X56494Y-36201D01*
X56494Y-36201D02*
X56552Y-36205D01*
X56552Y-36205D02*
X56608Y-36221D01*
X56608Y-36221D02*
X56660Y-36247D01*
X56660Y-36247D02*
X56706Y-36283D01*
X56706Y-36283D02*
X56745Y-36328D01*
X56745Y-36328D02*
X56774Y-36378D01*
X56774Y-36378D02*
X56792Y-36434D01*
X56792Y-36434D02*
X56799Y-36492D01*
X56799Y-36492D02*
X56800Y-36500D01*
X55800Y-35500D02*
X55794Y-35558D01*
X55794Y-35558D02*
X55777Y-35614D01*
X55777Y-35614D02*
X55749Y-35666D01*
X55749Y-35666D02*
X55712Y-35711D01*
X55712Y-35711D02*
X55667Y-35748D01*
X55667Y-35748D02*
X55616Y-35776D01*
X55616Y-35776D02*
X55560Y-35793D01*
X55560Y-35793D02*
X55502Y-35799D01*
X55502Y-35799D02*
X55444Y-35794D01*
X55444Y-35794D02*
X55388Y-35778D01*
X55388Y-35778D02*
X55336Y-35751D01*
X55336Y-35751D02*
X55291Y-35714D01*
X55291Y-35714D02*
X55253Y-35669D01*
X55253Y-35669D02*
X55225Y-35618D01*
X55225Y-35618D02*
X55207Y-35562D01*
X55207Y-35562D02*
X55201Y-35504D01*
X55201Y-35504D02*
X55205Y-35446D01*
X55205Y-35446D02*
X55222Y-35390D01*
X55222Y-35390D02*
X55248Y-35338D01*
X55248Y-35338D02*
X55285Y-35292D01*
X55285Y-35292D02*
X55329Y-35254D01*
X55329Y-35254D02*
X55380Y-35226D01*
X55380Y-35226D02*
X55436Y-35207D01*
X55436Y-35207D02*
X55494Y-35201D01*
X55494Y-35201D02*
X55552Y-35205D01*
X55552Y-35205D02*
X55608Y-35221D01*
X55608Y-35221D02*
X55660Y-35247D01*
X55660Y-35247D02*
X55706Y-35283D01*
X55706Y-35283D02*
X55745Y-35328D01*
X55745Y-35328D02*
X55774Y-35378D01*
X55774Y-35378D02*
X55792Y-35434D01*
X55792Y-35434D02*
X55799Y-35492D01*
X55799Y-35492D02*
X55800Y-35500D01*
X56800Y-35500D02*
X56794Y-35558D01*
X56794Y-35558D02*
X56777Y-35614D01*
X56777Y-35614D02*
X56749Y-35666D01*
X56749Y-35666D02*
X56712Y-35711D01*
X56712Y-35711D02*
X56667Y-35748D01*
X56667Y-35748D02*
X56616Y-35776D01*
X56616Y-35776D02*
X56560Y-35793D01*
X56560Y-35793D02*
X56502Y-35799D01*
X56502Y-35799D02*
X56444Y-35794D01*
X56444Y-35794D02*
X56388Y-35778D01*
X56388Y-35778D02*
X56336Y-35751D01*
X56336Y-35751D02*
X56291Y-35714D01*
X56291Y-35714D02*
X56253Y-35669D01*
X56253Y-35669D02*
X56225Y-35618D01*
X56225Y-35618D02*
X56207Y-35562D01*
X56207Y-35562D02*
X56201Y-35504D01*
X56201Y-35504D02*
X56205Y-35446D01*
X56205Y-35446D02*
X56222Y-35390D01*
X56222Y-35390D02*
X56248Y-35338D01*
X56248Y-35338D02*
X56285Y-35292D01*
X56285Y-35292D02*
X56329Y-35254D01*
X56329Y-35254D02*
X56380Y-35226D01*
X56380Y-35226D02*
X56436Y-35207D01*
X56436Y-35207D02*
X56494Y-35201D01*
X56494Y-35201D02*
X56552Y-35205D01*
X56552Y-35205D02*
X56608Y-35221D01*
X56608Y-35221D02*
X56660Y-35247D01*
X56660Y-35247D02*
X56706Y-35283D01*
X56706Y-35283D02*
X56745Y-35328D01*
X56745Y-35328D02*
X56774Y-35378D01*
X56774Y-35378D02*
X56792Y-35434D01*
X56792Y-35434D02*
X56799Y-35492D01*
X56799Y-35492D02*
X56800Y-35500D01*
X55800Y-39500D02*
X55794Y-39558D01*
X55794Y-39558D02*
X55777Y-39614D01*
X55777Y-39614D02*
X55749Y-39666D01*
X55749Y-39666D02*
X55712Y-39711D01*
X55712Y-39711D02*
X55667Y-39748D01*
X55667Y-39748D02*
X55616Y-39776D01*
X55616Y-39776D02*
X55560Y-39793D01*
X55560Y-39793D02*
X55502Y-39799D01*
X55502Y-39799D02*
X55444Y-39794D01*
X55444Y-39794D02*
X55388Y-39778D01*
X55388Y-39778D02*
X55336Y-39751D01*
X55336Y-39751D02*
X55291Y-39714D01*
X55291Y-39714D02*
X55253Y-39669D01*
X55253Y-39669D02*
X55225Y-39618D01*
X55225Y-39618D02*
X55207Y-39562D01*
X55207Y-39562D02*
X55201Y-39504D01*
X55201Y-39504D02*
X55205Y-39446D01*
X55205Y-39446D02*
X55222Y-39390D01*
X55222Y-39390D02*
X55248Y-39338D01*
X55248Y-39338D02*
X55285Y-39292D01*
X55285Y-39292D02*
X55329Y-39254D01*
X55329Y-39254D02*
X55380Y-39226D01*
X55380Y-39226D02*
X55436Y-39207D01*
X55436Y-39207D02*
X55494Y-39201D01*
X55494Y-39201D02*
X55552Y-39205D01*
X55552Y-39205D02*
X55608Y-39221D01*
X55608Y-39221D02*
X55660Y-39247D01*
X55660Y-39247D02*
X55706Y-39283D01*
X55706Y-39283D02*
X55745Y-39328D01*
X55745Y-39328D02*
X55774Y-39378D01*
X55774Y-39378D02*
X55792Y-39434D01*
X55792Y-39434D02*
X55799Y-39492D01*
X55799Y-39492D02*
X55800Y-39500D01*
X56800Y-39500D02*
X56794Y-39558D01*
X56794Y-39558D02*
X56777Y-39614D01*
X56777Y-39614D02*
X56749Y-39666D01*
X56749Y-39666D02*
X56712Y-39711D01*
X56712Y-39711D02*
X56667Y-39748D01*
X56667Y-39748D02*
X56616Y-39776D01*
X56616Y-39776D02*
X56560Y-39793D01*
X56560Y-39793D02*
X56502Y-39799D01*
X56502Y-39799D02*
X56444Y-39794D01*
X56444Y-39794D02*
X56388Y-39778D01*
X56388Y-39778D02*
X56336Y-39751D01*
X56336Y-39751D02*
X56291Y-39714D01*
X56291Y-39714D02*
X56253Y-39669D01*
X56253Y-39669D02*
X56225Y-39618D01*
X56225Y-39618D02*
X56207Y-39562D01*
X56207Y-39562D02*
X56201Y-39504D01*
X56201Y-39504D02*
X56205Y-39446D01*
X56205Y-39446D02*
X56222Y-39390D01*
X56222Y-39390D02*
X56248Y-39338D01*
X56248Y-39338D02*
X56285Y-39292D01*
X56285Y-39292D02*
X56329Y-39254D01*
X56329Y-39254D02*
X56380Y-39226D01*
X56380Y-39226D02*
X56436Y-39207D01*
X56436Y-39207D02*
X56494Y-39201D01*
X56494Y-39201D02*
X56552Y-39205D01*
X56552Y-39205D02*
X56608Y-39221D01*
X56608Y-39221D02*
X56660Y-39247D01*
X56660Y-39247D02*
X56706Y-39283D01*
X56706Y-39283D02*
X56745Y-39328D01*
X56745Y-39328D02*
X56774Y-39378D01*
X56774Y-39378D02*
X56792Y-39434D01*
X56792Y-39434D02*
X56799Y-39492D01*
X56799Y-39492D02*
X56800Y-39500D01*
X56800Y-34500D02*
X56794Y-34558D01*
X56794Y-34558D02*
X56777Y-34614D01*
X56777Y-34614D02*
X56749Y-34666D01*
X56749Y-34666D02*
X56712Y-34711D01*
X56712Y-34711D02*
X56667Y-34748D01*
X56667Y-34748D02*
X56616Y-34776D01*
X56616Y-34776D02*
X56560Y-34793D01*
X56560Y-34793D02*
X56502Y-34799D01*
X56502Y-34799D02*
X56444Y-34794D01*
X56444Y-34794D02*
X56388Y-34778D01*
X56388Y-34778D02*
X56336Y-34751D01*
X56336Y-34751D02*
X56291Y-34714D01*
X56291Y-34714D02*
X56253Y-34669D01*
X56253Y-34669D02*
X56225Y-34618D01*
X56225Y-34618D02*
X56207Y-34562D01*
X56207Y-34562D02*
X56201Y-34504D01*
X56201Y-34504D02*
X56205Y-34446D01*
X56205Y-34446D02*
X56222Y-34390D01*
X56222Y-34390D02*
X56248Y-34338D01*
X56248Y-34338D02*
X56285Y-34292D01*
X56285Y-34292D02*
X56329Y-34254D01*
X56329Y-34254D02*
X56380Y-34226D01*
X56380Y-34226D02*
X56436Y-34207D01*
X56436Y-34207D02*
X56494Y-34201D01*
X56494Y-34201D02*
X56552Y-34205D01*
X56552Y-34205D02*
X56608Y-34221D01*
X56608Y-34221D02*
X56660Y-34247D01*
X56660Y-34247D02*
X56706Y-34283D01*
X56706Y-34283D02*
X56745Y-34328D01*
X56745Y-34328D02*
X56774Y-34378D01*
X56774Y-34378D02*
X56792Y-34434D01*
X56792Y-34434D02*
X56799Y-34492D01*
X56799Y-34492D02*
X56800Y-34500D01*
X55800Y-34500D02*
X55794Y-34558D01*
X55794Y-34558D02*
X55777Y-34614D01*
X55777Y-34614D02*
X55749Y-34666D01*
X55749Y-34666D02*
X55712Y-34711D01*
X55712Y-34711D02*
X55667Y-34748D01*
X55667Y-34748D02*
X55616Y-34776D01*
X55616Y-34776D02*
X55560Y-34793D01*
X55560Y-34793D02*
X55502Y-34799D01*
X55502Y-34799D02*
X55444Y-34794D01*
X55444Y-34794D02*
X55388Y-34778D01*
X55388Y-34778D02*
X55336Y-34751D01*
X55336Y-34751D02*
X55291Y-34714D01*
X55291Y-34714D02*
X55253Y-34669D01*
X55253Y-34669D02*
X55225Y-34618D01*
X55225Y-34618D02*
X55207Y-34562D01*
X55207Y-34562D02*
X55201Y-34504D01*
X55201Y-34504D02*
X55205Y-34446D01*
X55205Y-34446D02*
X55222Y-34390D01*
X55222Y-34390D02*
X55248Y-34338D01*
X55248Y-34338D02*
X55285Y-34292D01*
X55285Y-34292D02*
X55329Y-34254D01*
X55329Y-34254D02*
X55380Y-34226D01*
X55380Y-34226D02*
X55436Y-34207D01*
X55436Y-34207D02*
X55494Y-34201D01*
X55494Y-34201D02*
X55552Y-34205D01*
X55552Y-34205D02*
X55608Y-34221D01*
X55608Y-34221D02*
X55660Y-34247D01*
X55660Y-34247D02*
X55706Y-34283D01*
X55706Y-34283D02*
X55745Y-34328D01*
X55745Y-34328D02*
X55774Y-34378D01*
X55774Y-34378D02*
X55792Y-34434D01*
X55792Y-34434D02*
X55799Y-34492D01*
X55799Y-34492D02*
X55800Y-34500D01*
X55800Y-33500D02*
X55794Y-33558D01*
X55794Y-33558D02*
X55777Y-33614D01*
X55777Y-33614D02*
X55749Y-33666D01*
X55749Y-33666D02*
X55712Y-33711D01*
X55712Y-33711D02*
X55667Y-33748D01*
X55667Y-33748D02*
X55616Y-33776D01*
X55616Y-33776D02*
X55560Y-33793D01*
X55560Y-33793D02*
X55502Y-33799D01*
X55502Y-33799D02*
X55444Y-33794D01*
X55444Y-33794D02*
X55388Y-33778D01*
X55388Y-33778D02*
X55336Y-33751D01*
X55336Y-33751D02*
X55291Y-33714D01*
X55291Y-33714D02*
X55253Y-33669D01*
X55253Y-33669D02*
X55225Y-33618D01*
X55225Y-33618D02*
X55207Y-33562D01*
X55207Y-33562D02*
X55201Y-33504D01*
X55201Y-33504D02*
X55205Y-33446D01*
X55205Y-33446D02*
X55222Y-33390D01*
X55222Y-33390D02*
X55248Y-33338D01*
X55248Y-33338D02*
X55285Y-33292D01*
X55285Y-33292D02*
X55329Y-33254D01*
X55329Y-33254D02*
X55380Y-33226D01*
X55380Y-33226D02*
X55436Y-33207D01*
X55436Y-33207D02*
X55494Y-33201D01*
X55494Y-33201D02*
X55552Y-33205D01*
X55552Y-33205D02*
X55608Y-33221D01*
X55608Y-33221D02*
X55660Y-33247D01*
X55660Y-33247D02*
X55706Y-33283D01*
X55706Y-33283D02*
X55745Y-33328D01*
X55745Y-33328D02*
X55774Y-33378D01*
X55774Y-33378D02*
X55792Y-33434D01*
X55792Y-33434D02*
X55799Y-33492D01*
X55799Y-33492D02*
X55800Y-33500D01*
X56800Y-33500D02*
X56794Y-33558D01*
X56794Y-33558D02*
X56777Y-33614D01*
X56777Y-33614D02*
X56749Y-33666D01*
X56749Y-33666D02*
X56712Y-33711D01*
X56712Y-33711D02*
X56667Y-33748D01*
X56667Y-33748D02*
X56616Y-33776D01*
X56616Y-33776D02*
X56560Y-33793D01*
X56560Y-33793D02*
X56502Y-33799D01*
X56502Y-33799D02*
X56444Y-33794D01*
X56444Y-33794D02*
X56388Y-33778D01*
X56388Y-33778D02*
X56336Y-33751D01*
X56336Y-33751D02*
X56291Y-33714D01*
X56291Y-33714D02*
X56253Y-33669D01*
X56253Y-33669D02*
X56225Y-33618D01*
X56225Y-33618D02*
X56207Y-33562D01*
X56207Y-33562D02*
X56201Y-33504D01*
X56201Y-33504D02*
X56205Y-33446D01*
X56205Y-33446D02*
X56222Y-33390D01*
X56222Y-33390D02*
X56248Y-33338D01*
X56248Y-33338D02*
X56285Y-33292D01*
X56285Y-33292D02*
X56329Y-33254D01*
X56329Y-33254D02*
X56380Y-33226D01*
X56380Y-33226D02*
X56436Y-33207D01*
X56436Y-33207D02*
X56494Y-33201D01*
X56494Y-33201D02*
X56552Y-33205D01*
X56552Y-33205D02*
X56608Y-33221D01*
X56608Y-33221D02*
X56660Y-33247D01*
X56660Y-33247D02*
X56706Y-33283D01*
X56706Y-33283D02*
X56745Y-33328D01*
X56745Y-33328D02*
X56774Y-33378D01*
X56774Y-33378D02*
X56792Y-33434D01*
X56792Y-33434D02*
X56799Y-33492D01*
X56799Y-33492D02*
X56800Y-33500D01*
X55800Y-32500D02*
X55794Y-32558D01*
X55794Y-32558D02*
X55777Y-32614D01*
X55777Y-32614D02*
X55749Y-32666D01*
X55749Y-32666D02*
X55712Y-32711D01*
X55712Y-32711D02*
X55667Y-32748D01*
X55667Y-32748D02*
X55616Y-32776D01*
X55616Y-32776D02*
X55560Y-32793D01*
X55560Y-32793D02*
X55502Y-32799D01*
X55502Y-32799D02*
X55444Y-32794D01*
X55444Y-32794D02*
X55388Y-32778D01*
X55388Y-32778D02*
X55336Y-32751D01*
X55336Y-32751D02*
X55291Y-32714D01*
X55291Y-32714D02*
X55253Y-32669D01*
X55253Y-32669D02*
X55225Y-32618D01*
X55225Y-32618D02*
X55207Y-32562D01*
X55207Y-32562D02*
X55201Y-32504D01*
X55201Y-32504D02*
X55205Y-32446D01*
X55205Y-32446D02*
X55222Y-32390D01*
X55222Y-32390D02*
X55248Y-32338D01*
X55248Y-32338D02*
X55285Y-32292D01*
X55285Y-32292D02*
X55329Y-32254D01*
X55329Y-32254D02*
X55380Y-32226D01*
X55380Y-32226D02*
X55436Y-32207D01*
X55436Y-32207D02*
X55494Y-32201D01*
X55494Y-32201D02*
X55552Y-32205D01*
X55552Y-32205D02*
X55608Y-32221D01*
X55608Y-32221D02*
X55660Y-32247D01*
X55660Y-32247D02*
X55706Y-32283D01*
X55706Y-32283D02*
X55745Y-32328D01*
X55745Y-32328D02*
X55774Y-32378D01*
X55774Y-32378D02*
X55792Y-32434D01*
X55792Y-32434D02*
X55799Y-32492D01*
X55799Y-32492D02*
X55800Y-32500D01*
X56800Y-32500D02*
X56794Y-32558D01*
X56794Y-32558D02*
X56777Y-32614D01*
X56777Y-32614D02*
X56749Y-32666D01*
X56749Y-32666D02*
X56712Y-32711D01*
X56712Y-32711D02*
X56667Y-32748D01*
X56667Y-32748D02*
X56616Y-32776D01*
X56616Y-32776D02*
X56560Y-32793D01*
X56560Y-32793D02*
X56502Y-32799D01*
X56502Y-32799D02*
X56444Y-32794D01*
X56444Y-32794D02*
X56388Y-32778D01*
X56388Y-32778D02*
X56336Y-32751D01*
X56336Y-32751D02*
X56291Y-32714D01*
X56291Y-32714D02*
X56253Y-32669D01*
X56253Y-32669D02*
X56225Y-32618D01*
X56225Y-32618D02*
X56207Y-32562D01*
X56207Y-32562D02*
X56201Y-32504D01*
X56201Y-32504D02*
X56205Y-32446D01*
X56205Y-32446D02*
X56222Y-32390D01*
X56222Y-32390D02*
X56248Y-32338D01*
X56248Y-32338D02*
X56285Y-32292D01*
X56285Y-32292D02*
X56329Y-32254D01*
X56329Y-32254D02*
X56380Y-32226D01*
X56380Y-32226D02*
X56436Y-32207D01*
X56436Y-32207D02*
X56494Y-32201D01*
X56494Y-32201D02*
X56552Y-32205D01*
X56552Y-32205D02*
X56608Y-32221D01*
X56608Y-32221D02*
X56660Y-32247D01*
X56660Y-32247D02*
X56706Y-32283D01*
X56706Y-32283D02*
X56745Y-32328D01*
X56745Y-32328D02*
X56774Y-32378D01*
X56774Y-32378D02*
X56792Y-32434D01*
X56792Y-32434D02*
X56799Y-32492D01*
X56799Y-32492D02*
X56800Y-32500D01*
X55800Y-31500D02*
X55794Y-31558D01*
X55794Y-31558D02*
X55777Y-31614D01*
X55777Y-31614D02*
X55749Y-31666D01*
X55749Y-31666D02*
X55712Y-31711D01*
X55712Y-31711D02*
X55667Y-31748D01*
X55667Y-31748D02*
X55616Y-31776D01*
X55616Y-31776D02*
X55560Y-31793D01*
X55560Y-31793D02*
X55502Y-31799D01*
X55502Y-31799D02*
X55444Y-31794D01*
X55444Y-31794D02*
X55388Y-31778D01*
X55388Y-31778D02*
X55336Y-31751D01*
X55336Y-31751D02*
X55291Y-31714D01*
X55291Y-31714D02*
X55253Y-31669D01*
X55253Y-31669D02*
X55225Y-31618D01*
X55225Y-31618D02*
X55207Y-31562D01*
X55207Y-31562D02*
X55201Y-31504D01*
X55201Y-31504D02*
X55205Y-31446D01*
X55205Y-31446D02*
X55222Y-31390D01*
X55222Y-31390D02*
X55248Y-31338D01*
X55248Y-31338D02*
X55285Y-31292D01*
X55285Y-31292D02*
X55329Y-31254D01*
X55329Y-31254D02*
X55380Y-31226D01*
X55380Y-31226D02*
X55436Y-31207D01*
X55436Y-31207D02*
X55494Y-31201D01*
X55494Y-31201D02*
X55552Y-31205D01*
X55552Y-31205D02*
X55608Y-31221D01*
X55608Y-31221D02*
X55660Y-31247D01*
X55660Y-31247D02*
X55706Y-31283D01*
X55706Y-31283D02*
X55745Y-31328D01*
X55745Y-31328D02*
X55774Y-31378D01*
X55774Y-31378D02*
X55792Y-31434D01*
X55792Y-31434D02*
X55799Y-31492D01*
X55799Y-31492D02*
X55800Y-31500D01*
X56800Y-31500D02*
X56794Y-31558D01*
X56794Y-31558D02*
X56777Y-31614D01*
X56777Y-31614D02*
X56749Y-31666D01*
X56749Y-31666D02*
X56712Y-31711D01*
X56712Y-31711D02*
X56667Y-31748D01*
X56667Y-31748D02*
X56616Y-31776D01*
X56616Y-31776D02*
X56560Y-31793D01*
X56560Y-31793D02*
X56502Y-31799D01*
X56502Y-31799D02*
X56444Y-31794D01*
X56444Y-31794D02*
X56388Y-31778D01*
X56388Y-31778D02*
X56336Y-31751D01*
X56336Y-31751D02*
X56291Y-31714D01*
X56291Y-31714D02*
X56253Y-31669D01*
X56253Y-31669D02*
X56225Y-31618D01*
X56225Y-31618D02*
X56207Y-31562D01*
X56207Y-31562D02*
X56201Y-31504D01*
X56201Y-31504D02*
X56205Y-31446D01*
X56205Y-31446D02*
X56222Y-31390D01*
X56222Y-31390D02*
X56248Y-31338D01*
X56248Y-31338D02*
X56285Y-31292D01*
X56285Y-31292D02*
X56329Y-31254D01*
X56329Y-31254D02*
X56380Y-31226D01*
X56380Y-31226D02*
X56436Y-31207D01*
X56436Y-31207D02*
X56494Y-31201D01*
X56494Y-31201D02*
X56552Y-31205D01*
X56552Y-31205D02*
X56608Y-31221D01*
X56608Y-31221D02*
X56660Y-31247D01*
X56660Y-31247D02*
X56706Y-31283D01*
X56706Y-31283D02*
X56745Y-31328D01*
X56745Y-31328D02*
X56774Y-31378D01*
X56774Y-31378D02*
X56792Y-31434D01*
X56792Y-31434D02*
X56799Y-31492D01*
X56799Y-31492D02*
X56800Y-31500D01*
X55800Y-30500D02*
X55794Y-30558D01*
X55794Y-30558D02*
X55777Y-30614D01*
X55777Y-30614D02*
X55749Y-30666D01*
X55749Y-30666D02*
X55712Y-30711D01*
X55712Y-30711D02*
X55667Y-30748D01*
X55667Y-30748D02*
X55616Y-30776D01*
X55616Y-30776D02*
X55560Y-30793D01*
X55560Y-30793D02*
X55502Y-30799D01*
X55502Y-30799D02*
X55444Y-30794D01*
X55444Y-30794D02*
X55388Y-30778D01*
X55388Y-30778D02*
X55336Y-30751D01*
X55336Y-30751D02*
X55291Y-30714D01*
X55291Y-30714D02*
X55253Y-30669D01*
X55253Y-30669D02*
X55225Y-30618D01*
X55225Y-30618D02*
X55207Y-30562D01*
X55207Y-30562D02*
X55201Y-30504D01*
X55201Y-30504D02*
X55205Y-30446D01*
X55205Y-30446D02*
X55222Y-30390D01*
X55222Y-30390D02*
X55248Y-30338D01*
X55248Y-30338D02*
X55285Y-30292D01*
X55285Y-30292D02*
X55329Y-30254D01*
X55329Y-30254D02*
X55380Y-30226D01*
X55380Y-30226D02*
X55436Y-30207D01*
X55436Y-30207D02*
X55494Y-30201D01*
X55494Y-30201D02*
X55552Y-30205D01*
X55552Y-30205D02*
X55608Y-30221D01*
X55608Y-30221D02*
X55660Y-30247D01*
X55660Y-30247D02*
X55706Y-30283D01*
X55706Y-30283D02*
X55745Y-30328D01*
X55745Y-30328D02*
X55774Y-30378D01*
X55774Y-30378D02*
X55792Y-30434D01*
X55792Y-30434D02*
X55799Y-30492D01*
X55799Y-30492D02*
X55800Y-30500D01*
X56800Y-30500D02*
X56794Y-30558D01*
X56794Y-30558D02*
X56777Y-30614D01*
X56777Y-30614D02*
X56749Y-30666D01*
X56749Y-30666D02*
X56712Y-30711D01*
X56712Y-30711D02*
X56667Y-30748D01*
X56667Y-30748D02*
X56616Y-30776D01*
X56616Y-30776D02*
X56560Y-30793D01*
X56560Y-30793D02*
X56502Y-30799D01*
X56502Y-30799D02*
X56444Y-30794D01*
X56444Y-30794D02*
X56388Y-30778D01*
X56388Y-30778D02*
X56336Y-30751D01*
X56336Y-30751D02*
X56291Y-30714D01*
X56291Y-30714D02*
X56253Y-30669D01*
X56253Y-30669D02*
X56225Y-30618D01*
X56225Y-30618D02*
X56207Y-30562D01*
X56207Y-30562D02*
X56201Y-30504D01*
X56201Y-30504D02*
X56205Y-30446D01*
X56205Y-30446D02*
X56222Y-30390D01*
X56222Y-30390D02*
X56248Y-30338D01*
X56248Y-30338D02*
X56285Y-30292D01*
X56285Y-30292D02*
X56329Y-30254D01*
X56329Y-30254D02*
X56380Y-30226D01*
X56380Y-30226D02*
X56436Y-30207D01*
X56436Y-30207D02*
X56494Y-30201D01*
X56494Y-30201D02*
X56552Y-30205D01*
X56552Y-30205D02*
X56608Y-30221D01*
X56608Y-30221D02*
X56660Y-30247D01*
X56660Y-30247D02*
X56706Y-30283D01*
X56706Y-30283D02*
X56745Y-30328D01*
X56745Y-30328D02*
X56774Y-30378D01*
X56774Y-30378D02*
X56792Y-30434D01*
X56792Y-30434D02*
X56799Y-30492D01*
X56799Y-30492D02*
X56800Y-30500D01*
X55800Y-29500D02*
X55794Y-29558D01*
X55794Y-29558D02*
X55777Y-29614D01*
X55777Y-29614D02*
X55749Y-29666D01*
X55749Y-29666D02*
X55712Y-29711D01*
X55712Y-29711D02*
X55667Y-29748D01*
X55667Y-29748D02*
X55616Y-29776D01*
X55616Y-29776D02*
X55560Y-29793D01*
X55560Y-29793D02*
X55502Y-29799D01*
X55502Y-29799D02*
X55444Y-29794D01*
X55444Y-29794D02*
X55388Y-29778D01*
X55388Y-29778D02*
X55336Y-29751D01*
X55336Y-29751D02*
X55291Y-29714D01*
X55291Y-29714D02*
X55253Y-29669D01*
X55253Y-29669D02*
X55225Y-29618D01*
X55225Y-29618D02*
X55207Y-29562D01*
X55207Y-29562D02*
X55201Y-29504D01*
X55201Y-29504D02*
X55205Y-29446D01*
X55205Y-29446D02*
X55222Y-29390D01*
X55222Y-29390D02*
X55248Y-29338D01*
X55248Y-29338D02*
X55285Y-29292D01*
X55285Y-29292D02*
X55329Y-29254D01*
X55329Y-29254D02*
X55380Y-29226D01*
X55380Y-29226D02*
X55436Y-29207D01*
X55436Y-29207D02*
X55494Y-29201D01*
X55494Y-29201D02*
X55552Y-29205D01*
X55552Y-29205D02*
X55608Y-29221D01*
X55608Y-29221D02*
X55660Y-29247D01*
X55660Y-29247D02*
X55706Y-29283D01*
X55706Y-29283D02*
X55745Y-29328D01*
X55745Y-29328D02*
X55774Y-29378D01*
X55774Y-29378D02*
X55792Y-29434D01*
X55792Y-29434D02*
X55799Y-29492D01*
X55799Y-29492D02*
X55800Y-29500D01*
X56800Y-29500D02*
X56794Y-29558D01*
X56794Y-29558D02*
X56777Y-29614D01*
X56777Y-29614D02*
X56749Y-29666D01*
X56749Y-29666D02*
X56712Y-29711D01*
X56712Y-29711D02*
X56667Y-29748D01*
X56667Y-29748D02*
X56616Y-29776D01*
X56616Y-29776D02*
X56560Y-29793D01*
X56560Y-29793D02*
X56502Y-29799D01*
X56502Y-29799D02*
X56444Y-29794D01*
X56444Y-29794D02*
X56388Y-29778D01*
X56388Y-29778D02*
X56336Y-29751D01*
X56336Y-29751D02*
X56291Y-29714D01*
X56291Y-29714D02*
X56253Y-29669D01*
X56253Y-29669D02*
X56225Y-29618D01*
X56225Y-29618D02*
X56207Y-29562D01*
X56207Y-29562D02*
X56201Y-29504D01*
X56201Y-29504D02*
X56205Y-29446D01*
X56205Y-29446D02*
X56222Y-29390D01*
X56222Y-29390D02*
X56248Y-29338D01*
X56248Y-29338D02*
X56285Y-29292D01*
X56285Y-29292D02*
X56329Y-29254D01*
X56329Y-29254D02*
X56380Y-29226D01*
X56380Y-29226D02*
X56436Y-29207D01*
X56436Y-29207D02*
X56494Y-29201D01*
X56494Y-29201D02*
X56552Y-29205D01*
X56552Y-29205D02*
X56608Y-29221D01*
X56608Y-29221D02*
X56660Y-29247D01*
X56660Y-29247D02*
X56706Y-29283D01*
X56706Y-29283D02*
X56745Y-29328D01*
X56745Y-29328D02*
X56774Y-29378D01*
X56774Y-29378D02*
X56792Y-29434D01*
X56792Y-29434D02*
X56799Y-29492D01*
X56799Y-29492D02*
X56800Y-29500D01*
X55800Y-28500D02*
X55794Y-28558D01*
X55794Y-28558D02*
X55777Y-28614D01*
X55777Y-28614D02*
X55749Y-28666D01*
X55749Y-28666D02*
X55712Y-28711D01*
X55712Y-28711D02*
X55667Y-28748D01*
X55667Y-28748D02*
X55616Y-28776D01*
X55616Y-28776D02*
X55560Y-28793D01*
X55560Y-28793D02*
X55502Y-28799D01*
X55502Y-28799D02*
X55444Y-28794D01*
X55444Y-28794D02*
X55388Y-28778D01*
X55388Y-28778D02*
X55336Y-28751D01*
X55336Y-28751D02*
X55291Y-28714D01*
X55291Y-28714D02*
X55253Y-28669D01*
X55253Y-28669D02*
X55225Y-28618D01*
X55225Y-28618D02*
X55207Y-28562D01*
X55207Y-28562D02*
X55201Y-28504D01*
X55201Y-28504D02*
X55205Y-28446D01*
X55205Y-28446D02*
X55222Y-28390D01*
X55222Y-28390D02*
X55248Y-28338D01*
X55248Y-28338D02*
X55285Y-28292D01*
X55285Y-28292D02*
X55329Y-28254D01*
X55329Y-28254D02*
X55380Y-28226D01*
X55380Y-28226D02*
X55436Y-28207D01*
X55436Y-28207D02*
X55494Y-28201D01*
X55494Y-28201D02*
X55552Y-28205D01*
X55552Y-28205D02*
X55608Y-28221D01*
X55608Y-28221D02*
X55660Y-28247D01*
X55660Y-28247D02*
X55706Y-28283D01*
X55706Y-28283D02*
X55745Y-28328D01*
X55745Y-28328D02*
X55774Y-28378D01*
X55774Y-28378D02*
X55792Y-28434D01*
X55792Y-28434D02*
X55799Y-28492D01*
X55799Y-28492D02*
X55800Y-28500D01*
X56800Y-28500D02*
X56794Y-28558D01*
X56794Y-28558D02*
X56777Y-28614D01*
X56777Y-28614D02*
X56749Y-28666D01*
X56749Y-28666D02*
X56712Y-28711D01*
X56712Y-28711D02*
X56667Y-28748D01*
X56667Y-28748D02*
X56616Y-28776D01*
X56616Y-28776D02*
X56560Y-28793D01*
X56560Y-28793D02*
X56502Y-28799D01*
X56502Y-28799D02*
X56444Y-28794D01*
X56444Y-28794D02*
X56388Y-28778D01*
X56388Y-28778D02*
X56336Y-28751D01*
X56336Y-28751D02*
X56291Y-28714D01*
X56291Y-28714D02*
X56253Y-28669D01*
X56253Y-28669D02*
X56225Y-28618D01*
X56225Y-28618D02*
X56207Y-28562D01*
X56207Y-28562D02*
X56201Y-28504D01*
X56201Y-28504D02*
X56205Y-28446D01*
X56205Y-28446D02*
X56222Y-28390D01*
X56222Y-28390D02*
X56248Y-28338D01*
X56248Y-28338D02*
X56285Y-28292D01*
X56285Y-28292D02*
X56329Y-28254D01*
X56329Y-28254D02*
X56380Y-28226D01*
X56380Y-28226D02*
X56436Y-28207D01*
X56436Y-28207D02*
X56494Y-28201D01*
X56494Y-28201D02*
X56552Y-28205D01*
X56552Y-28205D02*
X56608Y-28221D01*
X56608Y-28221D02*
X56660Y-28247D01*
X56660Y-28247D02*
X56706Y-28283D01*
X56706Y-28283D02*
X56745Y-28328D01*
X56745Y-28328D02*
X56774Y-28378D01*
X56774Y-28378D02*
X56792Y-28434D01*
X56792Y-28434D02*
X56799Y-28492D01*
X56799Y-28492D02*
X56800Y-28500D01*
X55800Y-27500D02*
X55794Y-27558D01*
X55794Y-27558D02*
X55777Y-27614D01*
X55777Y-27614D02*
X55749Y-27666D01*
X55749Y-27666D02*
X55712Y-27711D01*
X55712Y-27711D02*
X55667Y-27748D01*
X55667Y-27748D02*
X55616Y-27776D01*
X55616Y-27776D02*
X55560Y-27793D01*
X55560Y-27793D02*
X55502Y-27799D01*
X55502Y-27799D02*
X55444Y-27794D01*
X55444Y-27794D02*
X55388Y-27778D01*
X55388Y-27778D02*
X55336Y-27751D01*
X55336Y-27751D02*
X55291Y-27714D01*
X55291Y-27714D02*
X55253Y-27669D01*
X55253Y-27669D02*
X55225Y-27618D01*
X55225Y-27618D02*
X55207Y-27562D01*
X55207Y-27562D02*
X55201Y-27504D01*
X55201Y-27504D02*
X55205Y-27446D01*
X55205Y-27446D02*
X55222Y-27390D01*
X55222Y-27390D02*
X55248Y-27338D01*
X55248Y-27338D02*
X55285Y-27292D01*
X55285Y-27292D02*
X55329Y-27254D01*
X55329Y-27254D02*
X55380Y-27226D01*
X55380Y-27226D02*
X55436Y-27207D01*
X55436Y-27207D02*
X55494Y-27201D01*
X55494Y-27201D02*
X55552Y-27205D01*
X55552Y-27205D02*
X55608Y-27221D01*
X55608Y-27221D02*
X55660Y-27247D01*
X55660Y-27247D02*
X55706Y-27283D01*
X55706Y-27283D02*
X55745Y-27328D01*
X55745Y-27328D02*
X55774Y-27378D01*
X55774Y-27378D02*
X55792Y-27434D01*
X55792Y-27434D02*
X55799Y-27492D01*
X55799Y-27492D02*
X55800Y-27500D01*
X56800Y-27500D02*
X56794Y-27558D01*
X56794Y-27558D02*
X56777Y-27614D01*
X56777Y-27614D02*
X56749Y-27666D01*
X56749Y-27666D02*
X56712Y-27711D01*
X56712Y-27711D02*
X56667Y-27748D01*
X56667Y-27748D02*
X56616Y-27776D01*
X56616Y-27776D02*
X56560Y-27793D01*
X56560Y-27793D02*
X56502Y-27799D01*
X56502Y-27799D02*
X56444Y-27794D01*
X56444Y-27794D02*
X56388Y-27778D01*
X56388Y-27778D02*
X56336Y-27751D01*
X56336Y-27751D02*
X56291Y-27714D01*
X56291Y-27714D02*
X56253Y-27669D01*
X56253Y-27669D02*
X56225Y-27618D01*
X56225Y-27618D02*
X56207Y-27562D01*
X56207Y-27562D02*
X56201Y-27504D01*
X56201Y-27504D02*
X56205Y-27446D01*
X56205Y-27446D02*
X56222Y-27390D01*
X56222Y-27390D02*
X56248Y-27338D01*
X56248Y-27338D02*
X56285Y-27292D01*
X56285Y-27292D02*
X56329Y-27254D01*
X56329Y-27254D02*
X56380Y-27226D01*
X56380Y-27226D02*
X56436Y-27207D01*
X56436Y-27207D02*
X56494Y-27201D01*
X56494Y-27201D02*
X56552Y-27205D01*
X56552Y-27205D02*
X56608Y-27221D01*
X56608Y-27221D02*
X56660Y-27247D01*
X56660Y-27247D02*
X56706Y-27283D01*
X56706Y-27283D02*
X56745Y-27328D01*
X56745Y-27328D02*
X56774Y-27378D01*
X56774Y-27378D02*
X56792Y-27434D01*
X56792Y-27434D02*
X56799Y-27492D01*
X56799Y-27492D02*
X56800Y-27500D01*
X55800Y-26500D02*
X55794Y-26558D01*
X55794Y-26558D02*
X55777Y-26614D01*
X55777Y-26614D02*
X55749Y-26666D01*
X55749Y-26666D02*
X55712Y-26711D01*
X55712Y-26711D02*
X55667Y-26748D01*
X55667Y-26748D02*
X55616Y-26776D01*
X55616Y-26776D02*
X55560Y-26793D01*
X55560Y-26793D02*
X55502Y-26799D01*
X55502Y-26799D02*
X55444Y-26794D01*
X55444Y-26794D02*
X55388Y-26778D01*
X55388Y-26778D02*
X55336Y-26751D01*
X55336Y-26751D02*
X55291Y-26714D01*
X55291Y-26714D02*
X55253Y-26669D01*
X55253Y-26669D02*
X55225Y-26618D01*
X55225Y-26618D02*
X55207Y-26562D01*
X55207Y-26562D02*
X55201Y-26504D01*
X55201Y-26504D02*
X55205Y-26446D01*
X55205Y-26446D02*
X55222Y-26390D01*
X55222Y-26390D02*
X55248Y-26338D01*
X55248Y-26338D02*
X55285Y-26292D01*
X55285Y-26292D02*
X55329Y-26254D01*
X55329Y-26254D02*
X55380Y-26226D01*
X55380Y-26226D02*
X55436Y-26207D01*
X55436Y-26207D02*
X55494Y-26201D01*
X55494Y-26201D02*
X55552Y-26205D01*
X55552Y-26205D02*
X55608Y-26221D01*
X55608Y-26221D02*
X55660Y-26247D01*
X55660Y-26247D02*
X55706Y-26283D01*
X55706Y-26283D02*
X55745Y-26328D01*
X55745Y-26328D02*
X55774Y-26378D01*
X55774Y-26378D02*
X55792Y-26434D01*
X55792Y-26434D02*
X55799Y-26492D01*
X55799Y-26492D02*
X55800Y-26500D01*
X56800Y-26500D02*
X56794Y-26558D01*
X56794Y-26558D02*
X56777Y-26614D01*
X56777Y-26614D02*
X56749Y-26666D01*
X56749Y-26666D02*
X56712Y-26711D01*
X56712Y-26711D02*
X56667Y-26748D01*
X56667Y-26748D02*
X56616Y-26776D01*
X56616Y-26776D02*
X56560Y-26793D01*
X56560Y-26793D02*
X56502Y-26799D01*
X56502Y-26799D02*
X56444Y-26794D01*
X56444Y-26794D02*
X56388Y-26778D01*
X56388Y-26778D02*
X56336Y-26751D01*
X56336Y-26751D02*
X56291Y-26714D01*
X56291Y-26714D02*
X56253Y-26669D01*
X56253Y-26669D02*
X56225Y-26618D01*
X56225Y-26618D02*
X56207Y-26562D01*
X56207Y-26562D02*
X56201Y-26504D01*
X56201Y-26504D02*
X56205Y-26446D01*
X56205Y-26446D02*
X56222Y-26390D01*
X56222Y-26390D02*
X56248Y-26338D01*
X56248Y-26338D02*
X56285Y-26292D01*
X56285Y-26292D02*
X56329Y-26254D01*
X56329Y-26254D02*
X56380Y-26226D01*
X56380Y-26226D02*
X56436Y-26207D01*
X56436Y-26207D02*
X56494Y-26201D01*
X56494Y-26201D02*
X56552Y-26205D01*
X56552Y-26205D02*
X56608Y-26221D01*
X56608Y-26221D02*
X56660Y-26247D01*
X56660Y-26247D02*
X56706Y-26283D01*
X56706Y-26283D02*
X56745Y-26328D01*
X56745Y-26328D02*
X56774Y-26378D01*
X56774Y-26378D02*
X56792Y-26434D01*
X56792Y-26434D02*
X56799Y-26492D01*
X56799Y-26492D02*
X56800Y-26500D01*
X55800Y-25500D02*
X55794Y-25558D01*
X55794Y-25558D02*
X55777Y-25614D01*
X55777Y-25614D02*
X55749Y-25666D01*
X55749Y-25666D02*
X55712Y-25711D01*
X55712Y-25711D02*
X55667Y-25748D01*
X55667Y-25748D02*
X55616Y-25776D01*
X55616Y-25776D02*
X55560Y-25793D01*
X55560Y-25793D02*
X55502Y-25799D01*
X55502Y-25799D02*
X55444Y-25794D01*
X55444Y-25794D02*
X55388Y-25778D01*
X55388Y-25778D02*
X55336Y-25751D01*
X55336Y-25751D02*
X55291Y-25714D01*
X55291Y-25714D02*
X55253Y-25669D01*
X55253Y-25669D02*
X55225Y-25618D01*
X55225Y-25618D02*
X55207Y-25562D01*
X55207Y-25562D02*
X55201Y-25504D01*
X55201Y-25504D02*
X55205Y-25446D01*
X55205Y-25446D02*
X55222Y-25390D01*
X55222Y-25390D02*
X55248Y-25338D01*
X55248Y-25338D02*
X55285Y-25292D01*
X55285Y-25292D02*
X55329Y-25254D01*
X55329Y-25254D02*
X55380Y-25226D01*
X55380Y-25226D02*
X55436Y-25207D01*
X55436Y-25207D02*
X55494Y-25201D01*
X55494Y-25201D02*
X55552Y-25205D01*
X55552Y-25205D02*
X55608Y-25221D01*
X55608Y-25221D02*
X55660Y-25247D01*
X55660Y-25247D02*
X55706Y-25283D01*
X55706Y-25283D02*
X55745Y-25328D01*
X55745Y-25328D02*
X55774Y-25378D01*
X55774Y-25378D02*
X55792Y-25434D01*
X55792Y-25434D02*
X55799Y-25492D01*
X55799Y-25492D02*
X55800Y-25500D01*
X56800Y-25500D02*
X56794Y-25558D01*
X56794Y-25558D02*
X56777Y-25614D01*
X56777Y-25614D02*
X56749Y-25666D01*
X56749Y-25666D02*
X56712Y-25711D01*
X56712Y-25711D02*
X56667Y-25748D01*
X56667Y-25748D02*
X56616Y-25776D01*
X56616Y-25776D02*
X56560Y-25793D01*
X56560Y-25793D02*
X56502Y-25799D01*
X56502Y-25799D02*
X56444Y-25794D01*
X56444Y-25794D02*
X56388Y-25778D01*
X56388Y-25778D02*
X56336Y-25751D01*
X56336Y-25751D02*
X56291Y-25714D01*
X56291Y-25714D02*
X56253Y-25669D01*
X56253Y-25669D02*
X56225Y-25618D01*
X56225Y-25618D02*
X56207Y-25562D01*
X56207Y-25562D02*
X56201Y-25504D01*
X56201Y-25504D02*
X56205Y-25446D01*
X56205Y-25446D02*
X56222Y-25390D01*
X56222Y-25390D02*
X56248Y-25338D01*
X56248Y-25338D02*
X56285Y-25292D01*
X56285Y-25292D02*
X56329Y-25254D01*
X56329Y-25254D02*
X56380Y-25226D01*
X56380Y-25226D02*
X56436Y-25207D01*
X56436Y-25207D02*
X56494Y-25201D01*
X56494Y-25201D02*
X56552Y-25205D01*
X56552Y-25205D02*
X56608Y-25221D01*
X56608Y-25221D02*
X56660Y-25247D01*
X56660Y-25247D02*
X56706Y-25283D01*
X56706Y-25283D02*
X56745Y-25328D01*
X56745Y-25328D02*
X56774Y-25378D01*
X56774Y-25378D02*
X56792Y-25434D01*
X56792Y-25434D02*
X56799Y-25492D01*
X56799Y-25492D02*
X56800Y-25500D01*
X55800Y-24500D02*
X55794Y-24558D01*
X55794Y-24558D02*
X55777Y-24614D01*
X55777Y-24614D02*
X55749Y-24666D01*
X55749Y-24666D02*
X55712Y-24711D01*
X55712Y-24711D02*
X55667Y-24748D01*
X55667Y-24748D02*
X55616Y-24776D01*
X55616Y-24776D02*
X55560Y-24793D01*
X55560Y-24793D02*
X55502Y-24799D01*
X55502Y-24799D02*
X55444Y-24794D01*
X55444Y-24794D02*
X55388Y-24778D01*
X55388Y-24778D02*
X55336Y-24751D01*
X55336Y-24751D02*
X55291Y-24714D01*
X55291Y-24714D02*
X55253Y-24669D01*
X55253Y-24669D02*
X55225Y-24618D01*
X55225Y-24618D02*
X55207Y-24562D01*
X55207Y-24562D02*
X55201Y-24504D01*
X55201Y-24504D02*
X55205Y-24446D01*
X55205Y-24446D02*
X55222Y-24390D01*
X55222Y-24390D02*
X55248Y-24338D01*
X55248Y-24338D02*
X55285Y-24292D01*
X55285Y-24292D02*
X55329Y-24254D01*
X55329Y-24254D02*
X55380Y-24226D01*
X55380Y-24226D02*
X55436Y-24207D01*
X55436Y-24207D02*
X55494Y-24201D01*
X55494Y-24201D02*
X55552Y-24205D01*
X55552Y-24205D02*
X55608Y-24221D01*
X55608Y-24221D02*
X55660Y-24247D01*
X55660Y-24247D02*
X55706Y-24283D01*
X55706Y-24283D02*
X55745Y-24328D01*
X55745Y-24328D02*
X55774Y-24378D01*
X55774Y-24378D02*
X55792Y-24434D01*
X55792Y-24434D02*
X55799Y-24492D01*
X55799Y-24492D02*
X55800Y-24500D01*
X56800Y-24500D02*
X56794Y-24558D01*
X56794Y-24558D02*
X56777Y-24614D01*
X56777Y-24614D02*
X56749Y-24666D01*
X56749Y-24666D02*
X56712Y-24711D01*
X56712Y-24711D02*
X56667Y-24748D01*
X56667Y-24748D02*
X56616Y-24776D01*
X56616Y-24776D02*
X56560Y-24793D01*
X56560Y-24793D02*
X56502Y-24799D01*
X56502Y-24799D02*
X56444Y-24794D01*
X56444Y-24794D02*
X56388Y-24778D01*
X56388Y-24778D02*
X56336Y-24751D01*
X56336Y-24751D02*
X56291Y-24714D01*
X56291Y-24714D02*
X56253Y-24669D01*
X56253Y-24669D02*
X56225Y-24618D01*
X56225Y-24618D02*
X56207Y-24562D01*
X56207Y-24562D02*
X56201Y-24504D01*
X56201Y-24504D02*
X56205Y-24446D01*
X56205Y-24446D02*
X56222Y-24390D01*
X56222Y-24390D02*
X56248Y-24338D01*
X56248Y-24338D02*
X56285Y-24292D01*
X56285Y-24292D02*
X56329Y-24254D01*
X56329Y-24254D02*
X56380Y-24226D01*
X56380Y-24226D02*
X56436Y-24207D01*
X56436Y-24207D02*
X56494Y-24201D01*
X56494Y-24201D02*
X56552Y-24205D01*
X56552Y-24205D02*
X56608Y-24221D01*
X56608Y-24221D02*
X56660Y-24247D01*
X56660Y-24247D02*
X56706Y-24283D01*
X56706Y-24283D02*
X56745Y-24328D01*
X56745Y-24328D02*
X56774Y-24378D01*
X56774Y-24378D02*
X56792Y-24434D01*
X56792Y-24434D02*
X56799Y-24492D01*
X56799Y-24492D02*
X56800Y-24500D01*
X55800Y-23500D02*
X55794Y-23558D01*
X55794Y-23558D02*
X55777Y-23614D01*
X55777Y-23614D02*
X55749Y-23666D01*
X55749Y-23666D02*
X55712Y-23711D01*
X55712Y-23711D02*
X55667Y-23748D01*
X55667Y-23748D02*
X55616Y-23776D01*
X55616Y-23776D02*
X55560Y-23793D01*
X55560Y-23793D02*
X55502Y-23799D01*
X55502Y-23799D02*
X55444Y-23794D01*
X55444Y-23794D02*
X55388Y-23778D01*
X55388Y-23778D02*
X55336Y-23751D01*
X55336Y-23751D02*
X55291Y-23714D01*
X55291Y-23714D02*
X55253Y-23669D01*
X55253Y-23669D02*
X55225Y-23618D01*
X55225Y-23618D02*
X55207Y-23562D01*
X55207Y-23562D02*
X55201Y-23504D01*
X55201Y-23504D02*
X55205Y-23446D01*
X55205Y-23446D02*
X55222Y-23390D01*
X55222Y-23390D02*
X55248Y-23338D01*
X55248Y-23338D02*
X55285Y-23292D01*
X55285Y-23292D02*
X55329Y-23254D01*
X55329Y-23254D02*
X55380Y-23226D01*
X55380Y-23226D02*
X55436Y-23207D01*
X55436Y-23207D02*
X55494Y-23201D01*
X55494Y-23201D02*
X55552Y-23205D01*
X55552Y-23205D02*
X55608Y-23221D01*
X55608Y-23221D02*
X55660Y-23247D01*
X55660Y-23247D02*
X55706Y-23283D01*
X55706Y-23283D02*
X55745Y-23328D01*
X55745Y-23328D02*
X55774Y-23378D01*
X55774Y-23378D02*
X55792Y-23434D01*
X55792Y-23434D02*
X55799Y-23492D01*
X55799Y-23492D02*
X55800Y-23500D01*
X56800Y-23500D02*
X56794Y-23558D01*
X56794Y-23558D02*
X56777Y-23614D01*
X56777Y-23614D02*
X56749Y-23666D01*
X56749Y-23666D02*
X56712Y-23711D01*
X56712Y-23711D02*
X56667Y-23748D01*
X56667Y-23748D02*
X56616Y-23776D01*
X56616Y-23776D02*
X56560Y-23793D01*
X56560Y-23793D02*
X56502Y-23799D01*
X56502Y-23799D02*
X56444Y-23794D01*
X56444Y-23794D02*
X56388Y-23778D01*
X56388Y-23778D02*
X56336Y-23751D01*
X56336Y-23751D02*
X56291Y-23714D01*
X56291Y-23714D02*
X56253Y-23669D01*
X56253Y-23669D02*
X56225Y-23618D01*
X56225Y-23618D02*
X56207Y-23562D01*
X56207Y-23562D02*
X56201Y-23504D01*
X56201Y-23504D02*
X56205Y-23446D01*
X56205Y-23446D02*
X56222Y-23390D01*
X56222Y-23390D02*
X56248Y-23338D01*
X56248Y-23338D02*
X56285Y-23292D01*
X56285Y-23292D02*
X56329Y-23254D01*
X56329Y-23254D02*
X56380Y-23226D01*
X56380Y-23226D02*
X56436Y-23207D01*
X56436Y-23207D02*
X56494Y-23201D01*
X56494Y-23201D02*
X56552Y-23205D01*
X56552Y-23205D02*
X56608Y-23221D01*
X56608Y-23221D02*
X56660Y-23247D01*
X56660Y-23247D02*
X56706Y-23283D01*
X56706Y-23283D02*
X56745Y-23328D01*
X56745Y-23328D02*
X56774Y-23378D01*
X56774Y-23378D02*
X56792Y-23434D01*
X56792Y-23434D02*
X56799Y-23492D01*
X56799Y-23492D02*
X56800Y-23500D01*
X55800Y-22500D02*
X55794Y-22558D01*
X55794Y-22558D02*
X55777Y-22614D01*
X55777Y-22614D02*
X55749Y-22666D01*
X55749Y-22666D02*
X55712Y-22711D01*
X55712Y-22711D02*
X55667Y-22748D01*
X55667Y-22748D02*
X55616Y-22776D01*
X55616Y-22776D02*
X55560Y-22793D01*
X55560Y-22793D02*
X55502Y-22799D01*
X55502Y-22799D02*
X55444Y-22794D01*
X55444Y-22794D02*
X55388Y-22778D01*
X55388Y-22778D02*
X55336Y-22751D01*
X55336Y-22751D02*
X55291Y-22714D01*
X55291Y-22714D02*
X55253Y-22669D01*
X55253Y-22669D02*
X55225Y-22618D01*
X55225Y-22618D02*
X55207Y-22562D01*
X55207Y-22562D02*
X55201Y-22504D01*
X55201Y-22504D02*
X55205Y-22446D01*
X55205Y-22446D02*
X55222Y-22390D01*
X55222Y-22390D02*
X55248Y-22338D01*
X55248Y-22338D02*
X55285Y-22292D01*
X55285Y-22292D02*
X55329Y-22254D01*
X55329Y-22254D02*
X55380Y-22226D01*
X55380Y-22226D02*
X55436Y-22207D01*
X55436Y-22207D02*
X55494Y-22201D01*
X55494Y-22201D02*
X55552Y-22205D01*
X55552Y-22205D02*
X55608Y-22221D01*
X55608Y-22221D02*
X55660Y-22247D01*
X55660Y-22247D02*
X55706Y-22283D01*
X55706Y-22283D02*
X55745Y-22328D01*
X55745Y-22328D02*
X55774Y-22378D01*
X55774Y-22378D02*
X55792Y-22434D01*
X55792Y-22434D02*
X55799Y-22492D01*
X55799Y-22492D02*
X55800Y-22500D01*
X56800Y-22500D02*
X56794Y-22558D01*
X56794Y-22558D02*
X56777Y-22614D01*
X56777Y-22614D02*
X56749Y-22666D01*
X56749Y-22666D02*
X56712Y-22711D01*
X56712Y-22711D02*
X56667Y-22748D01*
X56667Y-22748D02*
X56616Y-22776D01*
X56616Y-22776D02*
X56560Y-22793D01*
X56560Y-22793D02*
X56502Y-22799D01*
X56502Y-22799D02*
X56444Y-22794D01*
X56444Y-22794D02*
X56388Y-22778D01*
X56388Y-22778D02*
X56336Y-22751D01*
X56336Y-22751D02*
X56291Y-22714D01*
X56291Y-22714D02*
X56253Y-22669D01*
X56253Y-22669D02*
X56225Y-22618D01*
X56225Y-22618D02*
X56207Y-22562D01*
X56207Y-22562D02*
X56201Y-22504D01*
X56201Y-22504D02*
X56205Y-22446D01*
X56205Y-22446D02*
X56222Y-22390D01*
X56222Y-22390D02*
X56248Y-22338D01*
X56248Y-22338D02*
X56285Y-22292D01*
X56285Y-22292D02*
X56329Y-22254D01*
X56329Y-22254D02*
X56380Y-22226D01*
X56380Y-22226D02*
X56436Y-22207D01*
X56436Y-22207D02*
X56494Y-22201D01*
X56494Y-22201D02*
X56552Y-22205D01*
X56552Y-22205D02*
X56608Y-22221D01*
X56608Y-22221D02*
X56660Y-22247D01*
X56660Y-22247D02*
X56706Y-22283D01*
X56706Y-22283D02*
X56745Y-22328D01*
X56745Y-22328D02*
X56774Y-22378D01*
X56774Y-22378D02*
X56792Y-22434D01*
X56792Y-22434D02*
X56799Y-22492D01*
X56799Y-22492D02*
X56800Y-22500D01*
X58200Y-43000D02*
X58186Y-43135D01*
X58186Y-43135D02*
X58147Y-43266D01*
X58147Y-43266D02*
X58083Y-43387D01*
X58083Y-43387D02*
X57996Y-43493D01*
X57996Y-43493D02*
X57891Y-43580D01*
X57891Y-43580D02*
X57771Y-43645D01*
X57771Y-43645D02*
X57640Y-43685D01*
X57640Y-43685D02*
X57504Y-43699D01*
X57504Y-43699D02*
X57369Y-43687D01*
X57369Y-43687D02*
X57238Y-43649D01*
X57238Y-43649D02*
X57117Y-43585D01*
X57117Y-43585D02*
X57011Y-43500D01*
X57011Y-43500D02*
X56923Y-43395D01*
X56923Y-43395D02*
X56857Y-43275D01*
X56857Y-43275D02*
X56816Y-43145D01*
X56816Y-43145D02*
X56801Y-43009D01*
X56801Y-43009D02*
X56812Y-42874D01*
X56812Y-42874D02*
X56850Y-42743D01*
X56850Y-42743D02*
X56912Y-42621D01*
X56912Y-42621D02*
X56997Y-42514D01*
X56997Y-42514D02*
X57101Y-42426D01*
X57101Y-42426D02*
X57220Y-42359D01*
X57220Y-42359D02*
X57350Y-42317D01*
X57350Y-42317D02*
X57486Y-42301D01*
X57486Y-42301D02*
X57621Y-42311D01*
X57621Y-42311D02*
X57753Y-42348D01*
X57753Y-42348D02*
X57875Y-42409D01*
X57875Y-42409D02*
X57982Y-42494D01*
X57982Y-42494D02*
X58072Y-42597D01*
X58072Y-42597D02*
X58139Y-42716D01*
X58139Y-42716D02*
X58182Y-42845D01*
X58182Y-42845D02*
X58199Y-42981D01*
X58199Y-42981D02*
X58200Y-43000D01*
X58000Y-46750D02*
X57990Y-46847D01*
X57990Y-46847D02*
X57962Y-46940D01*
X57962Y-46940D02*
X57916Y-47026D01*
X57916Y-47026D02*
X57854Y-47102D01*
X57854Y-47102D02*
X57779Y-47164D01*
X57779Y-47164D02*
X57693Y-47210D01*
X57693Y-47210D02*
X57600Y-47239D01*
X57600Y-47239D02*
X57503Y-47249D01*
X57503Y-47249D02*
X57407Y-47241D01*
X57407Y-47241D02*
X57313Y-47213D01*
X57313Y-47213D02*
X57227Y-47168D01*
X57227Y-47168D02*
X57151Y-47107D01*
X57151Y-47107D02*
X57088Y-47032D01*
X57088Y-47032D02*
X57041Y-46946D01*
X57041Y-46946D02*
X57011Y-46853D01*
X57011Y-46853D02*
X57001Y-46756D01*
X57001Y-46756D02*
X57009Y-46660D01*
X57009Y-46660D02*
X57036Y-46566D01*
X57036Y-46566D02*
X57080Y-46480D01*
X57080Y-46480D02*
X57141Y-46403D01*
X57141Y-46403D02*
X57215Y-46340D01*
X57215Y-46340D02*
X57300Y-46292D01*
X57300Y-46292D02*
X57393Y-46262D01*
X57393Y-46262D02*
X57490Y-46251D01*
X57490Y-46251D02*
X57586Y-46258D01*
X57586Y-46258D02*
X57680Y-46284D01*
X57680Y-46284D02*
X57767Y-46328D01*
X57767Y-46328D02*
X57844Y-46388D01*
X57844Y-46388D02*
X57908Y-46462D01*
X57908Y-46462D02*
X57956Y-46547D01*
X57956Y-46547D02*
X57987Y-46640D01*
X57987Y-46640D02*
X57999Y-46737D01*
X57999Y-46737D02*
X58000Y-46750D01*
X55925Y-46750D02*
X55916Y-46832D01*
X55916Y-46832D02*
X55892Y-46911D01*
X55892Y-46911D02*
X55853Y-46985D01*
X55853Y-46985D02*
X55801Y-47049D01*
X55801Y-47049D02*
X55737Y-47102D01*
X55737Y-47102D02*
X55664Y-47141D01*
X55664Y-47141D02*
X55585Y-47166D01*
X55585Y-47166D02*
X55502Y-47174D01*
X55502Y-47174D02*
X55421Y-47167D01*
X55421Y-47167D02*
X55341Y-47144D01*
X55341Y-47144D02*
X55268Y-47105D01*
X55268Y-47105D02*
X55203Y-47053D01*
X55203Y-47053D02*
X55150Y-46990D01*
X55150Y-46990D02*
X55110Y-46917D01*
X55110Y-46917D02*
X55085Y-46838D01*
X55085Y-46838D02*
X55076Y-46755D01*
X55076Y-46755D02*
X55082Y-46674D01*
X55082Y-46674D02*
X55105Y-46594D01*
X55105Y-46594D02*
X55143Y-46520D01*
X55143Y-46520D02*
X55195Y-46455D01*
X55195Y-46455D02*
X55258Y-46402D01*
X55258Y-46402D02*
X55330Y-46361D01*
X55330Y-46361D02*
X55409Y-46335D01*
X55409Y-46335D02*
X55492Y-46326D01*
X55492Y-46326D02*
X55573Y-46332D01*
X55573Y-46332D02*
X55653Y-46354D01*
X55653Y-46354D02*
X55727Y-46392D01*
X55727Y-46392D02*
X55793Y-46443D01*
X55793Y-46443D02*
X55847Y-46506D01*
X55847Y-46506D02*
X55888Y-46578D01*
X55888Y-46578D02*
X55914Y-46656D01*
X55914Y-46656D02*
X55924Y-46739D01*
X55924Y-46739D02*
X55925Y-46750D01*
X58925Y-48500D02*
X58916Y-48582D01*
X58916Y-48582D02*
X58892Y-48661D01*
X58892Y-48661D02*
X58853Y-48735D01*
X58853Y-48735D02*
X58801Y-48799D01*
X58801Y-48799D02*
X58737Y-48852D01*
X58737Y-48852D02*
X58664Y-48891D01*
X58664Y-48891D02*
X58585Y-48916D01*
X58585Y-48916D02*
X58502Y-48924D01*
X58502Y-48924D02*
X58421Y-48917D01*
X58421Y-48917D02*
X58341Y-48894D01*
X58341Y-48894D02*
X58268Y-48855D01*
X58268Y-48855D02*
X58203Y-48803D01*
X58203Y-48803D02*
X58150Y-48740D01*
X58150Y-48740D02*
X58110Y-48667D01*
X58110Y-48667D02*
X58085Y-48588D01*
X58085Y-48588D02*
X58076Y-48505D01*
X58076Y-48505D02*
X58082Y-48424D01*
X58082Y-48424D02*
X58105Y-48344D01*
X58105Y-48344D02*
X58143Y-48270D01*
X58143Y-48270D02*
X58195Y-48205D01*
X58195Y-48205D02*
X58258Y-48152D01*
X58258Y-48152D02*
X58330Y-48111D01*
X58330Y-48111D02*
X58409Y-48085D01*
X58409Y-48085D02*
X58492Y-48076D01*
X58492Y-48076D02*
X58573Y-48082D01*
X58573Y-48082D02*
X58653Y-48104D01*
X58653Y-48104D02*
X58727Y-48142D01*
X58727Y-48142D02*
X58793Y-48193D01*
X58793Y-48193D02*
X58847Y-48256D01*
X58847Y-48256D02*
X58888Y-48328D01*
X58888Y-48328D02*
X58914Y-48406D01*
X58914Y-48406D02*
X58924Y-48489D01*
X58924Y-48489D02*
X58925Y-48500D01*
X58925Y-45000D02*
X58916Y-45082D01*
X58916Y-45082D02*
X58892Y-45161D01*
X58892Y-45161D02*
X58853Y-45235D01*
X58853Y-45235D02*
X58801Y-45299D01*
X58801Y-45299D02*
X58737Y-45352D01*
X58737Y-45352D02*
X58664Y-45391D01*
X58664Y-45391D02*
X58585Y-45416D01*
X58585Y-45416D02*
X58502Y-45424D01*
X58502Y-45424D02*
X58421Y-45417D01*
X58421Y-45417D02*
X58341Y-45394D01*
X58341Y-45394D02*
X58268Y-45355D01*
X58268Y-45355D02*
X58203Y-45303D01*
X58203Y-45303D02*
X58150Y-45240D01*
X58150Y-45240D02*
X58110Y-45167D01*
X58110Y-45167D02*
X58085Y-45088D01*
X58085Y-45088D02*
X58076Y-45005D01*
X58076Y-45005D02*
X58082Y-44924D01*
X58082Y-44924D02*
X58105Y-44844D01*
X58105Y-44844D02*
X58143Y-44770D01*
X58143Y-44770D02*
X58195Y-44705D01*
X58195Y-44705D02*
X58258Y-44652D01*
X58258Y-44652D02*
X58330Y-44611D01*
X58330Y-44611D02*
X58409Y-44585D01*
X58409Y-44585D02*
X58492Y-44576D01*
X58492Y-44576D02*
X58573Y-44582D01*
X58573Y-44582D02*
X58653Y-44604D01*
X58653Y-44604D02*
X58727Y-44642D01*
X58727Y-44642D02*
X58793Y-44693D01*
X58793Y-44693D02*
X58847Y-44756D01*
X58847Y-44756D02*
X58888Y-44828D01*
X58888Y-44828D02*
X58914Y-44906D01*
X58914Y-44906D02*
X58924Y-44989D01*
X58924Y-44989D02*
X58925Y-45000D01*
X46760Y-24500D02*
X46755Y-24550D01*
X46755Y-24550D02*
X46740Y-24599D01*
X46740Y-24599D02*
X46716Y-24643D01*
X46716Y-24643D02*
X46684Y-24683D01*
X46684Y-24683D02*
X46645Y-24715D01*
X46645Y-24715D02*
X46600Y-24739D01*
X46600Y-24739D02*
X46552Y-24754D01*
X46552Y-24754D02*
X46501Y-24759D01*
X46501Y-24759D02*
X46452Y-24755D01*
X46452Y-24755D02*
X46403Y-24741D01*
X46403Y-24741D02*
X46358Y-24717D01*
X46358Y-24717D02*
X46319Y-24685D01*
X46319Y-24685D02*
X46286Y-24646D01*
X46286Y-24646D02*
X46262Y-24602D01*
X46262Y-24602D02*
X46246Y-24554D01*
X46246Y-24554D02*
X46241Y-24503D01*
X46241Y-24503D02*
X46245Y-24454D01*
X46245Y-24454D02*
X46259Y-24405D01*
X46259Y-24405D02*
X46282Y-24360D01*
X46282Y-24360D02*
X46313Y-24320D01*
X46313Y-24320D02*
X46352Y-24287D01*
X46352Y-24287D02*
X46396Y-24262D01*
X46396Y-24262D02*
X46445Y-24247D01*
X46445Y-24247D02*
X46495Y-24241D01*
X46495Y-24241D02*
X46545Y-24244D01*
X46545Y-24244D02*
X46594Y-24258D01*
X46594Y-24258D02*
X46639Y-24281D01*
X46639Y-24281D02*
X46679Y-24312D01*
X46679Y-24312D02*
X46712Y-24351D01*
X46712Y-24351D02*
X46737Y-24395D01*
X46737Y-24395D02*
X46753Y-24443D01*
X46753Y-24443D02*
X46759Y-24493D01*
X46759Y-24493D02*
X46760Y-24500D01*
X46760Y-23500D02*
X46755Y-23550D01*
X46755Y-23550D02*
X46740Y-23599D01*
X46740Y-23599D02*
X46716Y-23643D01*
X46716Y-23643D02*
X46684Y-23683D01*
X46684Y-23683D02*
X46645Y-23715D01*
X46645Y-23715D02*
X46600Y-23739D01*
X46600Y-23739D02*
X46552Y-23754D01*
X46552Y-23754D02*
X46501Y-23759D01*
X46501Y-23759D02*
X46452Y-23755D01*
X46452Y-23755D02*
X46403Y-23741D01*
X46403Y-23741D02*
X46358Y-23717D01*
X46358Y-23717D02*
X46319Y-23685D01*
X46319Y-23685D02*
X46286Y-23646D01*
X46286Y-23646D02*
X46262Y-23602D01*
X46262Y-23602D02*
X46246Y-23554D01*
X46246Y-23554D02*
X46241Y-23503D01*
X46241Y-23503D02*
X46245Y-23454D01*
X46245Y-23454D02*
X46259Y-23405D01*
X46259Y-23405D02*
X46282Y-23360D01*
X46282Y-23360D02*
X46313Y-23320D01*
X46313Y-23320D02*
X46352Y-23287D01*
X46352Y-23287D02*
X46396Y-23262D01*
X46396Y-23262D02*
X46445Y-23247D01*
X46445Y-23247D02*
X46495Y-23241D01*
X46495Y-23241D02*
X46545Y-23244D01*
X46545Y-23244D02*
X46594Y-23258D01*
X46594Y-23258D02*
X46639Y-23281D01*
X46639Y-23281D02*
X46679Y-23312D01*
X46679Y-23312D02*
X46712Y-23351D01*
X46712Y-23351D02*
X46737Y-23395D01*
X46737Y-23395D02*
X46753Y-23443D01*
X46753Y-23443D02*
X46759Y-23493D01*
X46759Y-23493D02*
X46760Y-23500D01*
X52775Y-34500D02*
X52769Y-34553D01*
X52769Y-34553D02*
X52754Y-34604D01*
X52754Y-34604D02*
X52729Y-34652D01*
X52729Y-34652D02*
X52695Y-34693D01*
X52695Y-34693D02*
X52653Y-34727D01*
X52653Y-34727D02*
X52606Y-34753D01*
X52606Y-34753D02*
X52555Y-34769D01*
X52555Y-34769D02*
X52501Y-34774D01*
X52501Y-34774D02*
X52449Y-34770D01*
X52449Y-34770D02*
X52397Y-34754D01*
X52397Y-34754D02*
X52350Y-34730D01*
X52350Y-34730D02*
X52308Y-34696D01*
X52308Y-34696D02*
X52274Y-34655D01*
X52274Y-34655D02*
X52248Y-34608D01*
X52248Y-34608D02*
X52232Y-34557D01*
X52232Y-34557D02*
X52226Y-34503D01*
X52226Y-34503D02*
X52230Y-34451D01*
X52230Y-34451D02*
X52245Y-34399D01*
X52245Y-34399D02*
X52269Y-34352D01*
X52269Y-34352D02*
X52303Y-34309D01*
X52303Y-34309D02*
X52344Y-34275D01*
X52344Y-34275D02*
X52390Y-34249D01*
X52390Y-34249D02*
X52441Y-34232D01*
X52441Y-34232D02*
X52495Y-34226D01*
X52495Y-34226D02*
X52547Y-34230D01*
X52547Y-34230D02*
X52599Y-34244D01*
X52599Y-34244D02*
X52647Y-34268D01*
X52647Y-34268D02*
X52689Y-34301D01*
X52689Y-34301D02*
X52724Y-34342D01*
X52724Y-34342D02*
X52751Y-34389D01*
X52751Y-34389D02*
X52768Y-34440D01*
X52768Y-34440D02*
X52774Y-34493D01*
X52774Y-34493D02*
X52775Y-34500D01*
X52775Y-37500D02*
X52769Y-37553D01*
X52769Y-37553D02*
X52754Y-37604D01*
X52754Y-37604D02*
X52729Y-37652D01*
X52729Y-37652D02*
X52695Y-37693D01*
X52695Y-37693D02*
X52653Y-37727D01*
X52653Y-37727D02*
X52606Y-37753D01*
X52606Y-37753D02*
X52555Y-37769D01*
X52555Y-37769D02*
X52501Y-37774D01*
X52501Y-37774D02*
X52449Y-37770D01*
X52449Y-37770D02*
X52397Y-37754D01*
X52397Y-37754D02*
X52350Y-37730D01*
X52350Y-37730D02*
X52308Y-37696D01*
X52308Y-37696D02*
X52274Y-37655D01*
X52274Y-37655D02*
X52248Y-37608D01*
X52248Y-37608D02*
X52232Y-37557D01*
X52232Y-37557D02*
X52226Y-37503D01*
X52226Y-37503D02*
X52230Y-37451D01*
X52230Y-37451D02*
X52245Y-37399D01*
X52245Y-37399D02*
X52269Y-37352D01*
X52269Y-37352D02*
X52303Y-37309D01*
X52303Y-37309D02*
X52344Y-37275D01*
X52344Y-37275D02*
X52390Y-37249D01*
X52390Y-37249D02*
X52441Y-37232D01*
X52441Y-37232D02*
X52495Y-37226D01*
X52495Y-37226D02*
X52547Y-37230D01*
X52547Y-37230D02*
X52599Y-37244D01*
X52599Y-37244D02*
X52647Y-37268D01*
X52647Y-37268D02*
X52689Y-37301D01*
X52689Y-37301D02*
X52724Y-37342D01*
X52724Y-37342D02*
X52751Y-37389D01*
X52751Y-37389D02*
X52768Y-37440D01*
X52768Y-37440D02*
X52774Y-37493D01*
X52774Y-37493D02*
X52775Y-37500D01*
X51775Y-34500D02*
X51769Y-34553D01*
X51769Y-34553D02*
X51754Y-34604D01*
X51754Y-34604D02*
X51729Y-34652D01*
X51729Y-34652D02*
X51695Y-34693D01*
X51695Y-34693D02*
X51653Y-34727D01*
X51653Y-34727D02*
X51606Y-34753D01*
X51606Y-34753D02*
X51555Y-34769D01*
X51555Y-34769D02*
X51501Y-34774D01*
X51501Y-34774D02*
X51449Y-34770D01*
X51449Y-34770D02*
X51397Y-34754D01*
X51397Y-34754D02*
X51350Y-34730D01*
X51350Y-34730D02*
X51308Y-34696D01*
X51308Y-34696D02*
X51274Y-34655D01*
X51274Y-34655D02*
X51248Y-34608D01*
X51248Y-34608D02*
X51232Y-34557D01*
X51232Y-34557D02*
X51226Y-34503D01*
X51226Y-34503D02*
X51230Y-34451D01*
X51230Y-34451D02*
X51245Y-34399D01*
X51245Y-34399D02*
X51269Y-34352D01*
X51269Y-34352D02*
X51303Y-34309D01*
X51303Y-34309D02*
X51344Y-34275D01*
X51344Y-34275D02*
X51390Y-34249D01*
X51390Y-34249D02*
X51441Y-34232D01*
X51441Y-34232D02*
X51495Y-34226D01*
X51495Y-34226D02*
X51547Y-34230D01*
X51547Y-34230D02*
X51599Y-34244D01*
X51599Y-34244D02*
X51647Y-34268D01*
X51647Y-34268D02*
X51689Y-34301D01*
X51689Y-34301D02*
X51724Y-34342D01*
X51724Y-34342D02*
X51751Y-34389D01*
X51751Y-34389D02*
X51768Y-34440D01*
X51768Y-34440D02*
X51774Y-34493D01*
X51774Y-34493D02*
X51775Y-34500D01*
X51775Y-37500D02*
X51769Y-37553D01*
X51769Y-37553D02*
X51754Y-37604D01*
X51754Y-37604D02*
X51729Y-37652D01*
X51729Y-37652D02*
X51695Y-37693D01*
X51695Y-37693D02*
X51653Y-37727D01*
X51653Y-37727D02*
X51606Y-37753D01*
X51606Y-37753D02*
X51555Y-37769D01*
X51555Y-37769D02*
X51501Y-37774D01*
X51501Y-37774D02*
X51449Y-37770D01*
X51449Y-37770D02*
X51397Y-37754D01*
X51397Y-37754D02*
X51350Y-37730D01*
X51350Y-37730D02*
X51308Y-37696D01*
X51308Y-37696D02*
X51274Y-37655D01*
X51274Y-37655D02*
X51248Y-37608D01*
X51248Y-37608D02*
X51232Y-37557D01*
X51232Y-37557D02*
X51226Y-37503D01*
X51226Y-37503D02*
X51230Y-37451D01*
X51230Y-37451D02*
X51245Y-37399D01*
X51245Y-37399D02*
X51269Y-37352D01*
X51269Y-37352D02*
X51303Y-37309D01*
X51303Y-37309D02*
X51344Y-37275D01*
X51344Y-37275D02*
X51390Y-37249D01*
X51390Y-37249D02*
X51441Y-37232D01*
X51441Y-37232D02*
X51495Y-37226D01*
X51495Y-37226D02*
X51547Y-37230D01*
X51547Y-37230D02*
X51599Y-37244D01*
X51599Y-37244D02*
X51647Y-37268D01*
X51647Y-37268D02*
X51689Y-37301D01*
X51689Y-37301D02*
X51724Y-37342D01*
X51724Y-37342D02*
X51751Y-37389D01*
X51751Y-37389D02*
X51768Y-37440D01*
X51768Y-37440D02*
X51774Y-37493D01*
X51774Y-37493D02*
X51775Y-37500D01*
X47725Y-23225D02*
X48275Y-23225D01*
X48275Y-23225D02*
X48275Y-23775D01*
X48275Y-23775D02*
X47725Y-23775D01*
X47725Y-23775D02*
X47725Y-23225D01*
X48275Y-24500D02*
X48269Y-24553D01*
X48269Y-24553D02*
X48254Y-24604D01*
X48254Y-24604D02*
X48229Y-24652D01*
X48229Y-24652D02*
X48195Y-24693D01*
X48195Y-24693D02*
X48153Y-24727D01*
X48153Y-24727D02*
X48106Y-24753D01*
X48106Y-24753D02*
X48055Y-24769D01*
X48055Y-24769D02*
X48001Y-24774D01*
X48001Y-24774D02*
X47949Y-24770D01*
X47949Y-24770D02*
X47897Y-24754D01*
X47897Y-24754D02*
X47850Y-24730D01*
X47850Y-24730D02*
X47808Y-24696D01*
X47808Y-24696D02*
X47774Y-24655D01*
X47774Y-24655D02*
X47748Y-24608D01*
X47748Y-24608D02*
X47732Y-24557D01*
X47732Y-24557D02*
X47726Y-24503D01*
X47726Y-24503D02*
X47730Y-24451D01*
X47730Y-24451D02*
X47745Y-24399D01*
X47745Y-24399D02*
X47769Y-24352D01*
X47769Y-24352D02*
X47803Y-24309D01*
X47803Y-24309D02*
X47844Y-24275D01*
X47844Y-24275D02*
X47890Y-24249D01*
X47890Y-24249D02*
X47941Y-24232D01*
X47941Y-24232D02*
X47995Y-24226D01*
X47995Y-24226D02*
X48047Y-24230D01*
X48047Y-24230D02*
X48099Y-24244D01*
X48099Y-24244D02*
X48147Y-24268D01*
X48147Y-24268D02*
X48189Y-24301D01*
X48189Y-24301D02*
X48224Y-24342D01*
X48224Y-24342D02*
X48251Y-24389D01*
X48251Y-24389D02*
X48268Y-24440D01*
X48268Y-24440D02*
X48274Y-24493D01*
X48274Y-24493D02*
X48275Y-24500D01*
X48275Y-25500D02*
X48269Y-25553D01*
X48269Y-25553D02*
X48254Y-25604D01*
X48254Y-25604D02*
X48229Y-25652D01*
X48229Y-25652D02*
X48195Y-25693D01*
X48195Y-25693D02*
X48153Y-25727D01*
X48153Y-25727D02*
X48106Y-25753D01*
X48106Y-25753D02*
X48055Y-25769D01*
X48055Y-25769D02*
X48001Y-25774D01*
X48001Y-25774D02*
X47949Y-25770D01*
X47949Y-25770D02*
X47897Y-25754D01*
X47897Y-25754D02*
X47850Y-25730D01*
X47850Y-25730D02*
X47808Y-25696D01*
X47808Y-25696D02*
X47774Y-25655D01*
X47774Y-25655D02*
X47748Y-25608D01*
X47748Y-25608D02*
X47732Y-25557D01*
X47732Y-25557D02*
X47726Y-25503D01*
X47726Y-25503D02*
X47730Y-25451D01*
X47730Y-25451D02*
X47745Y-25399D01*
X47745Y-25399D02*
X47769Y-25352D01*
X47769Y-25352D02*
X47803Y-25309D01*
X47803Y-25309D02*
X47844Y-25275D01*
X47844Y-25275D02*
X47890Y-25249D01*
X47890Y-25249D02*
X47941Y-25232D01*
X47941Y-25232D02*
X47995Y-25226D01*
X47995Y-25226D02*
X48047Y-25230D01*
X48047Y-25230D02*
X48099Y-25244D01*
X48099Y-25244D02*
X48147Y-25268D01*
X48147Y-25268D02*
X48189Y-25301D01*
X48189Y-25301D02*
X48224Y-25342D01*
X48224Y-25342D02*
X48251Y-25389D01*
X48251Y-25389D02*
X48268Y-25440D01*
X48268Y-25440D02*
X48274Y-25493D01*
X48274Y-25493D02*
X48275Y-25500D01*
X48275Y-26500D02*
X48269Y-26553D01*
X48269Y-26553D02*
X48254Y-26604D01*
X48254Y-26604D02*
X48229Y-26652D01*
X48229Y-26652D02*
X48195Y-26693D01*
X48195Y-26693D02*
X48153Y-26727D01*
X48153Y-26727D02*
X48106Y-26753D01*
X48106Y-26753D02*
X48055Y-26769D01*
X48055Y-26769D02*
X48001Y-26774D01*
X48001Y-26774D02*
X47949Y-26770D01*
X47949Y-26770D02*
X47897Y-26754D01*
X47897Y-26754D02*
X47850Y-26730D01*
X47850Y-26730D02*
X47808Y-26696D01*
X47808Y-26696D02*
X47774Y-26655D01*
X47774Y-26655D02*
X47748Y-26608D01*
X47748Y-26608D02*
X47732Y-26557D01*
X47732Y-26557D02*
X47726Y-26503D01*
X47726Y-26503D02*
X47730Y-26451D01*
X47730Y-26451D02*
X47745Y-26399D01*
X47745Y-26399D02*
X47769Y-26352D01*
X47769Y-26352D02*
X47803Y-26309D01*
X47803Y-26309D02*
X47844Y-26275D01*
X47844Y-26275D02*
X47890Y-26249D01*
X47890Y-26249D02*
X47941Y-26232D01*
X47941Y-26232D02*
X47995Y-26226D01*
X47995Y-26226D02*
X48047Y-26230D01*
X48047Y-26230D02*
X48099Y-26244D01*
X48099Y-26244D02*
X48147Y-26268D01*
X48147Y-26268D02*
X48189Y-26301D01*
X48189Y-26301D02*
X48224Y-26342D01*
X48224Y-26342D02*
X48251Y-26389D01*
X48251Y-26389D02*
X48268Y-26440D01*
X48268Y-26440D02*
X48274Y-26493D01*
X48274Y-26493D02*
X48275Y-26500D01*
X51275Y-26500D02*
X51269Y-26553D01*
X51269Y-26553D02*
X51254Y-26604D01*
X51254Y-26604D02*
X51229Y-26652D01*
X51229Y-26652D02*
X51195Y-26693D01*
X51195Y-26693D02*
X51153Y-26727D01*
X51153Y-26727D02*
X51106Y-26753D01*
X51106Y-26753D02*
X51055Y-26769D01*
X51055Y-26769D02*
X51001Y-26774D01*
X51001Y-26774D02*
X50949Y-26770D01*
X50949Y-26770D02*
X50897Y-26754D01*
X50897Y-26754D02*
X50850Y-26730D01*
X50850Y-26730D02*
X50808Y-26696D01*
X50808Y-26696D02*
X50774Y-26655D01*
X50774Y-26655D02*
X50748Y-26608D01*
X50748Y-26608D02*
X50732Y-26557D01*
X50732Y-26557D02*
X50726Y-26503D01*
X50726Y-26503D02*
X50730Y-26451D01*
X50730Y-26451D02*
X50745Y-26399D01*
X50745Y-26399D02*
X50769Y-26352D01*
X50769Y-26352D02*
X50803Y-26309D01*
X50803Y-26309D02*
X50844Y-26275D01*
X50844Y-26275D02*
X50890Y-26249D01*
X50890Y-26249D02*
X50941Y-26232D01*
X50941Y-26232D02*
X50995Y-26226D01*
X50995Y-26226D02*
X51047Y-26230D01*
X51047Y-26230D02*
X51099Y-26244D01*
X51099Y-26244D02*
X51147Y-26268D01*
X51147Y-26268D02*
X51189Y-26301D01*
X51189Y-26301D02*
X51224Y-26342D01*
X51224Y-26342D02*
X51251Y-26389D01*
X51251Y-26389D02*
X51268Y-26440D01*
X51268Y-26440D02*
X51274Y-26493D01*
X51274Y-26493D02*
X51275Y-26500D01*
X51275Y-25500D02*
X51269Y-25553D01*
X51269Y-25553D02*
X51254Y-25604D01*
X51254Y-25604D02*
X51229Y-25652D01*
X51229Y-25652D02*
X51195Y-25693D01*
X51195Y-25693D02*
X51153Y-25727D01*
X51153Y-25727D02*
X51106Y-25753D01*
X51106Y-25753D02*
X51055Y-25769D01*
X51055Y-25769D02*
X51001Y-25774D01*
X51001Y-25774D02*
X50949Y-25770D01*
X50949Y-25770D02*
X50897Y-25754D01*
X50897Y-25754D02*
X50850Y-25730D01*
X50850Y-25730D02*
X50808Y-25696D01*
X50808Y-25696D02*
X50774Y-25655D01*
X50774Y-25655D02*
X50748Y-25608D01*
X50748Y-25608D02*
X50732Y-25557D01*
X50732Y-25557D02*
X50726Y-25503D01*
X50726Y-25503D02*
X50730Y-25451D01*
X50730Y-25451D02*
X50745Y-25399D01*
X50745Y-25399D02*
X50769Y-25352D01*
X50769Y-25352D02*
X50803Y-25309D01*
X50803Y-25309D02*
X50844Y-25275D01*
X50844Y-25275D02*
X50890Y-25249D01*
X50890Y-25249D02*
X50941Y-25232D01*
X50941Y-25232D02*
X50995Y-25226D01*
X50995Y-25226D02*
X51047Y-25230D01*
X51047Y-25230D02*
X51099Y-25244D01*
X51099Y-25244D02*
X51147Y-25268D01*
X51147Y-25268D02*
X51189Y-25301D01*
X51189Y-25301D02*
X51224Y-25342D01*
X51224Y-25342D02*
X51251Y-25389D01*
X51251Y-25389D02*
X51268Y-25440D01*
X51268Y-25440D02*
X51274Y-25493D01*
X51274Y-25493D02*
X51275Y-25500D01*
X51275Y-24500D02*
X51269Y-24553D01*
X51269Y-24553D02*
X51254Y-24604D01*
X51254Y-24604D02*
X51229Y-24652D01*
X51229Y-24652D02*
X51195Y-24693D01*
X51195Y-24693D02*
X51153Y-24727D01*
X51153Y-24727D02*
X51106Y-24753D01*
X51106Y-24753D02*
X51055Y-24769D01*
X51055Y-24769D02*
X51001Y-24774D01*
X51001Y-24774D02*
X50949Y-24770D01*
X50949Y-24770D02*
X50897Y-24754D01*
X50897Y-24754D02*
X50850Y-24730D01*
X50850Y-24730D02*
X50808Y-24696D01*
X50808Y-24696D02*
X50774Y-24655D01*
X50774Y-24655D02*
X50748Y-24608D01*
X50748Y-24608D02*
X50732Y-24557D01*
X50732Y-24557D02*
X50726Y-24503D01*
X50726Y-24503D02*
X50730Y-24451D01*
X50730Y-24451D02*
X50745Y-24399D01*
X50745Y-24399D02*
X50769Y-24352D01*
X50769Y-24352D02*
X50803Y-24309D01*
X50803Y-24309D02*
X50844Y-24275D01*
X50844Y-24275D02*
X50890Y-24249D01*
X50890Y-24249D02*
X50941Y-24232D01*
X50941Y-24232D02*
X50995Y-24226D01*
X50995Y-24226D02*
X51047Y-24230D01*
X51047Y-24230D02*
X51099Y-24244D01*
X51099Y-24244D02*
X51147Y-24268D01*
X51147Y-24268D02*
X51189Y-24301D01*
X51189Y-24301D02*
X51224Y-24342D01*
X51224Y-24342D02*
X51251Y-24389D01*
X51251Y-24389D02*
X51268Y-24440D01*
X51268Y-24440D02*
X51274Y-24493D01*
X51274Y-24493D02*
X51275Y-24500D01*
X51275Y-23500D02*
X51269Y-23553D01*
X51269Y-23553D02*
X51254Y-23604D01*
X51254Y-23604D02*
X51229Y-23652D01*
X51229Y-23652D02*
X51195Y-23693D01*
X51195Y-23693D02*
X51153Y-23727D01*
X51153Y-23727D02*
X51106Y-23753D01*
X51106Y-23753D02*
X51055Y-23769D01*
X51055Y-23769D02*
X51001Y-23774D01*
X51001Y-23774D02*
X50949Y-23770D01*
X50949Y-23770D02*
X50897Y-23754D01*
X50897Y-23754D02*
X50850Y-23730D01*
X50850Y-23730D02*
X50808Y-23696D01*
X50808Y-23696D02*
X50774Y-23655D01*
X50774Y-23655D02*
X50748Y-23608D01*
X50748Y-23608D02*
X50732Y-23557D01*
X50732Y-23557D02*
X50726Y-23503D01*
X50726Y-23503D02*
X50730Y-23451D01*
X50730Y-23451D02*
X50745Y-23399D01*
X50745Y-23399D02*
X50769Y-23352D01*
X50769Y-23352D02*
X50803Y-23309D01*
X50803Y-23309D02*
X50844Y-23275D01*
X50844Y-23275D02*
X50890Y-23249D01*
X50890Y-23249D02*
X50941Y-23232D01*
X50941Y-23232D02*
X50995Y-23226D01*
X50995Y-23226D02*
X51047Y-23230D01*
X51047Y-23230D02*
X51099Y-23244D01*
X51099Y-23244D02*
X51147Y-23268D01*
X51147Y-23268D02*
X51189Y-23301D01*
X51189Y-23301D02*
X51224Y-23342D01*
X51224Y-23342D02*
X51251Y-23389D01*
X51251Y-23389D02*
X51268Y-23440D01*
X51268Y-23440D02*
X51274Y-23493D01*
X51274Y-23493D02*
X51275Y-23500D01*
X61775Y-47000D02*
X61769Y-47053D01*
X61769Y-47053D02*
X61754Y-47104D01*
X61754Y-47104D02*
X61729Y-47152D01*
X61729Y-47152D02*
X61695Y-47193D01*
X61695Y-47193D02*
X61653Y-47227D01*
X61653Y-47227D02*
X61606Y-47253D01*
X61606Y-47253D02*
X61555Y-47269D01*
X61555Y-47269D02*
X61501Y-47274D01*
X61501Y-47274D02*
X61449Y-47270D01*
X61449Y-47270D02*
X61397Y-47254D01*
X61397Y-47254D02*
X61350Y-47230D01*
X61350Y-47230D02*
X61308Y-47196D01*
X61308Y-47196D02*
X61274Y-47155D01*
X61274Y-47155D02*
X61248Y-47108D01*
X61248Y-47108D02*
X61232Y-47057D01*
X61232Y-47057D02*
X61226Y-47003D01*
X61226Y-47003D02*
X61230Y-46951D01*
X61230Y-46951D02*
X61245Y-46899D01*
X61245Y-46899D02*
X61269Y-46852D01*
X61269Y-46852D02*
X61303Y-46809D01*
X61303Y-46809D02*
X61344Y-46775D01*
X61344Y-46775D02*
X61390Y-46749D01*
X61390Y-46749D02*
X61441Y-46732D01*
X61441Y-46732D02*
X61495Y-46726D01*
X61495Y-46726D02*
X61547Y-46730D01*
X61547Y-46730D02*
X61599Y-46744D01*
X61599Y-46744D02*
X61647Y-46768D01*
X61647Y-46768D02*
X61689Y-46801D01*
X61689Y-46801D02*
X61724Y-46842D01*
X61724Y-46842D02*
X61751Y-46889D01*
X61751Y-46889D02*
X61768Y-46940D01*
X61768Y-46940D02*
X61774Y-46993D01*
X61774Y-46993D02*
X61775Y-47000D01*
X62775Y-47000D02*
X62769Y-47053D01*
X62769Y-47053D02*
X62754Y-47104D01*
X62754Y-47104D02*
X62729Y-47152D01*
X62729Y-47152D02*
X62695Y-47193D01*
X62695Y-47193D02*
X62653Y-47227D01*
X62653Y-47227D02*
X62606Y-47253D01*
X62606Y-47253D02*
X62555Y-47269D01*
X62555Y-47269D02*
X62501Y-47274D01*
X62501Y-47274D02*
X62449Y-47270D01*
X62449Y-47270D02*
X62397Y-47254D01*
X62397Y-47254D02*
X62350Y-47230D01*
X62350Y-47230D02*
X62308Y-47196D01*
X62308Y-47196D02*
X62274Y-47155D01*
X62274Y-47155D02*
X62248Y-47108D01*
X62248Y-47108D02*
X62232Y-47057D01*
X62232Y-47057D02*
X62226Y-47003D01*
X62226Y-47003D02*
X62230Y-46951D01*
X62230Y-46951D02*
X62245Y-46899D01*
X62245Y-46899D02*
X62269Y-46852D01*
X62269Y-46852D02*
X62303Y-46809D01*
X62303Y-46809D02*
X62344Y-46775D01*
X62344Y-46775D02*
X62390Y-46749D01*
X62390Y-46749D02*
X62441Y-46732D01*
X62441Y-46732D02*
X62495Y-46726D01*
X62495Y-46726D02*
X62547Y-46730D01*
X62547Y-46730D02*
X62599Y-46744D01*
X62599Y-46744D02*
X62647Y-46768D01*
X62647Y-46768D02*
X62689Y-46801D01*
X62689Y-46801D02*
X62724Y-46842D01*
X62724Y-46842D02*
X62751Y-46889D01*
X62751Y-46889D02*
X62768Y-46940D01*
X62768Y-46940D02*
X62774Y-46993D01*
X62774Y-46993D02*
X62775Y-47000D01*
X79275Y-28500D02*
X79260Y-28650D01*
X79260Y-28650D02*
X79216Y-28795D01*
X79216Y-28795D02*
X79145Y-28928D01*
X79145Y-28928D02*
X79049Y-29046D01*
X79049Y-29046D02*
X78933Y-29142D01*
X78933Y-29142D02*
X78800Y-29214D01*
X78800Y-29214D02*
X78655Y-29259D01*
X78655Y-29259D02*
X78505Y-29274D01*
X78505Y-29274D02*
X78355Y-29261D01*
X78355Y-29261D02*
X78210Y-29218D01*
X78210Y-29218D02*
X78076Y-29148D01*
X78076Y-29148D02*
X77958Y-29053D01*
X77958Y-29053D02*
X77861Y-28937D01*
X77861Y-28937D02*
X77788Y-28805D01*
X77788Y-28805D02*
X77742Y-28661D01*
X77742Y-28661D02*
X77726Y-28510D01*
X77726Y-28510D02*
X77738Y-28361D01*
X77738Y-28361D02*
X77780Y-28215D01*
X77780Y-28215D02*
X77849Y-28081D01*
X77849Y-28081D02*
X77943Y-27962D01*
X77943Y-27962D02*
X78058Y-27864D01*
X78058Y-27864D02*
X78190Y-27790D01*
X78190Y-27790D02*
X78334Y-27744D01*
X78334Y-27744D02*
X78484Y-27726D01*
X78484Y-27726D02*
X78634Y-27737D01*
X78634Y-27737D02*
X78780Y-27778D01*
X78780Y-27778D02*
X78915Y-27846D01*
X78915Y-27846D02*
X79034Y-27939D01*
X79034Y-27939D02*
X79133Y-28054D01*
X79133Y-28054D02*
X79207Y-28185D01*
X79207Y-28185D02*
X79255Y-28329D01*
X79255Y-28329D02*
X79274Y-28479D01*
X79274Y-28479D02*
X79275Y-28500D01*
X20775Y-30000D02*
X20760Y-30150D01*
X20760Y-30150D02*
X20716Y-30295D01*
X20716Y-30295D02*
X20645Y-30428D01*
X20645Y-30428D02*
X20549Y-30546D01*
X20549Y-30546D02*
X20433Y-30642D01*
X20433Y-30642D02*
X20300Y-30714D01*
X20300Y-30714D02*
X20155Y-30759D01*
X20155Y-30759D02*
X20005Y-30774D01*
X20005Y-30774D02*
X19855Y-30761D01*
X19855Y-30761D02*
X19710Y-30718D01*
X19710Y-30718D02*
X19576Y-30648D01*
X19576Y-30648D02*
X19458Y-30553D01*
X19458Y-30553D02*
X19361Y-30437D01*
X19361Y-30437D02*
X19288Y-30305D01*
X19288Y-30305D02*
X19242Y-30161D01*
X19242Y-30161D02*
X19226Y-30010D01*
X19226Y-30010D02*
X19238Y-29861D01*
X19238Y-29861D02*
X19280Y-29715D01*
X19280Y-29715D02*
X19349Y-29581D01*
X19349Y-29581D02*
X19443Y-29462D01*
X19443Y-29462D02*
X19558Y-29364D01*
X19558Y-29364D02*
X19690Y-29290D01*
X19690Y-29290D02*
X19834Y-29244D01*
X19834Y-29244D02*
X19984Y-29226D01*
X19984Y-29226D02*
X20134Y-29237D01*
X20134Y-29237D02*
X20280Y-29278D01*
X20280Y-29278D02*
X20415Y-29346D01*
X20415Y-29346D02*
X20534Y-29439D01*
X20534Y-29439D02*
X20633Y-29554D01*
X20633Y-29554D02*
X20707Y-29685D01*
X20707Y-29685D02*
X20755Y-29829D01*
X20755Y-29829D02*
X20774Y-29979D01*
X20774Y-29979D02*
X20775Y-30000D01*
G54D32*
X23685Y-42234D02*
X23618Y-42300D01*
X23618Y-42300D02*
X23285Y-42300D01*
X23285Y-42300D02*
X23218Y-42234D01*
X23218Y-42234D02*
X23218Y-42034D01*
X23218Y-42034D02*
X23285Y-41967D01*
X23285Y-41967D02*
X23618Y-41967D01*
X23618Y-41967D02*
X23685Y-41900D01*
X23685Y-41900D02*
X23685Y-41767D01*
X23685Y-41767D02*
X23618Y-41700D01*
X23618Y-41700D02*
X23285Y-41700D01*
X23285Y-41700D02*
X23218Y-41767D01*
X22899Y-42300D02*
X22899Y-41700D01*
X22432Y-42300D02*
X22432Y-41700D01*
X22899Y-42034D02*
X22432Y-42034D01*
X22046Y-42300D02*
X21779Y-42300D01*
X21913Y-42300D02*
X21913Y-41700D01*
X22046Y-41700D02*
X21779Y-41700D01*
X20860Y-42300D02*
X21327Y-42300D01*
X21327Y-42300D02*
X21327Y-41700D01*
X21327Y-41700D02*
X20860Y-41700D01*
X21327Y-41967D02*
X21060Y-41967D01*
X20541Y-41700D02*
X20541Y-42300D01*
X20541Y-42300D02*
X20007Y-42300D01*
X19688Y-42300D02*
X19688Y-41700D01*
X19755Y-41700D02*
X19355Y-41700D01*
X19355Y-41700D02*
X19288Y-41767D01*
X19288Y-41767D02*
X19288Y-42234D01*
X19288Y-42234D02*
X19355Y-42300D01*
X19355Y-42300D02*
X19755Y-42300D01*
X18835Y-42300D02*
X18569Y-42300D01*
X18702Y-42300D02*
X18702Y-41700D01*
X18702Y-41767D02*
X18835Y-41900D01*
M02*
