M48
;DRILL file {PCBnew (20090216-final)} date jue 19 abr 2012 08:36:16 WEST
;FORMAT={-.-/ absolute / inch / decimal}
R,T
VER,1
FMAT,2
INCH,TZ
TCST,OFF
ICI,OFF
ATC,ON
T1C0.032
T2C0.039
T3C0.040
T4C0.048
T5C0.059
T6C0.080
T7C0.100
T8C0.125
%
M47
G05
M72
T1
X1.900Y1.600
X2.000Y1.600
X2.250Y1.700
X2.550Y1.700
X2.790Y3.950
X2.890Y3.950
X2.990Y3.950
X3.090Y3.950
X3.150Y2.050
X3.190Y3.950
X3.250Y2.050
X3.290Y3.950
X3.350Y2.050
X3.390Y3.950
X3.450Y2.050
X3.490Y3.950
X3.550Y2.050
X3.650Y2.050
X3.650Y3.950
X3.750Y3.950
X3.850Y2.050
X3.850Y3.450
X3.850Y3.750
X3.850Y3.950
X3.950Y2.050
X3.950Y3.950
X4.050Y2.050
X4.050Y3.450
X4.050Y3.750
X4.050Y3.950
X4.150Y2.050
X4.150Y3.950
X4.250Y2.050
X4.250Y3.950
X4.350Y2.050
X4.350Y3.950
X4.450Y2.050
X4.550Y2.050
X4.550Y3.450
X4.550Y3.750
X4.550Y3.950
X4.650Y2.350
X4.650Y2.450
X4.650Y3.950
X4.750Y2.050
X4.750Y3.950
X4.800Y2.350
X4.800Y2.450
X4.800Y2.550
X4.800Y2.650
X4.850Y2.050
X4.850Y3.950
X4.950Y2.050
X4.950Y3.950
X5.050Y2.050
X5.050Y3.950
X5.100Y2.350
X5.100Y2.450
X5.100Y2.550
X5.100Y2.650
X5.150Y2.050
X5.150Y3.450
X5.150Y3.750
X5.150Y3.950
X5.250Y2.050
X5.250Y3.450
X5.250Y3.750
X5.250Y3.950
X5.350Y2.050
X5.450Y2.050
X5.550Y2.250
X5.550Y2.350
X5.550Y2.450
X5.550Y2.550
X5.550Y2.650
X5.550Y2.750
X5.550Y2.850
X5.550Y2.950
X5.550Y3.050
X5.550Y3.150
X5.550Y3.250
X5.550Y3.350
X5.550Y3.450
X5.550Y3.550
X5.550Y3.650
X5.550Y3.750
X5.550Y3.850
X5.550Y3.950
X5.650Y2.250
X5.650Y2.350
X5.650Y2.450
X5.650Y2.550
X5.650Y2.650
X5.650Y2.750
X5.650Y2.850
X5.650Y2.950
X5.650Y3.050
X5.650Y3.150
X5.650Y3.250
X5.650Y3.350
X5.650Y3.450
X5.650Y3.550
X5.650Y3.650
X5.650Y3.750
X5.650Y3.850
X5.650Y3.950
X6.150Y4.700
X6.250Y4.700
T2
X6.500Y1.300
X6.500Y1.600
X6.500Y1.800
X6.500Y2.100
X6.800Y1.300
X6.800Y1.600
X6.800Y1.800
X6.800Y2.100
X7.000Y1.300
X7.000Y1.600
X7.000Y1.800
X7.000Y2.100
X7.200Y1.300
X7.200Y1.600
X7.200Y1.800
X7.200Y2.100
T3
X2.050Y4.300
X2.150Y4.300
X2.250Y4.300
X2.350Y4.300
X2.450Y4.300
X2.550Y4.300
X2.650Y4.300
X2.750Y4.300
X2.850Y4.300
X2.950Y4.300
X3.050Y4.300
X3.150Y4.300
X3.250Y4.300
X3.350Y4.300
X3.450Y4.300
X3.550Y4.300
X3.650Y1.650
X3.750Y1.650
X3.850Y1.650
X3.850Y4.200
X3.850Y4.300
X3.850Y4.400
X4.200Y4.250
X4.300Y4.250
X4.400Y4.250
X4.700Y4.250
X4.800Y4.250
X5.100Y4.250
X5.200Y4.250
X5.300Y4.250
X5.400Y4.250
X5.750Y4.675
T4
X4.500Y1.600
X4.700Y1.600
X4.900Y1.600
X5.100Y1.600
X5.450Y1.600
X5.650Y1.600
X5.850Y1.600
X6.050Y1.600
X7.500Y1.350
X7.500Y1.550
X7.500Y1.850
X7.500Y2.050
X7.500Y2.400
X7.500Y2.600
X7.500Y3.000
X7.500Y3.200
X7.500Y3.600
X7.500Y3.800
X7.500Y4.200
X7.500Y4.400
T5
X6.158Y2.352
X6.158Y2.648
X6.158Y2.952
X6.158Y3.248
X6.158Y3.552
X6.158Y3.848
X6.158Y4.152
X6.158Y4.448
X6.355Y2.352
X6.355Y2.648
X6.355Y2.952
X6.355Y3.248
X6.355Y3.552
X6.355Y3.848
X6.355Y4.152
X6.355Y4.448
X6.552Y2.352
X6.552Y2.648
X6.552Y2.952
X6.552Y3.248
X6.552Y3.552
X6.552Y3.848
X6.552Y4.152
X6.552Y4.448
X7.142Y2.352
X7.142Y2.648
X7.142Y2.952
X7.142Y3.248
X7.142Y3.552
X7.142Y3.848
X7.142Y4.152
X7.142Y4.448
T6
X5.550Y4.675
X5.850Y4.500
X5.850Y4.850
T7
X5.750Y4.300
T8
X2.000Y3.000
X2.400Y2.050
X2.450Y3.950
X7.850Y2.850
T0
M30
