G04 (created by PCBnew (20090216-final)) date mar 15 feb 2011 15:55:26 WET*
G01*
G70*
G90*
%MOIN*%
G04 Gerber Fmt 3.4, Leading zero omitted, Abs format*
%FSLAX34Y34*%
G04 APERTURE LIST*
%ADD10C,0.015000*%
%ADD11R,0.100000X0.100000*%
%ADD12C,0.100000*%
%ADD13C,0.150000*%
%ADD14R,0.150000X0.150000*%
%ADD15C,0.066000*%
%ADD16R,0.060000X0.060000*%
%ADD17C,0.060000*%
%ADD18C,0.055000*%
%ADD19C,0.062900*%
%ADD20O,0.177100X0.088500*%
%ADD21O,0.060000X0.100000*%
%ADD22C,0.155000*%
%ADD23C,0.140000*%
%ADD24C,0.085000*%
%ADD25C,0.052000*%
%ADD26R,0.055000X0.055000*%
%ADD27C,0.045000*%
%ADD28C,0.025000*%
%ADD29C,0.010000*%
%ADD30C,0.024000*%
%ADD31C,0.006000*%
%ADD32C,0.015000*%
%ADD33C,0.011200*%
%ADD34C,0.008000*%
%ADD35C,0.003000*%
%ADD36C,0.005000*%
%ADD37C,0.002600*%
%ADD38C,0.016000*%
%ADD39C,0.003500*%
G04 APERTURE END LIST*
G54D10*
X17000Y-52500D02*
X19000Y-52500D01*
X17000Y-11500D02*
X17000Y-52500D01*
X85500Y-11500D02*
X17000Y-11500D01*
X85500Y-52500D02*
X85500Y-11500D01*
X17000Y-52500D02*
X85500Y-52500D01*
G54D11*
X75000Y-18500D03*
G54D12*
X75000Y-20500D03*
G54D11*
X75000Y-13500D03*
G54D12*
X75000Y-15500D03*
G54D11*
X75000Y-24000D03*
G54D12*
X75000Y-26000D03*
G54D11*
X75000Y-30000D03*
G54D12*
X75000Y-32000D03*
G54D11*
X75000Y-42000D03*
G54D12*
X75000Y-44000D03*
G54D11*
X75000Y-36000D03*
G54D12*
X75000Y-38000D03*
G54D13*
X56500Y-16000D03*
X58500Y-16000D03*
G54D14*
X54500Y-16000D03*
G54D13*
X60500Y-16000D03*
X47000Y-16000D03*
X49000Y-16000D03*
G54D14*
X45000Y-16000D03*
G54D13*
X51000Y-16000D03*
G54D15*
X19000Y-16000D03*
X20000Y-16000D03*
G54D16*
X34000Y-48500D03*
G54D17*
X33000Y-48500D03*
X32000Y-48500D03*
X31000Y-48500D03*
X30000Y-48500D03*
X29000Y-48500D03*
X28000Y-48500D03*
X27000Y-48500D03*
X26000Y-48500D03*
X25000Y-48500D03*
X24000Y-48500D03*
X23000Y-48500D03*
X22000Y-48500D03*
X21000Y-48500D03*
X20000Y-48500D03*
X19000Y-48500D03*
G54D16*
X38500Y-48500D03*
G54D17*
X39500Y-48500D03*
X40500Y-48500D03*
G54D16*
X31500Y-44500D03*
G54D17*
X32500Y-44500D03*
X33500Y-44500D03*
G54D16*
X51000Y-48500D03*
G54D17*
X52000Y-48500D03*
X53000Y-48500D03*
X54000Y-48500D03*
G54D18*
X40500Y-44500D03*
X40500Y-41500D03*
X38500Y-44500D03*
X38500Y-41500D03*
X22500Y-17000D03*
X25500Y-17000D03*
G54D19*
X68000Y-21000D03*
X70000Y-21000D03*
X72000Y-21000D03*
X68000Y-18000D03*
X70000Y-18000D03*
X72000Y-18000D03*
X65000Y-21000D03*
X65000Y-18000D03*
X68000Y-16000D03*
X70000Y-16000D03*
X72000Y-16000D03*
X68000Y-13000D03*
X70000Y-13000D03*
X72000Y-13000D03*
X65000Y-16000D03*
X65000Y-13000D03*
G54D16*
X38500Y-16500D03*
G54D17*
X37500Y-16500D03*
X36500Y-16500D03*
G54D16*
X44500Y-48500D03*
G54D17*
X45500Y-48500D03*
G54D18*
X48500Y-50500D03*
X48500Y-47500D03*
G54D20*
X63548Y-26476D03*
X65516Y-26476D03*
X61579Y-26476D03*
X63548Y-23524D03*
X65516Y-23524D03*
X61579Y-23524D03*
X71421Y-26476D03*
X71421Y-23524D03*
X63548Y-32476D03*
X65516Y-32476D03*
X61579Y-32476D03*
X63548Y-29524D03*
X65516Y-29524D03*
X61579Y-29524D03*
X71421Y-32476D03*
X71421Y-29524D03*
X63548Y-44476D03*
X65516Y-44476D03*
X61579Y-44476D03*
X63548Y-41524D03*
X65516Y-41524D03*
X61579Y-41524D03*
X71421Y-44476D03*
X71421Y-41524D03*
X63548Y-38476D03*
X65516Y-38476D03*
X61579Y-38476D03*
X63548Y-35524D03*
X65516Y-35524D03*
X61579Y-35524D03*
X71421Y-38476D03*
X71421Y-35524D03*
G54D21*
X45500Y-39500D03*
X46500Y-39500D03*
X47500Y-39500D03*
X48500Y-39500D03*
X49500Y-39500D03*
X50500Y-39500D03*
X51500Y-39500D03*
X52500Y-39500D03*
X54500Y-20500D03*
X53500Y-20500D03*
X52500Y-20500D03*
X51500Y-20500D03*
X47500Y-20500D03*
X45500Y-20500D03*
X44500Y-20500D03*
X48500Y-20500D03*
X49500Y-20500D03*
X50500Y-20500D03*
X43500Y-20500D03*
X42500Y-20500D03*
X41500Y-20500D03*
X38500Y-20500D03*
X39500Y-20500D03*
X40500Y-20500D03*
X36500Y-20500D03*
X35500Y-20500D03*
X34500Y-20500D03*
X32500Y-20500D03*
X31500Y-20500D03*
X43500Y-39500D03*
X42500Y-39500D03*
X41500Y-39500D03*
X40500Y-39500D03*
X39500Y-39500D03*
X38500Y-39500D03*
X37500Y-39500D03*
X36500Y-39500D03*
X34900Y-39500D03*
X33900Y-39500D03*
X32900Y-39500D03*
X31900Y-39500D03*
X30900Y-39500D03*
X29900Y-39500D03*
X28900Y-39500D03*
X27900Y-39500D03*
X33500Y-20500D03*
G54D22*
X24500Y-39500D03*
X24000Y-20500D03*
G54D17*
X55500Y-38500D03*
X56500Y-38500D03*
X55500Y-37500D03*
X56500Y-37500D03*
X55500Y-36500D03*
X56500Y-36500D03*
X55500Y-35500D03*
X56500Y-35500D03*
X55500Y-39500D03*
X56500Y-39500D03*
X56500Y-34500D03*
X55500Y-34500D03*
X55500Y-33500D03*
X56500Y-33500D03*
X55500Y-32500D03*
X56500Y-32500D03*
X55500Y-31500D03*
X56500Y-31500D03*
X55500Y-30500D03*
X56500Y-30500D03*
X55500Y-29500D03*
X56500Y-29500D03*
X55500Y-28500D03*
X56500Y-28500D03*
X55500Y-27500D03*
X56500Y-27500D03*
X55500Y-26500D03*
X56500Y-26500D03*
X55500Y-25500D03*
X56500Y-25500D03*
X55500Y-24500D03*
X56500Y-24500D03*
X55500Y-23500D03*
X56500Y-23500D03*
X55500Y-22500D03*
X56500Y-22500D03*
G54D23*
X75000Y-48000D03*
G54D12*
X78750Y-48000D03*
G54D24*
X78750Y-50000D03*
X80500Y-47000D03*
X77000Y-47000D03*
G54D25*
X67000Y-49000D03*
X67000Y-50000D03*
G54D18*
X56500Y-48500D03*
X59500Y-48500D03*
X56500Y-47000D03*
X59500Y-47000D03*
G54D26*
X65500Y-50000D03*
G54D18*
X65500Y-49000D03*
X65500Y-48000D03*
X65500Y-47000D03*
X62500Y-47000D03*
X62500Y-48000D03*
X62500Y-49000D03*
X62500Y-50000D03*
X60500Y-50000D03*
X59500Y-50000D03*
G54D22*
X82000Y-32000D03*
X20000Y-30000D03*
G54D27*
X75000Y-18500D02*
X73000Y-18500D01*
X69500Y-19500D02*
X68000Y-21000D01*
X72000Y-19500D02*
X69500Y-19500D01*
X73000Y-18500D02*
X72000Y-19500D01*
X72000Y-21000D02*
X72500Y-20500D01*
X72500Y-20500D02*
X75000Y-20500D01*
X68000Y-16000D02*
X69500Y-14500D01*
X73000Y-13500D02*
X75000Y-13500D01*
X72000Y-14500D02*
X73000Y-13500D01*
X69500Y-14500D02*
X72000Y-14500D01*
X75000Y-15500D02*
X72500Y-15500D01*
X72500Y-15500D02*
X72000Y-16000D01*
X75000Y-24000D02*
X73000Y-24000D01*
X71445Y-23500D02*
X71421Y-23524D01*
X72500Y-23500D02*
X71445Y-23500D01*
X73000Y-24000D02*
X72500Y-23500D01*
X75000Y-26000D02*
X73000Y-26000D01*
X71445Y-26500D02*
X71421Y-26476D01*
X72500Y-26500D02*
X71445Y-26500D01*
X73000Y-26000D02*
X72500Y-26500D01*
X75000Y-30000D02*
X73000Y-30000D01*
X71445Y-29500D02*
X71421Y-29524D01*
X72500Y-29500D02*
X71445Y-29500D01*
X73000Y-30000D02*
X72500Y-29500D01*
X75000Y-32000D02*
X73000Y-32000D01*
X71445Y-32500D02*
X71421Y-32476D01*
X72500Y-32500D02*
X71445Y-32500D01*
X73000Y-32000D02*
X72500Y-32500D01*
X75000Y-42000D02*
X73000Y-42000D01*
X71445Y-41500D02*
X71421Y-41524D01*
X72500Y-41500D02*
X71445Y-41500D01*
X73000Y-42000D02*
X72500Y-41500D01*
X75000Y-44000D02*
X73000Y-44000D01*
X71445Y-44500D02*
X71421Y-44476D01*
X72500Y-44500D02*
X71445Y-44500D01*
X73000Y-44000D02*
X72500Y-44500D01*
X75000Y-36000D02*
X73000Y-36000D01*
X71445Y-35500D02*
X71421Y-35524D01*
X72500Y-35500D02*
X71445Y-35500D01*
X73000Y-36000D02*
X72500Y-35500D01*
X75000Y-38000D02*
X73000Y-38000D01*
X71445Y-38500D02*
X71421Y-38476D01*
X72500Y-38500D02*
X71445Y-38500D01*
X73000Y-38000D02*
X72500Y-38500D01*
G54D28*
X50500Y-14500D02*
X57000Y-14500D01*
X47500Y-14500D02*
X39500Y-14500D01*
X39500Y-14500D02*
X39000Y-15000D01*
X60500Y-50000D02*
X62500Y-50000D01*
X66500Y-31000D02*
X69000Y-28500D01*
X63055Y-25000D02*
X61579Y-26476D01*
X66500Y-25000D02*
X63055Y-25000D01*
X69000Y-27500D02*
X66500Y-25000D01*
X69000Y-28500D02*
X69000Y-27500D01*
X66500Y-37000D02*
X69000Y-34500D01*
X63055Y-31000D02*
X61579Y-32476D01*
X66500Y-31000D02*
X63055Y-31000D01*
X69000Y-33500D02*
X66500Y-31000D01*
X69000Y-34500D02*
X69000Y-33500D01*
X61579Y-44476D02*
X61579Y-44421D01*
X66000Y-43000D02*
X69000Y-40000D01*
X63000Y-43000D02*
X66000Y-43000D01*
X61579Y-44421D02*
X63000Y-43000D01*
X69000Y-40000D02*
X69000Y-39500D01*
X63055Y-37000D02*
X61579Y-38476D01*
X66500Y-37000D02*
X63055Y-37000D01*
X69000Y-39500D02*
X66500Y-37000D01*
X82000Y-41000D02*
X81000Y-40000D01*
X69000Y-51500D02*
X63500Y-51500D01*
X82000Y-50500D02*
X82000Y-41000D01*
X81000Y-40000D02*
X69000Y-40000D01*
X69000Y-51500D02*
X81000Y-51500D01*
X62500Y-50500D02*
X63500Y-51500D01*
X81000Y-51500D02*
X82000Y-50500D01*
X62500Y-50500D02*
X61500Y-51500D01*
X56500Y-50500D02*
X57500Y-51500D01*
X61500Y-51500D02*
X58500Y-51500D01*
X58500Y-51500D02*
X57500Y-51500D01*
X56500Y-50500D02*
X55500Y-51500D01*
X51000Y-50500D02*
X52000Y-51500D01*
X55500Y-51500D02*
X52000Y-51500D01*
X51000Y-50500D02*
X50000Y-51500D01*
X44500Y-50500D02*
X44500Y-48500D01*
X43500Y-51500D02*
X44500Y-50500D01*
X44500Y-50500D02*
X45500Y-51500D01*
X50000Y-51500D02*
X45500Y-51500D01*
X33500Y-46500D02*
X33000Y-47000D01*
X33000Y-48500D02*
X33000Y-50500D01*
X32000Y-51500D02*
X33000Y-50500D01*
X20000Y-48500D02*
X20000Y-50500D01*
X32000Y-51500D02*
X21000Y-51500D01*
X20000Y-50500D02*
X21000Y-51500D01*
X33000Y-50500D02*
X34000Y-51500D01*
X43500Y-51500D02*
X34000Y-51500D01*
X20000Y-45500D02*
X22000Y-43500D01*
X36500Y-15500D02*
X34500Y-15500D01*
X34500Y-15500D02*
X33500Y-16500D01*
X49000Y-16000D02*
X50500Y-14500D01*
X58500Y-16000D02*
X57000Y-14500D01*
X37500Y-16500D02*
X36500Y-15500D01*
X37500Y-16500D02*
X39000Y-15000D01*
X49000Y-16000D02*
X47500Y-14500D01*
X33500Y-19000D02*
X33500Y-16500D01*
X22500Y-19000D02*
X22000Y-19500D01*
X22500Y-19000D02*
X27000Y-19000D01*
X22000Y-19500D02*
X22000Y-43500D01*
X26500Y-17000D02*
X27000Y-17500D01*
X62500Y-50000D02*
X62500Y-50500D01*
X56500Y-48500D02*
X56500Y-50500D01*
X56500Y-47000D02*
X56500Y-48500D01*
X25500Y-17000D02*
X26500Y-17000D01*
X27000Y-17500D02*
X27000Y-19000D01*
X51000Y-48500D02*
X51000Y-50500D01*
X20000Y-45500D02*
X20000Y-48500D01*
X33000Y-48500D02*
X33000Y-47000D01*
X33500Y-46500D02*
X33500Y-44500D01*
X27000Y-19000D02*
X33500Y-19000D01*
X33500Y-20500D02*
X33500Y-19000D01*
G54D10*
X55500Y-18500D02*
X55500Y-21500D01*
X54500Y-25500D02*
X54000Y-25000D01*
X54000Y-25000D02*
X54000Y-23000D01*
X55500Y-25500D02*
X54500Y-25500D01*
X55500Y-21500D02*
X54000Y-23000D01*
X54500Y-17500D02*
X55500Y-18500D01*
X54500Y-17500D02*
X54500Y-16000D01*
X45000Y-18000D02*
X45500Y-18000D01*
X45500Y-18000D02*
X46500Y-19000D01*
X48000Y-29500D02*
X46500Y-28000D01*
X46500Y-19000D02*
X46500Y-28000D01*
X48000Y-29500D02*
X55500Y-29500D01*
X45000Y-16000D02*
X45000Y-18000D01*
G54D28*
X19000Y-16500D02*
X19500Y-17000D01*
X22500Y-17000D02*
X19500Y-17000D01*
X19000Y-16500D02*
X19000Y-16000D01*
G54D10*
X30500Y-46000D02*
X31000Y-46500D01*
X30000Y-45500D02*
X30500Y-46000D01*
X30500Y-43000D02*
X30000Y-43500D01*
X36500Y-39500D02*
X36500Y-42500D01*
X31000Y-46500D02*
X31000Y-48500D01*
X30000Y-43500D02*
X30000Y-45500D01*
X36000Y-43000D02*
X30500Y-43000D01*
X36500Y-42500D02*
X36000Y-43000D01*
X24500Y-47500D02*
X24000Y-48000D01*
X33900Y-40500D02*
X33900Y-40600D01*
X33900Y-40600D02*
X33000Y-41500D01*
X24500Y-47500D02*
X25000Y-47000D01*
X33900Y-39500D02*
X33900Y-40500D01*
X25000Y-43000D02*
X25000Y-47000D01*
X26500Y-41500D02*
X25000Y-43000D01*
X33000Y-41500D02*
X26500Y-41500D01*
X24000Y-48000D02*
X24000Y-48500D01*
X23000Y-46500D02*
X22000Y-47500D01*
X31900Y-39500D02*
X31900Y-39600D01*
X31900Y-39600D02*
X31000Y-40500D01*
X23000Y-46500D02*
X23500Y-46000D01*
X23500Y-43000D02*
X23500Y-46000D01*
X26000Y-40500D02*
X23500Y-43000D01*
X31000Y-40500D02*
X26000Y-40500D01*
X22000Y-47500D02*
X22000Y-48500D01*
X38500Y-44500D02*
X38500Y-48500D01*
X40500Y-48500D02*
X40500Y-44500D01*
X52000Y-46000D02*
X53000Y-47000D01*
X50500Y-39500D02*
X50500Y-46000D01*
X53000Y-47000D02*
X53000Y-48500D01*
X50500Y-46000D02*
X52000Y-46000D01*
X40500Y-41500D02*
X40500Y-39500D01*
X38500Y-41500D02*
X38500Y-39500D01*
X56500Y-26500D02*
X62000Y-21000D01*
X65000Y-21000D02*
X62000Y-21000D01*
X63000Y-17000D02*
X62000Y-18000D01*
X63000Y-17000D02*
X64000Y-16000D01*
X56500Y-24500D02*
X62000Y-19000D01*
X65000Y-16000D02*
X64000Y-16000D01*
X62000Y-18000D02*
X62000Y-19000D01*
X38500Y-16500D02*
X38500Y-20500D01*
X48000Y-46000D02*
X48500Y-46500D01*
X48500Y-47500D02*
X48500Y-46500D01*
X48000Y-46000D02*
X47500Y-46000D01*
X47500Y-46000D02*
X45500Y-46000D01*
X45500Y-39500D02*
X45500Y-46000D01*
X45500Y-46000D02*
X45500Y-48500D01*
X59000Y-28000D02*
X58500Y-28500D01*
X63548Y-26476D02*
X63524Y-26476D01*
X63524Y-26476D02*
X62000Y-28000D01*
X58500Y-28500D02*
X56500Y-28500D01*
X62000Y-28000D02*
X59000Y-28000D01*
X60000Y-33500D02*
X60500Y-34000D01*
X63000Y-34000D02*
X63548Y-33452D01*
X60500Y-34000D02*
X63000Y-34000D01*
X56500Y-30500D02*
X57000Y-30500D01*
X57000Y-30500D02*
X60000Y-33500D01*
X63548Y-32476D02*
X63548Y-33452D01*
X56500Y-35500D02*
X60500Y-39500D01*
X63548Y-38952D02*
X63548Y-38476D01*
X63000Y-39500D02*
X63548Y-38952D01*
X60500Y-39500D02*
X63000Y-39500D01*
X58500Y-45000D02*
X59500Y-46000D01*
X51500Y-44500D02*
X52000Y-45000D01*
X52000Y-45000D02*
X58500Y-45000D01*
X59500Y-47000D02*
X59500Y-46000D01*
X51500Y-44500D02*
X51500Y-39500D01*
X59500Y-47000D02*
X62500Y-47000D01*
G54D28*
X75000Y-48000D02*
X65500Y-48000D01*
G54D10*
X65500Y-49000D02*
X67000Y-49000D01*
X65500Y-50000D02*
X67000Y-50000D01*
M02*
