G04 (created by PCBnew (20090216-final)) date lun 23 abr 2012 19:32:40 WEST*
G01*
G70*
G90*
%MOIN*%
G04 Gerber Fmt 3.4, Leading zero omitted, Abs format*
%FSLAX34Y34*%
G04 APERTURE LIST*
%ADD10C,0.024000*%
%ADD11C,0.012000*%
%ADD12C,0.006000*%
%ADD13C,0.015000*%
%ADD14C,0.011200*%
%ADD15C,0.008000*%
%ADD16C,0.003000*%
%ADD17C,0.010000*%
%ADD18C,0.005000*%
%ADD19C,0.002600*%
%ADD20C,0.016000*%
%ADD21C,0.001000*%
%ADD22C,0.003500*%
G04 APERTURE END LIST*
G54D10*
X29207Y-17800D02*
X28274Y-17800D01*
X28274Y-17800D02*
X28340Y-17267D01*
X28340Y-17267D02*
X28495Y-17089D01*
X28495Y-17089D02*
X29162Y-17089D01*
X29162Y-17089D02*
X29318Y-16912D01*
X29318Y-16912D02*
X29384Y-16378D01*
X29384Y-16378D02*
X29274Y-16200D01*
X29274Y-16200D02*
X28607Y-16200D01*
X28607Y-16200D02*
X28451Y-16378D01*
X30247Y-17800D02*
X30269Y-17623D01*
X31420Y-17800D02*
X32553Y-16200D01*
X31442Y-17623D02*
X31597Y-16378D01*
X31597Y-16378D02*
X31753Y-16200D01*
X31753Y-16200D02*
X32420Y-16200D01*
X32420Y-16200D02*
X32530Y-16378D01*
X32530Y-16378D02*
X32375Y-17623D01*
X32375Y-17623D02*
X32220Y-17800D01*
X32220Y-17800D02*
X31553Y-17800D01*
X31553Y-17800D02*
X31442Y-17623D01*
G54D11*
X69675Y-47312D02*
X69608Y-47400D01*
X69608Y-47400D02*
X69275Y-47400D01*
X69275Y-47400D02*
X69208Y-47312D01*
X69208Y-47312D02*
X69208Y-46689D01*
X69208Y-46689D02*
X69275Y-46600D01*
X69275Y-46600D02*
X69608Y-46600D01*
X69608Y-46600D02*
X69675Y-46689D01*
X69994Y-47400D02*
X69994Y-46600D01*
X69994Y-46600D02*
X70394Y-46600D01*
X70394Y-46600D02*
X70461Y-46689D01*
X70461Y-46689D02*
X70461Y-46956D01*
X70461Y-46956D02*
X70394Y-47045D01*
X70394Y-47045D02*
X69994Y-47045D01*
X70194Y-47045D02*
X70461Y-47400D01*
X70914Y-47400D02*
X71180Y-47400D01*
X71047Y-47400D02*
X71047Y-46600D01*
X71047Y-46689D02*
X70914Y-46867D01*
X72033Y-47400D02*
X71566Y-47400D01*
X71566Y-47400D02*
X71566Y-47134D01*
X71566Y-47134D02*
X71633Y-47045D01*
X71633Y-47045D02*
X71966Y-47045D01*
X71966Y-47045D02*
X72033Y-46956D01*
X72033Y-46956D02*
X72033Y-46689D01*
X72033Y-46689D02*
X71966Y-46600D01*
X71966Y-46600D02*
X71633Y-46600D01*
X71633Y-46600D02*
X71566Y-46689D01*
X72819Y-47400D02*
X72352Y-47400D01*
X72352Y-47400D02*
X72352Y-47134D01*
X72352Y-47134D02*
X72419Y-47045D01*
X72419Y-47045D02*
X72752Y-47045D01*
X72752Y-47045D02*
X72819Y-46956D01*
X72819Y-46956D02*
X72819Y-46689D01*
X72819Y-46689D02*
X72752Y-46600D01*
X72752Y-46600D02*
X72419Y-46600D01*
X72419Y-46600D02*
X72352Y-46689D01*
X73138Y-47400D02*
X73605Y-46600D01*
X73138Y-47312D02*
X73138Y-46689D01*
X73138Y-46689D02*
X73205Y-46600D01*
X73205Y-46600D02*
X73538Y-46600D01*
X73538Y-46600D02*
X73605Y-46689D01*
X73605Y-46689D02*
X73605Y-47312D01*
X73605Y-47312D02*
X73538Y-47400D01*
X73538Y-47400D02*
X73205Y-47400D01*
X73205Y-47400D02*
X73138Y-47312D01*
X37424Y-51900D02*
X36957Y-51900D01*
X36957Y-51900D02*
X36957Y-51100D01*
X36957Y-51100D02*
X37424Y-51100D01*
X36957Y-51456D02*
X37224Y-51456D01*
X37743Y-51900D02*
X37743Y-51100D01*
X37743Y-51100D02*
X38210Y-51900D01*
X38210Y-51900D02*
X38210Y-51100D01*
X38529Y-51100D02*
X38796Y-51900D01*
X38796Y-51900D02*
X39063Y-51100D01*
X39382Y-51900D02*
X39649Y-51900D01*
X39515Y-51900D02*
X39515Y-51100D01*
X39382Y-51100D02*
X39649Y-51100D01*
X40168Y-51900D02*
X40101Y-51812D01*
X40101Y-51812D02*
X40101Y-51189D01*
X40101Y-51189D02*
X40168Y-51100D01*
X40168Y-51100D02*
X40501Y-51100D01*
X40501Y-51100D02*
X40568Y-51189D01*
X40568Y-51189D02*
X40568Y-51812D01*
X40568Y-51812D02*
X40501Y-51900D01*
X40501Y-51900D02*
X40168Y-51900D01*
X41673Y-51900D02*
X41673Y-51278D01*
X41673Y-51278D02*
X41807Y-51100D01*
X41807Y-51100D02*
X42007Y-51100D01*
X42007Y-51100D02*
X42140Y-51278D01*
X42140Y-51278D02*
X42140Y-51900D01*
X41673Y-51456D02*
X42140Y-51456D01*
X42459Y-51100D02*
X42459Y-51900D01*
X42459Y-51900D02*
X42993Y-51900D01*
X43712Y-51900D02*
X43245Y-51900D01*
X43245Y-51900D02*
X43245Y-51100D01*
X43245Y-51100D02*
X43712Y-51100D01*
X43245Y-51456D02*
X43512Y-51456D01*
X44031Y-51900D02*
X44031Y-51100D01*
X44031Y-51100D02*
X44431Y-51100D01*
X44431Y-51100D02*
X44498Y-51189D01*
X44498Y-51189D02*
X44498Y-51456D01*
X44498Y-51456D02*
X44431Y-51545D01*
X44431Y-51545D02*
X44031Y-51545D01*
X44231Y-51545D02*
X44498Y-51900D01*
X44817Y-51100D02*
X45351Y-51100D01*
X45084Y-51100D02*
X45084Y-51900D01*
X45603Y-51900D02*
X45603Y-51278D01*
X45603Y-51278D02*
X45737Y-51100D01*
X45737Y-51100D02*
X45937Y-51100D01*
X45937Y-51100D02*
X46070Y-51278D01*
X46070Y-51278D02*
X46070Y-51900D01*
X45603Y-51456D02*
X46070Y-51456D01*
X46389Y-51812D02*
X46456Y-51900D01*
X46456Y-51900D02*
X46789Y-51900D01*
X46789Y-51900D02*
X46856Y-51812D01*
X46856Y-51812D02*
X46856Y-51545D01*
X46856Y-51545D02*
X46789Y-51456D01*
X46789Y-51456D02*
X46456Y-51456D01*
X46456Y-51456D02*
X46389Y-51367D01*
X46389Y-51367D02*
X46389Y-51189D01*
X46389Y-51189D02*
X46456Y-51100D01*
X46456Y-51100D02*
X46789Y-51100D01*
X46789Y-51100D02*
X46856Y-51189D01*
G54D10*
X33987Y-31800D02*
X33987Y-30200D01*
X33987Y-30200D02*
X34520Y-30912D01*
X34520Y-30912D02*
X35054Y-30200D01*
X35054Y-30200D02*
X35054Y-31800D01*
X36493Y-31800D02*
X35560Y-31800D01*
X35560Y-31800D02*
X35560Y-30200D01*
X35560Y-30200D02*
X36493Y-30200D01*
X35560Y-30912D02*
X36093Y-30912D01*
X37933Y-30378D02*
X37933Y-30200D01*
X37933Y-30200D02*
X37266Y-30200D01*
X37266Y-30200D02*
X37133Y-30378D01*
X37133Y-30378D02*
X37133Y-31623D01*
X37133Y-31623D02*
X37266Y-31800D01*
X37266Y-31800D02*
X37933Y-31800D01*
X37933Y-31800D02*
X38066Y-31623D01*
X38066Y-31623D02*
X38066Y-31089D01*
X38066Y-31089D02*
X37666Y-31089D01*
X38706Y-31800D02*
X38706Y-30556D01*
X38706Y-30556D02*
X38973Y-30200D01*
X38973Y-30200D02*
X39373Y-30200D01*
X39373Y-30200D02*
X39639Y-30556D01*
X39639Y-30556D02*
X39639Y-31800D01*
X38706Y-30912D02*
X39639Y-30912D01*
X31628Y-28800D02*
X31628Y-27556D01*
X31628Y-27556D02*
X31895Y-27200D01*
X31895Y-27200D02*
X32295Y-27200D01*
X32295Y-27200D02*
X32561Y-27556D01*
X32561Y-27556D02*
X32561Y-28800D01*
X31628Y-27912D02*
X32561Y-27912D01*
X33201Y-28800D02*
X33201Y-27200D01*
X33201Y-27200D02*
X34001Y-27200D01*
X34001Y-27200D02*
X34134Y-27378D01*
X34134Y-27378D02*
X34134Y-27912D01*
X34134Y-27912D02*
X34001Y-28089D01*
X34001Y-28089D02*
X33201Y-28089D01*
X33601Y-28089D02*
X34134Y-28800D01*
X34907Y-28800D02*
X34907Y-27200D01*
X34774Y-27200D02*
X35574Y-27200D01*
X35574Y-27200D02*
X35707Y-27378D01*
X35707Y-27378D02*
X35707Y-28623D01*
X35707Y-28623D02*
X35574Y-28800D01*
X35574Y-28800D02*
X34774Y-28800D01*
X36347Y-27200D02*
X36347Y-28623D01*
X36347Y-28623D02*
X36480Y-28800D01*
X36480Y-28800D02*
X37147Y-28800D01*
X37147Y-28800D02*
X37280Y-28623D01*
X37280Y-28623D02*
X37280Y-27200D01*
X38053Y-28800D02*
X38587Y-28800D01*
X38320Y-28800D02*
X38320Y-27200D01*
X38053Y-27200D02*
X38587Y-27200D01*
X39493Y-28800D02*
X39493Y-27200D01*
X39493Y-27200D02*
X40426Y-28800D01*
X40426Y-28800D02*
X40426Y-27200D01*
X41199Y-28800D02*
X41066Y-28623D01*
X41066Y-28623D02*
X41066Y-27378D01*
X41066Y-27378D02*
X41199Y-27200D01*
X41199Y-27200D02*
X41866Y-27200D01*
X41866Y-27200D02*
X41999Y-27378D01*
X41999Y-27378D02*
X41999Y-28623D01*
X41999Y-28623D02*
X41866Y-28800D01*
X41866Y-28800D02*
X41199Y-28800D01*
G54D11*
X17601Y-18400D02*
X17601Y-17600D01*
X17601Y-17600D02*
X18001Y-17600D01*
X18001Y-17600D02*
X18068Y-17689D01*
X18068Y-17689D02*
X18068Y-17956D01*
X18068Y-17956D02*
X18001Y-18045D01*
X18001Y-18045D02*
X17601Y-18045D01*
X18454Y-18400D02*
X18387Y-18312D01*
X18387Y-18312D02*
X18387Y-17689D01*
X18387Y-17689D02*
X18454Y-17600D01*
X18454Y-17600D02*
X18787Y-17600D01*
X18787Y-17600D02*
X18854Y-17689D01*
X18854Y-17689D02*
X18854Y-18312D01*
X18854Y-18312D02*
X18787Y-18400D01*
X18787Y-18400D02*
X18454Y-18400D01*
X19173Y-17600D02*
X19307Y-18400D01*
X19307Y-18400D02*
X19440Y-18134D01*
X19440Y-18134D02*
X19573Y-18400D01*
X19573Y-18400D02*
X19707Y-17600D01*
X20426Y-18400D02*
X19959Y-18400D01*
X19959Y-18400D02*
X19959Y-17600D01*
X19959Y-17600D02*
X20426Y-17600D01*
X19959Y-17956D02*
X20226Y-17956D01*
X20745Y-18400D02*
X20745Y-17600D01*
X20745Y-17600D02*
X21145Y-17600D01*
X21145Y-17600D02*
X21212Y-17689D01*
X21212Y-17689D02*
X21212Y-17956D01*
X21212Y-17956D02*
X21145Y-18045D01*
X21145Y-18045D02*
X20745Y-18045D01*
X20945Y-18045D02*
X21212Y-18400D01*
G54D12*
X38700Y-14860D02*
X38389Y-14860D01*
X38389Y-14860D02*
X38300Y-14793D01*
X38300Y-14793D02*
X38300Y-14693D01*
X38300Y-14693D02*
X38389Y-14627D01*
X38389Y-14627D02*
X38700Y-14627D01*
X38478Y-14860D02*
X38478Y-14627D01*
X38700Y-14434D02*
X38300Y-14434D01*
X38300Y-14467D02*
X38300Y-14267D01*
X38300Y-14267D02*
X38345Y-14234D01*
X38345Y-14234D02*
X38656Y-14234D01*
X38656Y-14234D02*
X38700Y-14267D01*
X38700Y-14267D02*
X38700Y-14467D01*
X37300Y-15056D02*
X37700Y-14923D01*
X37700Y-14923D02*
X37300Y-14789D01*
X37656Y-14430D02*
X37700Y-14463D01*
X37700Y-14463D02*
X37700Y-14630D01*
X37700Y-14630D02*
X37656Y-14663D01*
X37656Y-14663D02*
X37345Y-14663D01*
X37345Y-14663D02*
X37300Y-14630D01*
X37300Y-14630D02*
X37300Y-14463D01*
X37300Y-14463D02*
X37345Y-14430D01*
X37656Y-14037D02*
X37700Y-14070D01*
X37700Y-14070D02*
X37700Y-14237D01*
X37700Y-14237D02*
X37656Y-14270D01*
X37656Y-14270D02*
X37345Y-14270D01*
X37345Y-14270D02*
X37300Y-14237D01*
X37300Y-14237D02*
X37300Y-14070D01*
X37300Y-14070D02*
X37345Y-14037D01*
X36345Y-14856D02*
X36300Y-14856D01*
X36300Y-14856D02*
X36300Y-15023D01*
X36300Y-15023D02*
X36345Y-15056D01*
X36345Y-15056D02*
X36656Y-15056D01*
X36656Y-15056D02*
X36700Y-15023D01*
X36700Y-15023D02*
X36700Y-14856D01*
X36700Y-14856D02*
X36656Y-14823D01*
X36656Y-14823D02*
X36523Y-14823D01*
X36523Y-14823D02*
X36523Y-14923D01*
X36700Y-14663D02*
X36300Y-14663D01*
X36300Y-14663D02*
X36700Y-14430D01*
X36700Y-14430D02*
X36300Y-14430D01*
X36700Y-14237D02*
X36300Y-14237D01*
X36300Y-14270D02*
X36300Y-14070D01*
X36300Y-14070D02*
X36345Y-14037D01*
X36345Y-14037D02*
X36656Y-14037D01*
X36656Y-14037D02*
X36700Y-14070D01*
X36700Y-14070D02*
X36700Y-14270D01*
G54D11*
X35708Y-18900D02*
X35708Y-18100D01*
X36108Y-18100D02*
X35708Y-18456D01*
X35708Y-18456D02*
X36175Y-18900D01*
X36961Y-18900D02*
X36494Y-18900D01*
X36494Y-18900D02*
X36494Y-18100D01*
X36494Y-18100D02*
X36961Y-18100D01*
X36494Y-18456D02*
X36761Y-18456D01*
X37280Y-18100D02*
X37547Y-18545D01*
X37547Y-18545D02*
X37814Y-18100D01*
X37547Y-18545D02*
X37547Y-18900D01*
X38066Y-18900D02*
X38066Y-18100D01*
X38066Y-18100D02*
X38466Y-18100D01*
X38466Y-18100D02*
X38533Y-18189D01*
X38533Y-18189D02*
X38533Y-18456D01*
X38533Y-18456D02*
X38466Y-18545D01*
X38466Y-18545D02*
X38066Y-18545D01*
X38852Y-18900D02*
X38852Y-18278D01*
X38852Y-18278D02*
X38986Y-18100D01*
X38986Y-18100D02*
X39186Y-18100D01*
X39186Y-18100D02*
X39319Y-18278D01*
X39319Y-18278D02*
X39319Y-18900D01*
X38852Y-18456D02*
X39319Y-18456D01*
X39705Y-18900D02*
X39705Y-18100D01*
X39638Y-18100D02*
X40038Y-18100D01*
X40038Y-18100D02*
X40105Y-18189D01*
X40105Y-18189D02*
X40105Y-18812D01*
X40105Y-18812D02*
X40038Y-18900D01*
X40038Y-18900D02*
X39638Y-18900D01*
G54D13*
X17000Y-52500D02*
X19000Y-52500D01*
X17000Y-11500D02*
X17000Y-52500D01*
X85500Y-11500D02*
X17000Y-11500D01*
X85500Y-52500D02*
X85500Y-11500D01*
X17000Y-52500D02*
X85500Y-52500D01*
G54D11*
X77889Y-15812D02*
X77822Y-15900D01*
X77822Y-15900D02*
X77489Y-15900D01*
X77489Y-15900D02*
X77422Y-15812D01*
X77422Y-15812D02*
X77422Y-15189D01*
X77422Y-15189D02*
X77489Y-15100D01*
X77489Y-15100D02*
X77822Y-15100D01*
X77822Y-15100D02*
X77889Y-15189D01*
X78208Y-15900D02*
X78208Y-15278D01*
X78208Y-15278D02*
X78342Y-15100D01*
X78342Y-15100D02*
X78542Y-15100D01*
X78542Y-15100D02*
X78675Y-15278D01*
X78675Y-15278D02*
X78675Y-15900D01*
X78208Y-15456D02*
X78675Y-15456D01*
X78994Y-15900D02*
X78994Y-15100D01*
X78994Y-15100D02*
X79261Y-15456D01*
X79261Y-15456D02*
X79528Y-15100D01*
X79528Y-15100D02*
X79528Y-15900D01*
X79780Y-15900D02*
X79780Y-15278D01*
X79780Y-15278D02*
X79914Y-15100D01*
X79914Y-15100D02*
X80114Y-15100D01*
X80114Y-15100D02*
X80247Y-15278D01*
X80247Y-15278D02*
X80247Y-15900D01*
X79780Y-15456D02*
X80247Y-15456D01*
X80566Y-15900D02*
X80566Y-15100D01*
X80566Y-15100D02*
X80966Y-15100D01*
X80966Y-15100D02*
X81033Y-15189D01*
X81033Y-15189D02*
X81033Y-15456D01*
X81033Y-15456D02*
X80966Y-15545D01*
X80966Y-15545D02*
X80566Y-15545D01*
X80766Y-15545D02*
X81033Y-15900D01*
X81352Y-15900D02*
X81352Y-15278D01*
X81352Y-15278D02*
X81486Y-15100D01*
X81486Y-15100D02*
X81686Y-15100D01*
X81686Y-15100D02*
X81819Y-15278D01*
X81819Y-15278D02*
X81819Y-15900D01*
X81352Y-15456D02*
X81819Y-15456D01*
X83058Y-15900D02*
X83324Y-15900D01*
X83191Y-15900D02*
X83191Y-15100D01*
X83191Y-15189D02*
X83058Y-15367D01*
X77208Y-13900D02*
X77208Y-13278D01*
X77208Y-13278D02*
X77342Y-13100D01*
X77342Y-13100D02*
X77542Y-13100D01*
X77542Y-13100D02*
X77675Y-13278D01*
X77675Y-13278D02*
X77675Y-13900D01*
X77208Y-13456D02*
X77675Y-13456D01*
X77994Y-13900D02*
X77994Y-13100D01*
X77994Y-13100D02*
X78394Y-13100D01*
X78394Y-13100D02*
X78461Y-13189D01*
X78461Y-13189D02*
X78461Y-13456D01*
X78461Y-13456D02*
X78394Y-13545D01*
X78394Y-13545D02*
X77994Y-13545D01*
X78780Y-13900D02*
X78780Y-13278D01*
X78780Y-13278D02*
X78914Y-13100D01*
X78914Y-13100D02*
X79114Y-13100D01*
X79114Y-13100D02*
X79247Y-13278D01*
X79247Y-13278D02*
X79247Y-13900D01*
X78780Y-13456D02*
X79247Y-13456D01*
X79966Y-13189D02*
X79966Y-13100D01*
X79966Y-13100D02*
X79633Y-13100D01*
X79633Y-13100D02*
X79566Y-13189D01*
X79566Y-13189D02*
X79566Y-13812D01*
X79566Y-13812D02*
X79633Y-13900D01*
X79633Y-13900D02*
X79966Y-13900D01*
X79966Y-13900D02*
X80033Y-13812D01*
X80033Y-13812D02*
X80033Y-13545D01*
X80033Y-13545D02*
X79833Y-13545D01*
X80352Y-13900D02*
X80352Y-13278D01*
X80352Y-13278D02*
X80486Y-13100D01*
X80486Y-13100D02*
X80686Y-13100D01*
X80686Y-13100D02*
X80819Y-13278D01*
X80819Y-13278D02*
X80819Y-13900D01*
X80352Y-13456D02*
X80819Y-13456D01*
X81138Y-13900D02*
X81138Y-13100D01*
X81138Y-13100D02*
X81538Y-13100D01*
X81538Y-13100D02*
X81605Y-13189D01*
X81605Y-13189D02*
X81605Y-13456D01*
X81605Y-13456D02*
X81538Y-13545D01*
X81538Y-13545D02*
X81138Y-13545D01*
X81338Y-13545D02*
X81605Y-13900D01*
X77889Y-20812D02*
X77822Y-20900D01*
X77822Y-20900D02*
X77489Y-20900D01*
X77489Y-20900D02*
X77422Y-20812D01*
X77422Y-20812D02*
X77422Y-20189D01*
X77422Y-20189D02*
X77489Y-20100D01*
X77489Y-20100D02*
X77822Y-20100D01*
X77822Y-20100D02*
X77889Y-20189D01*
X78208Y-20900D02*
X78208Y-20278D01*
X78208Y-20278D02*
X78342Y-20100D01*
X78342Y-20100D02*
X78542Y-20100D01*
X78542Y-20100D02*
X78675Y-20278D01*
X78675Y-20278D02*
X78675Y-20900D01*
X78208Y-20456D02*
X78675Y-20456D01*
X78994Y-20900D02*
X78994Y-20100D01*
X78994Y-20100D02*
X79261Y-20456D01*
X79261Y-20456D02*
X79528Y-20100D01*
X79528Y-20100D02*
X79528Y-20900D01*
X79780Y-20900D02*
X79780Y-20278D01*
X79780Y-20278D02*
X79914Y-20100D01*
X79914Y-20100D02*
X80114Y-20100D01*
X80114Y-20100D02*
X80247Y-20278D01*
X80247Y-20278D02*
X80247Y-20900D01*
X79780Y-20456D02*
X80247Y-20456D01*
X80566Y-20900D02*
X80566Y-20100D01*
X80566Y-20100D02*
X80966Y-20100D01*
X80966Y-20100D02*
X81033Y-20189D01*
X81033Y-20189D02*
X81033Y-20456D01*
X81033Y-20456D02*
X80966Y-20545D01*
X80966Y-20545D02*
X80566Y-20545D01*
X80766Y-20545D02*
X81033Y-20900D01*
X81352Y-20900D02*
X81352Y-20278D01*
X81352Y-20278D02*
X81486Y-20100D01*
X81486Y-20100D02*
X81686Y-20100D01*
X81686Y-20100D02*
X81819Y-20278D01*
X81819Y-20278D02*
X81819Y-20900D01*
X81352Y-20456D02*
X81819Y-20456D01*
X83391Y-20900D02*
X82924Y-20900D01*
X82924Y-20900D02*
X82924Y-20634D01*
X82924Y-20634D02*
X82991Y-20545D01*
X82991Y-20545D02*
X83324Y-20545D01*
X83324Y-20545D02*
X83391Y-20456D01*
X83391Y-20456D02*
X83391Y-20189D01*
X83391Y-20189D02*
X83324Y-20100D01*
X83324Y-20100D02*
X82991Y-20100D01*
X82991Y-20100D02*
X82924Y-20189D01*
X77208Y-18900D02*
X77208Y-18278D01*
X77208Y-18278D02*
X77342Y-18100D01*
X77342Y-18100D02*
X77542Y-18100D01*
X77542Y-18100D02*
X77675Y-18278D01*
X77675Y-18278D02*
X77675Y-18900D01*
X77208Y-18456D02*
X77675Y-18456D01*
X77994Y-18900D02*
X77994Y-18100D01*
X77994Y-18100D02*
X78394Y-18100D01*
X78394Y-18100D02*
X78461Y-18189D01*
X78461Y-18189D02*
X78461Y-18456D01*
X78461Y-18456D02*
X78394Y-18545D01*
X78394Y-18545D02*
X77994Y-18545D01*
X78780Y-18900D02*
X78780Y-18278D01*
X78780Y-18278D02*
X78914Y-18100D01*
X78914Y-18100D02*
X79114Y-18100D01*
X79114Y-18100D02*
X79247Y-18278D01*
X79247Y-18278D02*
X79247Y-18900D01*
X78780Y-18456D02*
X79247Y-18456D01*
X79966Y-18189D02*
X79966Y-18100D01*
X79966Y-18100D02*
X79633Y-18100D01*
X79633Y-18100D02*
X79566Y-18189D01*
X79566Y-18189D02*
X79566Y-18812D01*
X79566Y-18812D02*
X79633Y-18900D01*
X79633Y-18900D02*
X79966Y-18900D01*
X79966Y-18900D02*
X80033Y-18812D01*
X80033Y-18812D02*
X80033Y-18545D01*
X80033Y-18545D02*
X79833Y-18545D01*
X80352Y-18900D02*
X80352Y-18278D01*
X80352Y-18278D02*
X80486Y-18100D01*
X80486Y-18100D02*
X80686Y-18100D01*
X80686Y-18100D02*
X80819Y-18278D01*
X80819Y-18278D02*
X80819Y-18900D01*
X80352Y-18456D02*
X80819Y-18456D01*
X81138Y-18900D02*
X81138Y-18100D01*
X81138Y-18100D02*
X81538Y-18100D01*
X81538Y-18100D02*
X81605Y-18189D01*
X81605Y-18189D02*
X81605Y-18456D01*
X81605Y-18456D02*
X81538Y-18545D01*
X81538Y-18545D02*
X81138Y-18545D01*
X81338Y-18545D02*
X81605Y-18900D01*
X77889Y-38312D02*
X77822Y-38400D01*
X77822Y-38400D02*
X77489Y-38400D01*
X77489Y-38400D02*
X77422Y-38312D01*
X77422Y-38312D02*
X77422Y-37689D01*
X77422Y-37689D02*
X77489Y-37600D01*
X77489Y-37600D02*
X77822Y-37600D01*
X77822Y-37600D02*
X77889Y-37689D01*
X78208Y-38400D02*
X78208Y-37778D01*
X78208Y-37778D02*
X78342Y-37600D01*
X78342Y-37600D02*
X78542Y-37600D01*
X78542Y-37600D02*
X78675Y-37778D01*
X78675Y-37778D02*
X78675Y-38400D01*
X78208Y-37956D02*
X78675Y-37956D01*
X78994Y-38400D02*
X78994Y-37600D01*
X78994Y-37600D02*
X79261Y-37956D01*
X79261Y-37956D02*
X79528Y-37600D01*
X79528Y-37600D02*
X79528Y-38400D01*
X79780Y-38400D02*
X79780Y-37778D01*
X79780Y-37778D02*
X79914Y-37600D01*
X79914Y-37600D02*
X80114Y-37600D01*
X80114Y-37600D02*
X80247Y-37778D01*
X80247Y-37778D02*
X80247Y-38400D01*
X79780Y-37956D02*
X80247Y-37956D01*
X80566Y-38400D02*
X80566Y-37600D01*
X80566Y-37600D02*
X80966Y-37600D01*
X80966Y-37600D02*
X81033Y-37689D01*
X81033Y-37689D02*
X81033Y-37956D01*
X81033Y-37956D02*
X80966Y-38045D01*
X80966Y-38045D02*
X80566Y-38045D01*
X80766Y-38045D02*
X81033Y-38400D01*
X81352Y-38400D02*
X81352Y-37778D01*
X81352Y-37778D02*
X81486Y-37600D01*
X81486Y-37600D02*
X81686Y-37600D01*
X81686Y-37600D02*
X81819Y-37778D01*
X81819Y-37778D02*
X81819Y-38400D01*
X81352Y-37956D02*
X81819Y-37956D01*
X83058Y-38400D02*
X83324Y-38400D01*
X83191Y-38400D02*
X83191Y-37600D01*
X83191Y-37689D02*
X83058Y-37867D01*
X77889Y-44312D02*
X77822Y-44400D01*
X77822Y-44400D02*
X77489Y-44400D01*
X77489Y-44400D02*
X77422Y-44312D01*
X77422Y-44312D02*
X77422Y-43689D01*
X77422Y-43689D02*
X77489Y-43600D01*
X77489Y-43600D02*
X77822Y-43600D01*
X77822Y-43600D02*
X77889Y-43689D01*
X78208Y-44400D02*
X78208Y-43778D01*
X78208Y-43778D02*
X78342Y-43600D01*
X78342Y-43600D02*
X78542Y-43600D01*
X78542Y-43600D02*
X78675Y-43778D01*
X78675Y-43778D02*
X78675Y-44400D01*
X78208Y-43956D02*
X78675Y-43956D01*
X78994Y-44400D02*
X78994Y-43600D01*
X78994Y-43600D02*
X79261Y-43956D01*
X79261Y-43956D02*
X79528Y-43600D01*
X79528Y-43600D02*
X79528Y-44400D01*
X79780Y-44400D02*
X79780Y-43778D01*
X79780Y-43778D02*
X79914Y-43600D01*
X79914Y-43600D02*
X80114Y-43600D01*
X80114Y-43600D02*
X80247Y-43778D01*
X80247Y-43778D02*
X80247Y-44400D01*
X79780Y-43956D02*
X80247Y-43956D01*
X80566Y-44400D02*
X80566Y-43600D01*
X80566Y-43600D02*
X80966Y-43600D01*
X80966Y-43600D02*
X81033Y-43689D01*
X81033Y-43689D02*
X81033Y-43956D01*
X81033Y-43956D02*
X80966Y-44045D01*
X80966Y-44045D02*
X80566Y-44045D01*
X80766Y-44045D02*
X81033Y-44400D01*
X81352Y-44400D02*
X81352Y-43778D01*
X81352Y-43778D02*
X81486Y-43600D01*
X81486Y-43600D02*
X81686Y-43600D01*
X81686Y-43600D02*
X81819Y-43778D01*
X81819Y-43778D02*
X81819Y-44400D01*
X81352Y-43956D02*
X81819Y-43956D01*
X83391Y-44400D02*
X82924Y-44400D01*
X82924Y-44400D02*
X82924Y-44134D01*
X82924Y-44134D02*
X82991Y-44045D01*
X82991Y-44045D02*
X83324Y-44045D01*
X83324Y-44045D02*
X83391Y-43956D01*
X83391Y-43956D02*
X83391Y-43689D01*
X83391Y-43689D02*
X83324Y-43600D01*
X83324Y-43600D02*
X82991Y-43600D01*
X82991Y-43600D02*
X82924Y-43689D01*
X78001Y-24689D02*
X78001Y-24600D01*
X78001Y-24600D02*
X77668Y-24600D01*
X77668Y-24600D02*
X77601Y-24689D01*
X77601Y-24689D02*
X77601Y-25312D01*
X77601Y-25312D02*
X77668Y-25400D01*
X77668Y-25400D02*
X78001Y-25400D01*
X78001Y-25400D02*
X78068Y-25312D01*
X78068Y-25312D02*
X78068Y-25045D01*
X78068Y-25045D02*
X77868Y-25045D01*
X78387Y-25400D02*
X78387Y-24600D01*
X78387Y-24600D02*
X78787Y-24600D01*
X78787Y-24600D02*
X78854Y-24689D01*
X78854Y-24689D02*
X78854Y-24956D01*
X78854Y-24956D02*
X78787Y-25045D01*
X78787Y-25045D02*
X78387Y-25045D01*
X78587Y-25045D02*
X78854Y-25400D01*
X79173Y-24600D02*
X79173Y-25312D01*
X79173Y-25312D02*
X79240Y-25400D01*
X79240Y-25400D02*
X79573Y-25400D01*
X79573Y-25400D02*
X79640Y-25312D01*
X79640Y-25312D02*
X79640Y-24600D01*
X79959Y-25400D02*
X79959Y-24600D01*
X79959Y-24600D02*
X80359Y-24600D01*
X80359Y-24600D02*
X80426Y-24689D01*
X80426Y-24689D02*
X80426Y-24956D01*
X80426Y-24956D02*
X80359Y-25045D01*
X80359Y-25045D02*
X79959Y-25045D01*
X80812Y-25400D02*
X80745Y-25312D01*
X80745Y-25312D02*
X80745Y-24689D01*
X80745Y-24689D02*
X80812Y-24600D01*
X80812Y-24600D02*
X81145Y-24600D01*
X81145Y-24600D02*
X81212Y-24689D01*
X81212Y-24689D02*
X81212Y-25312D01*
X81212Y-25312D02*
X81145Y-25400D01*
X81145Y-25400D02*
X80812Y-25400D01*
X77387Y-31400D02*
X77387Y-30600D01*
X77387Y-30600D02*
X77787Y-30600D01*
X77787Y-30600D02*
X77854Y-30689D01*
X77854Y-30689D02*
X77854Y-30956D01*
X77854Y-30956D02*
X77787Y-31045D01*
X77787Y-31045D02*
X77387Y-31045D01*
X77587Y-31045D02*
X77854Y-31400D01*
X78640Y-31400D02*
X78173Y-31400D01*
X78173Y-31400D02*
X78173Y-30600D01*
X78173Y-30600D02*
X78640Y-30600D01*
X78173Y-30956D02*
X78440Y-30956D01*
X79026Y-31400D02*
X79026Y-30600D01*
X78959Y-30600D02*
X79359Y-30600D01*
X79359Y-30600D02*
X79426Y-30689D01*
X79426Y-30689D02*
X79426Y-31312D01*
X79426Y-31312D02*
X79359Y-31400D01*
X79359Y-31400D02*
X78959Y-31400D01*
X77315Y-35600D02*
X77849Y-35600D01*
X77582Y-35600D02*
X77582Y-36400D01*
X78568Y-36400D02*
X78101Y-36400D01*
X78101Y-36400D02*
X78101Y-35600D01*
X78101Y-35600D02*
X78568Y-35600D01*
X78101Y-35956D02*
X78368Y-35956D01*
X78887Y-36312D02*
X78954Y-36400D01*
X78954Y-36400D02*
X79287Y-36400D01*
X79287Y-36400D02*
X79354Y-36312D01*
X79354Y-36312D02*
X79354Y-36045D01*
X79354Y-36045D02*
X79287Y-35956D01*
X79287Y-35956D02*
X78954Y-35956D01*
X78954Y-35956D02*
X78887Y-35867D01*
X78887Y-35867D02*
X78887Y-35689D01*
X78887Y-35689D02*
X78954Y-35600D01*
X78954Y-35600D02*
X79287Y-35600D01*
X79287Y-35600D02*
X79354Y-35689D01*
X79673Y-35600D02*
X80207Y-35600D01*
X79940Y-35600D02*
X79940Y-36400D01*
X80526Y-36400D02*
X80793Y-36400D01*
X80659Y-36400D02*
X80659Y-35600D01*
X80526Y-35600D02*
X80793Y-35600D01*
X81645Y-35689D02*
X81645Y-35600D01*
X81645Y-35600D02*
X81312Y-35600D01*
X81312Y-35600D02*
X81245Y-35689D01*
X81245Y-35689D02*
X81245Y-36312D01*
X81245Y-36312D02*
X81312Y-36400D01*
X81312Y-36400D02*
X81645Y-36400D01*
X81645Y-36400D02*
X81712Y-36312D01*
X81712Y-36312D02*
X81712Y-36045D01*
X81712Y-36045D02*
X81512Y-36045D01*
X82098Y-36400D02*
X82031Y-36312D01*
X82031Y-36312D02*
X82031Y-35689D01*
X82031Y-35689D02*
X82098Y-35600D01*
X82098Y-35600D02*
X82431Y-35600D01*
X82431Y-35600D02*
X82498Y-35689D01*
X82498Y-35689D02*
X82498Y-36312D01*
X82498Y-36312D02*
X82431Y-36400D01*
X82431Y-36400D02*
X82098Y-36400D01*
X77315Y-41600D02*
X77849Y-41600D01*
X77582Y-41600D02*
X77582Y-42400D01*
X78568Y-42400D02*
X78101Y-42400D01*
X78101Y-42400D02*
X78101Y-41600D01*
X78101Y-41600D02*
X78568Y-41600D01*
X78101Y-41956D02*
X78368Y-41956D01*
X78887Y-42312D02*
X78954Y-42400D01*
X78954Y-42400D02*
X79287Y-42400D01*
X79287Y-42400D02*
X79354Y-42312D01*
X79354Y-42312D02*
X79354Y-42045D01*
X79354Y-42045D02*
X79287Y-41956D01*
X79287Y-41956D02*
X78954Y-41956D01*
X78954Y-41956D02*
X78887Y-41867D01*
X78887Y-41867D02*
X78887Y-41689D01*
X78887Y-41689D02*
X78954Y-41600D01*
X78954Y-41600D02*
X79287Y-41600D01*
X79287Y-41600D02*
X79354Y-41689D01*
X79673Y-41600D02*
X80207Y-41600D01*
X79940Y-41600D02*
X79940Y-42400D01*
X80526Y-42400D02*
X80793Y-42400D01*
X80659Y-42400D02*
X80659Y-41600D01*
X80526Y-41600D02*
X80793Y-41600D01*
X81645Y-41689D02*
X81645Y-41600D01*
X81645Y-41600D02*
X81312Y-41600D01*
X81312Y-41600D02*
X81245Y-41689D01*
X81245Y-41689D02*
X81245Y-42312D01*
X81245Y-42312D02*
X81312Y-42400D01*
X81312Y-42400D02*
X81645Y-42400D01*
X81645Y-42400D02*
X81712Y-42312D01*
X81712Y-42312D02*
X81712Y-42045D01*
X81712Y-42045D02*
X81512Y-42045D01*
X82098Y-42400D02*
X82031Y-42312D01*
X82031Y-42312D02*
X82031Y-41689D01*
X82031Y-41689D02*
X82098Y-41600D01*
X82098Y-41600D02*
X82431Y-41600D01*
X82431Y-41600D02*
X82498Y-41689D01*
X82498Y-41689D02*
X82498Y-42312D01*
X82498Y-42312D02*
X82431Y-42400D01*
X82431Y-42400D02*
X82098Y-42400D01*
G54D12*
X60345Y-13856D02*
X60300Y-13856D01*
X60300Y-13856D02*
X60300Y-14023D01*
X60300Y-14023D02*
X60345Y-14056D01*
X60345Y-14056D02*
X60656Y-14056D01*
X60656Y-14056D02*
X60700Y-14023D01*
X60700Y-14023D02*
X60700Y-13856D01*
X60700Y-13856D02*
X60656Y-13823D01*
X60656Y-13823D02*
X60523Y-13823D01*
X60523Y-13823D02*
X60523Y-13923D01*
X60700Y-13663D02*
X60300Y-13663D01*
X60300Y-13663D02*
X60700Y-13430D01*
X60700Y-13430D02*
X60300Y-13430D01*
X60700Y-13237D02*
X60300Y-13237D01*
X60300Y-13270D02*
X60300Y-13070D01*
X60300Y-13070D02*
X60345Y-13037D01*
X60345Y-13037D02*
X60656Y-13037D01*
X60656Y-13037D02*
X60700Y-13070D01*
X60700Y-13070D02*
X60700Y-13270D01*
X58300Y-14056D02*
X58700Y-13923D01*
X58700Y-13923D02*
X58300Y-13789D01*
X58656Y-13430D02*
X58700Y-13463D01*
X58700Y-13463D02*
X58700Y-13630D01*
X58700Y-13630D02*
X58656Y-13663D01*
X58656Y-13663D02*
X58345Y-13663D01*
X58345Y-13663D02*
X58300Y-13630D01*
X58300Y-13630D02*
X58300Y-13463D01*
X58300Y-13463D02*
X58345Y-13430D01*
X58656Y-13037D02*
X58700Y-13070D01*
X58700Y-13070D02*
X58700Y-13237D01*
X58700Y-13237D02*
X58656Y-13270D01*
X58656Y-13270D02*
X58345Y-13270D01*
X58345Y-13270D02*
X58300Y-13237D01*
X58300Y-13237D02*
X58300Y-13070D01*
X58300Y-13070D02*
X58345Y-13037D01*
X56656Y-14056D02*
X56700Y-14023D01*
X56700Y-14023D02*
X56700Y-13856D01*
X56700Y-13856D02*
X56656Y-13823D01*
X56656Y-13823D02*
X56523Y-13823D01*
X56523Y-13823D02*
X56478Y-13856D01*
X56478Y-13856D02*
X56478Y-14023D01*
X56478Y-14023D02*
X56434Y-14056D01*
X56434Y-14056D02*
X56345Y-14056D01*
X56345Y-14056D02*
X56300Y-14023D01*
X56300Y-14023D02*
X56300Y-13856D01*
X56300Y-13856D02*
X56345Y-13823D01*
X56656Y-13430D02*
X56700Y-13463D01*
X56700Y-13463D02*
X56700Y-13630D01*
X56700Y-13630D02*
X56656Y-13663D01*
X56656Y-13663D02*
X56345Y-13663D01*
X56345Y-13663D02*
X56300Y-13630D01*
X56300Y-13630D02*
X56300Y-13463D01*
X56300Y-13463D02*
X56345Y-13430D01*
X56700Y-13270D02*
X56300Y-13270D01*
X56300Y-13070D02*
X56478Y-13270D01*
X56478Y-13270D02*
X56700Y-13037D01*
X54700Y-14220D02*
X54300Y-14220D01*
X54300Y-14253D02*
X54300Y-14053D01*
X54300Y-14053D02*
X54345Y-14020D01*
X54345Y-14020D02*
X54656Y-14020D01*
X54656Y-14020D02*
X54700Y-14053D01*
X54700Y-14053D02*
X54700Y-14253D01*
X54700Y-13860D02*
X54389Y-13860D01*
X54389Y-13860D02*
X54300Y-13793D01*
X54300Y-13793D02*
X54300Y-13693D01*
X54300Y-13693D02*
X54389Y-13627D01*
X54389Y-13627D02*
X54700Y-13627D01*
X54478Y-13860D02*
X54478Y-13627D01*
X54300Y-13467D02*
X54300Y-13200D01*
X54300Y-13334D02*
X54700Y-13334D01*
X54700Y-13074D02*
X54389Y-13074D01*
X54389Y-13074D02*
X54300Y-13007D01*
X54300Y-13007D02*
X54300Y-12907D01*
X54300Y-12907D02*
X54389Y-12841D01*
X54389Y-12841D02*
X54700Y-12841D01*
X54478Y-13074D02*
X54478Y-12841D01*
X47156Y-14056D02*
X47200Y-14023D01*
X47200Y-14023D02*
X47200Y-13856D01*
X47200Y-13856D02*
X47156Y-13823D01*
X47156Y-13823D02*
X47023Y-13823D01*
X47023Y-13823D02*
X46978Y-13856D01*
X46978Y-13856D02*
X46978Y-14023D01*
X46978Y-14023D02*
X46934Y-14056D01*
X46934Y-14056D02*
X46845Y-14056D01*
X46845Y-14056D02*
X46800Y-14023D01*
X46800Y-14023D02*
X46800Y-13856D01*
X46800Y-13856D02*
X46845Y-13823D01*
X47156Y-13430D02*
X47200Y-13463D01*
X47200Y-13463D02*
X47200Y-13630D01*
X47200Y-13630D02*
X47156Y-13663D01*
X47156Y-13663D02*
X46845Y-13663D01*
X46845Y-13663D02*
X46800Y-13630D01*
X46800Y-13630D02*
X46800Y-13463D01*
X46800Y-13463D02*
X46845Y-13430D01*
X47200Y-13270D02*
X46800Y-13270D01*
X46800Y-13070D02*
X46978Y-13270D01*
X46978Y-13270D02*
X47200Y-13037D01*
X45200Y-14220D02*
X44800Y-14220D01*
X44800Y-14253D02*
X44800Y-14053D01*
X44800Y-14053D02*
X44845Y-14020D01*
X44845Y-14020D02*
X45156Y-14020D01*
X45156Y-14020D02*
X45200Y-14053D01*
X45200Y-14053D02*
X45200Y-14253D01*
X45200Y-13860D02*
X44889Y-13860D01*
X44889Y-13860D02*
X44800Y-13793D01*
X44800Y-13793D02*
X44800Y-13693D01*
X44800Y-13693D02*
X44889Y-13627D01*
X44889Y-13627D02*
X45200Y-13627D01*
X44978Y-13860D02*
X44978Y-13627D01*
X44800Y-13467D02*
X44800Y-13200D01*
X44800Y-13334D02*
X45200Y-13334D01*
X45200Y-13074D02*
X44889Y-13074D01*
X44889Y-13074D02*
X44800Y-13007D01*
X44800Y-13007D02*
X44800Y-12907D01*
X44800Y-12907D02*
X44889Y-12841D01*
X44889Y-12841D02*
X45200Y-12841D01*
X44978Y-13074D02*
X44978Y-12841D01*
G54D10*
X21341Y-14800D02*
X21496Y-13556D01*
X21496Y-13556D02*
X21808Y-13200D01*
X21808Y-13200D02*
X22208Y-13200D01*
X22208Y-13200D02*
X22429Y-13556D01*
X22429Y-13556D02*
X22274Y-14800D01*
X21452Y-13912D02*
X22385Y-13912D01*
X22914Y-14800D02*
X23047Y-13734D01*
X23002Y-14089D02*
X23314Y-13734D01*
X23314Y-13734D02*
X23714Y-13734D01*
X23714Y-13734D02*
X23935Y-14089D01*
X25620Y-13200D02*
X25420Y-14800D01*
X25420Y-14800D02*
X24620Y-14800D01*
X24620Y-14800D02*
X24509Y-14623D01*
X24509Y-14623D02*
X24598Y-13912D01*
X24598Y-13912D02*
X24753Y-13734D01*
X24753Y-13734D02*
X25553Y-13734D01*
X26193Y-13734D02*
X26104Y-14445D01*
X26104Y-14445D02*
X26327Y-14800D01*
X26327Y-14800D02*
X26727Y-14800D01*
X26727Y-14800D02*
X27037Y-14445D01*
X27037Y-14445D02*
X27126Y-13734D01*
X28455Y-14623D02*
X28300Y-14800D01*
X28300Y-14800D02*
X27900Y-14800D01*
X27900Y-14800D02*
X27788Y-14623D01*
X27788Y-14623D02*
X27966Y-13200D01*
X27899Y-13734D02*
X28299Y-13734D01*
X29806Y-13200D02*
X29783Y-13378D01*
X29717Y-13912D02*
X29628Y-14623D01*
X29628Y-14623D02*
X29739Y-14800D01*
X29739Y-14800D02*
X29873Y-14800D01*
X30779Y-14800D02*
X30912Y-13734D01*
X30890Y-13912D02*
X31045Y-13734D01*
X31045Y-13734D02*
X31579Y-13734D01*
X31579Y-13734D02*
X31690Y-13912D01*
X31690Y-13912D02*
X31579Y-14800D01*
X32485Y-14800D02*
X32374Y-14623D01*
X32374Y-14623D02*
X32463Y-13912D01*
X32463Y-13912D02*
X32618Y-13734D01*
X32618Y-13734D02*
X33285Y-13734D01*
X33285Y-13734D02*
X33396Y-13912D01*
X33396Y-13912D02*
X33307Y-14623D01*
X33307Y-14623D02*
X33152Y-14800D01*
X33152Y-14800D02*
X32485Y-14800D01*
G54D11*
X53636Y-18812D02*
X53703Y-18900D01*
X53703Y-18900D02*
X54036Y-18900D01*
X54036Y-18900D02*
X54103Y-18812D01*
X54103Y-18812D02*
X54103Y-18545D01*
X54103Y-18545D02*
X54036Y-18456D01*
X54036Y-18456D02*
X53703Y-18456D01*
X53703Y-18456D02*
X53636Y-18367D01*
X53636Y-18367D02*
X53636Y-18189D01*
X53636Y-18189D02*
X53703Y-18100D01*
X53703Y-18100D02*
X54036Y-18100D01*
X54036Y-18100D02*
X54103Y-18189D01*
X54889Y-18900D02*
X54422Y-18900D01*
X54422Y-18900D02*
X54422Y-18100D01*
X54422Y-18100D02*
X54889Y-18100D01*
X54422Y-18456D02*
X54689Y-18456D01*
X55208Y-18900D02*
X55208Y-18100D01*
X55208Y-18100D02*
X55675Y-18900D01*
X55675Y-18900D02*
X55675Y-18100D01*
X55994Y-18812D02*
X56061Y-18900D01*
X56061Y-18900D02*
X56394Y-18900D01*
X56394Y-18900D02*
X56461Y-18812D01*
X56461Y-18812D02*
X56461Y-18545D01*
X56461Y-18545D02*
X56394Y-18456D01*
X56394Y-18456D02*
X56061Y-18456D01*
X56061Y-18456D02*
X55994Y-18367D01*
X55994Y-18367D02*
X55994Y-18189D01*
X55994Y-18189D02*
X56061Y-18100D01*
X56061Y-18100D02*
X56394Y-18100D01*
X56394Y-18100D02*
X56461Y-18189D01*
X56847Y-18900D02*
X56780Y-18812D01*
X56780Y-18812D02*
X56780Y-18189D01*
X56780Y-18189D02*
X56847Y-18100D01*
X56847Y-18100D02*
X57180Y-18100D01*
X57180Y-18100D02*
X57247Y-18189D01*
X57247Y-18189D02*
X57247Y-18812D01*
X57247Y-18812D02*
X57180Y-18900D01*
X57180Y-18900D02*
X56847Y-18900D01*
X57566Y-18900D02*
X57566Y-18100D01*
X57566Y-18100D02*
X57966Y-18100D01*
X57966Y-18100D02*
X58033Y-18189D01*
X58033Y-18189D02*
X58033Y-18456D01*
X58033Y-18456D02*
X57966Y-18545D01*
X57966Y-18545D02*
X57566Y-18545D01*
X57766Y-18545D02*
X58033Y-18900D01*
X60391Y-18812D02*
X60324Y-18900D01*
X60324Y-18900D02*
X59991Y-18900D01*
X59991Y-18900D02*
X59924Y-18812D01*
X59924Y-18812D02*
X59924Y-18189D01*
X59924Y-18189D02*
X59991Y-18100D01*
X59991Y-18100D02*
X60324Y-18100D01*
X60324Y-18100D02*
X60391Y-18189D01*
X61177Y-18900D02*
X60710Y-18900D01*
X60710Y-18900D02*
X60710Y-18634D01*
X60710Y-18634D02*
X60777Y-18545D01*
X60777Y-18545D02*
X61110Y-18545D01*
X61110Y-18545D02*
X61177Y-18456D01*
X61177Y-18456D02*
X61177Y-18189D01*
X61177Y-18189D02*
X61110Y-18100D01*
X61110Y-18100D02*
X60777Y-18100D01*
X60777Y-18100D02*
X60710Y-18189D01*
X44136Y-18812D02*
X44203Y-18900D01*
X44203Y-18900D02*
X44536Y-18900D01*
X44536Y-18900D02*
X44603Y-18812D01*
X44603Y-18812D02*
X44603Y-18545D01*
X44603Y-18545D02*
X44536Y-18456D01*
X44536Y-18456D02*
X44203Y-18456D01*
X44203Y-18456D02*
X44136Y-18367D01*
X44136Y-18367D02*
X44136Y-18189D01*
X44136Y-18189D02*
X44203Y-18100D01*
X44203Y-18100D02*
X44536Y-18100D01*
X44536Y-18100D02*
X44603Y-18189D01*
X45389Y-18900D02*
X44922Y-18900D01*
X44922Y-18900D02*
X44922Y-18100D01*
X44922Y-18100D02*
X45389Y-18100D01*
X44922Y-18456D02*
X45189Y-18456D01*
X45708Y-18900D02*
X45708Y-18100D01*
X45708Y-18100D02*
X46175Y-18900D01*
X46175Y-18900D02*
X46175Y-18100D01*
X46494Y-18812D02*
X46561Y-18900D01*
X46561Y-18900D02*
X46894Y-18900D01*
X46894Y-18900D02*
X46961Y-18812D01*
X46961Y-18812D02*
X46961Y-18545D01*
X46961Y-18545D02*
X46894Y-18456D01*
X46894Y-18456D02*
X46561Y-18456D01*
X46561Y-18456D02*
X46494Y-18367D01*
X46494Y-18367D02*
X46494Y-18189D01*
X46494Y-18189D02*
X46561Y-18100D01*
X46561Y-18100D02*
X46894Y-18100D01*
X46894Y-18100D02*
X46961Y-18189D01*
X47347Y-18900D02*
X47280Y-18812D01*
X47280Y-18812D02*
X47280Y-18189D01*
X47280Y-18189D02*
X47347Y-18100D01*
X47347Y-18100D02*
X47680Y-18100D01*
X47680Y-18100D02*
X47747Y-18189D01*
X47747Y-18189D02*
X47747Y-18812D01*
X47747Y-18812D02*
X47680Y-18900D01*
X47680Y-18900D02*
X47347Y-18900D01*
X48066Y-18900D02*
X48066Y-18100D01*
X48066Y-18100D02*
X48466Y-18100D01*
X48466Y-18100D02*
X48533Y-18189D01*
X48533Y-18189D02*
X48533Y-18456D01*
X48533Y-18456D02*
X48466Y-18545D01*
X48466Y-18545D02*
X48066Y-18545D01*
X48266Y-18545D02*
X48533Y-18900D01*
X50891Y-18812D02*
X50824Y-18900D01*
X50824Y-18900D02*
X50491Y-18900D01*
X50491Y-18900D02*
X50424Y-18812D01*
X50424Y-18812D02*
X50424Y-18189D01*
X50424Y-18189D02*
X50491Y-18100D01*
X50491Y-18100D02*
X50824Y-18100D01*
X50824Y-18100D02*
X50891Y-18189D01*
X51344Y-18900D02*
X51610Y-18900D01*
X51477Y-18900D02*
X51477Y-18100D01*
X51477Y-18189D02*
X51344Y-18367D01*
G54D14*
X44182Y-50300D02*
X44382Y-50300D01*
X44282Y-50300D02*
X44282Y-49700D01*
X44182Y-49700D02*
X44382Y-49700D01*
X44744Y-50300D02*
X44744Y-49700D01*
X44744Y-49700D02*
X45094Y-50300D01*
X45094Y-50300D02*
X45094Y-49700D01*
X45356Y-49700D02*
X45756Y-49700D01*
X45556Y-49700D02*
X45556Y-50300D01*
X38632Y-49700D02*
X38632Y-50300D01*
X38632Y-50300D02*
X39032Y-50300D01*
X39594Y-50300D02*
X39244Y-50300D01*
X39244Y-50300D02*
X39244Y-49700D01*
X39244Y-49700D02*
X39594Y-49700D01*
X39244Y-49967D02*
X39444Y-49967D01*
X39906Y-50300D02*
X39906Y-49700D01*
X39856Y-49700D02*
X40156Y-49700D01*
X40156Y-49700D02*
X40206Y-49767D01*
X40206Y-49767D02*
X40206Y-50234D01*
X40206Y-50234D02*
X40156Y-50300D01*
X40156Y-50300D02*
X39856Y-50300D01*
G54D12*
X45700Y-46609D02*
X45700Y-46842D01*
X45700Y-46842D02*
X45300Y-46842D01*
X45300Y-46842D02*
X45300Y-46609D01*
X45478Y-46842D02*
X45478Y-46709D01*
X45700Y-46449D02*
X45300Y-46449D01*
X45300Y-46449D02*
X45700Y-46216D01*
X45700Y-46216D02*
X45300Y-46216D01*
X45300Y-46056D02*
X45300Y-45789D01*
X45300Y-45923D02*
X45700Y-45923D01*
X45700Y-45663D02*
X45300Y-45663D01*
X45300Y-45663D02*
X45300Y-45463D01*
X45300Y-45463D02*
X45345Y-45430D01*
X45345Y-45430D02*
X45478Y-45430D01*
X45478Y-45430D02*
X45523Y-45463D01*
X45523Y-45463D02*
X45523Y-45663D01*
X45523Y-45563D02*
X45700Y-45430D01*
X45700Y-45270D02*
X45389Y-45270D01*
X45389Y-45270D02*
X45300Y-45203D01*
X45300Y-45203D02*
X45300Y-45103D01*
X45300Y-45103D02*
X45389Y-45037D01*
X45389Y-45037D02*
X45700Y-45037D01*
X45478Y-45270D02*
X45478Y-45037D01*
X45700Y-44844D02*
X45300Y-44844D01*
X45300Y-44877D02*
X45300Y-44677D01*
X45300Y-44677D02*
X45345Y-44644D01*
X45345Y-44644D02*
X45656Y-44644D01*
X45656Y-44644D02*
X45700Y-44677D01*
X45700Y-44677D02*
X45700Y-44877D01*
X45700Y-44484D02*
X45389Y-44484D01*
X45389Y-44484D02*
X45300Y-44417D01*
X45300Y-44417D02*
X45300Y-44317D01*
X45300Y-44317D02*
X45389Y-44251D01*
X45389Y-44251D02*
X45700Y-44251D01*
X45478Y-44484D02*
X45478Y-44251D01*
X44300Y-47056D02*
X44700Y-46923D01*
X44700Y-46923D02*
X44300Y-46789D01*
X44656Y-46430D02*
X44700Y-46463D01*
X44700Y-46463D02*
X44700Y-46630D01*
X44700Y-46630D02*
X44656Y-46663D01*
X44656Y-46663D02*
X44345Y-46663D01*
X44345Y-46663D02*
X44300Y-46630D01*
X44300Y-46630D02*
X44300Y-46463D01*
X44300Y-46463D02*
X44345Y-46430D01*
X44656Y-46037D02*
X44700Y-46070D01*
X44700Y-46070D02*
X44700Y-46237D01*
X44700Y-46237D02*
X44656Y-46270D01*
X44656Y-46270D02*
X44345Y-46270D01*
X44345Y-46270D02*
X44300Y-46237D01*
X44300Y-46237D02*
X44300Y-46070D01*
X44300Y-46070D02*
X44345Y-46037D01*
X40700Y-46753D02*
X40300Y-46753D01*
X40300Y-46753D02*
X40300Y-46553D01*
X40300Y-46553D02*
X40345Y-46520D01*
X40345Y-46520D02*
X40478Y-46520D01*
X40478Y-46520D02*
X40523Y-46553D01*
X40523Y-46553D02*
X40523Y-46753D01*
X40523Y-46653D02*
X40700Y-46520D01*
X40700Y-46327D02*
X40656Y-46360D01*
X40656Y-46360D02*
X40345Y-46360D01*
X40345Y-46360D02*
X40300Y-46327D01*
X40300Y-46327D02*
X40300Y-46160D01*
X40300Y-46160D02*
X40345Y-46127D01*
X40345Y-46127D02*
X40656Y-46127D01*
X40656Y-46127D02*
X40700Y-46160D01*
X40700Y-46160D02*
X40700Y-46327D01*
X40612Y-45967D02*
X40700Y-45934D01*
X40700Y-45934D02*
X40700Y-45867D01*
X40700Y-45867D02*
X40656Y-45834D01*
X40656Y-45834D02*
X40300Y-45834D01*
X40300Y-45900D02*
X40300Y-45767D01*
X40700Y-45541D02*
X40656Y-45574D01*
X40656Y-45574D02*
X40345Y-45574D01*
X40345Y-45574D02*
X40300Y-45541D01*
X40300Y-45541D02*
X40300Y-45374D01*
X40300Y-45374D02*
X40345Y-45341D01*
X40345Y-45341D02*
X40656Y-45341D01*
X40656Y-45341D02*
X40700Y-45374D01*
X40700Y-45374D02*
X40700Y-45541D01*
X39345Y-46356D02*
X39300Y-46356D01*
X39300Y-46356D02*
X39300Y-46523D01*
X39300Y-46523D02*
X39345Y-46556D01*
X39345Y-46556D02*
X39656Y-46556D01*
X39656Y-46556D02*
X39700Y-46523D01*
X39700Y-46523D02*
X39700Y-46356D01*
X39700Y-46356D02*
X39656Y-46323D01*
X39656Y-46323D02*
X39523Y-46323D01*
X39523Y-46323D02*
X39523Y-46423D01*
X39700Y-46163D02*
X39300Y-46163D01*
X39300Y-46163D02*
X39700Y-45930D01*
X39700Y-45930D02*
X39300Y-45930D01*
X39700Y-45737D02*
X39300Y-45737D01*
X39300Y-45770D02*
X39300Y-45570D01*
X39300Y-45570D02*
X39345Y-45537D01*
X39345Y-45537D02*
X39656Y-45537D01*
X39656Y-45537D02*
X39700Y-45570D01*
X39700Y-45570D02*
X39700Y-45770D01*
X38300Y-46949D02*
X38700Y-46816D01*
X38700Y-46816D02*
X38300Y-46682D01*
X38700Y-46323D02*
X38700Y-46556D01*
X38700Y-46556D02*
X38300Y-46556D01*
X38300Y-46556D02*
X38300Y-46323D01*
X38478Y-46556D02*
X38478Y-46423D01*
X38700Y-46163D02*
X38300Y-46163D01*
X38300Y-46163D02*
X38300Y-45963D01*
X38300Y-45963D02*
X38345Y-45930D01*
X38345Y-45930D02*
X38478Y-45930D01*
X38478Y-45930D02*
X38523Y-45963D01*
X38523Y-45963D02*
X38523Y-46163D01*
X38523Y-46063D02*
X38700Y-45930D01*
X38700Y-45737D02*
X38300Y-45737D01*
X38300Y-45770D02*
X38300Y-45570D01*
X38300Y-45570D02*
X38345Y-45537D01*
X38345Y-45537D02*
X38656Y-45537D01*
X38656Y-45537D02*
X38700Y-45570D01*
X38700Y-45570D02*
X38700Y-45770D01*
X38700Y-45144D02*
X38700Y-45377D01*
X38700Y-45377D02*
X38300Y-45377D01*
X38300Y-45377D02*
X38300Y-45144D01*
X38478Y-45377D02*
X38478Y-45244D01*
X53845Y-46856D02*
X53800Y-46856D01*
X53800Y-46856D02*
X53800Y-47023D01*
X53800Y-47023D02*
X53845Y-47056D01*
X53845Y-47056D02*
X54156Y-47056D01*
X54156Y-47056D02*
X54200Y-47023D01*
X54200Y-47023D02*
X54200Y-46856D01*
X54200Y-46856D02*
X54156Y-46823D01*
X54156Y-46823D02*
X54023Y-46823D01*
X54023Y-46823D02*
X54023Y-46923D01*
X54200Y-46663D02*
X53800Y-46663D01*
X53800Y-46663D02*
X54200Y-46430D01*
X54200Y-46430D02*
X53800Y-46430D01*
X54200Y-46237D02*
X53800Y-46237D01*
X53800Y-46270D02*
X53800Y-46070D01*
X53800Y-46070D02*
X53845Y-46037D01*
X53845Y-46037D02*
X54156Y-46037D01*
X54156Y-46037D02*
X54200Y-46070D01*
X54200Y-46070D02*
X54200Y-46270D01*
X53200Y-46860D02*
X52800Y-46860D01*
X52800Y-46860D02*
X52800Y-46660D01*
X52800Y-46660D02*
X52845Y-46627D01*
X52845Y-46627D02*
X52978Y-46627D01*
X52978Y-46627D02*
X53023Y-46660D01*
X53023Y-46660D02*
X53023Y-46860D01*
X53023Y-46760D02*
X53200Y-46627D01*
X53200Y-46467D02*
X52800Y-46234D01*
X52800Y-46467D02*
X53200Y-46234D01*
X51800Y-46860D02*
X51800Y-46593D01*
X51800Y-46727D02*
X52200Y-46727D01*
X52200Y-46467D02*
X51800Y-46234D01*
X51800Y-46467D02*
X52200Y-46234D01*
X50800Y-47056D02*
X51200Y-46923D01*
X51200Y-46923D02*
X50800Y-46789D01*
X51156Y-46430D02*
X51200Y-46463D01*
X51200Y-46463D02*
X51200Y-46630D01*
X51200Y-46630D02*
X51156Y-46663D01*
X51156Y-46663D02*
X50845Y-46663D01*
X50845Y-46663D02*
X50800Y-46630D01*
X50800Y-46630D02*
X50800Y-46463D01*
X50800Y-46463D02*
X50845Y-46430D01*
X51156Y-46037D02*
X51200Y-46070D01*
X51200Y-46070D02*
X51200Y-46237D01*
X51200Y-46237D02*
X51156Y-46270D01*
X51156Y-46270D02*
X50845Y-46270D01*
X50845Y-46270D02*
X50800Y-46237D01*
X50800Y-46237D02*
X50800Y-46070D01*
X50800Y-46070D02*
X50845Y-46037D01*
X38700Y-49596D02*
X38700Y-49463D01*
X38700Y-49530D02*
X38300Y-49530D01*
X38345Y-49530D02*
X38434Y-49596D01*
X17700Y-48793D02*
X17700Y-48660D01*
X17700Y-48727D02*
X17300Y-48727D01*
X17345Y-48727D02*
X17434Y-48793D01*
X17345Y-48234D02*
X17300Y-48267D01*
X17300Y-48267D02*
X17300Y-48434D01*
X17300Y-48434D02*
X17345Y-48467D01*
X17345Y-48467D02*
X17656Y-48467D01*
X17656Y-48467D02*
X17700Y-48434D01*
X17700Y-48434D02*
X17700Y-48267D01*
X17700Y-48267D02*
X17656Y-48234D01*
X17656Y-48234D02*
X17523Y-48234D01*
X17523Y-48234D02*
X17478Y-48267D01*
X17478Y-48267D02*
X17478Y-48434D01*
X17478Y-48434D02*
X17523Y-48467D01*
X31345Y-42856D02*
X31300Y-42856D01*
X31300Y-42856D02*
X31300Y-43023D01*
X31300Y-43023D02*
X31345Y-43056D01*
X31345Y-43056D02*
X31656Y-43056D01*
X31656Y-43056D02*
X31700Y-43023D01*
X31700Y-43023D02*
X31700Y-42856D01*
X31700Y-42856D02*
X31656Y-42823D01*
X31656Y-42823D02*
X31523Y-42823D01*
X31523Y-42823D02*
X31523Y-42923D01*
X31700Y-42663D02*
X31300Y-42663D01*
X31300Y-42663D02*
X31700Y-42430D01*
X31700Y-42430D02*
X31300Y-42430D01*
X31700Y-42237D02*
X31300Y-42237D01*
X31300Y-42270D02*
X31300Y-42070D01*
X31300Y-42070D02*
X31345Y-42037D01*
X31345Y-42037D02*
X31656Y-42037D01*
X31656Y-42037D02*
X31700Y-42070D01*
X31700Y-42070D02*
X31700Y-42270D01*
X33300Y-43056D02*
X33700Y-42923D01*
X33700Y-42923D02*
X33300Y-42789D01*
X33656Y-42430D02*
X33700Y-42463D01*
X33700Y-42463D02*
X33700Y-42630D01*
X33700Y-42630D02*
X33656Y-42663D01*
X33656Y-42663D02*
X33345Y-42663D01*
X33345Y-42663D02*
X33300Y-42630D01*
X33300Y-42630D02*
X33300Y-42463D01*
X33300Y-42463D02*
X33345Y-42430D01*
X33656Y-42037D02*
X33700Y-42070D01*
X33700Y-42070D02*
X33700Y-42237D01*
X33700Y-42237D02*
X33656Y-42270D01*
X33656Y-42270D02*
X33345Y-42270D01*
X33345Y-42270D02*
X33300Y-42237D01*
X33300Y-42237D02*
X33300Y-42070D01*
X33300Y-42070D02*
X33345Y-42037D01*
X48800Y-14056D02*
X49200Y-13923D01*
X49200Y-13923D02*
X48800Y-13789D01*
X49156Y-13430D02*
X49200Y-13463D01*
X49200Y-13463D02*
X49200Y-13630D01*
X49200Y-13630D02*
X49156Y-13663D01*
X49156Y-13663D02*
X48845Y-13663D01*
X48845Y-13663D02*
X48800Y-13630D01*
X48800Y-13630D02*
X48800Y-13463D01*
X48800Y-13463D02*
X48845Y-13430D01*
X49156Y-13037D02*
X49200Y-13070D01*
X49200Y-13070D02*
X49200Y-13237D01*
X49200Y-13237D02*
X49156Y-13270D01*
X49156Y-13270D02*
X48845Y-13270D01*
X48845Y-13270D02*
X48800Y-13237D01*
X48800Y-13237D02*
X48800Y-13070D01*
X48800Y-13070D02*
X48845Y-13037D01*
X50845Y-13856D02*
X50800Y-13856D01*
X50800Y-13856D02*
X50800Y-14023D01*
X50800Y-14023D02*
X50845Y-14056D01*
X50845Y-14056D02*
X51156Y-14056D01*
X51156Y-14056D02*
X51200Y-14023D01*
X51200Y-14023D02*
X51200Y-13856D01*
X51200Y-13856D02*
X51156Y-13823D01*
X51156Y-13823D02*
X51023Y-13823D01*
X51023Y-13823D02*
X51023Y-13923D01*
X51200Y-13663D02*
X50800Y-13663D01*
X50800Y-13663D02*
X51200Y-13430D01*
X51200Y-13430D02*
X50800Y-13430D01*
X51200Y-13237D02*
X50800Y-13237D01*
X50800Y-13270D02*
X50800Y-13070D01*
X50800Y-13070D02*
X50845Y-13037D01*
X50845Y-13037D02*
X51156Y-13037D01*
X51156Y-13037D02*
X51200Y-13070D01*
X51200Y-13070D02*
X51200Y-13270D01*
G54D11*
X28636Y-46900D02*
X28636Y-46100D01*
X28636Y-46100D02*
X29036Y-46100D01*
X29036Y-46100D02*
X29103Y-46189D01*
X29103Y-46189D02*
X29103Y-46456D01*
X29103Y-46456D02*
X29036Y-46545D01*
X29036Y-46545D02*
X28636Y-46545D01*
X29489Y-46900D02*
X29422Y-46812D01*
X29422Y-46812D02*
X29422Y-46189D01*
X29422Y-46189D02*
X29489Y-46100D01*
X29489Y-46100D02*
X29822Y-46100D01*
X29822Y-46100D02*
X29889Y-46189D01*
X29889Y-46189D02*
X29889Y-46812D01*
X29889Y-46812D02*
X29822Y-46900D01*
X29822Y-46900D02*
X29489Y-46900D01*
X30208Y-46100D02*
X30742Y-46100D01*
X30475Y-46100D02*
X30475Y-46900D01*
X31194Y-46900D02*
X31194Y-46812D01*
X32633Y-46900D02*
X32633Y-46100D01*
X32566Y-46100D02*
X32966Y-46100D01*
X32966Y-46100D02*
X33033Y-46189D01*
X33033Y-46189D02*
X33033Y-46812D01*
X33033Y-46812D02*
X32966Y-46900D01*
X32966Y-46900D02*
X32566Y-46900D01*
X33419Y-46900D02*
X33686Y-46900D01*
X33552Y-46900D02*
X33552Y-46100D01*
X33419Y-46100D02*
X33686Y-46100D01*
X34138Y-46812D02*
X34205Y-46900D01*
X34205Y-46900D02*
X34538Y-46900D01*
X34538Y-46900D02*
X34605Y-46812D01*
X34605Y-46812D02*
X34605Y-46545D01*
X34605Y-46545D02*
X34538Y-46456D01*
X34538Y-46456D02*
X34205Y-46456D01*
X34205Y-46456D02*
X34138Y-46367D01*
X34138Y-46367D02*
X34138Y-46189D01*
X34138Y-46189D02*
X34205Y-46100D01*
X34205Y-46100D02*
X34538Y-46100D01*
X34538Y-46100D02*
X34605Y-46189D01*
X34924Y-46900D02*
X34924Y-46100D01*
X34924Y-46100D02*
X35324Y-46100D01*
X35324Y-46100D02*
X35391Y-46189D01*
X35391Y-46189D02*
X35391Y-46456D01*
X35391Y-46456D02*
X35324Y-46545D01*
X35324Y-46545D02*
X34924Y-46545D01*
X35910Y-46900D02*
X35910Y-46812D01*
X23882Y-50900D02*
X23882Y-50100D01*
X23815Y-50100D02*
X24215Y-50100D01*
X24215Y-50100D02*
X24282Y-50189D01*
X24282Y-50189D02*
X24282Y-50812D01*
X24282Y-50812D02*
X24215Y-50900D01*
X24215Y-50900D02*
X23815Y-50900D01*
X24668Y-50900D02*
X24935Y-50900D01*
X24801Y-50900D02*
X24801Y-50100D01*
X24668Y-50100D02*
X24935Y-50100D01*
X25387Y-50812D02*
X25454Y-50900D01*
X25454Y-50900D02*
X25787Y-50900D01*
X25787Y-50900D02*
X25854Y-50812D01*
X25854Y-50812D02*
X25854Y-50545D01*
X25854Y-50545D02*
X25787Y-50456D01*
X25787Y-50456D02*
X25454Y-50456D01*
X25454Y-50456D02*
X25387Y-50367D01*
X25387Y-50367D02*
X25387Y-50189D01*
X25387Y-50189D02*
X25454Y-50100D01*
X25454Y-50100D02*
X25787Y-50100D01*
X25787Y-50100D02*
X25854Y-50189D01*
X26173Y-50900D02*
X26173Y-50100D01*
X26173Y-50100D02*
X26573Y-50100D01*
X26573Y-50100D02*
X26640Y-50189D01*
X26640Y-50189D02*
X26640Y-50456D01*
X26640Y-50456D02*
X26573Y-50545D01*
X26573Y-50545D02*
X26173Y-50545D01*
X26959Y-50100D02*
X26959Y-50900D01*
X26959Y-50900D02*
X27493Y-50900D01*
X27745Y-50900D02*
X27745Y-50278D01*
X27745Y-50278D02*
X27879Y-50100D01*
X27879Y-50100D02*
X28079Y-50100D01*
X28079Y-50100D02*
X28212Y-50278D01*
X28212Y-50278D02*
X28212Y-50900D01*
X27745Y-50456D02*
X28212Y-50456D01*
X28531Y-50100D02*
X28798Y-50545D01*
X28798Y-50545D02*
X29065Y-50100D01*
X28798Y-50545D02*
X28798Y-50900D01*
X50601Y-50900D02*
X50601Y-50100D01*
X50601Y-50100D02*
X51001Y-50100D01*
X51001Y-50100D02*
X51068Y-50189D01*
X51068Y-50189D02*
X51068Y-50456D01*
X51068Y-50456D02*
X51001Y-50545D01*
X51001Y-50545D02*
X50601Y-50545D01*
X50801Y-50545D02*
X51068Y-50900D01*
X51387Y-50812D02*
X51454Y-50900D01*
X51454Y-50900D02*
X51787Y-50900D01*
X51787Y-50900D02*
X51854Y-50812D01*
X51854Y-50812D02*
X51854Y-50545D01*
X51854Y-50545D02*
X51787Y-50456D01*
X51787Y-50456D02*
X51454Y-50456D01*
X51454Y-50456D02*
X51387Y-50367D01*
X51387Y-50367D02*
X51387Y-50189D01*
X51387Y-50189D02*
X51454Y-50100D01*
X51454Y-50100D02*
X51787Y-50100D01*
X51787Y-50100D02*
X51854Y-50189D01*
X52640Y-50900D02*
X52173Y-50900D01*
X52173Y-50900D02*
X52173Y-50634D01*
X52173Y-50634D02*
X52240Y-50545D01*
X52240Y-50545D02*
X52573Y-50545D01*
X52573Y-50545D02*
X52640Y-50456D01*
X52640Y-50456D02*
X52640Y-50189D01*
X52640Y-50189D02*
X52573Y-50100D01*
X52573Y-50100D02*
X52240Y-50100D01*
X52240Y-50100D02*
X52173Y-50189D01*
X52959Y-50100D02*
X53426Y-50100D01*
X53426Y-50100D02*
X53426Y-50189D01*
X53426Y-50189D02*
X53159Y-50456D01*
X53159Y-50456D02*
X53359Y-50456D01*
X53359Y-50456D02*
X53426Y-50545D01*
X53426Y-50545D02*
X53426Y-50812D01*
X53426Y-50812D02*
X53359Y-50900D01*
X53359Y-50900D02*
X53026Y-50900D01*
X53026Y-50900D02*
X52959Y-50812D01*
X54212Y-50900D02*
X53745Y-50900D01*
X53745Y-50900D02*
X53745Y-50634D01*
X53745Y-50634D02*
X53812Y-50545D01*
X53812Y-50545D02*
X54145Y-50545D01*
X54145Y-50545D02*
X54212Y-50456D01*
X54212Y-50456D02*
X54212Y-50189D01*
X54212Y-50189D02*
X54145Y-50100D01*
X54145Y-50100D02*
X53812Y-50100D01*
X53812Y-50100D02*
X53745Y-50189D01*
X74000Y-21500D02*
X74000Y-17500D01*
X73500Y-21500D02*
X76500Y-21500D01*
X76500Y-21500D02*
X76500Y-17500D01*
X76500Y-17500D02*
X73500Y-17500D01*
X73500Y-17500D02*
X73500Y-21500D01*
X74000Y-16500D02*
X74000Y-12500D01*
X73500Y-16500D02*
X76500Y-16500D01*
X76500Y-16500D02*
X76500Y-12500D01*
X76500Y-12500D02*
X73500Y-12500D01*
X73500Y-12500D02*
X73500Y-16500D01*
X74000Y-27000D02*
X74000Y-23000D01*
X73500Y-27000D02*
X76500Y-27000D01*
X76500Y-27000D02*
X76500Y-23000D01*
X76500Y-23000D02*
X73500Y-23000D01*
X73500Y-23000D02*
X73500Y-27000D01*
X74000Y-33000D02*
X74000Y-29000D01*
X73500Y-33000D02*
X76500Y-33000D01*
X76500Y-33000D02*
X76500Y-29000D01*
X76500Y-29000D02*
X73500Y-29000D01*
X73500Y-29000D02*
X73500Y-33000D01*
X74000Y-45000D02*
X74000Y-41000D01*
X73500Y-45000D02*
X76500Y-45000D01*
X76500Y-45000D02*
X76500Y-41000D01*
X76500Y-41000D02*
X73500Y-41000D01*
X73500Y-41000D02*
X73500Y-45000D01*
X74000Y-39000D02*
X74000Y-35000D01*
X73500Y-39000D02*
X76500Y-39000D01*
X76500Y-39000D02*
X76500Y-35000D01*
X76500Y-35000D02*
X73500Y-35000D01*
X73500Y-35000D02*
X73500Y-39000D01*
X53500Y-14500D02*
X53500Y-17500D01*
X61500Y-17500D02*
X61500Y-14500D01*
X61500Y-17000D02*
X53500Y-17000D01*
X53500Y-14500D02*
X61500Y-14500D01*
X53500Y-17500D02*
X61500Y-17500D01*
X44000Y-14500D02*
X44000Y-17500D01*
X52000Y-17500D02*
X52000Y-14500D01*
X52000Y-17000D02*
X44000Y-17000D01*
X44000Y-14500D02*
X52000Y-14500D01*
X44000Y-17500D02*
X52000Y-17500D01*
G54D15*
X20620Y-16750D02*
X20620Y-15250D01*
G54D16*
X20307Y-16000D02*
X20293Y-16137D01*
X20293Y-16137D02*
X20253Y-16269D01*
X20253Y-16269D02*
X20188Y-16391D01*
X20188Y-16391D02*
X20101Y-16498D01*
X20101Y-16498D02*
X19995Y-16586D01*
X19995Y-16586D02*
X19873Y-16651D01*
X19873Y-16651D02*
X19742Y-16692D01*
X19742Y-16692D02*
X19604Y-16706D01*
X19604Y-16706D02*
X19468Y-16694D01*
X19468Y-16694D02*
X19336Y-16655D01*
X19336Y-16655D02*
X19213Y-16591D01*
X19213Y-16591D02*
X19106Y-16505D01*
X19106Y-16505D02*
X19017Y-16399D01*
X19017Y-16399D02*
X18951Y-16278D01*
X18951Y-16278D02*
X18909Y-16146D01*
X18909Y-16146D02*
X18894Y-16009D01*
X18894Y-16009D02*
X18905Y-15873D01*
X18905Y-15873D02*
X18943Y-15740D01*
X18943Y-15740D02*
X19006Y-15618D01*
X19006Y-15618D02*
X19092Y-15509D01*
X19092Y-15509D02*
X19197Y-15420D01*
X19197Y-15420D02*
X19317Y-15353D01*
X19317Y-15353D02*
X19449Y-15310D01*
X19449Y-15310D02*
X19586Y-15294D01*
X19586Y-15294D02*
X19722Y-15304D01*
X19722Y-15304D02*
X19855Y-15341D01*
X19855Y-15341D02*
X19978Y-15404D01*
X19978Y-15404D02*
X20087Y-15489D01*
X20087Y-15489D02*
X20177Y-15593D01*
X20177Y-15593D02*
X20245Y-15713D01*
X20245Y-15713D02*
X20289Y-15844D01*
X20289Y-15844D02*
X20306Y-15981D01*
X20306Y-15981D02*
X20307Y-16000D01*
G54D17*
X20600Y-15249D02*
X20422Y-15058D01*
X20422Y-15058D02*
X20208Y-14908D01*
X20208Y-14908D02*
X19968Y-14805D01*
X19968Y-14805D02*
X19711Y-14755D01*
X19711Y-14755D02*
X19450Y-14759D01*
X19450Y-14759D02*
X19195Y-14817D01*
X19195Y-14817D02*
X18958Y-14927D01*
X18958Y-14927D02*
X18749Y-15084D01*
X18749Y-15084D02*
X18577Y-15281D01*
X18577Y-15281D02*
X18450Y-15510D01*
X18450Y-15510D02*
X18373Y-15759D01*
X18373Y-15759D02*
X18350Y-16020D01*
X18350Y-16020D02*
X18382Y-16279D01*
X18382Y-16279D02*
X18466Y-16526D01*
X18466Y-16526D02*
X18600Y-16751D01*
X18600Y-16751D02*
X18778Y-16942D01*
X18778Y-16942D02*
X18992Y-17092D01*
X18992Y-17092D02*
X19232Y-17195D01*
X19232Y-17195D02*
X19489Y-17245D01*
X19489Y-17245D02*
X19750Y-17241D01*
X19750Y-17241D02*
X20005Y-17183D01*
X20005Y-17183D02*
X20242Y-17073D01*
X20242Y-17073D02*
X20451Y-16916D01*
X20451Y-16916D02*
X20623Y-16719D01*
X20623Y-16719D02*
X20750Y-16490D01*
X20750Y-16490D02*
X20827Y-16241D01*
X20827Y-16241D02*
X20850Y-15980D01*
X20850Y-15980D02*
X20818Y-15721D01*
X20818Y-15721D02*
X20734Y-15474D01*
X20734Y-15474D02*
X20600Y-15249D01*
X20600Y-15249D02*
X20422Y-15058D01*
X20422Y-15058D02*
X20208Y-14908D01*
X20208Y-14908D02*
X19968Y-14805D01*
X19968Y-14805D02*
X19711Y-14755D01*
X19711Y-14755D02*
X19450Y-14759D01*
X19450Y-14759D02*
X19195Y-14817D01*
X19195Y-14817D02*
X18958Y-14927D01*
X18958Y-14927D02*
X18749Y-15084D01*
X18749Y-15084D02*
X18577Y-15281D01*
X18577Y-15281D02*
X18450Y-15510D01*
X18450Y-15510D02*
X18373Y-15759D01*
X18373Y-15759D02*
X18350Y-16020D01*
X18350Y-16020D02*
X18382Y-16279D01*
X18382Y-16279D02*
X18466Y-16526D01*
X18466Y-16526D02*
X18600Y-16751D01*
X18600Y-16751D02*
X18778Y-16942D01*
X18778Y-16942D02*
X18992Y-17092D01*
X18992Y-17092D02*
X19232Y-17195D01*
X19232Y-17195D02*
X19489Y-17245D01*
X19489Y-17245D02*
X19750Y-17241D01*
X19750Y-17241D02*
X20005Y-17183D01*
X20005Y-17183D02*
X20242Y-17073D01*
X20242Y-17073D02*
X20451Y-16916D01*
X20451Y-16916D02*
X20600Y-16751D01*
G54D12*
X19600Y-15550D02*
X19506Y-15560D01*
X19506Y-15560D02*
X19417Y-15589D01*
X19417Y-15589D02*
X19335Y-15636D01*
X19335Y-15636D02*
X19266Y-15699D01*
X19266Y-15699D02*
X19210Y-15775D01*
X19210Y-15775D02*
X19172Y-15861D01*
X19172Y-15861D02*
X19152Y-15953D01*
X19152Y-15953D02*
X19152Y-16047D01*
X19152Y-16047D02*
X19172Y-16139D01*
X19172Y-16139D02*
X19210Y-16225D01*
X19210Y-16225D02*
X19266Y-16301D01*
X19266Y-16301D02*
X19335Y-16364D01*
X19335Y-16364D02*
X19417Y-16411D01*
X19417Y-16411D02*
X19506Y-16440D01*
X19506Y-16440D02*
X19600Y-16450D01*
X19600Y-16450D02*
X19694Y-16440D01*
X19694Y-16440D02*
X19783Y-16411D01*
X19783Y-16411D02*
X19865Y-16364D01*
X19865Y-16364D02*
X19934Y-16301D01*
X19934Y-16301D02*
X19990Y-16225D01*
X19990Y-16225D02*
X20028Y-16139D01*
X20028Y-16139D02*
X20048Y-16047D01*
X20048Y-16047D02*
X20048Y-15953D01*
X20048Y-15953D02*
X20028Y-15861D01*
X20028Y-15861D02*
X19990Y-15775D01*
X19990Y-15775D02*
X19934Y-15699D01*
X19934Y-15699D02*
X19865Y-15636D01*
X19865Y-15636D02*
X19783Y-15589D01*
X19783Y-15589D02*
X19694Y-15560D01*
X19694Y-15560D02*
X19600Y-15550D01*
X19600Y-15550D02*
X19506Y-15560D01*
X19506Y-15560D02*
X19417Y-15589D01*
X19417Y-15589D02*
X19335Y-15636D01*
X19335Y-15636D02*
X19266Y-15699D01*
X19266Y-15699D02*
X19210Y-15775D01*
X19210Y-15775D02*
X19172Y-15861D01*
X19172Y-15861D02*
X19152Y-15953D01*
X19152Y-15953D02*
X19150Y-16000D01*
X19600Y-16450D02*
X19694Y-16440D01*
X19694Y-16440D02*
X19783Y-16411D01*
X19783Y-16411D02*
X19865Y-16364D01*
X19865Y-16364D02*
X19934Y-16301D01*
X19934Y-16301D02*
X19990Y-16225D01*
X19990Y-16225D02*
X20028Y-16139D01*
X20028Y-16139D02*
X20048Y-16047D01*
X20048Y-16047D02*
X20048Y-15953D01*
X20048Y-15953D02*
X20028Y-15861D01*
X20028Y-15861D02*
X19990Y-15775D01*
X19990Y-15775D02*
X19934Y-15699D01*
X19934Y-15699D02*
X19865Y-15636D01*
X19865Y-15636D02*
X19783Y-15589D01*
X19783Y-15589D02*
X19694Y-15560D01*
X19694Y-15560D02*
X19600Y-15550D01*
X19600Y-15550D02*
X19506Y-15560D01*
X19506Y-15560D02*
X19417Y-15589D01*
X19417Y-15589D02*
X19335Y-15636D01*
X19335Y-15636D02*
X19266Y-15699D01*
X19266Y-15699D02*
X19210Y-15775D01*
X19210Y-15775D02*
X19172Y-15861D01*
X19172Y-15861D02*
X19152Y-15953D01*
X19152Y-15953D02*
X19152Y-16047D01*
X19152Y-16047D02*
X19172Y-16139D01*
X19172Y-16139D02*
X19210Y-16225D01*
X19210Y-16225D02*
X19266Y-16301D01*
X19266Y-16301D02*
X19335Y-16364D01*
X19335Y-16364D02*
X19417Y-16411D01*
X19417Y-16411D02*
X19506Y-16440D01*
X19506Y-16440D02*
X19600Y-16450D01*
X19600Y-16450D02*
X19694Y-16440D01*
X19694Y-16440D02*
X19783Y-16411D01*
X19783Y-16411D02*
X19865Y-16364D01*
X19865Y-16364D02*
X19934Y-16301D01*
X19934Y-16301D02*
X19990Y-16225D01*
X19990Y-16225D02*
X20028Y-16139D01*
X20028Y-16139D02*
X20048Y-16047D01*
X20048Y-16047D02*
X20050Y-16000D01*
X19600Y-15350D02*
X19465Y-15364D01*
X19465Y-15364D02*
X19336Y-15406D01*
X19336Y-15406D02*
X19218Y-15474D01*
X19218Y-15474D02*
X19117Y-15565D01*
X19117Y-15565D02*
X19037Y-15675D01*
X19037Y-15675D02*
X18982Y-15799D01*
X18982Y-15799D02*
X18954Y-15932D01*
X18954Y-15932D02*
X18954Y-16068D01*
X18954Y-16068D02*
X18982Y-16201D01*
X18982Y-16201D02*
X19037Y-16325D01*
X19037Y-16325D02*
X19117Y-16435D01*
X19117Y-16435D02*
X19218Y-16526D01*
X19218Y-16526D02*
X19336Y-16594D01*
X19336Y-16594D02*
X19465Y-16636D01*
X19465Y-16636D02*
X19600Y-16650D01*
X19600Y-16650D02*
X19735Y-16636D01*
X19735Y-16636D02*
X19864Y-16594D01*
X19864Y-16594D02*
X19982Y-16526D01*
X19982Y-16526D02*
X20083Y-16435D01*
X20083Y-16435D02*
X20163Y-16325D01*
X20163Y-16325D02*
X20218Y-16201D01*
X20218Y-16201D02*
X20246Y-16068D01*
X20246Y-16068D02*
X20246Y-15932D01*
X20246Y-15932D02*
X20218Y-15799D01*
X20218Y-15799D02*
X20163Y-15675D01*
X20163Y-15675D02*
X20083Y-15565D01*
X20083Y-15565D02*
X19982Y-15474D01*
X19982Y-15474D02*
X19864Y-15406D01*
X19864Y-15406D02*
X19735Y-15364D01*
X19735Y-15364D02*
X19600Y-15350D01*
X19600Y-15350D02*
X19465Y-15364D01*
X19465Y-15364D02*
X19336Y-15406D01*
X19336Y-15406D02*
X19218Y-15474D01*
X19218Y-15474D02*
X19117Y-15565D01*
X19117Y-15565D02*
X19037Y-15675D01*
X19037Y-15675D02*
X18982Y-15799D01*
X18982Y-15799D02*
X18954Y-15932D01*
X18954Y-15932D02*
X18950Y-16000D01*
X19600Y-16650D02*
X19735Y-16636D01*
X19735Y-16636D02*
X19864Y-16594D01*
X19864Y-16594D02*
X19982Y-16526D01*
X19982Y-16526D02*
X20083Y-16435D01*
X20083Y-16435D02*
X20163Y-16325D01*
X20163Y-16325D02*
X20218Y-16201D01*
X20218Y-16201D02*
X20246Y-16068D01*
X20246Y-16068D02*
X20246Y-15932D01*
X20246Y-15932D02*
X20218Y-15799D01*
X20218Y-15799D02*
X20163Y-15675D01*
X20163Y-15675D02*
X20083Y-15565D01*
X20083Y-15565D02*
X19982Y-15474D01*
X19982Y-15474D02*
X19864Y-15406D01*
X19864Y-15406D02*
X19735Y-15364D01*
X19735Y-15364D02*
X19600Y-15350D01*
X19600Y-15350D02*
X19465Y-15364D01*
X19465Y-15364D02*
X19336Y-15406D01*
X19336Y-15406D02*
X19218Y-15474D01*
X19218Y-15474D02*
X19117Y-15565D01*
X19117Y-15565D02*
X19037Y-15675D01*
X19037Y-15675D02*
X18982Y-15799D01*
X18982Y-15799D02*
X18954Y-15932D01*
X18954Y-15932D02*
X18954Y-16068D01*
X18954Y-16068D02*
X18982Y-16201D01*
X18982Y-16201D02*
X19037Y-16325D01*
X19037Y-16325D02*
X19117Y-16435D01*
X19117Y-16435D02*
X19218Y-16526D01*
X19218Y-16526D02*
X19336Y-16594D01*
X19336Y-16594D02*
X19465Y-16636D01*
X19465Y-16636D02*
X19600Y-16650D01*
X19600Y-16650D02*
X19735Y-16636D01*
X19735Y-16636D02*
X19864Y-16594D01*
X19864Y-16594D02*
X19982Y-16526D01*
X19982Y-16526D02*
X20083Y-16435D01*
X20083Y-16435D02*
X20163Y-16325D01*
X20163Y-16325D02*
X20218Y-16201D01*
X20218Y-16201D02*
X20246Y-16068D01*
X20246Y-16068D02*
X20250Y-16000D01*
X19600Y-15150D02*
X19423Y-15169D01*
X19423Y-15169D02*
X19254Y-15223D01*
X19254Y-15223D02*
X19100Y-15312D01*
X19100Y-15312D02*
X18968Y-15431D01*
X18968Y-15431D02*
X18864Y-15575D01*
X18864Y-15575D02*
X18792Y-15737D01*
X18792Y-15737D02*
X18755Y-15911D01*
X18755Y-15911D02*
X18755Y-16089D01*
X18755Y-16089D02*
X18792Y-16263D01*
X18792Y-16263D02*
X18864Y-16425D01*
X18864Y-16425D02*
X18968Y-16569D01*
X18968Y-16569D02*
X19100Y-16688D01*
X19100Y-16688D02*
X19254Y-16777D01*
X19254Y-16777D02*
X19423Y-16831D01*
X19423Y-16831D02*
X19600Y-16850D01*
X19600Y-16850D02*
X19777Y-16831D01*
X19777Y-16831D02*
X19946Y-16777D01*
X19946Y-16777D02*
X20100Y-16688D01*
X20100Y-16688D02*
X20232Y-16569D01*
X20232Y-16569D02*
X20336Y-16425D01*
X20336Y-16425D02*
X20408Y-16263D01*
X20408Y-16263D02*
X20445Y-16089D01*
X20445Y-16089D02*
X20445Y-15911D01*
X20445Y-15911D02*
X20408Y-15737D01*
X20408Y-15737D02*
X20336Y-15575D01*
X20336Y-15575D02*
X20232Y-15431D01*
X20232Y-15431D02*
X20100Y-15312D01*
X20100Y-15312D02*
X19946Y-15223D01*
X19946Y-15223D02*
X19777Y-15169D01*
X19777Y-15169D02*
X19600Y-15150D01*
X19600Y-15150D02*
X19423Y-15169D01*
X19423Y-15169D02*
X19254Y-15223D01*
X19254Y-15223D02*
X19100Y-15312D01*
X19100Y-15312D02*
X18968Y-15431D01*
X18968Y-15431D02*
X18864Y-15575D01*
X18864Y-15575D02*
X18792Y-15737D01*
X18792Y-15737D02*
X18755Y-15911D01*
X18755Y-15911D02*
X18750Y-16000D01*
X19600Y-16850D02*
X19777Y-16831D01*
X19777Y-16831D02*
X19946Y-16777D01*
X19946Y-16777D02*
X20100Y-16688D01*
X20100Y-16688D02*
X20232Y-16569D01*
X20232Y-16569D02*
X20336Y-16425D01*
X20336Y-16425D02*
X20408Y-16263D01*
X20408Y-16263D02*
X20445Y-16089D01*
X20445Y-16089D02*
X20445Y-15911D01*
X20445Y-15911D02*
X20408Y-15737D01*
X20408Y-15737D02*
X20336Y-15575D01*
X20336Y-15575D02*
X20232Y-15431D01*
X20232Y-15431D02*
X20100Y-15312D01*
X20100Y-15312D02*
X19946Y-15223D01*
X19946Y-15223D02*
X19777Y-15169D01*
X19777Y-15169D02*
X19600Y-15150D01*
X19600Y-15150D02*
X19423Y-15169D01*
X19423Y-15169D02*
X19254Y-15223D01*
X19254Y-15223D02*
X19100Y-15312D01*
X19100Y-15312D02*
X18968Y-15431D01*
X18968Y-15431D02*
X18864Y-15575D01*
X18864Y-15575D02*
X18792Y-15737D01*
X18792Y-15737D02*
X18755Y-15911D01*
X18755Y-15911D02*
X18755Y-16089D01*
X18755Y-16089D02*
X18792Y-16263D01*
X18792Y-16263D02*
X18864Y-16425D01*
X18864Y-16425D02*
X18968Y-16569D01*
X18968Y-16569D02*
X19100Y-16688D01*
X19100Y-16688D02*
X19254Y-16777D01*
X19254Y-16777D02*
X19423Y-16831D01*
X19423Y-16831D02*
X19600Y-16850D01*
X19600Y-16850D02*
X19777Y-16831D01*
X19777Y-16831D02*
X19946Y-16777D01*
X19946Y-16777D02*
X20100Y-16688D01*
X20100Y-16688D02*
X20232Y-16569D01*
X20232Y-16569D02*
X20336Y-16425D01*
X20336Y-16425D02*
X20408Y-16263D01*
X20408Y-16263D02*
X20445Y-16089D01*
X20445Y-16089D02*
X20450Y-16000D01*
G54D11*
X35000Y-49500D02*
X18000Y-49500D01*
X18000Y-49500D02*
X18000Y-47500D01*
X18000Y-47500D02*
X35000Y-47500D01*
X35000Y-47500D02*
X35000Y-49500D01*
X35500Y-49000D02*
X35000Y-48500D01*
X35000Y-48500D02*
X35500Y-48000D01*
X35500Y-48000D02*
X35500Y-49000D01*
X37500Y-47500D02*
X41500Y-47500D01*
X41500Y-47500D02*
X41500Y-49500D01*
X41500Y-49500D02*
X37500Y-49500D01*
X37500Y-49500D02*
X37500Y-47500D01*
X37000Y-48000D02*
X37500Y-48500D01*
X37500Y-48500D02*
X37000Y-49000D01*
X37000Y-49000D02*
X37000Y-48000D01*
X30500Y-43500D02*
X34500Y-43500D01*
X34500Y-43500D02*
X34500Y-45500D01*
X34500Y-45500D02*
X30500Y-45500D01*
X30500Y-45500D02*
X30500Y-43500D01*
X30000Y-44000D02*
X30500Y-44500D01*
X30500Y-44500D02*
X30000Y-45000D01*
X30000Y-45000D02*
X30000Y-44000D01*
X50000Y-47500D02*
X55000Y-47500D01*
X55000Y-47500D02*
X55000Y-49500D01*
X55000Y-49500D02*
X50000Y-49500D01*
X50000Y-49500D02*
X50000Y-47500D01*
X49500Y-48000D02*
X50000Y-48500D01*
X50000Y-48500D02*
X49500Y-49000D01*
X49500Y-49000D02*
X49500Y-48000D01*
X40500Y-44500D02*
X40500Y-44300D01*
X40500Y-41500D02*
X40500Y-41700D01*
X40500Y-41700D02*
X40100Y-41700D01*
X40100Y-41700D02*
X40100Y-44300D01*
X40100Y-44300D02*
X40900Y-44300D01*
X40900Y-44300D02*
X40900Y-41700D01*
X40900Y-41700D02*
X40500Y-41700D01*
X40300Y-44300D02*
X40100Y-44100D01*
X38500Y-44500D02*
X38500Y-44300D01*
X38500Y-41500D02*
X38500Y-41700D01*
X38500Y-41700D02*
X38100Y-41700D01*
X38100Y-41700D02*
X38100Y-44300D01*
X38100Y-44300D02*
X38900Y-44300D01*
X38900Y-44300D02*
X38900Y-41700D01*
X38900Y-41700D02*
X38500Y-41700D01*
X38300Y-44300D02*
X38100Y-44100D01*
X22500Y-17000D02*
X22700Y-17000D01*
X25500Y-17000D02*
X25300Y-17000D01*
X25300Y-17000D02*
X25300Y-16600D01*
X25300Y-16600D02*
X22700Y-16600D01*
X22700Y-16600D02*
X22700Y-17400D01*
X22700Y-17400D02*
X25300Y-17400D01*
X25300Y-17400D02*
X25300Y-17000D01*
X22700Y-16800D02*
X22900Y-16600D01*
G54D15*
X72399Y-17552D02*
X72399Y-21448D01*
X72399Y-21448D02*
X64477Y-21448D01*
X64477Y-21448D02*
X64477Y-17552D01*
X64477Y-17552D02*
X72399Y-17552D01*
X72399Y-12552D02*
X72399Y-16448D01*
X72399Y-16448D02*
X64477Y-16448D01*
X64477Y-16448D02*
X64477Y-12552D01*
X64477Y-12552D02*
X72399Y-12552D01*
G54D11*
X39500Y-17500D02*
X35500Y-17500D01*
X35500Y-17500D02*
X35500Y-15500D01*
X35500Y-15500D02*
X39500Y-15500D01*
X39500Y-15500D02*
X39500Y-17500D01*
X40000Y-17000D02*
X39500Y-16500D01*
X39500Y-16500D02*
X40000Y-16000D01*
X40000Y-16000D02*
X40000Y-17000D01*
X43500Y-47500D02*
X46500Y-47500D01*
X46500Y-47500D02*
X46500Y-49500D01*
X46500Y-49500D02*
X43500Y-49500D01*
X43500Y-49500D02*
X43500Y-47500D01*
X43000Y-48000D02*
X43500Y-48500D01*
X43500Y-48500D02*
X43000Y-49000D01*
X43000Y-49000D02*
X43000Y-48000D01*
X48500Y-50500D02*
X48500Y-50300D01*
X48500Y-47500D02*
X48500Y-47700D01*
X48500Y-47700D02*
X48100Y-47700D01*
X48100Y-47700D02*
X48100Y-50300D01*
X48100Y-50300D02*
X48900Y-50300D01*
X48900Y-50300D02*
X48900Y-47700D01*
X48900Y-47700D02*
X48500Y-47700D01*
X48300Y-50300D02*
X48100Y-50100D01*
G54D18*
X60595Y-27559D02*
X72405Y-27559D01*
X72405Y-27559D02*
X72405Y-22441D01*
X72405Y-22441D02*
X60595Y-22441D01*
X60595Y-22441D02*
X60595Y-25000D01*
X60595Y-25000D02*
X60595Y-27559D01*
X66500Y-25000D02*
X60595Y-25000D01*
X60595Y-33559D02*
X72405Y-33559D01*
X72405Y-33559D02*
X72405Y-28441D01*
X72405Y-28441D02*
X60595Y-28441D01*
X60595Y-28441D02*
X60595Y-31000D01*
X60595Y-31000D02*
X60595Y-33559D01*
X66500Y-31000D02*
X60595Y-31000D01*
X60595Y-45559D02*
X72405Y-45559D01*
X72405Y-45559D02*
X72405Y-40441D01*
X72405Y-40441D02*
X60595Y-40441D01*
X60595Y-40441D02*
X60595Y-43000D01*
X60595Y-43000D02*
X60595Y-45559D01*
X66500Y-43000D02*
X60595Y-43000D01*
X60595Y-39559D02*
X72405Y-39559D01*
X72405Y-39559D02*
X72405Y-34441D01*
X72405Y-34441D02*
X60595Y-34441D01*
X60595Y-34441D02*
X60595Y-37000D01*
X60595Y-37000D02*
X60595Y-39559D01*
X66500Y-37000D02*
X60595Y-37000D01*
G54D15*
X74500Y-49000D02*
X75950Y-49000D01*
X74500Y-47000D02*
X75950Y-47000D01*
X74500Y-49000D02*
X74000Y-48500D01*
X74000Y-48500D02*
X74000Y-47500D01*
X74000Y-47500D02*
X74500Y-47000D01*
X80150Y-46300D02*
X80750Y-45800D01*
X80150Y-49700D02*
X80750Y-50200D01*
X80950Y-48000D02*
X80908Y-48427D01*
X80908Y-48427D02*
X80784Y-48838D01*
X80784Y-48838D02*
X80582Y-49217D01*
X80582Y-49217D02*
X80311Y-49550D01*
X80311Y-49550D02*
X79980Y-49823D01*
X79980Y-49823D02*
X79602Y-50028D01*
X79602Y-50028D02*
X79192Y-50155D01*
X79192Y-50155D02*
X78765Y-50199D01*
X78765Y-50199D02*
X78338Y-50161D01*
X78338Y-50161D02*
X77926Y-50039D01*
X77926Y-50039D02*
X77546Y-49840D01*
X77546Y-49840D02*
X77211Y-49571D01*
X77211Y-49571D02*
X76935Y-49242D01*
X76935Y-49242D02*
X76728Y-48866D01*
X76728Y-48866D02*
X76599Y-48457D01*
X76599Y-48457D02*
X76551Y-48030D01*
X76551Y-48030D02*
X76587Y-47603D01*
X76587Y-47603D02*
X76705Y-47191D01*
X76705Y-47191D02*
X76901Y-46809D01*
X76901Y-46809D02*
X77168Y-46472D01*
X77168Y-46472D02*
X77495Y-46194D01*
X77495Y-46194D02*
X77870Y-45985D01*
X77870Y-45985D02*
X78278Y-45852D01*
X78278Y-45852D02*
X78704Y-45801D01*
X78704Y-45801D02*
X79132Y-45834D01*
X79132Y-45834D02*
X79545Y-45949D01*
X79545Y-45949D02*
X79928Y-46143D01*
X79928Y-46143D02*
X80267Y-46407D01*
X80267Y-46407D02*
X80547Y-46732D01*
X80547Y-46732D02*
X80759Y-47106D01*
X80759Y-47106D02*
X80895Y-47513D01*
X80895Y-47513D02*
X80949Y-47939D01*
X80949Y-47939D02*
X80950Y-48000D01*
X81723Y-48000D02*
X81666Y-48577D01*
X81666Y-48577D02*
X81498Y-49132D01*
X81498Y-49132D02*
X81226Y-49645D01*
X81226Y-49645D02*
X80859Y-50094D01*
X80859Y-50094D02*
X80412Y-50464D01*
X80412Y-50464D02*
X79902Y-50740D01*
X79902Y-50740D02*
X79347Y-50912D01*
X79347Y-50912D02*
X78770Y-50972D01*
X78770Y-50972D02*
X78193Y-50920D01*
X78193Y-50920D02*
X77637Y-50756D01*
X77637Y-50756D02*
X77123Y-50487D01*
X77123Y-50487D02*
X76670Y-50124D01*
X76670Y-50124D02*
X76297Y-49679D01*
X76297Y-49679D02*
X76018Y-49171D01*
X76018Y-49171D02*
X75842Y-48618D01*
X75842Y-48618D02*
X75778Y-48041D01*
X75778Y-48041D02*
X75826Y-47464D01*
X75826Y-47464D02*
X75986Y-46906D01*
X75986Y-46906D02*
X76251Y-46390D01*
X76251Y-46390D02*
X76612Y-45935D01*
X76612Y-45935D02*
X77054Y-45559D01*
X77054Y-45559D02*
X77560Y-45276D01*
X77560Y-45276D02*
X78112Y-45097D01*
X78112Y-45097D02*
X78688Y-45028D01*
X78688Y-45028D02*
X79266Y-45073D01*
X79266Y-45073D02*
X79825Y-45229D01*
X79825Y-45229D02*
X80343Y-45490D01*
X80343Y-45490D02*
X80800Y-45848D01*
X80800Y-45848D02*
X81179Y-46287D01*
X81179Y-46287D02*
X81465Y-46791D01*
X81465Y-46791D02*
X81649Y-47342D01*
X81649Y-47342D02*
X81721Y-47917D01*
X81721Y-47917D02*
X81723Y-48000D01*
G54D19*
X67400Y-49620D02*
X67400Y-49780D01*
X67400Y-49780D02*
X67630Y-49780D01*
X67630Y-49620D02*
X67630Y-49780D01*
X67400Y-49620D02*
X67630Y-49620D01*
X67400Y-49220D02*
X67400Y-49380D01*
X67400Y-49380D02*
X67630Y-49380D01*
X67630Y-49220D02*
X67630Y-49380D01*
X67400Y-49220D02*
X67630Y-49220D01*
X67300Y-48800D02*
X67300Y-50200D01*
X67300Y-50200D02*
X70300Y-50200D01*
X70300Y-48800D02*
X70300Y-50200D01*
X67300Y-48800D02*
X70300Y-48800D01*
G54D12*
X67650Y-49150D02*
X67650Y-49850D01*
X70050Y-49200D02*
X70050Y-49800D01*
X67650Y-49850D02*
X67800Y-49850D01*
X67800Y-49900D02*
X69950Y-49900D01*
X67650Y-49150D02*
X67800Y-49150D01*
X67800Y-49100D02*
X67800Y-49150D01*
X67800Y-49100D02*
X69950Y-49100D01*
G54D20*
X67300Y-49700D02*
X67450Y-49700D01*
X67300Y-49300D02*
X67500Y-49300D01*
X67250Y-49750D02*
X67000Y-50000D01*
X67250Y-49250D02*
X67000Y-49000D01*
G54D12*
X68950Y-49300D02*
X68800Y-49300D01*
X68800Y-49700D02*
X68800Y-49300D01*
X68800Y-49700D02*
X68950Y-49700D01*
X68950Y-49300D02*
X68950Y-49700D01*
X69100Y-49300D02*
X69100Y-49500D01*
X68650Y-49300D02*
X68650Y-49500D01*
X68650Y-49500D02*
X68450Y-49500D01*
X68650Y-49500D02*
X68650Y-49700D01*
X69100Y-49500D02*
X69300Y-49500D01*
X69100Y-49500D02*
X69100Y-49700D01*
X67800Y-49900D02*
X67800Y-49850D01*
X67800Y-49850D02*
X67800Y-49150D01*
X69950Y-49900D02*
X69971Y-49898D01*
X69971Y-49898D02*
X69991Y-49891D01*
X69991Y-49891D02*
X70009Y-49881D01*
X70009Y-49881D02*
X70024Y-49867D01*
X70024Y-49867D02*
X70037Y-49850D01*
X70037Y-49850D02*
X70045Y-49831D01*
X70045Y-49831D02*
X70049Y-49810D01*
X70049Y-49810D02*
X70049Y-49790D01*
X70049Y-49790D02*
X70045Y-49769D01*
X70045Y-49769D02*
X70037Y-49750D01*
X70037Y-49750D02*
X70024Y-49733D01*
X70024Y-49733D02*
X70009Y-49719D01*
X70009Y-49719D02*
X69991Y-49709D01*
X69991Y-49709D02*
X69971Y-49702D01*
X69971Y-49702D02*
X69950Y-49700D01*
X69950Y-49700D02*
X69929Y-49702D01*
X69929Y-49702D02*
X69909Y-49709D01*
X69909Y-49709D02*
X69891Y-49719D01*
X69891Y-49719D02*
X69876Y-49733D01*
X69876Y-49733D02*
X69863Y-49750D01*
X69863Y-49750D02*
X69855Y-49769D01*
X69855Y-49769D02*
X69851Y-49790D01*
X69851Y-49790D02*
X69851Y-49810D01*
X69851Y-49810D02*
X69855Y-49831D01*
X69855Y-49831D02*
X69863Y-49850D01*
X69863Y-49850D02*
X69876Y-49867D01*
X69876Y-49867D02*
X69891Y-49881D01*
X69891Y-49881D02*
X69909Y-49891D01*
X69909Y-49891D02*
X69929Y-49898D01*
X69929Y-49898D02*
X69950Y-49900D01*
X69950Y-49900D02*
X69971Y-49898D01*
X69971Y-49898D02*
X69991Y-49891D01*
X69991Y-49891D02*
X70009Y-49881D01*
X70009Y-49881D02*
X70024Y-49867D01*
X70024Y-49867D02*
X70037Y-49850D01*
X70037Y-49850D02*
X70045Y-49831D01*
X70045Y-49831D02*
X70049Y-49810D01*
X70049Y-49810D02*
X70050Y-49800D01*
X70050Y-49200D02*
X70048Y-49179D01*
X70048Y-49179D02*
X70041Y-49159D01*
X70041Y-49159D02*
X70031Y-49141D01*
X70031Y-49141D02*
X70017Y-49126D01*
X70017Y-49126D02*
X70000Y-49113D01*
X70000Y-49113D02*
X69981Y-49105D01*
X69981Y-49105D02*
X69960Y-49101D01*
X69960Y-49101D02*
X69940Y-49101D01*
X69940Y-49101D02*
X69919Y-49105D01*
X69919Y-49105D02*
X69900Y-49113D01*
X69900Y-49113D02*
X69883Y-49126D01*
X69883Y-49126D02*
X69869Y-49141D01*
X69869Y-49141D02*
X69859Y-49159D01*
X69859Y-49159D02*
X69852Y-49179D01*
X69852Y-49179D02*
X69850Y-49200D01*
X69850Y-49200D02*
X69852Y-49221D01*
X69852Y-49221D02*
X69859Y-49241D01*
X69859Y-49241D02*
X69869Y-49259D01*
X69869Y-49259D02*
X69883Y-49274D01*
X69883Y-49274D02*
X69900Y-49287D01*
X69900Y-49287D02*
X69919Y-49295D01*
X69919Y-49295D02*
X69940Y-49299D01*
X69940Y-49299D02*
X69960Y-49299D01*
X69960Y-49299D02*
X69981Y-49295D01*
X69981Y-49295D02*
X70000Y-49287D01*
X70000Y-49287D02*
X70017Y-49274D01*
X70017Y-49274D02*
X70031Y-49259D01*
X70031Y-49259D02*
X70041Y-49241D01*
X70041Y-49241D02*
X70048Y-49221D01*
X70048Y-49221D02*
X70050Y-49200D01*
X70050Y-49200D02*
X70048Y-49179D01*
X70048Y-49179D02*
X70041Y-49159D01*
X70041Y-49159D02*
X70031Y-49141D01*
X70031Y-49141D02*
X70017Y-49126D01*
X70017Y-49126D02*
X70000Y-49113D01*
X70000Y-49113D02*
X69981Y-49105D01*
X69981Y-49105D02*
X69960Y-49101D01*
X69960Y-49101D02*
X69950Y-49100D01*
G54D11*
X56500Y-48500D02*
X56700Y-48500D01*
X59500Y-48500D02*
X59300Y-48500D01*
X59300Y-48500D02*
X59300Y-48100D01*
X59300Y-48100D02*
X56700Y-48100D01*
X56700Y-48100D02*
X56700Y-48900D01*
X56700Y-48900D02*
X59300Y-48900D01*
X59300Y-48900D02*
X59300Y-48500D01*
X56700Y-48300D02*
X56900Y-48100D01*
X56500Y-47000D02*
X56700Y-47000D01*
X59500Y-47000D02*
X59300Y-47000D01*
X59300Y-47000D02*
X59300Y-46600D01*
X59300Y-46600D02*
X56700Y-46600D01*
X56700Y-46600D02*
X56700Y-47400D01*
X56700Y-47400D02*
X59300Y-47400D01*
X59300Y-47400D02*
X59300Y-47000D01*
X56700Y-46800D02*
X56900Y-46600D01*
G54D17*
X63500Y-50500D02*
X63500Y-50000D01*
X63500Y-50000D02*
X64500Y-50000D01*
X64500Y-50000D02*
X64500Y-50500D01*
X63000Y-50500D02*
X63000Y-46500D01*
X63000Y-46500D02*
X65000Y-46500D01*
X65000Y-46500D02*
X65000Y-50500D01*
X65000Y-50500D02*
X63000Y-50500D01*
G54D11*
X60980Y-50500D02*
X59000Y-50500D01*
X59000Y-50500D02*
X59000Y-49500D01*
X59000Y-49500D02*
X61000Y-49500D01*
X61000Y-49500D02*
X61000Y-50500D01*
X61000Y-50250D02*
X60750Y-50500D01*
G54D21*
X74500Y-18000D02*
X75500Y-18000D01*
X75500Y-18000D02*
X75500Y-19000D01*
X75500Y-19000D02*
X74500Y-19000D01*
X74500Y-19000D02*
X74500Y-18000D01*
X75500Y-20500D02*
X75490Y-20597D01*
X75490Y-20597D02*
X75462Y-20690D01*
X75462Y-20690D02*
X75416Y-20776D01*
X75416Y-20776D02*
X75354Y-20852D01*
X75354Y-20852D02*
X75279Y-20914D01*
X75279Y-20914D02*
X75193Y-20960D01*
X75193Y-20960D02*
X75100Y-20989D01*
X75100Y-20989D02*
X75003Y-20999D01*
X75003Y-20999D02*
X74907Y-20991D01*
X74907Y-20991D02*
X74813Y-20963D01*
X74813Y-20963D02*
X74727Y-20918D01*
X74727Y-20918D02*
X74651Y-20857D01*
X74651Y-20857D02*
X74588Y-20782D01*
X74588Y-20782D02*
X74541Y-20696D01*
X74541Y-20696D02*
X74511Y-20603D01*
X74511Y-20603D02*
X74501Y-20506D01*
X74501Y-20506D02*
X74509Y-20410D01*
X74509Y-20410D02*
X74536Y-20316D01*
X74536Y-20316D02*
X74580Y-20230D01*
X74580Y-20230D02*
X74641Y-20153D01*
X74641Y-20153D02*
X74715Y-20090D01*
X74715Y-20090D02*
X74800Y-20042D01*
X74800Y-20042D02*
X74893Y-20012D01*
X74893Y-20012D02*
X74990Y-20001D01*
X74990Y-20001D02*
X75086Y-20008D01*
X75086Y-20008D02*
X75180Y-20034D01*
X75180Y-20034D02*
X75267Y-20078D01*
X75267Y-20078D02*
X75344Y-20138D01*
X75344Y-20138D02*
X75408Y-20212D01*
X75408Y-20212D02*
X75456Y-20297D01*
X75456Y-20297D02*
X75487Y-20390D01*
X75487Y-20390D02*
X75499Y-20487D01*
X75499Y-20487D02*
X75500Y-20500D01*
X74500Y-13000D02*
X75500Y-13000D01*
X75500Y-13000D02*
X75500Y-14000D01*
X75500Y-14000D02*
X74500Y-14000D01*
X74500Y-14000D02*
X74500Y-13000D01*
X75500Y-15500D02*
X75490Y-15597D01*
X75490Y-15597D02*
X75462Y-15690D01*
X75462Y-15690D02*
X75416Y-15776D01*
X75416Y-15776D02*
X75354Y-15852D01*
X75354Y-15852D02*
X75279Y-15914D01*
X75279Y-15914D02*
X75193Y-15960D01*
X75193Y-15960D02*
X75100Y-15989D01*
X75100Y-15989D02*
X75003Y-15999D01*
X75003Y-15999D02*
X74907Y-15991D01*
X74907Y-15991D02*
X74813Y-15963D01*
X74813Y-15963D02*
X74727Y-15918D01*
X74727Y-15918D02*
X74651Y-15857D01*
X74651Y-15857D02*
X74588Y-15782D01*
X74588Y-15782D02*
X74541Y-15696D01*
X74541Y-15696D02*
X74511Y-15603D01*
X74511Y-15603D02*
X74501Y-15506D01*
X74501Y-15506D02*
X74509Y-15410D01*
X74509Y-15410D02*
X74536Y-15316D01*
X74536Y-15316D02*
X74580Y-15230D01*
X74580Y-15230D02*
X74641Y-15153D01*
X74641Y-15153D02*
X74715Y-15090D01*
X74715Y-15090D02*
X74800Y-15042D01*
X74800Y-15042D02*
X74893Y-15012D01*
X74893Y-15012D02*
X74990Y-15001D01*
X74990Y-15001D02*
X75086Y-15008D01*
X75086Y-15008D02*
X75180Y-15034D01*
X75180Y-15034D02*
X75267Y-15078D01*
X75267Y-15078D02*
X75344Y-15138D01*
X75344Y-15138D02*
X75408Y-15212D01*
X75408Y-15212D02*
X75456Y-15297D01*
X75456Y-15297D02*
X75487Y-15390D01*
X75487Y-15390D02*
X75499Y-15487D01*
X75499Y-15487D02*
X75500Y-15500D01*
X74500Y-23500D02*
X75500Y-23500D01*
X75500Y-23500D02*
X75500Y-24500D01*
X75500Y-24500D02*
X74500Y-24500D01*
X74500Y-24500D02*
X74500Y-23500D01*
X75500Y-26000D02*
X75490Y-26097D01*
X75490Y-26097D02*
X75462Y-26190D01*
X75462Y-26190D02*
X75416Y-26276D01*
X75416Y-26276D02*
X75354Y-26352D01*
X75354Y-26352D02*
X75279Y-26414D01*
X75279Y-26414D02*
X75193Y-26460D01*
X75193Y-26460D02*
X75100Y-26489D01*
X75100Y-26489D02*
X75003Y-26499D01*
X75003Y-26499D02*
X74907Y-26491D01*
X74907Y-26491D02*
X74813Y-26463D01*
X74813Y-26463D02*
X74727Y-26418D01*
X74727Y-26418D02*
X74651Y-26357D01*
X74651Y-26357D02*
X74588Y-26282D01*
X74588Y-26282D02*
X74541Y-26196D01*
X74541Y-26196D02*
X74511Y-26103D01*
X74511Y-26103D02*
X74501Y-26006D01*
X74501Y-26006D02*
X74509Y-25910D01*
X74509Y-25910D02*
X74536Y-25816D01*
X74536Y-25816D02*
X74580Y-25730D01*
X74580Y-25730D02*
X74641Y-25653D01*
X74641Y-25653D02*
X74715Y-25590D01*
X74715Y-25590D02*
X74800Y-25542D01*
X74800Y-25542D02*
X74893Y-25512D01*
X74893Y-25512D02*
X74990Y-25501D01*
X74990Y-25501D02*
X75086Y-25508D01*
X75086Y-25508D02*
X75180Y-25534D01*
X75180Y-25534D02*
X75267Y-25578D01*
X75267Y-25578D02*
X75344Y-25638D01*
X75344Y-25638D02*
X75408Y-25712D01*
X75408Y-25712D02*
X75456Y-25797D01*
X75456Y-25797D02*
X75487Y-25890D01*
X75487Y-25890D02*
X75499Y-25987D01*
X75499Y-25987D02*
X75500Y-26000D01*
X74500Y-29500D02*
X75500Y-29500D01*
X75500Y-29500D02*
X75500Y-30500D01*
X75500Y-30500D02*
X74500Y-30500D01*
X74500Y-30500D02*
X74500Y-29500D01*
X75500Y-32000D02*
X75490Y-32097D01*
X75490Y-32097D02*
X75462Y-32190D01*
X75462Y-32190D02*
X75416Y-32276D01*
X75416Y-32276D02*
X75354Y-32352D01*
X75354Y-32352D02*
X75279Y-32414D01*
X75279Y-32414D02*
X75193Y-32460D01*
X75193Y-32460D02*
X75100Y-32489D01*
X75100Y-32489D02*
X75003Y-32499D01*
X75003Y-32499D02*
X74907Y-32491D01*
X74907Y-32491D02*
X74813Y-32463D01*
X74813Y-32463D02*
X74727Y-32418D01*
X74727Y-32418D02*
X74651Y-32357D01*
X74651Y-32357D02*
X74588Y-32282D01*
X74588Y-32282D02*
X74541Y-32196D01*
X74541Y-32196D02*
X74511Y-32103D01*
X74511Y-32103D02*
X74501Y-32006D01*
X74501Y-32006D02*
X74509Y-31910D01*
X74509Y-31910D02*
X74536Y-31816D01*
X74536Y-31816D02*
X74580Y-31730D01*
X74580Y-31730D02*
X74641Y-31653D01*
X74641Y-31653D02*
X74715Y-31590D01*
X74715Y-31590D02*
X74800Y-31542D01*
X74800Y-31542D02*
X74893Y-31512D01*
X74893Y-31512D02*
X74990Y-31501D01*
X74990Y-31501D02*
X75086Y-31508D01*
X75086Y-31508D02*
X75180Y-31534D01*
X75180Y-31534D02*
X75267Y-31578D01*
X75267Y-31578D02*
X75344Y-31638D01*
X75344Y-31638D02*
X75408Y-31712D01*
X75408Y-31712D02*
X75456Y-31797D01*
X75456Y-31797D02*
X75487Y-31890D01*
X75487Y-31890D02*
X75499Y-31987D01*
X75499Y-31987D02*
X75500Y-32000D01*
X74500Y-41500D02*
X75500Y-41500D01*
X75500Y-41500D02*
X75500Y-42500D01*
X75500Y-42500D02*
X74500Y-42500D01*
X74500Y-42500D02*
X74500Y-41500D01*
X75500Y-44000D02*
X75490Y-44097D01*
X75490Y-44097D02*
X75462Y-44190D01*
X75462Y-44190D02*
X75416Y-44276D01*
X75416Y-44276D02*
X75354Y-44352D01*
X75354Y-44352D02*
X75279Y-44414D01*
X75279Y-44414D02*
X75193Y-44460D01*
X75193Y-44460D02*
X75100Y-44489D01*
X75100Y-44489D02*
X75003Y-44499D01*
X75003Y-44499D02*
X74907Y-44491D01*
X74907Y-44491D02*
X74813Y-44463D01*
X74813Y-44463D02*
X74727Y-44418D01*
X74727Y-44418D02*
X74651Y-44357D01*
X74651Y-44357D02*
X74588Y-44282D01*
X74588Y-44282D02*
X74541Y-44196D01*
X74541Y-44196D02*
X74511Y-44103D01*
X74511Y-44103D02*
X74501Y-44006D01*
X74501Y-44006D02*
X74509Y-43910D01*
X74509Y-43910D02*
X74536Y-43816D01*
X74536Y-43816D02*
X74580Y-43730D01*
X74580Y-43730D02*
X74641Y-43653D01*
X74641Y-43653D02*
X74715Y-43590D01*
X74715Y-43590D02*
X74800Y-43542D01*
X74800Y-43542D02*
X74893Y-43512D01*
X74893Y-43512D02*
X74990Y-43501D01*
X74990Y-43501D02*
X75086Y-43508D01*
X75086Y-43508D02*
X75180Y-43534D01*
X75180Y-43534D02*
X75267Y-43578D01*
X75267Y-43578D02*
X75344Y-43638D01*
X75344Y-43638D02*
X75408Y-43712D01*
X75408Y-43712D02*
X75456Y-43797D01*
X75456Y-43797D02*
X75487Y-43890D01*
X75487Y-43890D02*
X75499Y-43987D01*
X75499Y-43987D02*
X75500Y-44000D01*
X74500Y-35500D02*
X75500Y-35500D01*
X75500Y-35500D02*
X75500Y-36500D01*
X75500Y-36500D02*
X74500Y-36500D01*
X74500Y-36500D02*
X74500Y-35500D01*
X75500Y-38000D02*
X75490Y-38097D01*
X75490Y-38097D02*
X75462Y-38190D01*
X75462Y-38190D02*
X75416Y-38276D01*
X75416Y-38276D02*
X75354Y-38352D01*
X75354Y-38352D02*
X75279Y-38414D01*
X75279Y-38414D02*
X75193Y-38460D01*
X75193Y-38460D02*
X75100Y-38489D01*
X75100Y-38489D02*
X75003Y-38499D01*
X75003Y-38499D02*
X74907Y-38491D01*
X74907Y-38491D02*
X74813Y-38463D01*
X74813Y-38463D02*
X74727Y-38418D01*
X74727Y-38418D02*
X74651Y-38357D01*
X74651Y-38357D02*
X74588Y-38282D01*
X74588Y-38282D02*
X74541Y-38196D01*
X74541Y-38196D02*
X74511Y-38103D01*
X74511Y-38103D02*
X74501Y-38006D01*
X74501Y-38006D02*
X74509Y-37910D01*
X74509Y-37910D02*
X74536Y-37816D01*
X74536Y-37816D02*
X74580Y-37730D01*
X74580Y-37730D02*
X74641Y-37653D01*
X74641Y-37653D02*
X74715Y-37590D01*
X74715Y-37590D02*
X74800Y-37542D01*
X74800Y-37542D02*
X74893Y-37512D01*
X74893Y-37512D02*
X74990Y-37501D01*
X74990Y-37501D02*
X75086Y-37508D01*
X75086Y-37508D02*
X75180Y-37534D01*
X75180Y-37534D02*
X75267Y-37578D01*
X75267Y-37578D02*
X75344Y-37638D01*
X75344Y-37638D02*
X75408Y-37712D01*
X75408Y-37712D02*
X75456Y-37797D01*
X75456Y-37797D02*
X75487Y-37890D01*
X75487Y-37890D02*
X75499Y-37987D01*
X75499Y-37987D02*
X75500Y-38000D01*
X57250Y-16000D02*
X57235Y-16145D01*
X57235Y-16145D02*
X57193Y-16285D01*
X57193Y-16285D02*
X57124Y-16415D01*
X57124Y-16415D02*
X57032Y-16528D01*
X57032Y-16528D02*
X56919Y-16621D01*
X56919Y-16621D02*
X56790Y-16691D01*
X56790Y-16691D02*
X56650Y-16734D01*
X56650Y-16734D02*
X56505Y-16749D01*
X56505Y-16749D02*
X56360Y-16736D01*
X56360Y-16736D02*
X56220Y-16695D01*
X56220Y-16695D02*
X56090Y-16627D01*
X56090Y-16627D02*
X55976Y-16535D01*
X55976Y-16535D02*
X55882Y-16423D01*
X55882Y-16423D02*
X55811Y-16295D01*
X55811Y-16295D02*
X55767Y-16155D01*
X55767Y-16155D02*
X55751Y-16010D01*
X55751Y-16010D02*
X55763Y-15865D01*
X55763Y-15865D02*
X55803Y-15724D01*
X55803Y-15724D02*
X55870Y-15594D01*
X55870Y-15594D02*
X55961Y-15480D01*
X55961Y-15480D02*
X56072Y-15385D01*
X56072Y-15385D02*
X56200Y-15313D01*
X56200Y-15313D02*
X56339Y-15268D01*
X56339Y-15268D02*
X56485Y-15251D01*
X56485Y-15251D02*
X56630Y-15262D01*
X56630Y-15262D02*
X56771Y-15301D01*
X56771Y-15301D02*
X56901Y-15367D01*
X56901Y-15367D02*
X57017Y-15457D01*
X57017Y-15457D02*
X57112Y-15568D01*
X57112Y-15568D02*
X57185Y-15695D01*
X57185Y-15695D02*
X57231Y-15834D01*
X57231Y-15834D02*
X57249Y-15980D01*
X57249Y-15980D02*
X57250Y-16000D01*
X59250Y-16000D02*
X59235Y-16145D01*
X59235Y-16145D02*
X59193Y-16285D01*
X59193Y-16285D02*
X59124Y-16415D01*
X59124Y-16415D02*
X59032Y-16528D01*
X59032Y-16528D02*
X58919Y-16621D01*
X58919Y-16621D02*
X58790Y-16691D01*
X58790Y-16691D02*
X58650Y-16734D01*
X58650Y-16734D02*
X58505Y-16749D01*
X58505Y-16749D02*
X58360Y-16736D01*
X58360Y-16736D02*
X58220Y-16695D01*
X58220Y-16695D02*
X58090Y-16627D01*
X58090Y-16627D02*
X57976Y-16535D01*
X57976Y-16535D02*
X57882Y-16423D01*
X57882Y-16423D02*
X57811Y-16295D01*
X57811Y-16295D02*
X57767Y-16155D01*
X57767Y-16155D02*
X57751Y-16010D01*
X57751Y-16010D02*
X57763Y-15865D01*
X57763Y-15865D02*
X57803Y-15724D01*
X57803Y-15724D02*
X57870Y-15594D01*
X57870Y-15594D02*
X57961Y-15480D01*
X57961Y-15480D02*
X58072Y-15385D01*
X58072Y-15385D02*
X58200Y-15313D01*
X58200Y-15313D02*
X58339Y-15268D01*
X58339Y-15268D02*
X58485Y-15251D01*
X58485Y-15251D02*
X58630Y-15262D01*
X58630Y-15262D02*
X58771Y-15301D01*
X58771Y-15301D02*
X58901Y-15367D01*
X58901Y-15367D02*
X59017Y-15457D01*
X59017Y-15457D02*
X59112Y-15568D01*
X59112Y-15568D02*
X59185Y-15695D01*
X59185Y-15695D02*
X59231Y-15834D01*
X59231Y-15834D02*
X59249Y-15980D01*
X59249Y-15980D02*
X59250Y-16000D01*
X53750Y-16750D02*
X53750Y-15250D01*
X53750Y-15250D02*
X55250Y-15250D01*
X55250Y-15250D02*
X55250Y-16750D01*
X55250Y-16750D02*
X53750Y-16750D01*
X61250Y-16000D02*
X61235Y-16145D01*
X61235Y-16145D02*
X61193Y-16285D01*
X61193Y-16285D02*
X61124Y-16415D01*
X61124Y-16415D02*
X61032Y-16528D01*
X61032Y-16528D02*
X60919Y-16621D01*
X60919Y-16621D02*
X60790Y-16691D01*
X60790Y-16691D02*
X60650Y-16734D01*
X60650Y-16734D02*
X60505Y-16749D01*
X60505Y-16749D02*
X60360Y-16736D01*
X60360Y-16736D02*
X60220Y-16695D01*
X60220Y-16695D02*
X60090Y-16627D01*
X60090Y-16627D02*
X59976Y-16535D01*
X59976Y-16535D02*
X59882Y-16423D01*
X59882Y-16423D02*
X59811Y-16295D01*
X59811Y-16295D02*
X59767Y-16155D01*
X59767Y-16155D02*
X59751Y-16010D01*
X59751Y-16010D02*
X59763Y-15865D01*
X59763Y-15865D02*
X59803Y-15724D01*
X59803Y-15724D02*
X59870Y-15594D01*
X59870Y-15594D02*
X59961Y-15480D01*
X59961Y-15480D02*
X60072Y-15385D01*
X60072Y-15385D02*
X60200Y-15313D01*
X60200Y-15313D02*
X60339Y-15268D01*
X60339Y-15268D02*
X60485Y-15251D01*
X60485Y-15251D02*
X60630Y-15262D01*
X60630Y-15262D02*
X60771Y-15301D01*
X60771Y-15301D02*
X60901Y-15367D01*
X60901Y-15367D02*
X61017Y-15457D01*
X61017Y-15457D02*
X61112Y-15568D01*
X61112Y-15568D02*
X61185Y-15695D01*
X61185Y-15695D02*
X61231Y-15834D01*
X61231Y-15834D02*
X61249Y-15980D01*
X61249Y-15980D02*
X61250Y-16000D01*
X47750Y-16000D02*
X47735Y-16145D01*
X47735Y-16145D02*
X47693Y-16285D01*
X47693Y-16285D02*
X47624Y-16415D01*
X47624Y-16415D02*
X47532Y-16528D01*
X47532Y-16528D02*
X47419Y-16621D01*
X47419Y-16621D02*
X47290Y-16691D01*
X47290Y-16691D02*
X47150Y-16734D01*
X47150Y-16734D02*
X47005Y-16749D01*
X47005Y-16749D02*
X46860Y-16736D01*
X46860Y-16736D02*
X46720Y-16695D01*
X46720Y-16695D02*
X46590Y-16627D01*
X46590Y-16627D02*
X46476Y-16535D01*
X46476Y-16535D02*
X46382Y-16423D01*
X46382Y-16423D02*
X46311Y-16295D01*
X46311Y-16295D02*
X46267Y-16155D01*
X46267Y-16155D02*
X46251Y-16010D01*
X46251Y-16010D02*
X46263Y-15865D01*
X46263Y-15865D02*
X46303Y-15724D01*
X46303Y-15724D02*
X46370Y-15594D01*
X46370Y-15594D02*
X46461Y-15480D01*
X46461Y-15480D02*
X46572Y-15385D01*
X46572Y-15385D02*
X46700Y-15313D01*
X46700Y-15313D02*
X46839Y-15268D01*
X46839Y-15268D02*
X46985Y-15251D01*
X46985Y-15251D02*
X47130Y-15262D01*
X47130Y-15262D02*
X47271Y-15301D01*
X47271Y-15301D02*
X47401Y-15367D01*
X47401Y-15367D02*
X47517Y-15457D01*
X47517Y-15457D02*
X47612Y-15568D01*
X47612Y-15568D02*
X47685Y-15695D01*
X47685Y-15695D02*
X47731Y-15834D01*
X47731Y-15834D02*
X47749Y-15980D01*
X47749Y-15980D02*
X47750Y-16000D01*
X49750Y-16000D02*
X49735Y-16145D01*
X49735Y-16145D02*
X49693Y-16285D01*
X49693Y-16285D02*
X49624Y-16415D01*
X49624Y-16415D02*
X49532Y-16528D01*
X49532Y-16528D02*
X49419Y-16621D01*
X49419Y-16621D02*
X49290Y-16691D01*
X49290Y-16691D02*
X49150Y-16734D01*
X49150Y-16734D02*
X49005Y-16749D01*
X49005Y-16749D02*
X48860Y-16736D01*
X48860Y-16736D02*
X48720Y-16695D01*
X48720Y-16695D02*
X48590Y-16627D01*
X48590Y-16627D02*
X48476Y-16535D01*
X48476Y-16535D02*
X48382Y-16423D01*
X48382Y-16423D02*
X48311Y-16295D01*
X48311Y-16295D02*
X48267Y-16155D01*
X48267Y-16155D02*
X48251Y-16010D01*
X48251Y-16010D02*
X48263Y-15865D01*
X48263Y-15865D02*
X48303Y-15724D01*
X48303Y-15724D02*
X48370Y-15594D01*
X48370Y-15594D02*
X48461Y-15480D01*
X48461Y-15480D02*
X48572Y-15385D01*
X48572Y-15385D02*
X48700Y-15313D01*
X48700Y-15313D02*
X48839Y-15268D01*
X48839Y-15268D02*
X48985Y-15251D01*
X48985Y-15251D02*
X49130Y-15262D01*
X49130Y-15262D02*
X49271Y-15301D01*
X49271Y-15301D02*
X49401Y-15367D01*
X49401Y-15367D02*
X49517Y-15457D01*
X49517Y-15457D02*
X49612Y-15568D01*
X49612Y-15568D02*
X49685Y-15695D01*
X49685Y-15695D02*
X49731Y-15834D01*
X49731Y-15834D02*
X49749Y-15980D01*
X49749Y-15980D02*
X49750Y-16000D01*
X44250Y-16750D02*
X44250Y-15250D01*
X44250Y-15250D02*
X45750Y-15250D01*
X45750Y-15250D02*
X45750Y-16750D01*
X45750Y-16750D02*
X44250Y-16750D01*
X51750Y-16000D02*
X51735Y-16145D01*
X51735Y-16145D02*
X51693Y-16285D01*
X51693Y-16285D02*
X51624Y-16415D01*
X51624Y-16415D02*
X51532Y-16528D01*
X51532Y-16528D02*
X51419Y-16621D01*
X51419Y-16621D02*
X51290Y-16691D01*
X51290Y-16691D02*
X51150Y-16734D01*
X51150Y-16734D02*
X51005Y-16749D01*
X51005Y-16749D02*
X50860Y-16736D01*
X50860Y-16736D02*
X50720Y-16695D01*
X50720Y-16695D02*
X50590Y-16627D01*
X50590Y-16627D02*
X50476Y-16535D01*
X50476Y-16535D02*
X50382Y-16423D01*
X50382Y-16423D02*
X50311Y-16295D01*
X50311Y-16295D02*
X50267Y-16155D01*
X50267Y-16155D02*
X50251Y-16010D01*
X50251Y-16010D02*
X50263Y-15865D01*
X50263Y-15865D02*
X50303Y-15724D01*
X50303Y-15724D02*
X50370Y-15594D01*
X50370Y-15594D02*
X50461Y-15480D01*
X50461Y-15480D02*
X50572Y-15385D01*
X50572Y-15385D02*
X50700Y-15313D01*
X50700Y-15313D02*
X50839Y-15268D01*
X50839Y-15268D02*
X50985Y-15251D01*
X50985Y-15251D02*
X51130Y-15262D01*
X51130Y-15262D02*
X51271Y-15301D01*
X51271Y-15301D02*
X51401Y-15367D01*
X51401Y-15367D02*
X51517Y-15457D01*
X51517Y-15457D02*
X51612Y-15568D01*
X51612Y-15568D02*
X51685Y-15695D01*
X51685Y-15695D02*
X51731Y-15834D01*
X51731Y-15834D02*
X51749Y-15980D01*
X51749Y-15980D02*
X51750Y-16000D01*
X19330Y-16000D02*
X19323Y-16064D01*
X19323Y-16064D02*
X19305Y-16125D01*
X19305Y-16125D02*
X19274Y-16182D01*
X19274Y-16182D02*
X19234Y-16232D01*
X19234Y-16232D02*
X19184Y-16273D01*
X19184Y-16273D02*
X19127Y-16304D01*
X19127Y-16304D02*
X19066Y-16323D01*
X19066Y-16323D02*
X19002Y-16329D01*
X19002Y-16329D02*
X18939Y-16324D01*
X18939Y-16324D02*
X18877Y-16305D01*
X18877Y-16305D02*
X18820Y-16276D01*
X18820Y-16276D02*
X18770Y-16235D01*
X18770Y-16235D02*
X18728Y-16186D01*
X18728Y-16186D02*
X18697Y-16130D01*
X18697Y-16130D02*
X18678Y-16068D01*
X18678Y-16068D02*
X18671Y-16004D01*
X18671Y-16004D02*
X18676Y-15941D01*
X18676Y-15941D02*
X18694Y-15879D01*
X18694Y-15879D02*
X18723Y-15822D01*
X18723Y-15822D02*
X18763Y-15771D01*
X18763Y-15771D02*
X18812Y-15730D01*
X18812Y-15730D02*
X18868Y-15698D01*
X18868Y-15698D02*
X18930Y-15678D01*
X18930Y-15678D02*
X18994Y-15671D01*
X18994Y-15671D02*
X19057Y-15676D01*
X19057Y-15676D02*
X19119Y-15693D01*
X19119Y-15693D02*
X19176Y-15722D01*
X19176Y-15722D02*
X19227Y-15762D01*
X19227Y-15762D02*
X19269Y-15810D01*
X19269Y-15810D02*
X19301Y-15866D01*
X19301Y-15866D02*
X19321Y-15927D01*
X19321Y-15927D02*
X19329Y-15991D01*
X19329Y-15991D02*
X19330Y-16000D01*
X20330Y-16000D02*
X20323Y-16064D01*
X20323Y-16064D02*
X20305Y-16125D01*
X20305Y-16125D02*
X20274Y-16182D01*
X20274Y-16182D02*
X20234Y-16232D01*
X20234Y-16232D02*
X20184Y-16273D01*
X20184Y-16273D02*
X20127Y-16304D01*
X20127Y-16304D02*
X20066Y-16323D01*
X20066Y-16323D02*
X20002Y-16329D01*
X20002Y-16329D02*
X19939Y-16324D01*
X19939Y-16324D02*
X19877Y-16305D01*
X19877Y-16305D02*
X19820Y-16276D01*
X19820Y-16276D02*
X19770Y-16235D01*
X19770Y-16235D02*
X19728Y-16186D01*
X19728Y-16186D02*
X19697Y-16130D01*
X19697Y-16130D02*
X19678Y-16068D01*
X19678Y-16068D02*
X19671Y-16004D01*
X19671Y-16004D02*
X19676Y-15941D01*
X19676Y-15941D02*
X19694Y-15879D01*
X19694Y-15879D02*
X19723Y-15822D01*
X19723Y-15822D02*
X19763Y-15771D01*
X19763Y-15771D02*
X19812Y-15730D01*
X19812Y-15730D02*
X19868Y-15698D01*
X19868Y-15698D02*
X19930Y-15678D01*
X19930Y-15678D02*
X19994Y-15671D01*
X19994Y-15671D02*
X20057Y-15676D01*
X20057Y-15676D02*
X20119Y-15693D01*
X20119Y-15693D02*
X20176Y-15722D01*
X20176Y-15722D02*
X20227Y-15762D01*
X20227Y-15762D02*
X20269Y-15810D01*
X20269Y-15810D02*
X20301Y-15866D01*
X20301Y-15866D02*
X20321Y-15927D01*
X20321Y-15927D02*
X20329Y-15991D01*
X20329Y-15991D02*
X20330Y-16000D01*
X34300Y-48200D02*
X34300Y-48800D01*
X34300Y-48800D02*
X33700Y-48800D01*
X33700Y-48800D02*
X33700Y-48200D01*
X33700Y-48200D02*
X34300Y-48200D01*
X33300Y-48500D02*
X33294Y-48558D01*
X33294Y-48558D02*
X33277Y-48614D01*
X33277Y-48614D02*
X33249Y-48666D01*
X33249Y-48666D02*
X33212Y-48711D01*
X33212Y-48711D02*
X33167Y-48748D01*
X33167Y-48748D02*
X33116Y-48776D01*
X33116Y-48776D02*
X33060Y-48793D01*
X33060Y-48793D02*
X33002Y-48799D01*
X33002Y-48799D02*
X32944Y-48794D01*
X32944Y-48794D02*
X32888Y-48778D01*
X32888Y-48778D02*
X32836Y-48751D01*
X32836Y-48751D02*
X32791Y-48714D01*
X32791Y-48714D02*
X32753Y-48669D01*
X32753Y-48669D02*
X32725Y-48618D01*
X32725Y-48618D02*
X32707Y-48562D01*
X32707Y-48562D02*
X32701Y-48504D01*
X32701Y-48504D02*
X32705Y-48446D01*
X32705Y-48446D02*
X32722Y-48390D01*
X32722Y-48390D02*
X32748Y-48338D01*
X32748Y-48338D02*
X32785Y-48292D01*
X32785Y-48292D02*
X32829Y-48254D01*
X32829Y-48254D02*
X32880Y-48226D01*
X32880Y-48226D02*
X32936Y-48207D01*
X32936Y-48207D02*
X32994Y-48201D01*
X32994Y-48201D02*
X33052Y-48205D01*
X33052Y-48205D02*
X33108Y-48221D01*
X33108Y-48221D02*
X33160Y-48247D01*
X33160Y-48247D02*
X33206Y-48283D01*
X33206Y-48283D02*
X33245Y-48328D01*
X33245Y-48328D02*
X33274Y-48378D01*
X33274Y-48378D02*
X33292Y-48434D01*
X33292Y-48434D02*
X33299Y-48492D01*
X33299Y-48492D02*
X33300Y-48500D01*
X32300Y-48500D02*
X32294Y-48558D01*
X32294Y-48558D02*
X32277Y-48614D01*
X32277Y-48614D02*
X32249Y-48666D01*
X32249Y-48666D02*
X32212Y-48711D01*
X32212Y-48711D02*
X32167Y-48748D01*
X32167Y-48748D02*
X32116Y-48776D01*
X32116Y-48776D02*
X32060Y-48793D01*
X32060Y-48793D02*
X32002Y-48799D01*
X32002Y-48799D02*
X31944Y-48794D01*
X31944Y-48794D02*
X31888Y-48778D01*
X31888Y-48778D02*
X31836Y-48751D01*
X31836Y-48751D02*
X31791Y-48714D01*
X31791Y-48714D02*
X31753Y-48669D01*
X31753Y-48669D02*
X31725Y-48618D01*
X31725Y-48618D02*
X31707Y-48562D01*
X31707Y-48562D02*
X31701Y-48504D01*
X31701Y-48504D02*
X31705Y-48446D01*
X31705Y-48446D02*
X31722Y-48390D01*
X31722Y-48390D02*
X31748Y-48338D01*
X31748Y-48338D02*
X31785Y-48292D01*
X31785Y-48292D02*
X31829Y-48254D01*
X31829Y-48254D02*
X31880Y-48226D01*
X31880Y-48226D02*
X31936Y-48207D01*
X31936Y-48207D02*
X31994Y-48201D01*
X31994Y-48201D02*
X32052Y-48205D01*
X32052Y-48205D02*
X32108Y-48221D01*
X32108Y-48221D02*
X32160Y-48247D01*
X32160Y-48247D02*
X32206Y-48283D01*
X32206Y-48283D02*
X32245Y-48328D01*
X32245Y-48328D02*
X32274Y-48378D01*
X32274Y-48378D02*
X32292Y-48434D01*
X32292Y-48434D02*
X32299Y-48492D01*
X32299Y-48492D02*
X32300Y-48500D01*
X31300Y-48500D02*
X31294Y-48558D01*
X31294Y-48558D02*
X31277Y-48614D01*
X31277Y-48614D02*
X31249Y-48666D01*
X31249Y-48666D02*
X31212Y-48711D01*
X31212Y-48711D02*
X31167Y-48748D01*
X31167Y-48748D02*
X31116Y-48776D01*
X31116Y-48776D02*
X31060Y-48793D01*
X31060Y-48793D02*
X31002Y-48799D01*
X31002Y-48799D02*
X30944Y-48794D01*
X30944Y-48794D02*
X30888Y-48778D01*
X30888Y-48778D02*
X30836Y-48751D01*
X30836Y-48751D02*
X30791Y-48714D01*
X30791Y-48714D02*
X30753Y-48669D01*
X30753Y-48669D02*
X30725Y-48618D01*
X30725Y-48618D02*
X30707Y-48562D01*
X30707Y-48562D02*
X30701Y-48504D01*
X30701Y-48504D02*
X30705Y-48446D01*
X30705Y-48446D02*
X30722Y-48390D01*
X30722Y-48390D02*
X30748Y-48338D01*
X30748Y-48338D02*
X30785Y-48292D01*
X30785Y-48292D02*
X30829Y-48254D01*
X30829Y-48254D02*
X30880Y-48226D01*
X30880Y-48226D02*
X30936Y-48207D01*
X30936Y-48207D02*
X30994Y-48201D01*
X30994Y-48201D02*
X31052Y-48205D01*
X31052Y-48205D02*
X31108Y-48221D01*
X31108Y-48221D02*
X31160Y-48247D01*
X31160Y-48247D02*
X31206Y-48283D01*
X31206Y-48283D02*
X31245Y-48328D01*
X31245Y-48328D02*
X31274Y-48378D01*
X31274Y-48378D02*
X31292Y-48434D01*
X31292Y-48434D02*
X31299Y-48492D01*
X31299Y-48492D02*
X31300Y-48500D01*
X30300Y-48500D02*
X30294Y-48558D01*
X30294Y-48558D02*
X30277Y-48614D01*
X30277Y-48614D02*
X30249Y-48666D01*
X30249Y-48666D02*
X30212Y-48711D01*
X30212Y-48711D02*
X30167Y-48748D01*
X30167Y-48748D02*
X30116Y-48776D01*
X30116Y-48776D02*
X30060Y-48793D01*
X30060Y-48793D02*
X30002Y-48799D01*
X30002Y-48799D02*
X29944Y-48794D01*
X29944Y-48794D02*
X29888Y-48778D01*
X29888Y-48778D02*
X29836Y-48751D01*
X29836Y-48751D02*
X29791Y-48714D01*
X29791Y-48714D02*
X29753Y-48669D01*
X29753Y-48669D02*
X29725Y-48618D01*
X29725Y-48618D02*
X29707Y-48562D01*
X29707Y-48562D02*
X29701Y-48504D01*
X29701Y-48504D02*
X29705Y-48446D01*
X29705Y-48446D02*
X29722Y-48390D01*
X29722Y-48390D02*
X29748Y-48338D01*
X29748Y-48338D02*
X29785Y-48292D01*
X29785Y-48292D02*
X29829Y-48254D01*
X29829Y-48254D02*
X29880Y-48226D01*
X29880Y-48226D02*
X29936Y-48207D01*
X29936Y-48207D02*
X29994Y-48201D01*
X29994Y-48201D02*
X30052Y-48205D01*
X30052Y-48205D02*
X30108Y-48221D01*
X30108Y-48221D02*
X30160Y-48247D01*
X30160Y-48247D02*
X30206Y-48283D01*
X30206Y-48283D02*
X30245Y-48328D01*
X30245Y-48328D02*
X30274Y-48378D01*
X30274Y-48378D02*
X30292Y-48434D01*
X30292Y-48434D02*
X30299Y-48492D01*
X30299Y-48492D02*
X30300Y-48500D01*
X29300Y-48500D02*
X29294Y-48558D01*
X29294Y-48558D02*
X29277Y-48614D01*
X29277Y-48614D02*
X29249Y-48666D01*
X29249Y-48666D02*
X29212Y-48711D01*
X29212Y-48711D02*
X29167Y-48748D01*
X29167Y-48748D02*
X29116Y-48776D01*
X29116Y-48776D02*
X29060Y-48793D01*
X29060Y-48793D02*
X29002Y-48799D01*
X29002Y-48799D02*
X28944Y-48794D01*
X28944Y-48794D02*
X28888Y-48778D01*
X28888Y-48778D02*
X28836Y-48751D01*
X28836Y-48751D02*
X28791Y-48714D01*
X28791Y-48714D02*
X28753Y-48669D01*
X28753Y-48669D02*
X28725Y-48618D01*
X28725Y-48618D02*
X28707Y-48562D01*
X28707Y-48562D02*
X28701Y-48504D01*
X28701Y-48504D02*
X28705Y-48446D01*
X28705Y-48446D02*
X28722Y-48390D01*
X28722Y-48390D02*
X28748Y-48338D01*
X28748Y-48338D02*
X28785Y-48292D01*
X28785Y-48292D02*
X28829Y-48254D01*
X28829Y-48254D02*
X28880Y-48226D01*
X28880Y-48226D02*
X28936Y-48207D01*
X28936Y-48207D02*
X28994Y-48201D01*
X28994Y-48201D02*
X29052Y-48205D01*
X29052Y-48205D02*
X29108Y-48221D01*
X29108Y-48221D02*
X29160Y-48247D01*
X29160Y-48247D02*
X29206Y-48283D01*
X29206Y-48283D02*
X29245Y-48328D01*
X29245Y-48328D02*
X29274Y-48378D01*
X29274Y-48378D02*
X29292Y-48434D01*
X29292Y-48434D02*
X29299Y-48492D01*
X29299Y-48492D02*
X29300Y-48500D01*
X28300Y-48500D02*
X28294Y-48558D01*
X28294Y-48558D02*
X28277Y-48614D01*
X28277Y-48614D02*
X28249Y-48666D01*
X28249Y-48666D02*
X28212Y-48711D01*
X28212Y-48711D02*
X28167Y-48748D01*
X28167Y-48748D02*
X28116Y-48776D01*
X28116Y-48776D02*
X28060Y-48793D01*
X28060Y-48793D02*
X28002Y-48799D01*
X28002Y-48799D02*
X27944Y-48794D01*
X27944Y-48794D02*
X27888Y-48778D01*
X27888Y-48778D02*
X27836Y-48751D01*
X27836Y-48751D02*
X27791Y-48714D01*
X27791Y-48714D02*
X27753Y-48669D01*
X27753Y-48669D02*
X27725Y-48618D01*
X27725Y-48618D02*
X27707Y-48562D01*
X27707Y-48562D02*
X27701Y-48504D01*
X27701Y-48504D02*
X27705Y-48446D01*
X27705Y-48446D02*
X27722Y-48390D01*
X27722Y-48390D02*
X27748Y-48338D01*
X27748Y-48338D02*
X27785Y-48292D01*
X27785Y-48292D02*
X27829Y-48254D01*
X27829Y-48254D02*
X27880Y-48226D01*
X27880Y-48226D02*
X27936Y-48207D01*
X27936Y-48207D02*
X27994Y-48201D01*
X27994Y-48201D02*
X28052Y-48205D01*
X28052Y-48205D02*
X28108Y-48221D01*
X28108Y-48221D02*
X28160Y-48247D01*
X28160Y-48247D02*
X28206Y-48283D01*
X28206Y-48283D02*
X28245Y-48328D01*
X28245Y-48328D02*
X28274Y-48378D01*
X28274Y-48378D02*
X28292Y-48434D01*
X28292Y-48434D02*
X28299Y-48492D01*
X28299Y-48492D02*
X28300Y-48500D01*
X27300Y-48500D02*
X27294Y-48558D01*
X27294Y-48558D02*
X27277Y-48614D01*
X27277Y-48614D02*
X27249Y-48666D01*
X27249Y-48666D02*
X27212Y-48711D01*
X27212Y-48711D02*
X27167Y-48748D01*
X27167Y-48748D02*
X27116Y-48776D01*
X27116Y-48776D02*
X27060Y-48793D01*
X27060Y-48793D02*
X27002Y-48799D01*
X27002Y-48799D02*
X26944Y-48794D01*
X26944Y-48794D02*
X26888Y-48778D01*
X26888Y-48778D02*
X26836Y-48751D01*
X26836Y-48751D02*
X26791Y-48714D01*
X26791Y-48714D02*
X26753Y-48669D01*
X26753Y-48669D02*
X26725Y-48618D01*
X26725Y-48618D02*
X26707Y-48562D01*
X26707Y-48562D02*
X26701Y-48504D01*
X26701Y-48504D02*
X26705Y-48446D01*
X26705Y-48446D02*
X26722Y-48390D01*
X26722Y-48390D02*
X26748Y-48338D01*
X26748Y-48338D02*
X26785Y-48292D01*
X26785Y-48292D02*
X26829Y-48254D01*
X26829Y-48254D02*
X26880Y-48226D01*
X26880Y-48226D02*
X26936Y-48207D01*
X26936Y-48207D02*
X26994Y-48201D01*
X26994Y-48201D02*
X27052Y-48205D01*
X27052Y-48205D02*
X27108Y-48221D01*
X27108Y-48221D02*
X27160Y-48247D01*
X27160Y-48247D02*
X27206Y-48283D01*
X27206Y-48283D02*
X27245Y-48328D01*
X27245Y-48328D02*
X27274Y-48378D01*
X27274Y-48378D02*
X27292Y-48434D01*
X27292Y-48434D02*
X27299Y-48492D01*
X27299Y-48492D02*
X27300Y-48500D01*
X26300Y-48500D02*
X26294Y-48558D01*
X26294Y-48558D02*
X26277Y-48614D01*
X26277Y-48614D02*
X26249Y-48666D01*
X26249Y-48666D02*
X26212Y-48711D01*
X26212Y-48711D02*
X26167Y-48748D01*
X26167Y-48748D02*
X26116Y-48776D01*
X26116Y-48776D02*
X26060Y-48793D01*
X26060Y-48793D02*
X26002Y-48799D01*
X26002Y-48799D02*
X25944Y-48794D01*
X25944Y-48794D02*
X25888Y-48778D01*
X25888Y-48778D02*
X25836Y-48751D01*
X25836Y-48751D02*
X25791Y-48714D01*
X25791Y-48714D02*
X25753Y-48669D01*
X25753Y-48669D02*
X25725Y-48618D01*
X25725Y-48618D02*
X25707Y-48562D01*
X25707Y-48562D02*
X25701Y-48504D01*
X25701Y-48504D02*
X25705Y-48446D01*
X25705Y-48446D02*
X25722Y-48390D01*
X25722Y-48390D02*
X25748Y-48338D01*
X25748Y-48338D02*
X25785Y-48292D01*
X25785Y-48292D02*
X25829Y-48254D01*
X25829Y-48254D02*
X25880Y-48226D01*
X25880Y-48226D02*
X25936Y-48207D01*
X25936Y-48207D02*
X25994Y-48201D01*
X25994Y-48201D02*
X26052Y-48205D01*
X26052Y-48205D02*
X26108Y-48221D01*
X26108Y-48221D02*
X26160Y-48247D01*
X26160Y-48247D02*
X26206Y-48283D01*
X26206Y-48283D02*
X26245Y-48328D01*
X26245Y-48328D02*
X26274Y-48378D01*
X26274Y-48378D02*
X26292Y-48434D01*
X26292Y-48434D02*
X26299Y-48492D01*
X26299Y-48492D02*
X26300Y-48500D01*
X25300Y-48500D02*
X25294Y-48558D01*
X25294Y-48558D02*
X25277Y-48614D01*
X25277Y-48614D02*
X25249Y-48666D01*
X25249Y-48666D02*
X25212Y-48711D01*
X25212Y-48711D02*
X25167Y-48748D01*
X25167Y-48748D02*
X25116Y-48776D01*
X25116Y-48776D02*
X25060Y-48793D01*
X25060Y-48793D02*
X25002Y-48799D01*
X25002Y-48799D02*
X24944Y-48794D01*
X24944Y-48794D02*
X24888Y-48778D01*
X24888Y-48778D02*
X24836Y-48751D01*
X24836Y-48751D02*
X24791Y-48714D01*
X24791Y-48714D02*
X24753Y-48669D01*
X24753Y-48669D02*
X24725Y-48618D01*
X24725Y-48618D02*
X24707Y-48562D01*
X24707Y-48562D02*
X24701Y-48504D01*
X24701Y-48504D02*
X24705Y-48446D01*
X24705Y-48446D02*
X24722Y-48390D01*
X24722Y-48390D02*
X24748Y-48338D01*
X24748Y-48338D02*
X24785Y-48292D01*
X24785Y-48292D02*
X24829Y-48254D01*
X24829Y-48254D02*
X24880Y-48226D01*
X24880Y-48226D02*
X24936Y-48207D01*
X24936Y-48207D02*
X24994Y-48201D01*
X24994Y-48201D02*
X25052Y-48205D01*
X25052Y-48205D02*
X25108Y-48221D01*
X25108Y-48221D02*
X25160Y-48247D01*
X25160Y-48247D02*
X25206Y-48283D01*
X25206Y-48283D02*
X25245Y-48328D01*
X25245Y-48328D02*
X25274Y-48378D01*
X25274Y-48378D02*
X25292Y-48434D01*
X25292Y-48434D02*
X25299Y-48492D01*
X25299Y-48492D02*
X25300Y-48500D01*
X24300Y-48500D02*
X24294Y-48558D01*
X24294Y-48558D02*
X24277Y-48614D01*
X24277Y-48614D02*
X24249Y-48666D01*
X24249Y-48666D02*
X24212Y-48711D01*
X24212Y-48711D02*
X24167Y-48748D01*
X24167Y-48748D02*
X24116Y-48776D01*
X24116Y-48776D02*
X24060Y-48793D01*
X24060Y-48793D02*
X24002Y-48799D01*
X24002Y-48799D02*
X23944Y-48794D01*
X23944Y-48794D02*
X23888Y-48778D01*
X23888Y-48778D02*
X23836Y-48751D01*
X23836Y-48751D02*
X23791Y-48714D01*
X23791Y-48714D02*
X23753Y-48669D01*
X23753Y-48669D02*
X23725Y-48618D01*
X23725Y-48618D02*
X23707Y-48562D01*
X23707Y-48562D02*
X23701Y-48504D01*
X23701Y-48504D02*
X23705Y-48446D01*
X23705Y-48446D02*
X23722Y-48390D01*
X23722Y-48390D02*
X23748Y-48338D01*
X23748Y-48338D02*
X23785Y-48292D01*
X23785Y-48292D02*
X23829Y-48254D01*
X23829Y-48254D02*
X23880Y-48226D01*
X23880Y-48226D02*
X23936Y-48207D01*
X23936Y-48207D02*
X23994Y-48201D01*
X23994Y-48201D02*
X24052Y-48205D01*
X24052Y-48205D02*
X24108Y-48221D01*
X24108Y-48221D02*
X24160Y-48247D01*
X24160Y-48247D02*
X24206Y-48283D01*
X24206Y-48283D02*
X24245Y-48328D01*
X24245Y-48328D02*
X24274Y-48378D01*
X24274Y-48378D02*
X24292Y-48434D01*
X24292Y-48434D02*
X24299Y-48492D01*
X24299Y-48492D02*
X24300Y-48500D01*
X23300Y-48500D02*
X23294Y-48558D01*
X23294Y-48558D02*
X23277Y-48614D01*
X23277Y-48614D02*
X23249Y-48666D01*
X23249Y-48666D02*
X23212Y-48711D01*
X23212Y-48711D02*
X23167Y-48748D01*
X23167Y-48748D02*
X23116Y-48776D01*
X23116Y-48776D02*
X23060Y-48793D01*
X23060Y-48793D02*
X23002Y-48799D01*
X23002Y-48799D02*
X22944Y-48794D01*
X22944Y-48794D02*
X22888Y-48778D01*
X22888Y-48778D02*
X22836Y-48751D01*
X22836Y-48751D02*
X22791Y-48714D01*
X22791Y-48714D02*
X22753Y-48669D01*
X22753Y-48669D02*
X22725Y-48618D01*
X22725Y-48618D02*
X22707Y-48562D01*
X22707Y-48562D02*
X22701Y-48504D01*
X22701Y-48504D02*
X22705Y-48446D01*
X22705Y-48446D02*
X22722Y-48390D01*
X22722Y-48390D02*
X22748Y-48338D01*
X22748Y-48338D02*
X22785Y-48292D01*
X22785Y-48292D02*
X22829Y-48254D01*
X22829Y-48254D02*
X22880Y-48226D01*
X22880Y-48226D02*
X22936Y-48207D01*
X22936Y-48207D02*
X22994Y-48201D01*
X22994Y-48201D02*
X23052Y-48205D01*
X23052Y-48205D02*
X23108Y-48221D01*
X23108Y-48221D02*
X23160Y-48247D01*
X23160Y-48247D02*
X23206Y-48283D01*
X23206Y-48283D02*
X23245Y-48328D01*
X23245Y-48328D02*
X23274Y-48378D01*
X23274Y-48378D02*
X23292Y-48434D01*
X23292Y-48434D02*
X23299Y-48492D01*
X23299Y-48492D02*
X23300Y-48500D01*
X22300Y-48500D02*
X22294Y-48558D01*
X22294Y-48558D02*
X22277Y-48614D01*
X22277Y-48614D02*
X22249Y-48666D01*
X22249Y-48666D02*
X22212Y-48711D01*
X22212Y-48711D02*
X22167Y-48748D01*
X22167Y-48748D02*
X22116Y-48776D01*
X22116Y-48776D02*
X22060Y-48793D01*
X22060Y-48793D02*
X22002Y-48799D01*
X22002Y-48799D02*
X21944Y-48794D01*
X21944Y-48794D02*
X21888Y-48778D01*
X21888Y-48778D02*
X21836Y-48751D01*
X21836Y-48751D02*
X21791Y-48714D01*
X21791Y-48714D02*
X21753Y-48669D01*
X21753Y-48669D02*
X21725Y-48618D01*
X21725Y-48618D02*
X21707Y-48562D01*
X21707Y-48562D02*
X21701Y-48504D01*
X21701Y-48504D02*
X21705Y-48446D01*
X21705Y-48446D02*
X21722Y-48390D01*
X21722Y-48390D02*
X21748Y-48338D01*
X21748Y-48338D02*
X21785Y-48292D01*
X21785Y-48292D02*
X21829Y-48254D01*
X21829Y-48254D02*
X21880Y-48226D01*
X21880Y-48226D02*
X21936Y-48207D01*
X21936Y-48207D02*
X21994Y-48201D01*
X21994Y-48201D02*
X22052Y-48205D01*
X22052Y-48205D02*
X22108Y-48221D01*
X22108Y-48221D02*
X22160Y-48247D01*
X22160Y-48247D02*
X22206Y-48283D01*
X22206Y-48283D02*
X22245Y-48328D01*
X22245Y-48328D02*
X22274Y-48378D01*
X22274Y-48378D02*
X22292Y-48434D01*
X22292Y-48434D02*
X22299Y-48492D01*
X22299Y-48492D02*
X22300Y-48500D01*
X21300Y-48500D02*
X21294Y-48558D01*
X21294Y-48558D02*
X21277Y-48614D01*
X21277Y-48614D02*
X21249Y-48666D01*
X21249Y-48666D02*
X21212Y-48711D01*
X21212Y-48711D02*
X21167Y-48748D01*
X21167Y-48748D02*
X21116Y-48776D01*
X21116Y-48776D02*
X21060Y-48793D01*
X21060Y-48793D02*
X21002Y-48799D01*
X21002Y-48799D02*
X20944Y-48794D01*
X20944Y-48794D02*
X20888Y-48778D01*
X20888Y-48778D02*
X20836Y-48751D01*
X20836Y-48751D02*
X20791Y-48714D01*
X20791Y-48714D02*
X20753Y-48669D01*
X20753Y-48669D02*
X20725Y-48618D01*
X20725Y-48618D02*
X20707Y-48562D01*
X20707Y-48562D02*
X20701Y-48504D01*
X20701Y-48504D02*
X20705Y-48446D01*
X20705Y-48446D02*
X20722Y-48390D01*
X20722Y-48390D02*
X20748Y-48338D01*
X20748Y-48338D02*
X20785Y-48292D01*
X20785Y-48292D02*
X20829Y-48254D01*
X20829Y-48254D02*
X20880Y-48226D01*
X20880Y-48226D02*
X20936Y-48207D01*
X20936Y-48207D02*
X20994Y-48201D01*
X20994Y-48201D02*
X21052Y-48205D01*
X21052Y-48205D02*
X21108Y-48221D01*
X21108Y-48221D02*
X21160Y-48247D01*
X21160Y-48247D02*
X21206Y-48283D01*
X21206Y-48283D02*
X21245Y-48328D01*
X21245Y-48328D02*
X21274Y-48378D01*
X21274Y-48378D02*
X21292Y-48434D01*
X21292Y-48434D02*
X21299Y-48492D01*
X21299Y-48492D02*
X21300Y-48500D01*
X20300Y-48500D02*
X20294Y-48558D01*
X20294Y-48558D02*
X20277Y-48614D01*
X20277Y-48614D02*
X20249Y-48666D01*
X20249Y-48666D02*
X20212Y-48711D01*
X20212Y-48711D02*
X20167Y-48748D01*
X20167Y-48748D02*
X20116Y-48776D01*
X20116Y-48776D02*
X20060Y-48793D01*
X20060Y-48793D02*
X20002Y-48799D01*
X20002Y-48799D02*
X19944Y-48794D01*
X19944Y-48794D02*
X19888Y-48778D01*
X19888Y-48778D02*
X19836Y-48751D01*
X19836Y-48751D02*
X19791Y-48714D01*
X19791Y-48714D02*
X19753Y-48669D01*
X19753Y-48669D02*
X19725Y-48618D01*
X19725Y-48618D02*
X19707Y-48562D01*
X19707Y-48562D02*
X19701Y-48504D01*
X19701Y-48504D02*
X19705Y-48446D01*
X19705Y-48446D02*
X19722Y-48390D01*
X19722Y-48390D02*
X19748Y-48338D01*
X19748Y-48338D02*
X19785Y-48292D01*
X19785Y-48292D02*
X19829Y-48254D01*
X19829Y-48254D02*
X19880Y-48226D01*
X19880Y-48226D02*
X19936Y-48207D01*
X19936Y-48207D02*
X19994Y-48201D01*
X19994Y-48201D02*
X20052Y-48205D01*
X20052Y-48205D02*
X20108Y-48221D01*
X20108Y-48221D02*
X20160Y-48247D01*
X20160Y-48247D02*
X20206Y-48283D01*
X20206Y-48283D02*
X20245Y-48328D01*
X20245Y-48328D02*
X20274Y-48378D01*
X20274Y-48378D02*
X20292Y-48434D01*
X20292Y-48434D02*
X20299Y-48492D01*
X20299Y-48492D02*
X20300Y-48500D01*
X19300Y-48500D02*
X19294Y-48558D01*
X19294Y-48558D02*
X19277Y-48614D01*
X19277Y-48614D02*
X19249Y-48666D01*
X19249Y-48666D02*
X19212Y-48711D01*
X19212Y-48711D02*
X19167Y-48748D01*
X19167Y-48748D02*
X19116Y-48776D01*
X19116Y-48776D02*
X19060Y-48793D01*
X19060Y-48793D02*
X19002Y-48799D01*
X19002Y-48799D02*
X18944Y-48794D01*
X18944Y-48794D02*
X18888Y-48778D01*
X18888Y-48778D02*
X18836Y-48751D01*
X18836Y-48751D02*
X18791Y-48714D01*
X18791Y-48714D02*
X18753Y-48669D01*
X18753Y-48669D02*
X18725Y-48618D01*
X18725Y-48618D02*
X18707Y-48562D01*
X18707Y-48562D02*
X18701Y-48504D01*
X18701Y-48504D02*
X18705Y-48446D01*
X18705Y-48446D02*
X18722Y-48390D01*
X18722Y-48390D02*
X18748Y-48338D01*
X18748Y-48338D02*
X18785Y-48292D01*
X18785Y-48292D02*
X18829Y-48254D01*
X18829Y-48254D02*
X18880Y-48226D01*
X18880Y-48226D02*
X18936Y-48207D01*
X18936Y-48207D02*
X18994Y-48201D01*
X18994Y-48201D02*
X19052Y-48205D01*
X19052Y-48205D02*
X19108Y-48221D01*
X19108Y-48221D02*
X19160Y-48247D01*
X19160Y-48247D02*
X19206Y-48283D01*
X19206Y-48283D02*
X19245Y-48328D01*
X19245Y-48328D02*
X19274Y-48378D01*
X19274Y-48378D02*
X19292Y-48434D01*
X19292Y-48434D02*
X19299Y-48492D01*
X19299Y-48492D02*
X19300Y-48500D01*
X38200Y-48800D02*
X38200Y-48200D01*
X38200Y-48200D02*
X38800Y-48200D01*
X38800Y-48200D02*
X38800Y-48800D01*
X38800Y-48800D02*
X38200Y-48800D01*
X39800Y-48500D02*
X39794Y-48558D01*
X39794Y-48558D02*
X39777Y-48614D01*
X39777Y-48614D02*
X39749Y-48666D01*
X39749Y-48666D02*
X39712Y-48711D01*
X39712Y-48711D02*
X39667Y-48748D01*
X39667Y-48748D02*
X39616Y-48776D01*
X39616Y-48776D02*
X39560Y-48793D01*
X39560Y-48793D02*
X39502Y-48799D01*
X39502Y-48799D02*
X39444Y-48794D01*
X39444Y-48794D02*
X39388Y-48778D01*
X39388Y-48778D02*
X39336Y-48751D01*
X39336Y-48751D02*
X39291Y-48714D01*
X39291Y-48714D02*
X39253Y-48669D01*
X39253Y-48669D02*
X39225Y-48618D01*
X39225Y-48618D02*
X39207Y-48562D01*
X39207Y-48562D02*
X39201Y-48504D01*
X39201Y-48504D02*
X39205Y-48446D01*
X39205Y-48446D02*
X39222Y-48390D01*
X39222Y-48390D02*
X39248Y-48338D01*
X39248Y-48338D02*
X39285Y-48292D01*
X39285Y-48292D02*
X39329Y-48254D01*
X39329Y-48254D02*
X39380Y-48226D01*
X39380Y-48226D02*
X39436Y-48207D01*
X39436Y-48207D02*
X39494Y-48201D01*
X39494Y-48201D02*
X39552Y-48205D01*
X39552Y-48205D02*
X39608Y-48221D01*
X39608Y-48221D02*
X39660Y-48247D01*
X39660Y-48247D02*
X39706Y-48283D01*
X39706Y-48283D02*
X39745Y-48328D01*
X39745Y-48328D02*
X39774Y-48378D01*
X39774Y-48378D02*
X39792Y-48434D01*
X39792Y-48434D02*
X39799Y-48492D01*
X39799Y-48492D02*
X39800Y-48500D01*
X40800Y-48500D02*
X40794Y-48558D01*
X40794Y-48558D02*
X40777Y-48614D01*
X40777Y-48614D02*
X40749Y-48666D01*
X40749Y-48666D02*
X40712Y-48711D01*
X40712Y-48711D02*
X40667Y-48748D01*
X40667Y-48748D02*
X40616Y-48776D01*
X40616Y-48776D02*
X40560Y-48793D01*
X40560Y-48793D02*
X40502Y-48799D01*
X40502Y-48799D02*
X40444Y-48794D01*
X40444Y-48794D02*
X40388Y-48778D01*
X40388Y-48778D02*
X40336Y-48751D01*
X40336Y-48751D02*
X40291Y-48714D01*
X40291Y-48714D02*
X40253Y-48669D01*
X40253Y-48669D02*
X40225Y-48618D01*
X40225Y-48618D02*
X40207Y-48562D01*
X40207Y-48562D02*
X40201Y-48504D01*
X40201Y-48504D02*
X40205Y-48446D01*
X40205Y-48446D02*
X40222Y-48390D01*
X40222Y-48390D02*
X40248Y-48338D01*
X40248Y-48338D02*
X40285Y-48292D01*
X40285Y-48292D02*
X40329Y-48254D01*
X40329Y-48254D02*
X40380Y-48226D01*
X40380Y-48226D02*
X40436Y-48207D01*
X40436Y-48207D02*
X40494Y-48201D01*
X40494Y-48201D02*
X40552Y-48205D01*
X40552Y-48205D02*
X40608Y-48221D01*
X40608Y-48221D02*
X40660Y-48247D01*
X40660Y-48247D02*
X40706Y-48283D01*
X40706Y-48283D02*
X40745Y-48328D01*
X40745Y-48328D02*
X40774Y-48378D01*
X40774Y-48378D02*
X40792Y-48434D01*
X40792Y-48434D02*
X40799Y-48492D01*
X40799Y-48492D02*
X40800Y-48500D01*
X31200Y-44800D02*
X31200Y-44200D01*
X31200Y-44200D02*
X31800Y-44200D01*
X31800Y-44200D02*
X31800Y-44800D01*
X31800Y-44800D02*
X31200Y-44800D01*
X32800Y-44500D02*
X32794Y-44558D01*
X32794Y-44558D02*
X32777Y-44614D01*
X32777Y-44614D02*
X32749Y-44666D01*
X32749Y-44666D02*
X32712Y-44711D01*
X32712Y-44711D02*
X32667Y-44748D01*
X32667Y-44748D02*
X32616Y-44776D01*
X32616Y-44776D02*
X32560Y-44793D01*
X32560Y-44793D02*
X32502Y-44799D01*
X32502Y-44799D02*
X32444Y-44794D01*
X32444Y-44794D02*
X32388Y-44778D01*
X32388Y-44778D02*
X32336Y-44751D01*
X32336Y-44751D02*
X32291Y-44714D01*
X32291Y-44714D02*
X32253Y-44669D01*
X32253Y-44669D02*
X32225Y-44618D01*
X32225Y-44618D02*
X32207Y-44562D01*
X32207Y-44562D02*
X32201Y-44504D01*
X32201Y-44504D02*
X32205Y-44446D01*
X32205Y-44446D02*
X32222Y-44390D01*
X32222Y-44390D02*
X32248Y-44338D01*
X32248Y-44338D02*
X32285Y-44292D01*
X32285Y-44292D02*
X32329Y-44254D01*
X32329Y-44254D02*
X32380Y-44226D01*
X32380Y-44226D02*
X32436Y-44207D01*
X32436Y-44207D02*
X32494Y-44201D01*
X32494Y-44201D02*
X32552Y-44205D01*
X32552Y-44205D02*
X32608Y-44221D01*
X32608Y-44221D02*
X32660Y-44247D01*
X32660Y-44247D02*
X32706Y-44283D01*
X32706Y-44283D02*
X32745Y-44328D01*
X32745Y-44328D02*
X32774Y-44378D01*
X32774Y-44378D02*
X32792Y-44434D01*
X32792Y-44434D02*
X32799Y-44492D01*
X32799Y-44492D02*
X32800Y-44500D01*
X33800Y-44500D02*
X33794Y-44558D01*
X33794Y-44558D02*
X33777Y-44614D01*
X33777Y-44614D02*
X33749Y-44666D01*
X33749Y-44666D02*
X33712Y-44711D01*
X33712Y-44711D02*
X33667Y-44748D01*
X33667Y-44748D02*
X33616Y-44776D01*
X33616Y-44776D02*
X33560Y-44793D01*
X33560Y-44793D02*
X33502Y-44799D01*
X33502Y-44799D02*
X33444Y-44794D01*
X33444Y-44794D02*
X33388Y-44778D01*
X33388Y-44778D02*
X33336Y-44751D01*
X33336Y-44751D02*
X33291Y-44714D01*
X33291Y-44714D02*
X33253Y-44669D01*
X33253Y-44669D02*
X33225Y-44618D01*
X33225Y-44618D02*
X33207Y-44562D01*
X33207Y-44562D02*
X33201Y-44504D01*
X33201Y-44504D02*
X33205Y-44446D01*
X33205Y-44446D02*
X33222Y-44390D01*
X33222Y-44390D02*
X33248Y-44338D01*
X33248Y-44338D02*
X33285Y-44292D01*
X33285Y-44292D02*
X33329Y-44254D01*
X33329Y-44254D02*
X33380Y-44226D01*
X33380Y-44226D02*
X33436Y-44207D01*
X33436Y-44207D02*
X33494Y-44201D01*
X33494Y-44201D02*
X33552Y-44205D01*
X33552Y-44205D02*
X33608Y-44221D01*
X33608Y-44221D02*
X33660Y-44247D01*
X33660Y-44247D02*
X33706Y-44283D01*
X33706Y-44283D02*
X33745Y-44328D01*
X33745Y-44328D02*
X33774Y-44378D01*
X33774Y-44378D02*
X33792Y-44434D01*
X33792Y-44434D02*
X33799Y-44492D01*
X33799Y-44492D02*
X33800Y-44500D01*
X50700Y-48800D02*
X50700Y-48200D01*
X50700Y-48200D02*
X51300Y-48200D01*
X51300Y-48200D02*
X51300Y-48800D01*
X51300Y-48800D02*
X50700Y-48800D01*
X52300Y-48500D02*
X52294Y-48558D01*
X52294Y-48558D02*
X52277Y-48614D01*
X52277Y-48614D02*
X52249Y-48666D01*
X52249Y-48666D02*
X52212Y-48711D01*
X52212Y-48711D02*
X52167Y-48748D01*
X52167Y-48748D02*
X52116Y-48776D01*
X52116Y-48776D02*
X52060Y-48793D01*
X52060Y-48793D02*
X52002Y-48799D01*
X52002Y-48799D02*
X51944Y-48794D01*
X51944Y-48794D02*
X51888Y-48778D01*
X51888Y-48778D02*
X51836Y-48751D01*
X51836Y-48751D02*
X51791Y-48714D01*
X51791Y-48714D02*
X51753Y-48669D01*
X51753Y-48669D02*
X51725Y-48618D01*
X51725Y-48618D02*
X51707Y-48562D01*
X51707Y-48562D02*
X51701Y-48504D01*
X51701Y-48504D02*
X51705Y-48446D01*
X51705Y-48446D02*
X51722Y-48390D01*
X51722Y-48390D02*
X51748Y-48338D01*
X51748Y-48338D02*
X51785Y-48292D01*
X51785Y-48292D02*
X51829Y-48254D01*
X51829Y-48254D02*
X51880Y-48226D01*
X51880Y-48226D02*
X51936Y-48207D01*
X51936Y-48207D02*
X51994Y-48201D01*
X51994Y-48201D02*
X52052Y-48205D01*
X52052Y-48205D02*
X52108Y-48221D01*
X52108Y-48221D02*
X52160Y-48247D01*
X52160Y-48247D02*
X52206Y-48283D01*
X52206Y-48283D02*
X52245Y-48328D01*
X52245Y-48328D02*
X52274Y-48378D01*
X52274Y-48378D02*
X52292Y-48434D01*
X52292Y-48434D02*
X52299Y-48492D01*
X52299Y-48492D02*
X52300Y-48500D01*
X53300Y-48500D02*
X53294Y-48558D01*
X53294Y-48558D02*
X53277Y-48614D01*
X53277Y-48614D02*
X53249Y-48666D01*
X53249Y-48666D02*
X53212Y-48711D01*
X53212Y-48711D02*
X53167Y-48748D01*
X53167Y-48748D02*
X53116Y-48776D01*
X53116Y-48776D02*
X53060Y-48793D01*
X53060Y-48793D02*
X53002Y-48799D01*
X53002Y-48799D02*
X52944Y-48794D01*
X52944Y-48794D02*
X52888Y-48778D01*
X52888Y-48778D02*
X52836Y-48751D01*
X52836Y-48751D02*
X52791Y-48714D01*
X52791Y-48714D02*
X52753Y-48669D01*
X52753Y-48669D02*
X52725Y-48618D01*
X52725Y-48618D02*
X52707Y-48562D01*
X52707Y-48562D02*
X52701Y-48504D01*
X52701Y-48504D02*
X52705Y-48446D01*
X52705Y-48446D02*
X52722Y-48390D01*
X52722Y-48390D02*
X52748Y-48338D01*
X52748Y-48338D02*
X52785Y-48292D01*
X52785Y-48292D02*
X52829Y-48254D01*
X52829Y-48254D02*
X52880Y-48226D01*
X52880Y-48226D02*
X52936Y-48207D01*
X52936Y-48207D02*
X52994Y-48201D01*
X52994Y-48201D02*
X53052Y-48205D01*
X53052Y-48205D02*
X53108Y-48221D01*
X53108Y-48221D02*
X53160Y-48247D01*
X53160Y-48247D02*
X53206Y-48283D01*
X53206Y-48283D02*
X53245Y-48328D01*
X53245Y-48328D02*
X53274Y-48378D01*
X53274Y-48378D02*
X53292Y-48434D01*
X53292Y-48434D02*
X53299Y-48492D01*
X53299Y-48492D02*
X53300Y-48500D01*
X54300Y-48500D02*
X54294Y-48558D01*
X54294Y-48558D02*
X54277Y-48614D01*
X54277Y-48614D02*
X54249Y-48666D01*
X54249Y-48666D02*
X54212Y-48711D01*
X54212Y-48711D02*
X54167Y-48748D01*
X54167Y-48748D02*
X54116Y-48776D01*
X54116Y-48776D02*
X54060Y-48793D01*
X54060Y-48793D02*
X54002Y-48799D01*
X54002Y-48799D02*
X53944Y-48794D01*
X53944Y-48794D02*
X53888Y-48778D01*
X53888Y-48778D02*
X53836Y-48751D01*
X53836Y-48751D02*
X53791Y-48714D01*
X53791Y-48714D02*
X53753Y-48669D01*
X53753Y-48669D02*
X53725Y-48618D01*
X53725Y-48618D02*
X53707Y-48562D01*
X53707Y-48562D02*
X53701Y-48504D01*
X53701Y-48504D02*
X53705Y-48446D01*
X53705Y-48446D02*
X53722Y-48390D01*
X53722Y-48390D02*
X53748Y-48338D01*
X53748Y-48338D02*
X53785Y-48292D01*
X53785Y-48292D02*
X53829Y-48254D01*
X53829Y-48254D02*
X53880Y-48226D01*
X53880Y-48226D02*
X53936Y-48207D01*
X53936Y-48207D02*
X53994Y-48201D01*
X53994Y-48201D02*
X54052Y-48205D01*
X54052Y-48205D02*
X54108Y-48221D01*
X54108Y-48221D02*
X54160Y-48247D01*
X54160Y-48247D02*
X54206Y-48283D01*
X54206Y-48283D02*
X54245Y-48328D01*
X54245Y-48328D02*
X54274Y-48378D01*
X54274Y-48378D02*
X54292Y-48434D01*
X54292Y-48434D02*
X54299Y-48492D01*
X54299Y-48492D02*
X54300Y-48500D01*
X40775Y-44500D02*
X40769Y-44553D01*
X40769Y-44553D02*
X40754Y-44604D01*
X40754Y-44604D02*
X40729Y-44652D01*
X40729Y-44652D02*
X40695Y-44693D01*
X40695Y-44693D02*
X40653Y-44727D01*
X40653Y-44727D02*
X40606Y-44753D01*
X40606Y-44753D02*
X40555Y-44769D01*
X40555Y-44769D02*
X40501Y-44774D01*
X40501Y-44774D02*
X40449Y-44770D01*
X40449Y-44770D02*
X40397Y-44754D01*
X40397Y-44754D02*
X40350Y-44730D01*
X40350Y-44730D02*
X40308Y-44696D01*
X40308Y-44696D02*
X40274Y-44655D01*
X40274Y-44655D02*
X40248Y-44608D01*
X40248Y-44608D02*
X40232Y-44557D01*
X40232Y-44557D02*
X40226Y-44503D01*
X40226Y-44503D02*
X40230Y-44451D01*
X40230Y-44451D02*
X40245Y-44399D01*
X40245Y-44399D02*
X40269Y-44352D01*
X40269Y-44352D02*
X40303Y-44309D01*
X40303Y-44309D02*
X40344Y-44275D01*
X40344Y-44275D02*
X40390Y-44249D01*
X40390Y-44249D02*
X40441Y-44232D01*
X40441Y-44232D02*
X40495Y-44226D01*
X40495Y-44226D02*
X40547Y-44230D01*
X40547Y-44230D02*
X40599Y-44244D01*
X40599Y-44244D02*
X40647Y-44268D01*
X40647Y-44268D02*
X40689Y-44301D01*
X40689Y-44301D02*
X40724Y-44342D01*
X40724Y-44342D02*
X40751Y-44389D01*
X40751Y-44389D02*
X40768Y-44440D01*
X40768Y-44440D02*
X40774Y-44493D01*
X40774Y-44493D02*
X40775Y-44500D01*
X40775Y-41500D02*
X40769Y-41553D01*
X40769Y-41553D02*
X40754Y-41604D01*
X40754Y-41604D02*
X40729Y-41652D01*
X40729Y-41652D02*
X40695Y-41693D01*
X40695Y-41693D02*
X40653Y-41727D01*
X40653Y-41727D02*
X40606Y-41753D01*
X40606Y-41753D02*
X40555Y-41769D01*
X40555Y-41769D02*
X40501Y-41774D01*
X40501Y-41774D02*
X40449Y-41770D01*
X40449Y-41770D02*
X40397Y-41754D01*
X40397Y-41754D02*
X40350Y-41730D01*
X40350Y-41730D02*
X40308Y-41696D01*
X40308Y-41696D02*
X40274Y-41655D01*
X40274Y-41655D02*
X40248Y-41608D01*
X40248Y-41608D02*
X40232Y-41557D01*
X40232Y-41557D02*
X40226Y-41503D01*
X40226Y-41503D02*
X40230Y-41451D01*
X40230Y-41451D02*
X40245Y-41399D01*
X40245Y-41399D02*
X40269Y-41352D01*
X40269Y-41352D02*
X40303Y-41309D01*
X40303Y-41309D02*
X40344Y-41275D01*
X40344Y-41275D02*
X40390Y-41249D01*
X40390Y-41249D02*
X40441Y-41232D01*
X40441Y-41232D02*
X40495Y-41226D01*
X40495Y-41226D02*
X40547Y-41230D01*
X40547Y-41230D02*
X40599Y-41244D01*
X40599Y-41244D02*
X40647Y-41268D01*
X40647Y-41268D02*
X40689Y-41301D01*
X40689Y-41301D02*
X40724Y-41342D01*
X40724Y-41342D02*
X40751Y-41389D01*
X40751Y-41389D02*
X40768Y-41440D01*
X40768Y-41440D02*
X40774Y-41493D01*
X40774Y-41493D02*
X40775Y-41500D01*
X38775Y-44500D02*
X38769Y-44553D01*
X38769Y-44553D02*
X38754Y-44604D01*
X38754Y-44604D02*
X38729Y-44652D01*
X38729Y-44652D02*
X38695Y-44693D01*
X38695Y-44693D02*
X38653Y-44727D01*
X38653Y-44727D02*
X38606Y-44753D01*
X38606Y-44753D02*
X38555Y-44769D01*
X38555Y-44769D02*
X38501Y-44774D01*
X38501Y-44774D02*
X38449Y-44770D01*
X38449Y-44770D02*
X38397Y-44754D01*
X38397Y-44754D02*
X38350Y-44730D01*
X38350Y-44730D02*
X38308Y-44696D01*
X38308Y-44696D02*
X38274Y-44655D01*
X38274Y-44655D02*
X38248Y-44608D01*
X38248Y-44608D02*
X38232Y-44557D01*
X38232Y-44557D02*
X38226Y-44503D01*
X38226Y-44503D02*
X38230Y-44451D01*
X38230Y-44451D02*
X38245Y-44399D01*
X38245Y-44399D02*
X38269Y-44352D01*
X38269Y-44352D02*
X38303Y-44309D01*
X38303Y-44309D02*
X38344Y-44275D01*
X38344Y-44275D02*
X38390Y-44249D01*
X38390Y-44249D02*
X38441Y-44232D01*
X38441Y-44232D02*
X38495Y-44226D01*
X38495Y-44226D02*
X38547Y-44230D01*
X38547Y-44230D02*
X38599Y-44244D01*
X38599Y-44244D02*
X38647Y-44268D01*
X38647Y-44268D02*
X38689Y-44301D01*
X38689Y-44301D02*
X38724Y-44342D01*
X38724Y-44342D02*
X38751Y-44389D01*
X38751Y-44389D02*
X38768Y-44440D01*
X38768Y-44440D02*
X38774Y-44493D01*
X38774Y-44493D02*
X38775Y-44500D01*
X38775Y-41500D02*
X38769Y-41553D01*
X38769Y-41553D02*
X38754Y-41604D01*
X38754Y-41604D02*
X38729Y-41652D01*
X38729Y-41652D02*
X38695Y-41693D01*
X38695Y-41693D02*
X38653Y-41727D01*
X38653Y-41727D02*
X38606Y-41753D01*
X38606Y-41753D02*
X38555Y-41769D01*
X38555Y-41769D02*
X38501Y-41774D01*
X38501Y-41774D02*
X38449Y-41770D01*
X38449Y-41770D02*
X38397Y-41754D01*
X38397Y-41754D02*
X38350Y-41730D01*
X38350Y-41730D02*
X38308Y-41696D01*
X38308Y-41696D02*
X38274Y-41655D01*
X38274Y-41655D02*
X38248Y-41608D01*
X38248Y-41608D02*
X38232Y-41557D01*
X38232Y-41557D02*
X38226Y-41503D01*
X38226Y-41503D02*
X38230Y-41451D01*
X38230Y-41451D02*
X38245Y-41399D01*
X38245Y-41399D02*
X38269Y-41352D01*
X38269Y-41352D02*
X38303Y-41309D01*
X38303Y-41309D02*
X38344Y-41275D01*
X38344Y-41275D02*
X38390Y-41249D01*
X38390Y-41249D02*
X38441Y-41232D01*
X38441Y-41232D02*
X38495Y-41226D01*
X38495Y-41226D02*
X38547Y-41230D01*
X38547Y-41230D02*
X38599Y-41244D01*
X38599Y-41244D02*
X38647Y-41268D01*
X38647Y-41268D02*
X38689Y-41301D01*
X38689Y-41301D02*
X38724Y-41342D01*
X38724Y-41342D02*
X38751Y-41389D01*
X38751Y-41389D02*
X38768Y-41440D01*
X38768Y-41440D02*
X38774Y-41493D01*
X38774Y-41493D02*
X38775Y-41500D01*
X22775Y-17000D02*
X22769Y-17053D01*
X22769Y-17053D02*
X22754Y-17104D01*
X22754Y-17104D02*
X22729Y-17152D01*
X22729Y-17152D02*
X22695Y-17193D01*
X22695Y-17193D02*
X22653Y-17227D01*
X22653Y-17227D02*
X22606Y-17253D01*
X22606Y-17253D02*
X22555Y-17269D01*
X22555Y-17269D02*
X22501Y-17274D01*
X22501Y-17274D02*
X22449Y-17270D01*
X22449Y-17270D02*
X22397Y-17254D01*
X22397Y-17254D02*
X22350Y-17230D01*
X22350Y-17230D02*
X22308Y-17196D01*
X22308Y-17196D02*
X22274Y-17155D01*
X22274Y-17155D02*
X22248Y-17108D01*
X22248Y-17108D02*
X22232Y-17057D01*
X22232Y-17057D02*
X22226Y-17003D01*
X22226Y-17003D02*
X22230Y-16951D01*
X22230Y-16951D02*
X22245Y-16899D01*
X22245Y-16899D02*
X22269Y-16852D01*
X22269Y-16852D02*
X22303Y-16809D01*
X22303Y-16809D02*
X22344Y-16775D01*
X22344Y-16775D02*
X22390Y-16749D01*
X22390Y-16749D02*
X22441Y-16732D01*
X22441Y-16732D02*
X22495Y-16726D01*
X22495Y-16726D02*
X22547Y-16730D01*
X22547Y-16730D02*
X22599Y-16744D01*
X22599Y-16744D02*
X22647Y-16768D01*
X22647Y-16768D02*
X22689Y-16801D01*
X22689Y-16801D02*
X22724Y-16842D01*
X22724Y-16842D02*
X22751Y-16889D01*
X22751Y-16889D02*
X22768Y-16940D01*
X22768Y-16940D02*
X22774Y-16993D01*
X22774Y-16993D02*
X22775Y-17000D01*
X25775Y-17000D02*
X25769Y-17053D01*
X25769Y-17053D02*
X25754Y-17104D01*
X25754Y-17104D02*
X25729Y-17152D01*
X25729Y-17152D02*
X25695Y-17193D01*
X25695Y-17193D02*
X25653Y-17227D01*
X25653Y-17227D02*
X25606Y-17253D01*
X25606Y-17253D02*
X25555Y-17269D01*
X25555Y-17269D02*
X25501Y-17274D01*
X25501Y-17274D02*
X25449Y-17270D01*
X25449Y-17270D02*
X25397Y-17254D01*
X25397Y-17254D02*
X25350Y-17230D01*
X25350Y-17230D02*
X25308Y-17196D01*
X25308Y-17196D02*
X25274Y-17155D01*
X25274Y-17155D02*
X25248Y-17108D01*
X25248Y-17108D02*
X25232Y-17057D01*
X25232Y-17057D02*
X25226Y-17003D01*
X25226Y-17003D02*
X25230Y-16951D01*
X25230Y-16951D02*
X25245Y-16899D01*
X25245Y-16899D02*
X25269Y-16852D01*
X25269Y-16852D02*
X25303Y-16809D01*
X25303Y-16809D02*
X25344Y-16775D01*
X25344Y-16775D02*
X25390Y-16749D01*
X25390Y-16749D02*
X25441Y-16732D01*
X25441Y-16732D02*
X25495Y-16726D01*
X25495Y-16726D02*
X25547Y-16730D01*
X25547Y-16730D02*
X25599Y-16744D01*
X25599Y-16744D02*
X25647Y-16768D01*
X25647Y-16768D02*
X25689Y-16801D01*
X25689Y-16801D02*
X25724Y-16842D01*
X25724Y-16842D02*
X25751Y-16889D01*
X25751Y-16889D02*
X25768Y-16940D01*
X25768Y-16940D02*
X25774Y-16993D01*
X25774Y-16993D02*
X25775Y-17000D01*
X68314Y-21000D02*
X68308Y-21060D01*
X68308Y-21060D02*
X68290Y-21119D01*
X68290Y-21119D02*
X68261Y-21173D01*
X68261Y-21173D02*
X68222Y-21221D01*
X68222Y-21221D02*
X68175Y-21260D01*
X68175Y-21260D02*
X68121Y-21289D01*
X68121Y-21289D02*
X68063Y-21307D01*
X68063Y-21307D02*
X68002Y-21313D01*
X68002Y-21313D02*
X67942Y-21308D01*
X67942Y-21308D02*
X67883Y-21291D01*
X67883Y-21291D02*
X67829Y-21262D01*
X67829Y-21262D02*
X67781Y-21224D01*
X67781Y-21224D02*
X67741Y-21177D01*
X67741Y-21177D02*
X67712Y-21123D01*
X67712Y-21123D02*
X67693Y-21065D01*
X67693Y-21065D02*
X67687Y-21004D01*
X67687Y-21004D02*
X67692Y-20944D01*
X67692Y-20944D02*
X67709Y-20885D01*
X67709Y-20885D02*
X67737Y-20830D01*
X67737Y-20830D02*
X67775Y-20782D01*
X67775Y-20782D02*
X67821Y-20743D01*
X67821Y-20743D02*
X67875Y-20713D01*
X67875Y-20713D02*
X67933Y-20694D01*
X67933Y-20694D02*
X67994Y-20687D01*
X67994Y-20687D02*
X68054Y-20691D01*
X68054Y-20691D02*
X68113Y-20708D01*
X68113Y-20708D02*
X68168Y-20735D01*
X68168Y-20735D02*
X68216Y-20773D01*
X68216Y-20773D02*
X68256Y-20820D01*
X68256Y-20820D02*
X68286Y-20873D01*
X68286Y-20873D02*
X68306Y-20931D01*
X68306Y-20931D02*
X68313Y-20992D01*
X68313Y-20992D02*
X68314Y-21000D01*
X70314Y-21000D02*
X70308Y-21060D01*
X70308Y-21060D02*
X70290Y-21119D01*
X70290Y-21119D02*
X70261Y-21173D01*
X70261Y-21173D02*
X70222Y-21221D01*
X70222Y-21221D02*
X70175Y-21260D01*
X70175Y-21260D02*
X70121Y-21289D01*
X70121Y-21289D02*
X70063Y-21307D01*
X70063Y-21307D02*
X70002Y-21313D01*
X70002Y-21313D02*
X69942Y-21308D01*
X69942Y-21308D02*
X69883Y-21291D01*
X69883Y-21291D02*
X69829Y-21262D01*
X69829Y-21262D02*
X69781Y-21224D01*
X69781Y-21224D02*
X69741Y-21177D01*
X69741Y-21177D02*
X69712Y-21123D01*
X69712Y-21123D02*
X69693Y-21065D01*
X69693Y-21065D02*
X69687Y-21004D01*
X69687Y-21004D02*
X69692Y-20944D01*
X69692Y-20944D02*
X69709Y-20885D01*
X69709Y-20885D02*
X69737Y-20830D01*
X69737Y-20830D02*
X69775Y-20782D01*
X69775Y-20782D02*
X69821Y-20743D01*
X69821Y-20743D02*
X69875Y-20713D01*
X69875Y-20713D02*
X69933Y-20694D01*
X69933Y-20694D02*
X69994Y-20687D01*
X69994Y-20687D02*
X70054Y-20691D01*
X70054Y-20691D02*
X70113Y-20708D01*
X70113Y-20708D02*
X70168Y-20735D01*
X70168Y-20735D02*
X70216Y-20773D01*
X70216Y-20773D02*
X70256Y-20820D01*
X70256Y-20820D02*
X70286Y-20873D01*
X70286Y-20873D02*
X70306Y-20931D01*
X70306Y-20931D02*
X70313Y-20992D01*
X70313Y-20992D02*
X70314Y-21000D01*
X72314Y-21000D02*
X72308Y-21060D01*
X72308Y-21060D02*
X72290Y-21119D01*
X72290Y-21119D02*
X72261Y-21173D01*
X72261Y-21173D02*
X72222Y-21221D01*
X72222Y-21221D02*
X72175Y-21260D01*
X72175Y-21260D02*
X72121Y-21289D01*
X72121Y-21289D02*
X72063Y-21307D01*
X72063Y-21307D02*
X72002Y-21313D01*
X72002Y-21313D02*
X71942Y-21308D01*
X71942Y-21308D02*
X71883Y-21291D01*
X71883Y-21291D02*
X71829Y-21262D01*
X71829Y-21262D02*
X71781Y-21224D01*
X71781Y-21224D02*
X71741Y-21177D01*
X71741Y-21177D02*
X71712Y-21123D01*
X71712Y-21123D02*
X71693Y-21065D01*
X71693Y-21065D02*
X71687Y-21004D01*
X71687Y-21004D02*
X71692Y-20944D01*
X71692Y-20944D02*
X71709Y-20885D01*
X71709Y-20885D02*
X71737Y-20830D01*
X71737Y-20830D02*
X71775Y-20782D01*
X71775Y-20782D02*
X71821Y-20743D01*
X71821Y-20743D02*
X71875Y-20713D01*
X71875Y-20713D02*
X71933Y-20694D01*
X71933Y-20694D02*
X71994Y-20687D01*
X71994Y-20687D02*
X72054Y-20691D01*
X72054Y-20691D02*
X72113Y-20708D01*
X72113Y-20708D02*
X72168Y-20735D01*
X72168Y-20735D02*
X72216Y-20773D01*
X72216Y-20773D02*
X72256Y-20820D01*
X72256Y-20820D02*
X72286Y-20873D01*
X72286Y-20873D02*
X72306Y-20931D01*
X72306Y-20931D02*
X72313Y-20992D01*
X72313Y-20992D02*
X72314Y-21000D01*
X68314Y-18000D02*
X68308Y-18060D01*
X68308Y-18060D02*
X68290Y-18119D01*
X68290Y-18119D02*
X68261Y-18173D01*
X68261Y-18173D02*
X68222Y-18221D01*
X68222Y-18221D02*
X68175Y-18260D01*
X68175Y-18260D02*
X68121Y-18289D01*
X68121Y-18289D02*
X68063Y-18307D01*
X68063Y-18307D02*
X68002Y-18313D01*
X68002Y-18313D02*
X67942Y-18308D01*
X67942Y-18308D02*
X67883Y-18291D01*
X67883Y-18291D02*
X67829Y-18262D01*
X67829Y-18262D02*
X67781Y-18224D01*
X67781Y-18224D02*
X67741Y-18177D01*
X67741Y-18177D02*
X67712Y-18123D01*
X67712Y-18123D02*
X67693Y-18065D01*
X67693Y-18065D02*
X67687Y-18004D01*
X67687Y-18004D02*
X67692Y-17944D01*
X67692Y-17944D02*
X67709Y-17885D01*
X67709Y-17885D02*
X67737Y-17830D01*
X67737Y-17830D02*
X67775Y-17782D01*
X67775Y-17782D02*
X67821Y-17743D01*
X67821Y-17743D02*
X67875Y-17713D01*
X67875Y-17713D02*
X67933Y-17694D01*
X67933Y-17694D02*
X67994Y-17687D01*
X67994Y-17687D02*
X68054Y-17691D01*
X68054Y-17691D02*
X68113Y-17708D01*
X68113Y-17708D02*
X68168Y-17735D01*
X68168Y-17735D02*
X68216Y-17773D01*
X68216Y-17773D02*
X68256Y-17820D01*
X68256Y-17820D02*
X68286Y-17873D01*
X68286Y-17873D02*
X68306Y-17931D01*
X68306Y-17931D02*
X68313Y-17992D01*
X68313Y-17992D02*
X68314Y-18000D01*
X70314Y-18000D02*
X70308Y-18060D01*
X70308Y-18060D02*
X70290Y-18119D01*
X70290Y-18119D02*
X70261Y-18173D01*
X70261Y-18173D02*
X70222Y-18221D01*
X70222Y-18221D02*
X70175Y-18260D01*
X70175Y-18260D02*
X70121Y-18289D01*
X70121Y-18289D02*
X70063Y-18307D01*
X70063Y-18307D02*
X70002Y-18313D01*
X70002Y-18313D02*
X69942Y-18308D01*
X69942Y-18308D02*
X69883Y-18291D01*
X69883Y-18291D02*
X69829Y-18262D01*
X69829Y-18262D02*
X69781Y-18224D01*
X69781Y-18224D02*
X69741Y-18177D01*
X69741Y-18177D02*
X69712Y-18123D01*
X69712Y-18123D02*
X69693Y-18065D01*
X69693Y-18065D02*
X69687Y-18004D01*
X69687Y-18004D02*
X69692Y-17944D01*
X69692Y-17944D02*
X69709Y-17885D01*
X69709Y-17885D02*
X69737Y-17830D01*
X69737Y-17830D02*
X69775Y-17782D01*
X69775Y-17782D02*
X69821Y-17743D01*
X69821Y-17743D02*
X69875Y-17713D01*
X69875Y-17713D02*
X69933Y-17694D01*
X69933Y-17694D02*
X69994Y-17687D01*
X69994Y-17687D02*
X70054Y-17691D01*
X70054Y-17691D02*
X70113Y-17708D01*
X70113Y-17708D02*
X70168Y-17735D01*
X70168Y-17735D02*
X70216Y-17773D01*
X70216Y-17773D02*
X70256Y-17820D01*
X70256Y-17820D02*
X70286Y-17873D01*
X70286Y-17873D02*
X70306Y-17931D01*
X70306Y-17931D02*
X70313Y-17992D01*
X70313Y-17992D02*
X70314Y-18000D01*
X72314Y-18000D02*
X72308Y-18060D01*
X72308Y-18060D02*
X72290Y-18119D01*
X72290Y-18119D02*
X72261Y-18173D01*
X72261Y-18173D02*
X72222Y-18221D01*
X72222Y-18221D02*
X72175Y-18260D01*
X72175Y-18260D02*
X72121Y-18289D01*
X72121Y-18289D02*
X72063Y-18307D01*
X72063Y-18307D02*
X72002Y-18313D01*
X72002Y-18313D02*
X71942Y-18308D01*
X71942Y-18308D02*
X71883Y-18291D01*
X71883Y-18291D02*
X71829Y-18262D01*
X71829Y-18262D02*
X71781Y-18224D01*
X71781Y-18224D02*
X71741Y-18177D01*
X71741Y-18177D02*
X71712Y-18123D01*
X71712Y-18123D02*
X71693Y-18065D01*
X71693Y-18065D02*
X71687Y-18004D01*
X71687Y-18004D02*
X71692Y-17944D01*
X71692Y-17944D02*
X71709Y-17885D01*
X71709Y-17885D02*
X71737Y-17830D01*
X71737Y-17830D02*
X71775Y-17782D01*
X71775Y-17782D02*
X71821Y-17743D01*
X71821Y-17743D02*
X71875Y-17713D01*
X71875Y-17713D02*
X71933Y-17694D01*
X71933Y-17694D02*
X71994Y-17687D01*
X71994Y-17687D02*
X72054Y-17691D01*
X72054Y-17691D02*
X72113Y-17708D01*
X72113Y-17708D02*
X72168Y-17735D01*
X72168Y-17735D02*
X72216Y-17773D01*
X72216Y-17773D02*
X72256Y-17820D01*
X72256Y-17820D02*
X72286Y-17873D01*
X72286Y-17873D02*
X72306Y-17931D01*
X72306Y-17931D02*
X72313Y-17992D01*
X72313Y-17992D02*
X72314Y-18000D01*
X65314Y-21000D02*
X65308Y-21060D01*
X65308Y-21060D02*
X65290Y-21119D01*
X65290Y-21119D02*
X65261Y-21173D01*
X65261Y-21173D02*
X65222Y-21221D01*
X65222Y-21221D02*
X65175Y-21260D01*
X65175Y-21260D02*
X65121Y-21289D01*
X65121Y-21289D02*
X65063Y-21307D01*
X65063Y-21307D02*
X65002Y-21313D01*
X65002Y-21313D02*
X64942Y-21308D01*
X64942Y-21308D02*
X64883Y-21291D01*
X64883Y-21291D02*
X64829Y-21262D01*
X64829Y-21262D02*
X64781Y-21224D01*
X64781Y-21224D02*
X64741Y-21177D01*
X64741Y-21177D02*
X64712Y-21123D01*
X64712Y-21123D02*
X64693Y-21065D01*
X64693Y-21065D02*
X64687Y-21004D01*
X64687Y-21004D02*
X64692Y-20944D01*
X64692Y-20944D02*
X64709Y-20885D01*
X64709Y-20885D02*
X64737Y-20830D01*
X64737Y-20830D02*
X64775Y-20782D01*
X64775Y-20782D02*
X64821Y-20743D01*
X64821Y-20743D02*
X64875Y-20713D01*
X64875Y-20713D02*
X64933Y-20694D01*
X64933Y-20694D02*
X64994Y-20687D01*
X64994Y-20687D02*
X65054Y-20691D01*
X65054Y-20691D02*
X65113Y-20708D01*
X65113Y-20708D02*
X65168Y-20735D01*
X65168Y-20735D02*
X65216Y-20773D01*
X65216Y-20773D02*
X65256Y-20820D01*
X65256Y-20820D02*
X65286Y-20873D01*
X65286Y-20873D02*
X65306Y-20931D01*
X65306Y-20931D02*
X65313Y-20992D01*
X65313Y-20992D02*
X65314Y-21000D01*
X65314Y-18000D02*
X65308Y-18060D01*
X65308Y-18060D02*
X65290Y-18119D01*
X65290Y-18119D02*
X65261Y-18173D01*
X65261Y-18173D02*
X65222Y-18221D01*
X65222Y-18221D02*
X65175Y-18260D01*
X65175Y-18260D02*
X65121Y-18289D01*
X65121Y-18289D02*
X65063Y-18307D01*
X65063Y-18307D02*
X65002Y-18313D01*
X65002Y-18313D02*
X64942Y-18308D01*
X64942Y-18308D02*
X64883Y-18291D01*
X64883Y-18291D02*
X64829Y-18262D01*
X64829Y-18262D02*
X64781Y-18224D01*
X64781Y-18224D02*
X64741Y-18177D01*
X64741Y-18177D02*
X64712Y-18123D01*
X64712Y-18123D02*
X64693Y-18065D01*
X64693Y-18065D02*
X64687Y-18004D01*
X64687Y-18004D02*
X64692Y-17944D01*
X64692Y-17944D02*
X64709Y-17885D01*
X64709Y-17885D02*
X64737Y-17830D01*
X64737Y-17830D02*
X64775Y-17782D01*
X64775Y-17782D02*
X64821Y-17743D01*
X64821Y-17743D02*
X64875Y-17713D01*
X64875Y-17713D02*
X64933Y-17694D01*
X64933Y-17694D02*
X64994Y-17687D01*
X64994Y-17687D02*
X65054Y-17691D01*
X65054Y-17691D02*
X65113Y-17708D01*
X65113Y-17708D02*
X65168Y-17735D01*
X65168Y-17735D02*
X65216Y-17773D01*
X65216Y-17773D02*
X65256Y-17820D01*
X65256Y-17820D02*
X65286Y-17873D01*
X65286Y-17873D02*
X65306Y-17931D01*
X65306Y-17931D02*
X65313Y-17992D01*
X65313Y-17992D02*
X65314Y-18000D01*
X68314Y-16000D02*
X68308Y-16060D01*
X68308Y-16060D02*
X68290Y-16119D01*
X68290Y-16119D02*
X68261Y-16173D01*
X68261Y-16173D02*
X68222Y-16221D01*
X68222Y-16221D02*
X68175Y-16260D01*
X68175Y-16260D02*
X68121Y-16289D01*
X68121Y-16289D02*
X68063Y-16307D01*
X68063Y-16307D02*
X68002Y-16313D01*
X68002Y-16313D02*
X67942Y-16308D01*
X67942Y-16308D02*
X67883Y-16291D01*
X67883Y-16291D02*
X67829Y-16262D01*
X67829Y-16262D02*
X67781Y-16224D01*
X67781Y-16224D02*
X67741Y-16177D01*
X67741Y-16177D02*
X67712Y-16123D01*
X67712Y-16123D02*
X67693Y-16065D01*
X67693Y-16065D02*
X67687Y-16004D01*
X67687Y-16004D02*
X67692Y-15944D01*
X67692Y-15944D02*
X67709Y-15885D01*
X67709Y-15885D02*
X67737Y-15830D01*
X67737Y-15830D02*
X67775Y-15782D01*
X67775Y-15782D02*
X67821Y-15743D01*
X67821Y-15743D02*
X67875Y-15713D01*
X67875Y-15713D02*
X67933Y-15694D01*
X67933Y-15694D02*
X67994Y-15687D01*
X67994Y-15687D02*
X68054Y-15691D01*
X68054Y-15691D02*
X68113Y-15708D01*
X68113Y-15708D02*
X68168Y-15735D01*
X68168Y-15735D02*
X68216Y-15773D01*
X68216Y-15773D02*
X68256Y-15820D01*
X68256Y-15820D02*
X68286Y-15873D01*
X68286Y-15873D02*
X68306Y-15931D01*
X68306Y-15931D02*
X68313Y-15992D01*
X68313Y-15992D02*
X68314Y-16000D01*
X70314Y-16000D02*
X70308Y-16060D01*
X70308Y-16060D02*
X70290Y-16119D01*
X70290Y-16119D02*
X70261Y-16173D01*
X70261Y-16173D02*
X70222Y-16221D01*
X70222Y-16221D02*
X70175Y-16260D01*
X70175Y-16260D02*
X70121Y-16289D01*
X70121Y-16289D02*
X70063Y-16307D01*
X70063Y-16307D02*
X70002Y-16313D01*
X70002Y-16313D02*
X69942Y-16308D01*
X69942Y-16308D02*
X69883Y-16291D01*
X69883Y-16291D02*
X69829Y-16262D01*
X69829Y-16262D02*
X69781Y-16224D01*
X69781Y-16224D02*
X69741Y-16177D01*
X69741Y-16177D02*
X69712Y-16123D01*
X69712Y-16123D02*
X69693Y-16065D01*
X69693Y-16065D02*
X69687Y-16004D01*
X69687Y-16004D02*
X69692Y-15944D01*
X69692Y-15944D02*
X69709Y-15885D01*
X69709Y-15885D02*
X69737Y-15830D01*
X69737Y-15830D02*
X69775Y-15782D01*
X69775Y-15782D02*
X69821Y-15743D01*
X69821Y-15743D02*
X69875Y-15713D01*
X69875Y-15713D02*
X69933Y-15694D01*
X69933Y-15694D02*
X69994Y-15687D01*
X69994Y-15687D02*
X70054Y-15691D01*
X70054Y-15691D02*
X70113Y-15708D01*
X70113Y-15708D02*
X70168Y-15735D01*
X70168Y-15735D02*
X70216Y-15773D01*
X70216Y-15773D02*
X70256Y-15820D01*
X70256Y-15820D02*
X70286Y-15873D01*
X70286Y-15873D02*
X70306Y-15931D01*
X70306Y-15931D02*
X70313Y-15992D01*
X70313Y-15992D02*
X70314Y-16000D01*
X72314Y-16000D02*
X72308Y-16060D01*
X72308Y-16060D02*
X72290Y-16119D01*
X72290Y-16119D02*
X72261Y-16173D01*
X72261Y-16173D02*
X72222Y-16221D01*
X72222Y-16221D02*
X72175Y-16260D01*
X72175Y-16260D02*
X72121Y-16289D01*
X72121Y-16289D02*
X72063Y-16307D01*
X72063Y-16307D02*
X72002Y-16313D01*
X72002Y-16313D02*
X71942Y-16308D01*
X71942Y-16308D02*
X71883Y-16291D01*
X71883Y-16291D02*
X71829Y-16262D01*
X71829Y-16262D02*
X71781Y-16224D01*
X71781Y-16224D02*
X71741Y-16177D01*
X71741Y-16177D02*
X71712Y-16123D01*
X71712Y-16123D02*
X71693Y-16065D01*
X71693Y-16065D02*
X71687Y-16004D01*
X71687Y-16004D02*
X71692Y-15944D01*
X71692Y-15944D02*
X71709Y-15885D01*
X71709Y-15885D02*
X71737Y-15830D01*
X71737Y-15830D02*
X71775Y-15782D01*
X71775Y-15782D02*
X71821Y-15743D01*
X71821Y-15743D02*
X71875Y-15713D01*
X71875Y-15713D02*
X71933Y-15694D01*
X71933Y-15694D02*
X71994Y-15687D01*
X71994Y-15687D02*
X72054Y-15691D01*
X72054Y-15691D02*
X72113Y-15708D01*
X72113Y-15708D02*
X72168Y-15735D01*
X72168Y-15735D02*
X72216Y-15773D01*
X72216Y-15773D02*
X72256Y-15820D01*
X72256Y-15820D02*
X72286Y-15873D01*
X72286Y-15873D02*
X72306Y-15931D01*
X72306Y-15931D02*
X72313Y-15992D01*
X72313Y-15992D02*
X72314Y-16000D01*
X68314Y-13000D02*
X68308Y-13060D01*
X68308Y-13060D02*
X68290Y-13119D01*
X68290Y-13119D02*
X68261Y-13173D01*
X68261Y-13173D02*
X68222Y-13221D01*
X68222Y-13221D02*
X68175Y-13260D01*
X68175Y-13260D02*
X68121Y-13289D01*
X68121Y-13289D02*
X68063Y-13307D01*
X68063Y-13307D02*
X68002Y-13313D01*
X68002Y-13313D02*
X67942Y-13308D01*
X67942Y-13308D02*
X67883Y-13291D01*
X67883Y-13291D02*
X67829Y-13262D01*
X67829Y-13262D02*
X67781Y-13224D01*
X67781Y-13224D02*
X67741Y-13177D01*
X67741Y-13177D02*
X67712Y-13123D01*
X67712Y-13123D02*
X67693Y-13065D01*
X67693Y-13065D02*
X67687Y-13004D01*
X67687Y-13004D02*
X67692Y-12944D01*
X67692Y-12944D02*
X67709Y-12885D01*
X67709Y-12885D02*
X67737Y-12830D01*
X67737Y-12830D02*
X67775Y-12782D01*
X67775Y-12782D02*
X67821Y-12743D01*
X67821Y-12743D02*
X67875Y-12713D01*
X67875Y-12713D02*
X67933Y-12694D01*
X67933Y-12694D02*
X67994Y-12687D01*
X67994Y-12687D02*
X68054Y-12691D01*
X68054Y-12691D02*
X68113Y-12708D01*
X68113Y-12708D02*
X68168Y-12735D01*
X68168Y-12735D02*
X68216Y-12773D01*
X68216Y-12773D02*
X68256Y-12820D01*
X68256Y-12820D02*
X68286Y-12873D01*
X68286Y-12873D02*
X68306Y-12931D01*
X68306Y-12931D02*
X68313Y-12992D01*
X68313Y-12992D02*
X68314Y-13000D01*
X70314Y-13000D02*
X70308Y-13060D01*
X70308Y-13060D02*
X70290Y-13119D01*
X70290Y-13119D02*
X70261Y-13173D01*
X70261Y-13173D02*
X70222Y-13221D01*
X70222Y-13221D02*
X70175Y-13260D01*
X70175Y-13260D02*
X70121Y-13289D01*
X70121Y-13289D02*
X70063Y-13307D01*
X70063Y-13307D02*
X70002Y-13313D01*
X70002Y-13313D02*
X69942Y-13308D01*
X69942Y-13308D02*
X69883Y-13291D01*
X69883Y-13291D02*
X69829Y-13262D01*
X69829Y-13262D02*
X69781Y-13224D01*
X69781Y-13224D02*
X69741Y-13177D01*
X69741Y-13177D02*
X69712Y-13123D01*
X69712Y-13123D02*
X69693Y-13065D01*
X69693Y-13065D02*
X69687Y-13004D01*
X69687Y-13004D02*
X69692Y-12944D01*
X69692Y-12944D02*
X69709Y-12885D01*
X69709Y-12885D02*
X69737Y-12830D01*
X69737Y-12830D02*
X69775Y-12782D01*
X69775Y-12782D02*
X69821Y-12743D01*
X69821Y-12743D02*
X69875Y-12713D01*
X69875Y-12713D02*
X69933Y-12694D01*
X69933Y-12694D02*
X69994Y-12687D01*
X69994Y-12687D02*
X70054Y-12691D01*
X70054Y-12691D02*
X70113Y-12708D01*
X70113Y-12708D02*
X70168Y-12735D01*
X70168Y-12735D02*
X70216Y-12773D01*
X70216Y-12773D02*
X70256Y-12820D01*
X70256Y-12820D02*
X70286Y-12873D01*
X70286Y-12873D02*
X70306Y-12931D01*
X70306Y-12931D02*
X70313Y-12992D01*
X70313Y-12992D02*
X70314Y-13000D01*
X72314Y-13000D02*
X72308Y-13060D01*
X72308Y-13060D02*
X72290Y-13119D01*
X72290Y-13119D02*
X72261Y-13173D01*
X72261Y-13173D02*
X72222Y-13221D01*
X72222Y-13221D02*
X72175Y-13260D01*
X72175Y-13260D02*
X72121Y-13289D01*
X72121Y-13289D02*
X72063Y-13307D01*
X72063Y-13307D02*
X72002Y-13313D01*
X72002Y-13313D02*
X71942Y-13308D01*
X71942Y-13308D02*
X71883Y-13291D01*
X71883Y-13291D02*
X71829Y-13262D01*
X71829Y-13262D02*
X71781Y-13224D01*
X71781Y-13224D02*
X71741Y-13177D01*
X71741Y-13177D02*
X71712Y-13123D01*
X71712Y-13123D02*
X71693Y-13065D01*
X71693Y-13065D02*
X71687Y-13004D01*
X71687Y-13004D02*
X71692Y-12944D01*
X71692Y-12944D02*
X71709Y-12885D01*
X71709Y-12885D02*
X71737Y-12830D01*
X71737Y-12830D02*
X71775Y-12782D01*
X71775Y-12782D02*
X71821Y-12743D01*
X71821Y-12743D02*
X71875Y-12713D01*
X71875Y-12713D02*
X71933Y-12694D01*
X71933Y-12694D02*
X71994Y-12687D01*
X71994Y-12687D02*
X72054Y-12691D01*
X72054Y-12691D02*
X72113Y-12708D01*
X72113Y-12708D02*
X72168Y-12735D01*
X72168Y-12735D02*
X72216Y-12773D01*
X72216Y-12773D02*
X72256Y-12820D01*
X72256Y-12820D02*
X72286Y-12873D01*
X72286Y-12873D02*
X72306Y-12931D01*
X72306Y-12931D02*
X72313Y-12992D01*
X72313Y-12992D02*
X72314Y-13000D01*
X65314Y-16000D02*
X65308Y-16060D01*
X65308Y-16060D02*
X65290Y-16119D01*
X65290Y-16119D02*
X65261Y-16173D01*
X65261Y-16173D02*
X65222Y-16221D01*
X65222Y-16221D02*
X65175Y-16260D01*
X65175Y-16260D02*
X65121Y-16289D01*
X65121Y-16289D02*
X65063Y-16307D01*
X65063Y-16307D02*
X65002Y-16313D01*
X65002Y-16313D02*
X64942Y-16308D01*
X64942Y-16308D02*
X64883Y-16291D01*
X64883Y-16291D02*
X64829Y-16262D01*
X64829Y-16262D02*
X64781Y-16224D01*
X64781Y-16224D02*
X64741Y-16177D01*
X64741Y-16177D02*
X64712Y-16123D01*
X64712Y-16123D02*
X64693Y-16065D01*
X64693Y-16065D02*
X64687Y-16004D01*
X64687Y-16004D02*
X64692Y-15944D01*
X64692Y-15944D02*
X64709Y-15885D01*
X64709Y-15885D02*
X64737Y-15830D01*
X64737Y-15830D02*
X64775Y-15782D01*
X64775Y-15782D02*
X64821Y-15743D01*
X64821Y-15743D02*
X64875Y-15713D01*
X64875Y-15713D02*
X64933Y-15694D01*
X64933Y-15694D02*
X64994Y-15687D01*
X64994Y-15687D02*
X65054Y-15691D01*
X65054Y-15691D02*
X65113Y-15708D01*
X65113Y-15708D02*
X65168Y-15735D01*
X65168Y-15735D02*
X65216Y-15773D01*
X65216Y-15773D02*
X65256Y-15820D01*
X65256Y-15820D02*
X65286Y-15873D01*
X65286Y-15873D02*
X65306Y-15931D01*
X65306Y-15931D02*
X65313Y-15992D01*
X65313Y-15992D02*
X65314Y-16000D01*
X65314Y-13000D02*
X65308Y-13060D01*
X65308Y-13060D02*
X65290Y-13119D01*
X65290Y-13119D02*
X65261Y-13173D01*
X65261Y-13173D02*
X65222Y-13221D01*
X65222Y-13221D02*
X65175Y-13260D01*
X65175Y-13260D02*
X65121Y-13289D01*
X65121Y-13289D02*
X65063Y-13307D01*
X65063Y-13307D02*
X65002Y-13313D01*
X65002Y-13313D02*
X64942Y-13308D01*
X64942Y-13308D02*
X64883Y-13291D01*
X64883Y-13291D02*
X64829Y-13262D01*
X64829Y-13262D02*
X64781Y-13224D01*
X64781Y-13224D02*
X64741Y-13177D01*
X64741Y-13177D02*
X64712Y-13123D01*
X64712Y-13123D02*
X64693Y-13065D01*
X64693Y-13065D02*
X64687Y-13004D01*
X64687Y-13004D02*
X64692Y-12944D01*
X64692Y-12944D02*
X64709Y-12885D01*
X64709Y-12885D02*
X64737Y-12830D01*
X64737Y-12830D02*
X64775Y-12782D01*
X64775Y-12782D02*
X64821Y-12743D01*
X64821Y-12743D02*
X64875Y-12713D01*
X64875Y-12713D02*
X64933Y-12694D01*
X64933Y-12694D02*
X64994Y-12687D01*
X64994Y-12687D02*
X65054Y-12691D01*
X65054Y-12691D02*
X65113Y-12708D01*
X65113Y-12708D02*
X65168Y-12735D01*
X65168Y-12735D02*
X65216Y-12773D01*
X65216Y-12773D02*
X65256Y-12820D01*
X65256Y-12820D02*
X65286Y-12873D01*
X65286Y-12873D02*
X65306Y-12931D01*
X65306Y-12931D02*
X65313Y-12992D01*
X65313Y-12992D02*
X65314Y-13000D01*
X38800Y-16200D02*
X38800Y-16800D01*
X38800Y-16800D02*
X38200Y-16800D01*
X38200Y-16800D02*
X38200Y-16200D01*
X38200Y-16200D02*
X38800Y-16200D01*
X37800Y-16500D02*
X37794Y-16558D01*
X37794Y-16558D02*
X37777Y-16614D01*
X37777Y-16614D02*
X37749Y-16666D01*
X37749Y-16666D02*
X37712Y-16711D01*
X37712Y-16711D02*
X37667Y-16748D01*
X37667Y-16748D02*
X37616Y-16776D01*
X37616Y-16776D02*
X37560Y-16793D01*
X37560Y-16793D02*
X37502Y-16799D01*
X37502Y-16799D02*
X37444Y-16794D01*
X37444Y-16794D02*
X37388Y-16778D01*
X37388Y-16778D02*
X37336Y-16751D01*
X37336Y-16751D02*
X37291Y-16714D01*
X37291Y-16714D02*
X37253Y-16669D01*
X37253Y-16669D02*
X37225Y-16618D01*
X37225Y-16618D02*
X37207Y-16562D01*
X37207Y-16562D02*
X37201Y-16504D01*
X37201Y-16504D02*
X37205Y-16446D01*
X37205Y-16446D02*
X37222Y-16390D01*
X37222Y-16390D02*
X37248Y-16338D01*
X37248Y-16338D02*
X37285Y-16292D01*
X37285Y-16292D02*
X37329Y-16254D01*
X37329Y-16254D02*
X37380Y-16226D01*
X37380Y-16226D02*
X37436Y-16207D01*
X37436Y-16207D02*
X37494Y-16201D01*
X37494Y-16201D02*
X37552Y-16205D01*
X37552Y-16205D02*
X37608Y-16221D01*
X37608Y-16221D02*
X37660Y-16247D01*
X37660Y-16247D02*
X37706Y-16283D01*
X37706Y-16283D02*
X37745Y-16328D01*
X37745Y-16328D02*
X37774Y-16378D01*
X37774Y-16378D02*
X37792Y-16434D01*
X37792Y-16434D02*
X37799Y-16492D01*
X37799Y-16492D02*
X37800Y-16500D01*
X36800Y-16500D02*
X36794Y-16558D01*
X36794Y-16558D02*
X36777Y-16614D01*
X36777Y-16614D02*
X36749Y-16666D01*
X36749Y-16666D02*
X36712Y-16711D01*
X36712Y-16711D02*
X36667Y-16748D01*
X36667Y-16748D02*
X36616Y-16776D01*
X36616Y-16776D02*
X36560Y-16793D01*
X36560Y-16793D02*
X36502Y-16799D01*
X36502Y-16799D02*
X36444Y-16794D01*
X36444Y-16794D02*
X36388Y-16778D01*
X36388Y-16778D02*
X36336Y-16751D01*
X36336Y-16751D02*
X36291Y-16714D01*
X36291Y-16714D02*
X36253Y-16669D01*
X36253Y-16669D02*
X36225Y-16618D01*
X36225Y-16618D02*
X36207Y-16562D01*
X36207Y-16562D02*
X36201Y-16504D01*
X36201Y-16504D02*
X36205Y-16446D01*
X36205Y-16446D02*
X36222Y-16390D01*
X36222Y-16390D02*
X36248Y-16338D01*
X36248Y-16338D02*
X36285Y-16292D01*
X36285Y-16292D02*
X36329Y-16254D01*
X36329Y-16254D02*
X36380Y-16226D01*
X36380Y-16226D02*
X36436Y-16207D01*
X36436Y-16207D02*
X36494Y-16201D01*
X36494Y-16201D02*
X36552Y-16205D01*
X36552Y-16205D02*
X36608Y-16221D01*
X36608Y-16221D02*
X36660Y-16247D01*
X36660Y-16247D02*
X36706Y-16283D01*
X36706Y-16283D02*
X36745Y-16328D01*
X36745Y-16328D02*
X36774Y-16378D01*
X36774Y-16378D02*
X36792Y-16434D01*
X36792Y-16434D02*
X36799Y-16492D01*
X36799Y-16492D02*
X36800Y-16500D01*
X44200Y-48800D02*
X44200Y-48200D01*
X44200Y-48200D02*
X44800Y-48200D01*
X44800Y-48200D02*
X44800Y-48800D01*
X44800Y-48800D02*
X44200Y-48800D01*
X45800Y-48500D02*
X45794Y-48558D01*
X45794Y-48558D02*
X45777Y-48614D01*
X45777Y-48614D02*
X45749Y-48666D01*
X45749Y-48666D02*
X45712Y-48711D01*
X45712Y-48711D02*
X45667Y-48748D01*
X45667Y-48748D02*
X45616Y-48776D01*
X45616Y-48776D02*
X45560Y-48793D01*
X45560Y-48793D02*
X45502Y-48799D01*
X45502Y-48799D02*
X45444Y-48794D01*
X45444Y-48794D02*
X45388Y-48778D01*
X45388Y-48778D02*
X45336Y-48751D01*
X45336Y-48751D02*
X45291Y-48714D01*
X45291Y-48714D02*
X45253Y-48669D01*
X45253Y-48669D02*
X45225Y-48618D01*
X45225Y-48618D02*
X45207Y-48562D01*
X45207Y-48562D02*
X45201Y-48504D01*
X45201Y-48504D02*
X45205Y-48446D01*
X45205Y-48446D02*
X45222Y-48390D01*
X45222Y-48390D02*
X45248Y-48338D01*
X45248Y-48338D02*
X45285Y-48292D01*
X45285Y-48292D02*
X45329Y-48254D01*
X45329Y-48254D02*
X45380Y-48226D01*
X45380Y-48226D02*
X45436Y-48207D01*
X45436Y-48207D02*
X45494Y-48201D01*
X45494Y-48201D02*
X45552Y-48205D01*
X45552Y-48205D02*
X45608Y-48221D01*
X45608Y-48221D02*
X45660Y-48247D01*
X45660Y-48247D02*
X45706Y-48283D01*
X45706Y-48283D02*
X45745Y-48328D01*
X45745Y-48328D02*
X45774Y-48378D01*
X45774Y-48378D02*
X45792Y-48434D01*
X45792Y-48434D02*
X45799Y-48492D01*
X45799Y-48492D02*
X45800Y-48500D01*
X48775Y-50500D02*
X48769Y-50553D01*
X48769Y-50553D02*
X48754Y-50604D01*
X48754Y-50604D02*
X48729Y-50652D01*
X48729Y-50652D02*
X48695Y-50693D01*
X48695Y-50693D02*
X48653Y-50727D01*
X48653Y-50727D02*
X48606Y-50753D01*
X48606Y-50753D02*
X48555Y-50769D01*
X48555Y-50769D02*
X48501Y-50774D01*
X48501Y-50774D02*
X48449Y-50770D01*
X48449Y-50770D02*
X48397Y-50754D01*
X48397Y-50754D02*
X48350Y-50730D01*
X48350Y-50730D02*
X48308Y-50696D01*
X48308Y-50696D02*
X48274Y-50655D01*
X48274Y-50655D02*
X48248Y-50608D01*
X48248Y-50608D02*
X48232Y-50557D01*
X48232Y-50557D02*
X48226Y-50503D01*
X48226Y-50503D02*
X48230Y-50451D01*
X48230Y-50451D02*
X48245Y-50399D01*
X48245Y-50399D02*
X48269Y-50352D01*
X48269Y-50352D02*
X48303Y-50309D01*
X48303Y-50309D02*
X48344Y-50275D01*
X48344Y-50275D02*
X48390Y-50249D01*
X48390Y-50249D02*
X48441Y-50232D01*
X48441Y-50232D02*
X48495Y-50226D01*
X48495Y-50226D02*
X48547Y-50230D01*
X48547Y-50230D02*
X48599Y-50244D01*
X48599Y-50244D02*
X48647Y-50268D01*
X48647Y-50268D02*
X48689Y-50301D01*
X48689Y-50301D02*
X48724Y-50342D01*
X48724Y-50342D02*
X48751Y-50389D01*
X48751Y-50389D02*
X48768Y-50440D01*
X48768Y-50440D02*
X48774Y-50493D01*
X48774Y-50493D02*
X48775Y-50500D01*
X48775Y-47500D02*
X48769Y-47553D01*
X48769Y-47553D02*
X48754Y-47604D01*
X48754Y-47604D02*
X48729Y-47652D01*
X48729Y-47652D02*
X48695Y-47693D01*
X48695Y-47693D02*
X48653Y-47727D01*
X48653Y-47727D02*
X48606Y-47753D01*
X48606Y-47753D02*
X48555Y-47769D01*
X48555Y-47769D02*
X48501Y-47774D01*
X48501Y-47774D02*
X48449Y-47770D01*
X48449Y-47770D02*
X48397Y-47754D01*
X48397Y-47754D02*
X48350Y-47730D01*
X48350Y-47730D02*
X48308Y-47696D01*
X48308Y-47696D02*
X48274Y-47655D01*
X48274Y-47655D02*
X48248Y-47608D01*
X48248Y-47608D02*
X48232Y-47557D01*
X48232Y-47557D02*
X48226Y-47503D01*
X48226Y-47503D02*
X48230Y-47451D01*
X48230Y-47451D02*
X48245Y-47399D01*
X48245Y-47399D02*
X48269Y-47352D01*
X48269Y-47352D02*
X48303Y-47309D01*
X48303Y-47309D02*
X48344Y-47275D01*
X48344Y-47275D02*
X48390Y-47249D01*
X48390Y-47249D02*
X48441Y-47232D01*
X48441Y-47232D02*
X48495Y-47226D01*
X48495Y-47226D02*
X48547Y-47230D01*
X48547Y-47230D02*
X48599Y-47244D01*
X48599Y-47244D02*
X48647Y-47268D01*
X48647Y-47268D02*
X48689Y-47301D01*
X48689Y-47301D02*
X48724Y-47342D01*
X48724Y-47342D02*
X48751Y-47389D01*
X48751Y-47389D02*
X48768Y-47440D01*
X48768Y-47440D02*
X48774Y-47493D01*
X48774Y-47493D02*
X48775Y-47500D01*
X64433Y-26918D02*
X62663Y-26918D01*
X62663Y-26918D02*
X62663Y-26034D01*
X62663Y-26034D02*
X64433Y-26034D01*
X64433Y-26034D02*
X64433Y-26918D01*
X66401Y-26918D02*
X64631Y-26918D01*
X64631Y-26918D02*
X64631Y-26034D01*
X64631Y-26034D02*
X66401Y-26034D01*
X66401Y-26034D02*
X66401Y-26918D01*
X62464Y-26918D02*
X60694Y-26918D01*
X60694Y-26918D02*
X60694Y-26034D01*
X60694Y-26034D02*
X62464Y-26034D01*
X62464Y-26034D02*
X62464Y-26918D01*
X64433Y-23966D02*
X62663Y-23966D01*
X62663Y-23966D02*
X62663Y-23082D01*
X62663Y-23082D02*
X64433Y-23082D01*
X64433Y-23082D02*
X64433Y-23966D01*
X66401Y-23966D02*
X64631Y-23966D01*
X64631Y-23966D02*
X64631Y-23082D01*
X64631Y-23082D02*
X66401Y-23082D01*
X66401Y-23082D02*
X66401Y-23966D01*
X62464Y-23966D02*
X60694Y-23966D01*
X60694Y-23966D02*
X60694Y-23082D01*
X60694Y-23082D02*
X62464Y-23082D01*
X62464Y-23082D02*
X62464Y-23966D01*
X72306Y-26918D02*
X70536Y-26918D01*
X70536Y-26918D02*
X70536Y-26034D01*
X70536Y-26034D02*
X72306Y-26034D01*
X72306Y-26034D02*
X72306Y-26918D01*
X72306Y-23966D02*
X70536Y-23966D01*
X70536Y-23966D02*
X70536Y-23082D01*
X70536Y-23082D02*
X72306Y-23082D01*
X72306Y-23082D02*
X72306Y-23966D01*
X64433Y-32918D02*
X62663Y-32918D01*
X62663Y-32918D02*
X62663Y-32034D01*
X62663Y-32034D02*
X64433Y-32034D01*
X64433Y-32034D02*
X64433Y-32918D01*
X66401Y-32918D02*
X64631Y-32918D01*
X64631Y-32918D02*
X64631Y-32034D01*
X64631Y-32034D02*
X66401Y-32034D01*
X66401Y-32034D02*
X66401Y-32918D01*
X62464Y-32918D02*
X60694Y-32918D01*
X60694Y-32918D02*
X60694Y-32034D01*
X60694Y-32034D02*
X62464Y-32034D01*
X62464Y-32034D02*
X62464Y-32918D01*
X64433Y-29966D02*
X62663Y-29966D01*
X62663Y-29966D02*
X62663Y-29082D01*
X62663Y-29082D02*
X64433Y-29082D01*
X64433Y-29082D02*
X64433Y-29966D01*
X66401Y-29966D02*
X64631Y-29966D01*
X64631Y-29966D02*
X64631Y-29082D01*
X64631Y-29082D02*
X66401Y-29082D01*
X66401Y-29082D02*
X66401Y-29966D01*
X62464Y-29966D02*
X60694Y-29966D01*
X60694Y-29966D02*
X60694Y-29082D01*
X60694Y-29082D02*
X62464Y-29082D01*
X62464Y-29082D02*
X62464Y-29966D01*
X72306Y-32918D02*
X70536Y-32918D01*
X70536Y-32918D02*
X70536Y-32034D01*
X70536Y-32034D02*
X72306Y-32034D01*
X72306Y-32034D02*
X72306Y-32918D01*
X72306Y-29966D02*
X70536Y-29966D01*
X70536Y-29966D02*
X70536Y-29082D01*
X70536Y-29082D02*
X72306Y-29082D01*
X72306Y-29082D02*
X72306Y-29966D01*
X64433Y-44918D02*
X62663Y-44918D01*
X62663Y-44918D02*
X62663Y-44034D01*
X62663Y-44034D02*
X64433Y-44034D01*
X64433Y-44034D02*
X64433Y-44918D01*
X66401Y-44918D02*
X64631Y-44918D01*
X64631Y-44918D02*
X64631Y-44034D01*
X64631Y-44034D02*
X66401Y-44034D01*
X66401Y-44034D02*
X66401Y-44918D01*
X62464Y-44918D02*
X60694Y-44918D01*
X60694Y-44918D02*
X60694Y-44034D01*
X60694Y-44034D02*
X62464Y-44034D01*
X62464Y-44034D02*
X62464Y-44918D01*
X64433Y-41966D02*
X62663Y-41966D01*
X62663Y-41966D02*
X62663Y-41082D01*
X62663Y-41082D02*
X64433Y-41082D01*
X64433Y-41082D02*
X64433Y-41966D01*
X66401Y-41966D02*
X64631Y-41966D01*
X64631Y-41966D02*
X64631Y-41082D01*
X64631Y-41082D02*
X66401Y-41082D01*
X66401Y-41082D02*
X66401Y-41966D01*
X62464Y-41966D02*
X60694Y-41966D01*
X60694Y-41966D02*
X60694Y-41082D01*
X60694Y-41082D02*
X62464Y-41082D01*
X62464Y-41082D02*
X62464Y-41966D01*
X72306Y-44918D02*
X70536Y-44918D01*
X70536Y-44918D02*
X70536Y-44034D01*
X70536Y-44034D02*
X72306Y-44034D01*
X72306Y-44034D02*
X72306Y-44918D01*
X72306Y-41966D02*
X70536Y-41966D01*
X70536Y-41966D02*
X70536Y-41082D01*
X70536Y-41082D02*
X72306Y-41082D01*
X72306Y-41082D02*
X72306Y-41966D01*
X64433Y-38918D02*
X62663Y-38918D01*
X62663Y-38918D02*
X62663Y-38034D01*
X62663Y-38034D02*
X64433Y-38034D01*
X64433Y-38034D02*
X64433Y-38918D01*
X66401Y-38918D02*
X64631Y-38918D01*
X64631Y-38918D02*
X64631Y-38034D01*
X64631Y-38034D02*
X66401Y-38034D01*
X66401Y-38034D02*
X66401Y-38918D01*
X62464Y-38918D02*
X60694Y-38918D01*
X60694Y-38918D02*
X60694Y-38034D01*
X60694Y-38034D02*
X62464Y-38034D01*
X62464Y-38034D02*
X62464Y-38918D01*
X64433Y-35966D02*
X62663Y-35966D01*
X62663Y-35966D02*
X62663Y-35082D01*
X62663Y-35082D02*
X64433Y-35082D01*
X64433Y-35082D02*
X64433Y-35966D01*
X66401Y-35966D02*
X64631Y-35966D01*
X64631Y-35966D02*
X64631Y-35082D01*
X64631Y-35082D02*
X66401Y-35082D01*
X66401Y-35082D02*
X66401Y-35966D01*
X62464Y-35966D02*
X60694Y-35966D01*
X60694Y-35966D02*
X60694Y-35082D01*
X60694Y-35082D02*
X62464Y-35082D01*
X62464Y-35082D02*
X62464Y-35966D01*
X72306Y-38918D02*
X70536Y-38918D01*
X70536Y-38918D02*
X70536Y-38034D01*
X70536Y-38034D02*
X72306Y-38034D01*
X72306Y-38034D02*
X72306Y-38918D01*
X72306Y-35966D02*
X70536Y-35966D01*
X70536Y-35966D02*
X70536Y-35082D01*
X70536Y-35082D02*
X72306Y-35082D01*
X72306Y-35082D02*
X72306Y-35966D01*
X75700Y-48000D02*
X75686Y-48135D01*
X75686Y-48135D02*
X75647Y-48266D01*
X75647Y-48266D02*
X75583Y-48387D01*
X75583Y-48387D02*
X75496Y-48493D01*
X75496Y-48493D02*
X75391Y-48580D01*
X75391Y-48580D02*
X75271Y-48645D01*
X75271Y-48645D02*
X75140Y-48685D01*
X75140Y-48685D02*
X75004Y-48699D01*
X75004Y-48699D02*
X74869Y-48687D01*
X74869Y-48687D02*
X74738Y-48649D01*
X74738Y-48649D02*
X74617Y-48585D01*
X74617Y-48585D02*
X74511Y-48500D01*
X74511Y-48500D02*
X74423Y-48395D01*
X74423Y-48395D02*
X74357Y-48275D01*
X74357Y-48275D02*
X74316Y-48145D01*
X74316Y-48145D02*
X74301Y-48009D01*
X74301Y-48009D02*
X74312Y-47874D01*
X74312Y-47874D02*
X74350Y-47743D01*
X74350Y-47743D02*
X74412Y-47621D01*
X74412Y-47621D02*
X74497Y-47514D01*
X74497Y-47514D02*
X74601Y-47426D01*
X74601Y-47426D02*
X74720Y-47359D01*
X74720Y-47359D02*
X74850Y-47317D01*
X74850Y-47317D02*
X74986Y-47301D01*
X74986Y-47301D02*
X75121Y-47311D01*
X75121Y-47311D02*
X75253Y-47348D01*
X75253Y-47348D02*
X75375Y-47409D01*
X75375Y-47409D02*
X75482Y-47494D01*
X75482Y-47494D02*
X75572Y-47597D01*
X75572Y-47597D02*
X75639Y-47716D01*
X75639Y-47716D02*
X75682Y-47845D01*
X75682Y-47845D02*
X75699Y-47981D01*
X75699Y-47981D02*
X75700Y-48000D01*
X79250Y-48000D02*
X79240Y-48097D01*
X79240Y-48097D02*
X79212Y-48190D01*
X79212Y-48190D02*
X79166Y-48276D01*
X79166Y-48276D02*
X79104Y-48352D01*
X79104Y-48352D02*
X79029Y-48414D01*
X79029Y-48414D02*
X78943Y-48460D01*
X78943Y-48460D02*
X78850Y-48489D01*
X78850Y-48489D02*
X78753Y-48499D01*
X78753Y-48499D02*
X78657Y-48491D01*
X78657Y-48491D02*
X78563Y-48463D01*
X78563Y-48463D02*
X78477Y-48418D01*
X78477Y-48418D02*
X78401Y-48357D01*
X78401Y-48357D02*
X78338Y-48282D01*
X78338Y-48282D02*
X78291Y-48196D01*
X78291Y-48196D02*
X78261Y-48103D01*
X78261Y-48103D02*
X78251Y-48006D01*
X78251Y-48006D02*
X78259Y-47910D01*
X78259Y-47910D02*
X78286Y-47816D01*
X78286Y-47816D02*
X78330Y-47730D01*
X78330Y-47730D02*
X78391Y-47653D01*
X78391Y-47653D02*
X78465Y-47590D01*
X78465Y-47590D02*
X78550Y-47542D01*
X78550Y-47542D02*
X78643Y-47512D01*
X78643Y-47512D02*
X78740Y-47501D01*
X78740Y-47501D02*
X78836Y-47508D01*
X78836Y-47508D02*
X78930Y-47534D01*
X78930Y-47534D02*
X79017Y-47578D01*
X79017Y-47578D02*
X79094Y-47638D01*
X79094Y-47638D02*
X79158Y-47712D01*
X79158Y-47712D02*
X79206Y-47797D01*
X79206Y-47797D02*
X79237Y-47890D01*
X79237Y-47890D02*
X79249Y-47987D01*
X79249Y-47987D02*
X79250Y-48000D01*
X79175Y-50000D02*
X79166Y-50082D01*
X79166Y-50082D02*
X79142Y-50161D01*
X79142Y-50161D02*
X79103Y-50235D01*
X79103Y-50235D02*
X79051Y-50299D01*
X79051Y-50299D02*
X78987Y-50352D01*
X78987Y-50352D02*
X78914Y-50391D01*
X78914Y-50391D02*
X78835Y-50416D01*
X78835Y-50416D02*
X78752Y-50424D01*
X78752Y-50424D02*
X78671Y-50417D01*
X78671Y-50417D02*
X78591Y-50394D01*
X78591Y-50394D02*
X78518Y-50355D01*
X78518Y-50355D02*
X78453Y-50303D01*
X78453Y-50303D02*
X78400Y-50240D01*
X78400Y-50240D02*
X78360Y-50167D01*
X78360Y-50167D02*
X78335Y-50088D01*
X78335Y-50088D02*
X78326Y-50005D01*
X78326Y-50005D02*
X78332Y-49924D01*
X78332Y-49924D02*
X78355Y-49844D01*
X78355Y-49844D02*
X78393Y-49770D01*
X78393Y-49770D02*
X78445Y-49705D01*
X78445Y-49705D02*
X78508Y-49652D01*
X78508Y-49652D02*
X78580Y-49611D01*
X78580Y-49611D02*
X78659Y-49585D01*
X78659Y-49585D02*
X78742Y-49576D01*
X78742Y-49576D02*
X78823Y-49582D01*
X78823Y-49582D02*
X78903Y-49604D01*
X78903Y-49604D02*
X78977Y-49642D01*
X78977Y-49642D02*
X79043Y-49693D01*
X79043Y-49693D02*
X79097Y-49756D01*
X79097Y-49756D02*
X79138Y-49828D01*
X79138Y-49828D02*
X79164Y-49906D01*
X79164Y-49906D02*
X79174Y-49989D01*
X79174Y-49989D02*
X79175Y-50000D01*
X80925Y-47000D02*
X80916Y-47082D01*
X80916Y-47082D02*
X80892Y-47161D01*
X80892Y-47161D02*
X80853Y-47235D01*
X80853Y-47235D02*
X80801Y-47299D01*
X80801Y-47299D02*
X80737Y-47352D01*
X80737Y-47352D02*
X80664Y-47391D01*
X80664Y-47391D02*
X80585Y-47416D01*
X80585Y-47416D02*
X80502Y-47424D01*
X80502Y-47424D02*
X80421Y-47417D01*
X80421Y-47417D02*
X80341Y-47394D01*
X80341Y-47394D02*
X80268Y-47355D01*
X80268Y-47355D02*
X80203Y-47303D01*
X80203Y-47303D02*
X80150Y-47240D01*
X80150Y-47240D02*
X80110Y-47167D01*
X80110Y-47167D02*
X80085Y-47088D01*
X80085Y-47088D02*
X80076Y-47005D01*
X80076Y-47005D02*
X80082Y-46924D01*
X80082Y-46924D02*
X80105Y-46844D01*
X80105Y-46844D02*
X80143Y-46770D01*
X80143Y-46770D02*
X80195Y-46705D01*
X80195Y-46705D02*
X80258Y-46652D01*
X80258Y-46652D02*
X80330Y-46611D01*
X80330Y-46611D02*
X80409Y-46585D01*
X80409Y-46585D02*
X80492Y-46576D01*
X80492Y-46576D02*
X80573Y-46582D01*
X80573Y-46582D02*
X80653Y-46604D01*
X80653Y-46604D02*
X80727Y-46642D01*
X80727Y-46642D02*
X80793Y-46693D01*
X80793Y-46693D02*
X80847Y-46756D01*
X80847Y-46756D02*
X80888Y-46828D01*
X80888Y-46828D02*
X80914Y-46906D01*
X80914Y-46906D02*
X80924Y-46989D01*
X80924Y-46989D02*
X80925Y-47000D01*
X77425Y-47000D02*
X77416Y-47082D01*
X77416Y-47082D02*
X77392Y-47161D01*
X77392Y-47161D02*
X77353Y-47235D01*
X77353Y-47235D02*
X77301Y-47299D01*
X77301Y-47299D02*
X77237Y-47352D01*
X77237Y-47352D02*
X77164Y-47391D01*
X77164Y-47391D02*
X77085Y-47416D01*
X77085Y-47416D02*
X77002Y-47424D01*
X77002Y-47424D02*
X76921Y-47417D01*
X76921Y-47417D02*
X76841Y-47394D01*
X76841Y-47394D02*
X76768Y-47355D01*
X76768Y-47355D02*
X76703Y-47303D01*
X76703Y-47303D02*
X76650Y-47240D01*
X76650Y-47240D02*
X76610Y-47167D01*
X76610Y-47167D02*
X76585Y-47088D01*
X76585Y-47088D02*
X76576Y-47005D01*
X76576Y-47005D02*
X76582Y-46924D01*
X76582Y-46924D02*
X76605Y-46844D01*
X76605Y-46844D02*
X76643Y-46770D01*
X76643Y-46770D02*
X76695Y-46705D01*
X76695Y-46705D02*
X76758Y-46652D01*
X76758Y-46652D02*
X76830Y-46611D01*
X76830Y-46611D02*
X76909Y-46585D01*
X76909Y-46585D02*
X76992Y-46576D01*
X76992Y-46576D02*
X77073Y-46582D01*
X77073Y-46582D02*
X77153Y-46604D01*
X77153Y-46604D02*
X77227Y-46642D01*
X77227Y-46642D02*
X77293Y-46693D01*
X77293Y-46693D02*
X77347Y-46756D01*
X77347Y-46756D02*
X77388Y-46828D01*
X77388Y-46828D02*
X77414Y-46906D01*
X77414Y-46906D02*
X77424Y-46989D01*
X77424Y-46989D02*
X77425Y-47000D01*
X67260Y-49000D02*
X67255Y-49050D01*
X67255Y-49050D02*
X67240Y-49099D01*
X67240Y-49099D02*
X67216Y-49143D01*
X67216Y-49143D02*
X67184Y-49183D01*
X67184Y-49183D02*
X67145Y-49215D01*
X67145Y-49215D02*
X67100Y-49239D01*
X67100Y-49239D02*
X67052Y-49254D01*
X67052Y-49254D02*
X67001Y-49259D01*
X67001Y-49259D02*
X66952Y-49255D01*
X66952Y-49255D02*
X66903Y-49241D01*
X66903Y-49241D02*
X66858Y-49217D01*
X66858Y-49217D02*
X66819Y-49185D01*
X66819Y-49185D02*
X66786Y-49146D01*
X66786Y-49146D02*
X66762Y-49102D01*
X66762Y-49102D02*
X66746Y-49054D01*
X66746Y-49054D02*
X66741Y-49003D01*
X66741Y-49003D02*
X66745Y-48954D01*
X66745Y-48954D02*
X66759Y-48905D01*
X66759Y-48905D02*
X66782Y-48860D01*
X66782Y-48860D02*
X66813Y-48820D01*
X66813Y-48820D02*
X66852Y-48787D01*
X66852Y-48787D02*
X66896Y-48762D01*
X66896Y-48762D02*
X66945Y-48747D01*
X66945Y-48747D02*
X66995Y-48741D01*
X66995Y-48741D02*
X67045Y-48744D01*
X67045Y-48744D02*
X67094Y-48758D01*
X67094Y-48758D02*
X67139Y-48781D01*
X67139Y-48781D02*
X67179Y-48812D01*
X67179Y-48812D02*
X67212Y-48851D01*
X67212Y-48851D02*
X67237Y-48895D01*
X67237Y-48895D02*
X67253Y-48943D01*
X67253Y-48943D02*
X67259Y-48993D01*
X67259Y-48993D02*
X67260Y-49000D01*
X67260Y-50000D02*
X67255Y-50050D01*
X67255Y-50050D02*
X67240Y-50099D01*
X67240Y-50099D02*
X67216Y-50143D01*
X67216Y-50143D02*
X67184Y-50183D01*
X67184Y-50183D02*
X67145Y-50215D01*
X67145Y-50215D02*
X67100Y-50239D01*
X67100Y-50239D02*
X67052Y-50254D01*
X67052Y-50254D02*
X67001Y-50259D01*
X67001Y-50259D02*
X66952Y-50255D01*
X66952Y-50255D02*
X66903Y-50241D01*
X66903Y-50241D02*
X66858Y-50217D01*
X66858Y-50217D02*
X66819Y-50185D01*
X66819Y-50185D02*
X66786Y-50146D01*
X66786Y-50146D02*
X66762Y-50102D01*
X66762Y-50102D02*
X66746Y-50054D01*
X66746Y-50054D02*
X66741Y-50003D01*
X66741Y-50003D02*
X66745Y-49954D01*
X66745Y-49954D02*
X66759Y-49905D01*
X66759Y-49905D02*
X66782Y-49860D01*
X66782Y-49860D02*
X66813Y-49820D01*
X66813Y-49820D02*
X66852Y-49787D01*
X66852Y-49787D02*
X66896Y-49762D01*
X66896Y-49762D02*
X66945Y-49747D01*
X66945Y-49747D02*
X66995Y-49741D01*
X66995Y-49741D02*
X67045Y-49744D01*
X67045Y-49744D02*
X67094Y-49758D01*
X67094Y-49758D02*
X67139Y-49781D01*
X67139Y-49781D02*
X67179Y-49812D01*
X67179Y-49812D02*
X67212Y-49851D01*
X67212Y-49851D02*
X67237Y-49895D01*
X67237Y-49895D02*
X67253Y-49943D01*
X67253Y-49943D02*
X67259Y-49993D01*
X67259Y-49993D02*
X67260Y-50000D01*
X56775Y-48500D02*
X56769Y-48553D01*
X56769Y-48553D02*
X56754Y-48604D01*
X56754Y-48604D02*
X56729Y-48652D01*
X56729Y-48652D02*
X56695Y-48693D01*
X56695Y-48693D02*
X56653Y-48727D01*
X56653Y-48727D02*
X56606Y-48753D01*
X56606Y-48753D02*
X56555Y-48769D01*
X56555Y-48769D02*
X56501Y-48774D01*
X56501Y-48774D02*
X56449Y-48770D01*
X56449Y-48770D02*
X56397Y-48754D01*
X56397Y-48754D02*
X56350Y-48730D01*
X56350Y-48730D02*
X56308Y-48696D01*
X56308Y-48696D02*
X56274Y-48655D01*
X56274Y-48655D02*
X56248Y-48608D01*
X56248Y-48608D02*
X56232Y-48557D01*
X56232Y-48557D02*
X56226Y-48503D01*
X56226Y-48503D02*
X56230Y-48451D01*
X56230Y-48451D02*
X56245Y-48399D01*
X56245Y-48399D02*
X56269Y-48352D01*
X56269Y-48352D02*
X56303Y-48309D01*
X56303Y-48309D02*
X56344Y-48275D01*
X56344Y-48275D02*
X56390Y-48249D01*
X56390Y-48249D02*
X56441Y-48232D01*
X56441Y-48232D02*
X56495Y-48226D01*
X56495Y-48226D02*
X56547Y-48230D01*
X56547Y-48230D02*
X56599Y-48244D01*
X56599Y-48244D02*
X56647Y-48268D01*
X56647Y-48268D02*
X56689Y-48301D01*
X56689Y-48301D02*
X56724Y-48342D01*
X56724Y-48342D02*
X56751Y-48389D01*
X56751Y-48389D02*
X56768Y-48440D01*
X56768Y-48440D02*
X56774Y-48493D01*
X56774Y-48493D02*
X56775Y-48500D01*
X59775Y-48500D02*
X59769Y-48553D01*
X59769Y-48553D02*
X59754Y-48604D01*
X59754Y-48604D02*
X59729Y-48652D01*
X59729Y-48652D02*
X59695Y-48693D01*
X59695Y-48693D02*
X59653Y-48727D01*
X59653Y-48727D02*
X59606Y-48753D01*
X59606Y-48753D02*
X59555Y-48769D01*
X59555Y-48769D02*
X59501Y-48774D01*
X59501Y-48774D02*
X59449Y-48770D01*
X59449Y-48770D02*
X59397Y-48754D01*
X59397Y-48754D02*
X59350Y-48730D01*
X59350Y-48730D02*
X59308Y-48696D01*
X59308Y-48696D02*
X59274Y-48655D01*
X59274Y-48655D02*
X59248Y-48608D01*
X59248Y-48608D02*
X59232Y-48557D01*
X59232Y-48557D02*
X59226Y-48503D01*
X59226Y-48503D02*
X59230Y-48451D01*
X59230Y-48451D02*
X59245Y-48399D01*
X59245Y-48399D02*
X59269Y-48352D01*
X59269Y-48352D02*
X59303Y-48309D01*
X59303Y-48309D02*
X59344Y-48275D01*
X59344Y-48275D02*
X59390Y-48249D01*
X59390Y-48249D02*
X59441Y-48232D01*
X59441Y-48232D02*
X59495Y-48226D01*
X59495Y-48226D02*
X59547Y-48230D01*
X59547Y-48230D02*
X59599Y-48244D01*
X59599Y-48244D02*
X59647Y-48268D01*
X59647Y-48268D02*
X59689Y-48301D01*
X59689Y-48301D02*
X59724Y-48342D01*
X59724Y-48342D02*
X59751Y-48389D01*
X59751Y-48389D02*
X59768Y-48440D01*
X59768Y-48440D02*
X59774Y-48493D01*
X59774Y-48493D02*
X59775Y-48500D01*
X56775Y-47000D02*
X56769Y-47053D01*
X56769Y-47053D02*
X56754Y-47104D01*
X56754Y-47104D02*
X56729Y-47152D01*
X56729Y-47152D02*
X56695Y-47193D01*
X56695Y-47193D02*
X56653Y-47227D01*
X56653Y-47227D02*
X56606Y-47253D01*
X56606Y-47253D02*
X56555Y-47269D01*
X56555Y-47269D02*
X56501Y-47274D01*
X56501Y-47274D02*
X56449Y-47270D01*
X56449Y-47270D02*
X56397Y-47254D01*
X56397Y-47254D02*
X56350Y-47230D01*
X56350Y-47230D02*
X56308Y-47196D01*
X56308Y-47196D02*
X56274Y-47155D01*
X56274Y-47155D02*
X56248Y-47108D01*
X56248Y-47108D02*
X56232Y-47057D01*
X56232Y-47057D02*
X56226Y-47003D01*
X56226Y-47003D02*
X56230Y-46951D01*
X56230Y-46951D02*
X56245Y-46899D01*
X56245Y-46899D02*
X56269Y-46852D01*
X56269Y-46852D02*
X56303Y-46809D01*
X56303Y-46809D02*
X56344Y-46775D01*
X56344Y-46775D02*
X56390Y-46749D01*
X56390Y-46749D02*
X56441Y-46732D01*
X56441Y-46732D02*
X56495Y-46726D01*
X56495Y-46726D02*
X56547Y-46730D01*
X56547Y-46730D02*
X56599Y-46744D01*
X56599Y-46744D02*
X56647Y-46768D01*
X56647Y-46768D02*
X56689Y-46801D01*
X56689Y-46801D02*
X56724Y-46842D01*
X56724Y-46842D02*
X56751Y-46889D01*
X56751Y-46889D02*
X56768Y-46940D01*
X56768Y-46940D02*
X56774Y-46993D01*
X56774Y-46993D02*
X56775Y-47000D01*
X59775Y-47000D02*
X59769Y-47053D01*
X59769Y-47053D02*
X59754Y-47104D01*
X59754Y-47104D02*
X59729Y-47152D01*
X59729Y-47152D02*
X59695Y-47193D01*
X59695Y-47193D02*
X59653Y-47227D01*
X59653Y-47227D02*
X59606Y-47253D01*
X59606Y-47253D02*
X59555Y-47269D01*
X59555Y-47269D02*
X59501Y-47274D01*
X59501Y-47274D02*
X59449Y-47270D01*
X59449Y-47270D02*
X59397Y-47254D01*
X59397Y-47254D02*
X59350Y-47230D01*
X59350Y-47230D02*
X59308Y-47196D01*
X59308Y-47196D02*
X59274Y-47155D01*
X59274Y-47155D02*
X59248Y-47108D01*
X59248Y-47108D02*
X59232Y-47057D01*
X59232Y-47057D02*
X59226Y-47003D01*
X59226Y-47003D02*
X59230Y-46951D01*
X59230Y-46951D02*
X59245Y-46899D01*
X59245Y-46899D02*
X59269Y-46852D01*
X59269Y-46852D02*
X59303Y-46809D01*
X59303Y-46809D02*
X59344Y-46775D01*
X59344Y-46775D02*
X59390Y-46749D01*
X59390Y-46749D02*
X59441Y-46732D01*
X59441Y-46732D02*
X59495Y-46726D01*
X59495Y-46726D02*
X59547Y-46730D01*
X59547Y-46730D02*
X59599Y-46744D01*
X59599Y-46744D02*
X59647Y-46768D01*
X59647Y-46768D02*
X59689Y-46801D01*
X59689Y-46801D02*
X59724Y-46842D01*
X59724Y-46842D02*
X59751Y-46889D01*
X59751Y-46889D02*
X59768Y-46940D01*
X59768Y-46940D02*
X59774Y-46993D01*
X59774Y-46993D02*
X59775Y-47000D01*
X65775Y-50275D02*
X65225Y-50275D01*
X65225Y-50275D02*
X65225Y-49725D01*
X65225Y-49725D02*
X65775Y-49725D01*
X65775Y-49725D02*
X65775Y-50275D01*
X65775Y-49000D02*
X65769Y-49053D01*
X65769Y-49053D02*
X65754Y-49104D01*
X65754Y-49104D02*
X65729Y-49152D01*
X65729Y-49152D02*
X65695Y-49193D01*
X65695Y-49193D02*
X65653Y-49227D01*
X65653Y-49227D02*
X65606Y-49253D01*
X65606Y-49253D02*
X65555Y-49269D01*
X65555Y-49269D02*
X65501Y-49274D01*
X65501Y-49274D02*
X65449Y-49270D01*
X65449Y-49270D02*
X65397Y-49254D01*
X65397Y-49254D02*
X65350Y-49230D01*
X65350Y-49230D02*
X65308Y-49196D01*
X65308Y-49196D02*
X65274Y-49155D01*
X65274Y-49155D02*
X65248Y-49108D01*
X65248Y-49108D02*
X65232Y-49057D01*
X65232Y-49057D02*
X65226Y-49003D01*
X65226Y-49003D02*
X65230Y-48951D01*
X65230Y-48951D02*
X65245Y-48899D01*
X65245Y-48899D02*
X65269Y-48852D01*
X65269Y-48852D02*
X65303Y-48809D01*
X65303Y-48809D02*
X65344Y-48775D01*
X65344Y-48775D02*
X65390Y-48749D01*
X65390Y-48749D02*
X65441Y-48732D01*
X65441Y-48732D02*
X65495Y-48726D01*
X65495Y-48726D02*
X65547Y-48730D01*
X65547Y-48730D02*
X65599Y-48744D01*
X65599Y-48744D02*
X65647Y-48768D01*
X65647Y-48768D02*
X65689Y-48801D01*
X65689Y-48801D02*
X65724Y-48842D01*
X65724Y-48842D02*
X65751Y-48889D01*
X65751Y-48889D02*
X65768Y-48940D01*
X65768Y-48940D02*
X65774Y-48993D01*
X65774Y-48993D02*
X65775Y-49000D01*
X65775Y-48000D02*
X65769Y-48053D01*
X65769Y-48053D02*
X65754Y-48104D01*
X65754Y-48104D02*
X65729Y-48152D01*
X65729Y-48152D02*
X65695Y-48193D01*
X65695Y-48193D02*
X65653Y-48227D01*
X65653Y-48227D02*
X65606Y-48253D01*
X65606Y-48253D02*
X65555Y-48269D01*
X65555Y-48269D02*
X65501Y-48274D01*
X65501Y-48274D02*
X65449Y-48270D01*
X65449Y-48270D02*
X65397Y-48254D01*
X65397Y-48254D02*
X65350Y-48230D01*
X65350Y-48230D02*
X65308Y-48196D01*
X65308Y-48196D02*
X65274Y-48155D01*
X65274Y-48155D02*
X65248Y-48108D01*
X65248Y-48108D02*
X65232Y-48057D01*
X65232Y-48057D02*
X65226Y-48003D01*
X65226Y-48003D02*
X65230Y-47951D01*
X65230Y-47951D02*
X65245Y-47899D01*
X65245Y-47899D02*
X65269Y-47852D01*
X65269Y-47852D02*
X65303Y-47809D01*
X65303Y-47809D02*
X65344Y-47775D01*
X65344Y-47775D02*
X65390Y-47749D01*
X65390Y-47749D02*
X65441Y-47732D01*
X65441Y-47732D02*
X65495Y-47726D01*
X65495Y-47726D02*
X65547Y-47730D01*
X65547Y-47730D02*
X65599Y-47744D01*
X65599Y-47744D02*
X65647Y-47768D01*
X65647Y-47768D02*
X65689Y-47801D01*
X65689Y-47801D02*
X65724Y-47842D01*
X65724Y-47842D02*
X65751Y-47889D01*
X65751Y-47889D02*
X65768Y-47940D01*
X65768Y-47940D02*
X65774Y-47993D01*
X65774Y-47993D02*
X65775Y-48000D01*
X65775Y-47000D02*
X65769Y-47053D01*
X65769Y-47053D02*
X65754Y-47104D01*
X65754Y-47104D02*
X65729Y-47152D01*
X65729Y-47152D02*
X65695Y-47193D01*
X65695Y-47193D02*
X65653Y-47227D01*
X65653Y-47227D02*
X65606Y-47253D01*
X65606Y-47253D02*
X65555Y-47269D01*
X65555Y-47269D02*
X65501Y-47274D01*
X65501Y-47274D02*
X65449Y-47270D01*
X65449Y-47270D02*
X65397Y-47254D01*
X65397Y-47254D02*
X65350Y-47230D01*
X65350Y-47230D02*
X65308Y-47196D01*
X65308Y-47196D02*
X65274Y-47155D01*
X65274Y-47155D02*
X65248Y-47108D01*
X65248Y-47108D02*
X65232Y-47057D01*
X65232Y-47057D02*
X65226Y-47003D01*
X65226Y-47003D02*
X65230Y-46951D01*
X65230Y-46951D02*
X65245Y-46899D01*
X65245Y-46899D02*
X65269Y-46852D01*
X65269Y-46852D02*
X65303Y-46809D01*
X65303Y-46809D02*
X65344Y-46775D01*
X65344Y-46775D02*
X65390Y-46749D01*
X65390Y-46749D02*
X65441Y-46732D01*
X65441Y-46732D02*
X65495Y-46726D01*
X65495Y-46726D02*
X65547Y-46730D01*
X65547Y-46730D02*
X65599Y-46744D01*
X65599Y-46744D02*
X65647Y-46768D01*
X65647Y-46768D02*
X65689Y-46801D01*
X65689Y-46801D02*
X65724Y-46842D01*
X65724Y-46842D02*
X65751Y-46889D01*
X65751Y-46889D02*
X65768Y-46940D01*
X65768Y-46940D02*
X65774Y-46993D01*
X65774Y-46993D02*
X65775Y-47000D01*
X62775Y-47000D02*
X62769Y-47053D01*
X62769Y-47053D02*
X62754Y-47104D01*
X62754Y-47104D02*
X62729Y-47152D01*
X62729Y-47152D02*
X62695Y-47193D01*
X62695Y-47193D02*
X62653Y-47227D01*
X62653Y-47227D02*
X62606Y-47253D01*
X62606Y-47253D02*
X62555Y-47269D01*
X62555Y-47269D02*
X62501Y-47274D01*
X62501Y-47274D02*
X62449Y-47270D01*
X62449Y-47270D02*
X62397Y-47254D01*
X62397Y-47254D02*
X62350Y-47230D01*
X62350Y-47230D02*
X62308Y-47196D01*
X62308Y-47196D02*
X62274Y-47155D01*
X62274Y-47155D02*
X62248Y-47108D01*
X62248Y-47108D02*
X62232Y-47057D01*
X62232Y-47057D02*
X62226Y-47003D01*
X62226Y-47003D02*
X62230Y-46951D01*
X62230Y-46951D02*
X62245Y-46899D01*
X62245Y-46899D02*
X62269Y-46852D01*
X62269Y-46852D02*
X62303Y-46809D01*
X62303Y-46809D02*
X62344Y-46775D01*
X62344Y-46775D02*
X62390Y-46749D01*
X62390Y-46749D02*
X62441Y-46732D01*
X62441Y-46732D02*
X62495Y-46726D01*
X62495Y-46726D02*
X62547Y-46730D01*
X62547Y-46730D02*
X62599Y-46744D01*
X62599Y-46744D02*
X62647Y-46768D01*
X62647Y-46768D02*
X62689Y-46801D01*
X62689Y-46801D02*
X62724Y-46842D01*
X62724Y-46842D02*
X62751Y-46889D01*
X62751Y-46889D02*
X62768Y-46940D01*
X62768Y-46940D02*
X62774Y-46993D01*
X62774Y-46993D02*
X62775Y-47000D01*
X62775Y-48000D02*
X62769Y-48053D01*
X62769Y-48053D02*
X62754Y-48104D01*
X62754Y-48104D02*
X62729Y-48152D01*
X62729Y-48152D02*
X62695Y-48193D01*
X62695Y-48193D02*
X62653Y-48227D01*
X62653Y-48227D02*
X62606Y-48253D01*
X62606Y-48253D02*
X62555Y-48269D01*
X62555Y-48269D02*
X62501Y-48274D01*
X62501Y-48274D02*
X62449Y-48270D01*
X62449Y-48270D02*
X62397Y-48254D01*
X62397Y-48254D02*
X62350Y-48230D01*
X62350Y-48230D02*
X62308Y-48196D01*
X62308Y-48196D02*
X62274Y-48155D01*
X62274Y-48155D02*
X62248Y-48108D01*
X62248Y-48108D02*
X62232Y-48057D01*
X62232Y-48057D02*
X62226Y-48003D01*
X62226Y-48003D02*
X62230Y-47951D01*
X62230Y-47951D02*
X62245Y-47899D01*
X62245Y-47899D02*
X62269Y-47852D01*
X62269Y-47852D02*
X62303Y-47809D01*
X62303Y-47809D02*
X62344Y-47775D01*
X62344Y-47775D02*
X62390Y-47749D01*
X62390Y-47749D02*
X62441Y-47732D01*
X62441Y-47732D02*
X62495Y-47726D01*
X62495Y-47726D02*
X62547Y-47730D01*
X62547Y-47730D02*
X62599Y-47744D01*
X62599Y-47744D02*
X62647Y-47768D01*
X62647Y-47768D02*
X62689Y-47801D01*
X62689Y-47801D02*
X62724Y-47842D01*
X62724Y-47842D02*
X62751Y-47889D01*
X62751Y-47889D02*
X62768Y-47940D01*
X62768Y-47940D02*
X62774Y-47993D01*
X62774Y-47993D02*
X62775Y-48000D01*
X62775Y-49000D02*
X62769Y-49053D01*
X62769Y-49053D02*
X62754Y-49104D01*
X62754Y-49104D02*
X62729Y-49152D01*
X62729Y-49152D02*
X62695Y-49193D01*
X62695Y-49193D02*
X62653Y-49227D01*
X62653Y-49227D02*
X62606Y-49253D01*
X62606Y-49253D02*
X62555Y-49269D01*
X62555Y-49269D02*
X62501Y-49274D01*
X62501Y-49274D02*
X62449Y-49270D01*
X62449Y-49270D02*
X62397Y-49254D01*
X62397Y-49254D02*
X62350Y-49230D01*
X62350Y-49230D02*
X62308Y-49196D01*
X62308Y-49196D02*
X62274Y-49155D01*
X62274Y-49155D02*
X62248Y-49108D01*
X62248Y-49108D02*
X62232Y-49057D01*
X62232Y-49057D02*
X62226Y-49003D01*
X62226Y-49003D02*
X62230Y-48951D01*
X62230Y-48951D02*
X62245Y-48899D01*
X62245Y-48899D02*
X62269Y-48852D01*
X62269Y-48852D02*
X62303Y-48809D01*
X62303Y-48809D02*
X62344Y-48775D01*
X62344Y-48775D02*
X62390Y-48749D01*
X62390Y-48749D02*
X62441Y-48732D01*
X62441Y-48732D02*
X62495Y-48726D01*
X62495Y-48726D02*
X62547Y-48730D01*
X62547Y-48730D02*
X62599Y-48744D01*
X62599Y-48744D02*
X62647Y-48768D01*
X62647Y-48768D02*
X62689Y-48801D01*
X62689Y-48801D02*
X62724Y-48842D01*
X62724Y-48842D02*
X62751Y-48889D01*
X62751Y-48889D02*
X62768Y-48940D01*
X62768Y-48940D02*
X62774Y-48993D01*
X62774Y-48993D02*
X62775Y-49000D01*
X62775Y-50000D02*
X62769Y-50053D01*
X62769Y-50053D02*
X62754Y-50104D01*
X62754Y-50104D02*
X62729Y-50152D01*
X62729Y-50152D02*
X62695Y-50193D01*
X62695Y-50193D02*
X62653Y-50227D01*
X62653Y-50227D02*
X62606Y-50253D01*
X62606Y-50253D02*
X62555Y-50269D01*
X62555Y-50269D02*
X62501Y-50274D01*
X62501Y-50274D02*
X62449Y-50270D01*
X62449Y-50270D02*
X62397Y-50254D01*
X62397Y-50254D02*
X62350Y-50230D01*
X62350Y-50230D02*
X62308Y-50196D01*
X62308Y-50196D02*
X62274Y-50155D01*
X62274Y-50155D02*
X62248Y-50108D01*
X62248Y-50108D02*
X62232Y-50057D01*
X62232Y-50057D02*
X62226Y-50003D01*
X62226Y-50003D02*
X62230Y-49951D01*
X62230Y-49951D02*
X62245Y-49899D01*
X62245Y-49899D02*
X62269Y-49852D01*
X62269Y-49852D02*
X62303Y-49809D01*
X62303Y-49809D02*
X62344Y-49775D01*
X62344Y-49775D02*
X62390Y-49749D01*
X62390Y-49749D02*
X62441Y-49732D01*
X62441Y-49732D02*
X62495Y-49726D01*
X62495Y-49726D02*
X62547Y-49730D01*
X62547Y-49730D02*
X62599Y-49744D01*
X62599Y-49744D02*
X62647Y-49768D01*
X62647Y-49768D02*
X62689Y-49801D01*
X62689Y-49801D02*
X62724Y-49842D01*
X62724Y-49842D02*
X62751Y-49889D01*
X62751Y-49889D02*
X62768Y-49940D01*
X62768Y-49940D02*
X62774Y-49993D01*
X62774Y-49993D02*
X62775Y-50000D01*
X60775Y-50000D02*
X60769Y-50053D01*
X60769Y-50053D02*
X60754Y-50104D01*
X60754Y-50104D02*
X60729Y-50152D01*
X60729Y-50152D02*
X60695Y-50193D01*
X60695Y-50193D02*
X60653Y-50227D01*
X60653Y-50227D02*
X60606Y-50253D01*
X60606Y-50253D02*
X60555Y-50269D01*
X60555Y-50269D02*
X60501Y-50274D01*
X60501Y-50274D02*
X60449Y-50270D01*
X60449Y-50270D02*
X60397Y-50254D01*
X60397Y-50254D02*
X60350Y-50230D01*
X60350Y-50230D02*
X60308Y-50196D01*
X60308Y-50196D02*
X60274Y-50155D01*
X60274Y-50155D02*
X60248Y-50108D01*
X60248Y-50108D02*
X60232Y-50057D01*
X60232Y-50057D02*
X60226Y-50003D01*
X60226Y-50003D02*
X60230Y-49951D01*
X60230Y-49951D02*
X60245Y-49899D01*
X60245Y-49899D02*
X60269Y-49852D01*
X60269Y-49852D02*
X60303Y-49809D01*
X60303Y-49809D02*
X60344Y-49775D01*
X60344Y-49775D02*
X60390Y-49749D01*
X60390Y-49749D02*
X60441Y-49732D01*
X60441Y-49732D02*
X60495Y-49726D01*
X60495Y-49726D02*
X60547Y-49730D01*
X60547Y-49730D02*
X60599Y-49744D01*
X60599Y-49744D02*
X60647Y-49768D01*
X60647Y-49768D02*
X60689Y-49801D01*
X60689Y-49801D02*
X60724Y-49842D01*
X60724Y-49842D02*
X60751Y-49889D01*
X60751Y-49889D02*
X60768Y-49940D01*
X60768Y-49940D02*
X60774Y-49993D01*
X60774Y-49993D02*
X60775Y-50000D01*
X59775Y-50000D02*
X59769Y-50053D01*
X59769Y-50053D02*
X59754Y-50104D01*
X59754Y-50104D02*
X59729Y-50152D01*
X59729Y-50152D02*
X59695Y-50193D01*
X59695Y-50193D02*
X59653Y-50227D01*
X59653Y-50227D02*
X59606Y-50253D01*
X59606Y-50253D02*
X59555Y-50269D01*
X59555Y-50269D02*
X59501Y-50274D01*
X59501Y-50274D02*
X59449Y-50270D01*
X59449Y-50270D02*
X59397Y-50254D01*
X59397Y-50254D02*
X59350Y-50230D01*
X59350Y-50230D02*
X59308Y-50196D01*
X59308Y-50196D02*
X59274Y-50155D01*
X59274Y-50155D02*
X59248Y-50108D01*
X59248Y-50108D02*
X59232Y-50057D01*
X59232Y-50057D02*
X59226Y-50003D01*
X59226Y-50003D02*
X59230Y-49951D01*
X59230Y-49951D02*
X59245Y-49899D01*
X59245Y-49899D02*
X59269Y-49852D01*
X59269Y-49852D02*
X59303Y-49809D01*
X59303Y-49809D02*
X59344Y-49775D01*
X59344Y-49775D02*
X59390Y-49749D01*
X59390Y-49749D02*
X59441Y-49732D01*
X59441Y-49732D02*
X59495Y-49726D01*
X59495Y-49726D02*
X59547Y-49730D01*
X59547Y-49730D02*
X59599Y-49744D01*
X59599Y-49744D02*
X59647Y-49768D01*
X59647Y-49768D02*
X59689Y-49801D01*
X59689Y-49801D02*
X59724Y-49842D01*
X59724Y-49842D02*
X59751Y-49889D01*
X59751Y-49889D02*
X59768Y-49940D01*
X59768Y-49940D02*
X59774Y-49993D01*
X59774Y-49993D02*
X59775Y-50000D01*
G54D15*
X40775Y-43508D02*
X40775Y-43897D01*
X40775Y-43897D02*
X40592Y-43897D01*
X40592Y-43897D02*
X40531Y-43841D01*
X40531Y-43841D02*
X40531Y-43564D01*
X40531Y-43564D02*
X40470Y-43508D01*
X40470Y-43508D02*
X40287Y-43508D01*
X40287Y-43508D02*
X40225Y-43564D01*
X40225Y-43564D02*
X40225Y-43841D01*
X40225Y-43841D02*
X40287Y-43897D01*
X40775Y-42873D02*
X40775Y-43262D01*
X40775Y-43262D02*
X40592Y-43262D01*
X40592Y-43262D02*
X40531Y-43206D01*
X40531Y-43206D02*
X40531Y-42929D01*
X40531Y-42929D02*
X40470Y-42873D01*
X40470Y-42873D02*
X40287Y-42873D01*
X40287Y-42873D02*
X40225Y-42929D01*
X40225Y-42929D02*
X40225Y-43206D01*
X40225Y-43206D02*
X40287Y-43262D01*
X40775Y-42627D02*
X40225Y-42238D01*
X40714Y-42627D02*
X40287Y-42627D01*
X40287Y-42627D02*
X40225Y-42571D01*
X40225Y-42571D02*
X40225Y-42294D01*
X40225Y-42294D02*
X40287Y-42238D01*
X40287Y-42238D02*
X40714Y-42238D01*
X40714Y-42238D02*
X40775Y-42294D01*
X40775Y-42294D02*
X40775Y-42571D01*
X40775Y-42571D02*
X40714Y-42627D01*
X38775Y-43508D02*
X38775Y-43897D01*
X38775Y-43897D02*
X38592Y-43897D01*
X38592Y-43897D02*
X38531Y-43841D01*
X38531Y-43841D02*
X38531Y-43564D01*
X38531Y-43564D02*
X38470Y-43508D01*
X38470Y-43508D02*
X38287Y-43508D01*
X38287Y-43508D02*
X38225Y-43564D01*
X38225Y-43564D02*
X38225Y-43841D01*
X38225Y-43841D02*
X38287Y-43897D01*
X38775Y-42873D02*
X38775Y-43262D01*
X38775Y-43262D02*
X38592Y-43262D01*
X38592Y-43262D02*
X38531Y-43206D01*
X38531Y-43206D02*
X38531Y-42929D01*
X38531Y-42929D02*
X38470Y-42873D01*
X38470Y-42873D02*
X38287Y-42873D01*
X38287Y-42873D02*
X38225Y-42929D01*
X38225Y-42929D02*
X38225Y-43206D01*
X38225Y-43206D02*
X38287Y-43262D01*
X38775Y-42627D02*
X38225Y-42238D01*
X38714Y-42627D02*
X38287Y-42627D01*
X38287Y-42627D02*
X38225Y-42571D01*
X38225Y-42571D02*
X38225Y-42294D01*
X38225Y-42294D02*
X38287Y-42238D01*
X38287Y-42238D02*
X38714Y-42238D01*
X38714Y-42238D02*
X38775Y-42294D01*
X38775Y-42294D02*
X38775Y-42571D01*
X38775Y-42571D02*
X38714Y-42627D01*
X23492Y-17275D02*
X23103Y-17275D01*
X23103Y-17275D02*
X23103Y-17092D01*
X23103Y-17092D02*
X23159Y-17031D01*
X23159Y-17031D02*
X23436Y-17031D01*
X23436Y-17031D02*
X23492Y-16970D01*
X23492Y-16970D02*
X23492Y-16787D01*
X23492Y-16787D02*
X23436Y-16725D01*
X23436Y-16725D02*
X23159Y-16725D01*
X23159Y-16725D02*
X23103Y-16787D01*
X24127Y-17275D02*
X23738Y-17275D01*
X23738Y-17275D02*
X23738Y-17092D01*
X23738Y-17092D02*
X23794Y-17031D01*
X23794Y-17031D02*
X24071Y-17031D01*
X24071Y-17031D02*
X24127Y-16970D01*
X24127Y-16970D02*
X24127Y-16787D01*
X24127Y-16787D02*
X24071Y-16725D01*
X24071Y-16725D02*
X23794Y-16725D01*
X23794Y-16725D02*
X23738Y-16787D01*
X24373Y-17275D02*
X24762Y-16725D01*
X24373Y-17214D02*
X24373Y-16787D01*
X24373Y-16787D02*
X24429Y-16725D01*
X24429Y-16725D02*
X24706Y-16725D01*
X24706Y-16725D02*
X24762Y-16787D01*
X24762Y-16787D02*
X24762Y-17214D01*
X24762Y-17214D02*
X24706Y-17275D01*
X24706Y-17275D02*
X24429Y-17275D01*
X24429Y-17275D02*
X24373Y-17214D01*
X48775Y-49786D02*
X48775Y-49564D01*
X48775Y-49675D02*
X48225Y-49675D01*
X48287Y-49675D02*
X48409Y-49786D01*
X48775Y-49262D02*
X48225Y-48873D01*
X48714Y-49262D02*
X48287Y-49262D01*
X48287Y-49262D02*
X48225Y-49206D01*
X48225Y-49206D02*
X48225Y-48929D01*
X48225Y-48929D02*
X48287Y-48873D01*
X48287Y-48873D02*
X48714Y-48873D01*
X48714Y-48873D02*
X48775Y-48929D01*
X48775Y-48929D02*
X48775Y-49206D01*
X48775Y-49206D02*
X48714Y-49262D01*
X48775Y-48627D02*
X48225Y-48627D01*
X48225Y-48294D02*
X48470Y-48627D01*
X48470Y-48627D02*
X48775Y-48238D01*
G54D22*
X66500Y-27286D02*
X66500Y-27064D01*
X66500Y-27175D02*
X66000Y-27175D01*
X66056Y-27175D02*
X66167Y-27286D01*
X66500Y-26418D02*
X66500Y-26807D01*
X66500Y-26807D02*
X66334Y-26807D01*
X66334Y-26807D02*
X66278Y-26751D01*
X66278Y-26751D02*
X66278Y-26474D01*
X66278Y-26474D02*
X66223Y-26418D01*
X66223Y-26418D02*
X66056Y-26418D01*
X66056Y-26418D02*
X66000Y-26474D01*
X66000Y-26474D02*
X66000Y-26751D01*
X66000Y-26751D02*
X66056Y-26807D01*
X64532Y-27286D02*
X64532Y-27064D01*
X64532Y-27175D02*
X64032Y-27175D01*
X64088Y-27175D02*
X64199Y-27286D01*
X64532Y-26696D02*
X64532Y-26474D01*
X64532Y-26585D02*
X64032Y-26585D01*
X64088Y-26585D02*
X64199Y-26696D01*
X62563Y-27286D02*
X62563Y-27064D01*
X62563Y-27175D02*
X62063Y-27175D01*
X62119Y-27175D02*
X62230Y-27286D01*
X62563Y-26529D02*
X62063Y-26529D01*
X62063Y-26529D02*
X62452Y-26807D01*
X62452Y-26807D02*
X62452Y-26418D01*
X66500Y-22973D02*
X66500Y-23362D01*
X66500Y-23362D02*
X66334Y-23362D01*
X66334Y-23362D02*
X66278Y-23306D01*
X66278Y-23306D02*
X66278Y-23029D01*
X66278Y-23029D02*
X66223Y-22973D01*
X66223Y-22973D02*
X66056Y-22973D01*
X66056Y-22973D02*
X66000Y-23029D01*
X66000Y-23029D02*
X66000Y-23306D01*
X66000Y-23306D02*
X66056Y-23362D01*
X66500Y-22383D02*
X66500Y-22772D01*
X66500Y-22772D02*
X66334Y-22772D01*
X66334Y-22772D02*
X66278Y-22716D01*
X66278Y-22716D02*
X66278Y-22439D01*
X66278Y-22439D02*
X66223Y-22383D01*
X66223Y-22383D02*
X66056Y-22383D01*
X66056Y-22383D02*
X66000Y-22439D01*
X66000Y-22439D02*
X66000Y-22716D01*
X66000Y-22716D02*
X66056Y-22772D01*
X64532Y-22973D02*
X64532Y-23362D01*
X64532Y-23362D02*
X64366Y-23362D01*
X64366Y-23362D02*
X64310Y-23306D01*
X64310Y-23306D02*
X64310Y-23029D01*
X64310Y-23029D02*
X64255Y-22973D01*
X64255Y-22973D02*
X64088Y-22973D01*
X64088Y-22973D02*
X64032Y-23029D01*
X64032Y-23029D02*
X64032Y-23306D01*
X64032Y-23306D02*
X64088Y-23362D01*
X64532Y-22661D02*
X64532Y-22439D01*
X64532Y-22550D02*
X64032Y-22550D01*
X64088Y-22550D02*
X64199Y-22661D01*
X62563Y-23072D02*
X62563Y-23461D01*
X62563Y-23461D02*
X62397Y-23461D01*
X62397Y-23461D02*
X62341Y-23405D01*
X62341Y-23405D02*
X62341Y-23128D01*
X62341Y-23128D02*
X62286Y-23072D01*
X62286Y-23072D02*
X62119Y-23072D01*
X62119Y-23072D02*
X62063Y-23128D01*
X62063Y-23128D02*
X62063Y-23405D01*
X62063Y-23405D02*
X62119Y-23461D01*
X62563Y-22593D02*
X62063Y-22593D01*
X62063Y-22593D02*
X62452Y-22871D01*
X62452Y-22871D02*
X62452Y-22482D01*
X66500Y-33286D02*
X66500Y-33064D01*
X66500Y-33175D02*
X66000Y-33175D01*
X66056Y-33175D02*
X66167Y-33286D01*
X66500Y-32418D02*
X66500Y-32807D01*
X66500Y-32807D02*
X66334Y-32807D01*
X66334Y-32807D02*
X66278Y-32751D01*
X66278Y-32751D02*
X66278Y-32474D01*
X66278Y-32474D02*
X66223Y-32418D01*
X66223Y-32418D02*
X66056Y-32418D01*
X66056Y-32418D02*
X66000Y-32474D01*
X66000Y-32474D02*
X66000Y-32751D01*
X66000Y-32751D02*
X66056Y-32807D01*
X64532Y-33286D02*
X64532Y-33064D01*
X64532Y-33175D02*
X64032Y-33175D01*
X64088Y-33175D02*
X64199Y-33286D01*
X64532Y-32696D02*
X64532Y-32474D01*
X64532Y-32585D02*
X64032Y-32585D01*
X64088Y-32585D02*
X64199Y-32696D01*
X62563Y-33286D02*
X62563Y-33064D01*
X62563Y-33175D02*
X62063Y-33175D01*
X62119Y-33175D02*
X62230Y-33286D01*
X62563Y-32529D02*
X62063Y-32529D01*
X62063Y-32529D02*
X62452Y-32807D01*
X62452Y-32807D02*
X62452Y-32418D01*
X66500Y-28973D02*
X66500Y-29362D01*
X66500Y-29362D02*
X66334Y-29362D01*
X66334Y-29362D02*
X66278Y-29306D01*
X66278Y-29306D02*
X66278Y-29029D01*
X66278Y-29029D02*
X66223Y-28973D01*
X66223Y-28973D02*
X66056Y-28973D01*
X66056Y-28973D02*
X66000Y-29029D01*
X66000Y-29029D02*
X66000Y-29306D01*
X66000Y-29306D02*
X66056Y-29362D01*
X66500Y-28383D02*
X66500Y-28772D01*
X66500Y-28772D02*
X66334Y-28772D01*
X66334Y-28772D02*
X66278Y-28716D01*
X66278Y-28716D02*
X66278Y-28439D01*
X66278Y-28439D02*
X66223Y-28383D01*
X66223Y-28383D02*
X66056Y-28383D01*
X66056Y-28383D02*
X66000Y-28439D01*
X66000Y-28439D02*
X66000Y-28716D01*
X66000Y-28716D02*
X66056Y-28772D01*
X64532Y-28973D02*
X64532Y-29362D01*
X64532Y-29362D02*
X64366Y-29362D01*
X64366Y-29362D02*
X64310Y-29306D01*
X64310Y-29306D02*
X64310Y-29029D01*
X64310Y-29029D02*
X64255Y-28973D01*
X64255Y-28973D02*
X64088Y-28973D01*
X64088Y-28973D02*
X64032Y-29029D01*
X64032Y-29029D02*
X64032Y-29306D01*
X64032Y-29306D02*
X64088Y-29362D01*
X64532Y-28661D02*
X64532Y-28439D01*
X64532Y-28550D02*
X64032Y-28550D01*
X64088Y-28550D02*
X64199Y-28661D01*
X62563Y-29072D02*
X62563Y-29461D01*
X62563Y-29461D02*
X62397Y-29461D01*
X62397Y-29461D02*
X62341Y-29405D01*
X62341Y-29405D02*
X62341Y-29128D01*
X62341Y-29128D02*
X62286Y-29072D01*
X62286Y-29072D02*
X62119Y-29072D01*
X62119Y-29072D02*
X62063Y-29128D01*
X62063Y-29128D02*
X62063Y-29405D01*
X62063Y-29405D02*
X62119Y-29461D01*
X62563Y-28593D02*
X62063Y-28593D01*
X62063Y-28593D02*
X62452Y-28871D01*
X62452Y-28871D02*
X62452Y-28482D01*
X66500Y-45286D02*
X66500Y-45064D01*
X66500Y-45175D02*
X66000Y-45175D01*
X66056Y-45175D02*
X66167Y-45286D01*
X66500Y-44418D02*
X66500Y-44807D01*
X66500Y-44807D02*
X66334Y-44807D01*
X66334Y-44807D02*
X66278Y-44751D01*
X66278Y-44751D02*
X66278Y-44474D01*
X66278Y-44474D02*
X66223Y-44418D01*
X66223Y-44418D02*
X66056Y-44418D01*
X66056Y-44418D02*
X66000Y-44474D01*
X66000Y-44474D02*
X66000Y-44751D01*
X66000Y-44751D02*
X66056Y-44807D01*
X64532Y-45286D02*
X64532Y-45064D01*
X64532Y-45175D02*
X64032Y-45175D01*
X64088Y-45175D02*
X64199Y-45286D01*
X64532Y-44696D02*
X64532Y-44474D01*
X64532Y-44585D02*
X64032Y-44585D01*
X64088Y-44585D02*
X64199Y-44696D01*
X62563Y-45286D02*
X62563Y-45064D01*
X62563Y-45175D02*
X62063Y-45175D01*
X62119Y-45175D02*
X62230Y-45286D01*
X62563Y-44529D02*
X62063Y-44529D01*
X62063Y-44529D02*
X62452Y-44807D01*
X62452Y-44807D02*
X62452Y-44418D01*
X66500Y-40973D02*
X66500Y-41362D01*
X66500Y-41362D02*
X66334Y-41362D01*
X66334Y-41362D02*
X66278Y-41306D01*
X66278Y-41306D02*
X66278Y-41029D01*
X66278Y-41029D02*
X66223Y-40973D01*
X66223Y-40973D02*
X66056Y-40973D01*
X66056Y-40973D02*
X66000Y-41029D01*
X66000Y-41029D02*
X66000Y-41306D01*
X66000Y-41306D02*
X66056Y-41362D01*
X66500Y-40383D02*
X66500Y-40772D01*
X66500Y-40772D02*
X66334Y-40772D01*
X66334Y-40772D02*
X66278Y-40716D01*
X66278Y-40716D02*
X66278Y-40439D01*
X66278Y-40439D02*
X66223Y-40383D01*
X66223Y-40383D02*
X66056Y-40383D01*
X66056Y-40383D02*
X66000Y-40439D01*
X66000Y-40439D02*
X66000Y-40716D01*
X66000Y-40716D02*
X66056Y-40772D01*
X64532Y-40973D02*
X64532Y-41362D01*
X64532Y-41362D02*
X64366Y-41362D01*
X64366Y-41362D02*
X64310Y-41306D01*
X64310Y-41306D02*
X64310Y-41029D01*
X64310Y-41029D02*
X64255Y-40973D01*
X64255Y-40973D02*
X64088Y-40973D01*
X64088Y-40973D02*
X64032Y-41029D01*
X64032Y-41029D02*
X64032Y-41306D01*
X64032Y-41306D02*
X64088Y-41362D01*
X64532Y-40661D02*
X64532Y-40439D01*
X64532Y-40550D02*
X64032Y-40550D01*
X64088Y-40550D02*
X64199Y-40661D01*
X62563Y-41072D02*
X62563Y-41461D01*
X62563Y-41461D02*
X62397Y-41461D01*
X62397Y-41461D02*
X62341Y-41405D01*
X62341Y-41405D02*
X62341Y-41128D01*
X62341Y-41128D02*
X62286Y-41072D01*
X62286Y-41072D02*
X62119Y-41072D01*
X62119Y-41072D02*
X62063Y-41128D01*
X62063Y-41128D02*
X62063Y-41405D01*
X62063Y-41405D02*
X62119Y-41461D01*
X62563Y-40593D02*
X62063Y-40593D01*
X62063Y-40593D02*
X62452Y-40871D01*
X62452Y-40871D02*
X62452Y-40482D01*
X66500Y-39286D02*
X66500Y-39064D01*
X66500Y-39175D02*
X66000Y-39175D01*
X66056Y-39175D02*
X66167Y-39286D01*
X66500Y-38418D02*
X66500Y-38807D01*
X66500Y-38807D02*
X66334Y-38807D01*
X66334Y-38807D02*
X66278Y-38751D01*
X66278Y-38751D02*
X66278Y-38474D01*
X66278Y-38474D02*
X66223Y-38418D01*
X66223Y-38418D02*
X66056Y-38418D01*
X66056Y-38418D02*
X66000Y-38474D01*
X66000Y-38474D02*
X66000Y-38751D01*
X66000Y-38751D02*
X66056Y-38807D01*
X64532Y-39286D02*
X64532Y-39064D01*
X64532Y-39175D02*
X64032Y-39175D01*
X64088Y-39175D02*
X64199Y-39286D01*
X64532Y-38696D02*
X64532Y-38474D01*
X64532Y-38585D02*
X64032Y-38585D01*
X64088Y-38585D02*
X64199Y-38696D01*
X62563Y-39286D02*
X62563Y-39064D01*
X62563Y-39175D02*
X62063Y-39175D01*
X62119Y-39175D02*
X62230Y-39286D01*
X62563Y-38529D02*
X62063Y-38529D01*
X62063Y-38529D02*
X62452Y-38807D01*
X62452Y-38807D02*
X62452Y-38418D01*
X66500Y-34973D02*
X66500Y-35362D01*
X66500Y-35362D02*
X66334Y-35362D01*
X66334Y-35362D02*
X66278Y-35306D01*
X66278Y-35306D02*
X66278Y-35029D01*
X66278Y-35029D02*
X66223Y-34973D01*
X66223Y-34973D02*
X66056Y-34973D01*
X66056Y-34973D02*
X66000Y-35029D01*
X66000Y-35029D02*
X66000Y-35306D01*
X66000Y-35306D02*
X66056Y-35362D01*
X66500Y-34383D02*
X66500Y-34772D01*
X66500Y-34772D02*
X66334Y-34772D01*
X66334Y-34772D02*
X66278Y-34716D01*
X66278Y-34716D02*
X66278Y-34439D01*
X66278Y-34439D02*
X66223Y-34383D01*
X66223Y-34383D02*
X66056Y-34383D01*
X66056Y-34383D02*
X66000Y-34439D01*
X66000Y-34439D02*
X66000Y-34716D01*
X66000Y-34716D02*
X66056Y-34772D01*
X64532Y-34973D02*
X64532Y-35362D01*
X64532Y-35362D02*
X64366Y-35362D01*
X64366Y-35362D02*
X64310Y-35306D01*
X64310Y-35306D02*
X64310Y-35029D01*
X64310Y-35029D02*
X64255Y-34973D01*
X64255Y-34973D02*
X64088Y-34973D01*
X64088Y-34973D02*
X64032Y-35029D01*
X64032Y-35029D02*
X64032Y-35306D01*
X64032Y-35306D02*
X64088Y-35362D01*
X64532Y-34661D02*
X64532Y-34439D01*
X64532Y-34550D02*
X64032Y-34550D01*
X64088Y-34550D02*
X64199Y-34661D01*
X62563Y-35072D02*
X62563Y-35461D01*
X62563Y-35461D02*
X62397Y-35461D01*
X62397Y-35461D02*
X62341Y-35405D01*
X62341Y-35405D02*
X62341Y-35128D01*
X62341Y-35128D02*
X62286Y-35072D01*
X62286Y-35072D02*
X62119Y-35072D01*
X62119Y-35072D02*
X62063Y-35128D01*
X62063Y-35128D02*
X62063Y-35405D01*
X62063Y-35405D02*
X62119Y-35461D01*
X62563Y-34593D02*
X62063Y-34593D01*
X62063Y-34593D02*
X62452Y-34871D01*
X62452Y-34871D02*
X62452Y-34482D01*
G54D15*
X80000Y-48742D02*
X79400Y-48742D01*
X79400Y-48742D02*
X79400Y-48475D01*
X79400Y-48475D02*
X79467Y-48431D01*
X79467Y-48431D02*
X79600Y-48431D01*
X79600Y-48431D02*
X79667Y-48475D01*
X79667Y-48475D02*
X79667Y-48742D01*
X79667Y-48475D02*
X79800Y-48431D01*
X79800Y-48431D02*
X79934Y-48431D01*
X79934Y-48431D02*
X80000Y-48475D01*
X80000Y-48475D02*
X80000Y-48742D01*
X79400Y-48218D02*
X79400Y-47862D01*
X79400Y-48040D02*
X80000Y-48040D01*
X80000Y-47605D02*
X80000Y-47427D01*
X80000Y-47516D02*
X79400Y-47516D01*
X79467Y-47516D02*
X79600Y-47605D01*
G54D22*
X64814Y-51195D02*
X64758Y-51250D01*
X64758Y-51250D02*
X64481Y-51250D01*
X64481Y-51250D02*
X64425Y-51195D01*
X64425Y-51195D02*
X64425Y-50806D01*
X64425Y-50806D02*
X64481Y-50750D01*
X64481Y-50750D02*
X64758Y-50750D01*
X64758Y-50750D02*
X64814Y-50806D01*
X65015Y-51250D02*
X65015Y-50750D01*
X65015Y-50750D02*
X65348Y-50750D01*
X65348Y-50750D02*
X65404Y-50806D01*
X65404Y-50806D02*
X65404Y-50973D01*
X65404Y-50973D02*
X65348Y-51028D01*
X65348Y-51028D02*
X65015Y-51028D01*
X65182Y-51028D02*
X65404Y-51250D01*
X65605Y-50750D02*
X65827Y-51028D01*
X65827Y-51028D02*
X66050Y-50750D01*
X65827Y-51028D02*
X65827Y-51250D01*
X66195Y-51195D02*
X66251Y-51250D01*
X66251Y-51250D02*
X66528Y-51250D01*
X66528Y-51250D02*
X66584Y-51195D01*
X66584Y-51195D02*
X66584Y-51028D01*
X66584Y-51028D02*
X66528Y-50973D01*
X66528Y-50973D02*
X66251Y-50973D01*
X66251Y-50973D02*
X66195Y-50917D01*
X66195Y-50917D02*
X66195Y-50806D01*
X66195Y-50806D02*
X66251Y-50750D01*
X66251Y-50750D02*
X66528Y-50750D01*
X66528Y-50750D02*
X66584Y-50806D01*
X66785Y-50750D02*
X67230Y-50750D01*
X67007Y-50750D02*
X67007Y-51250D01*
X67375Y-51250D02*
X67375Y-50862D01*
X67375Y-50862D02*
X67486Y-50750D01*
X67486Y-50750D02*
X67653Y-50750D01*
X67653Y-50750D02*
X67764Y-50862D01*
X67764Y-50862D02*
X67764Y-51250D01*
X67375Y-50973D02*
X67764Y-50973D01*
X67965Y-50750D02*
X67965Y-51250D01*
X67965Y-51250D02*
X68410Y-51250D01*
X69145Y-50750D02*
X69534Y-50750D01*
X69534Y-50750D02*
X69534Y-50806D01*
X69534Y-50806D02*
X69312Y-50973D01*
X69312Y-50973D02*
X69478Y-50973D01*
X69478Y-50973D02*
X69534Y-51028D01*
X69534Y-51028D02*
X69534Y-51195D01*
X69534Y-51195D02*
X69478Y-51250D01*
X69478Y-51250D02*
X69201Y-51250D01*
X69201Y-51250D02*
X69145Y-51195D01*
X70124Y-51250D02*
X69735Y-51250D01*
X69735Y-51250D02*
X69735Y-51084D01*
X69735Y-51084D02*
X69791Y-51028D01*
X69791Y-51028D02*
X70068Y-51028D01*
X70068Y-51028D02*
X70124Y-50973D01*
X70124Y-50973D02*
X70124Y-50806D01*
X70124Y-50806D02*
X70068Y-50750D01*
X70068Y-50750D02*
X69791Y-50750D01*
X69791Y-50750D02*
X69735Y-50806D01*
X70915Y-51250D02*
X70915Y-50750D01*
X70915Y-50750D02*
X71137Y-50973D01*
X71137Y-50973D02*
X71360Y-50750D01*
X71360Y-50750D02*
X71360Y-51250D01*
X71505Y-51250D02*
X71505Y-50750D01*
X71894Y-51250D02*
X71894Y-50750D01*
X71505Y-51028D02*
X71894Y-51028D01*
X72095Y-50917D02*
X72484Y-50917D01*
X72484Y-50917D02*
X72095Y-51250D01*
X72095Y-51250D02*
X72484Y-51250D01*
G54D15*
X57174Y-48775D02*
X56785Y-48775D01*
X56785Y-48775D02*
X56785Y-48592D01*
X56785Y-48592D02*
X56841Y-48531D01*
X56841Y-48531D02*
X57118Y-48531D01*
X57118Y-48531D02*
X57174Y-48470D01*
X57174Y-48470D02*
X57174Y-48287D01*
X57174Y-48287D02*
X57118Y-48225D01*
X57118Y-48225D02*
X56841Y-48225D01*
X56841Y-48225D02*
X56785Y-48287D01*
X57587Y-48775D02*
X57587Y-48714D01*
X58444Y-48775D02*
X58055Y-48775D01*
X58055Y-48775D02*
X58055Y-48592D01*
X58055Y-48592D02*
X58111Y-48531D01*
X58111Y-48531D02*
X58388Y-48531D01*
X58388Y-48531D02*
X58444Y-48470D01*
X58444Y-48470D02*
X58444Y-48287D01*
X58444Y-48287D02*
X58388Y-48225D01*
X58388Y-48225D02*
X58111Y-48225D01*
X58111Y-48225D02*
X58055Y-48287D01*
X58690Y-48775D02*
X58690Y-48225D01*
X59023Y-48225D02*
X58690Y-48470D01*
X58690Y-48470D02*
X59079Y-48775D01*
X57174Y-47275D02*
X56785Y-47275D01*
X56785Y-47275D02*
X56785Y-47092D01*
X56785Y-47092D02*
X56841Y-47031D01*
X56841Y-47031D02*
X57118Y-47031D01*
X57118Y-47031D02*
X57174Y-46970D01*
X57174Y-46970D02*
X57174Y-46787D01*
X57174Y-46787D02*
X57118Y-46725D01*
X57118Y-46725D02*
X56841Y-46725D01*
X56841Y-46725D02*
X56785Y-46787D01*
X57587Y-47275D02*
X57587Y-47214D01*
X58444Y-47275D02*
X58055Y-47275D01*
X58055Y-47275D02*
X58055Y-47092D01*
X58055Y-47092D02*
X58111Y-47031D01*
X58111Y-47031D02*
X58388Y-47031D01*
X58388Y-47031D02*
X58444Y-46970D01*
X58444Y-46970D02*
X58444Y-46787D01*
X58444Y-46787D02*
X58388Y-46725D01*
X58388Y-46725D02*
X58111Y-46725D01*
X58111Y-46725D02*
X58055Y-46787D01*
X58690Y-47275D02*
X58690Y-46725D01*
X59023Y-46725D02*
X58690Y-46970D01*
X58690Y-46970D02*
X59079Y-47275D01*
X61750Y-49984D02*
X61250Y-49984D01*
X61250Y-50028D02*
X61250Y-49761D01*
X61250Y-49761D02*
X61306Y-49717D01*
X61306Y-49717D02*
X61695Y-49717D01*
X61695Y-49717D02*
X61750Y-49761D01*
X61750Y-49761D02*
X61750Y-50028D01*
X61695Y-49504D02*
X61750Y-49460D01*
X61750Y-49460D02*
X61750Y-49237D01*
X61750Y-49237D02*
X61695Y-49193D01*
X61695Y-49193D02*
X61528Y-49193D01*
X61528Y-49193D02*
X61473Y-49237D01*
X61473Y-49237D02*
X61473Y-49460D01*
X61473Y-49460D02*
X61417Y-49504D01*
X61417Y-49504D02*
X61306Y-49504D01*
X61306Y-49504D02*
X61250Y-49460D01*
X61250Y-49460D02*
X61250Y-49237D01*
X61250Y-49237D02*
X61306Y-49193D01*
X61750Y-48891D02*
X61750Y-48713D01*
X61750Y-48802D02*
X61250Y-48802D01*
X61306Y-48802D02*
X61417Y-48891D01*
X61250Y-48456D02*
X61250Y-48145D01*
X61250Y-48145D02*
X61306Y-48145D01*
X61306Y-48145D02*
X61473Y-48323D01*
X61473Y-48323D02*
X61473Y-48189D01*
X61473Y-48189D02*
X61528Y-48145D01*
X61528Y-48145D02*
X61695Y-48145D01*
X61695Y-48145D02*
X61750Y-48189D01*
X61750Y-48189D02*
X61750Y-48412D01*
X61750Y-48412D02*
X61695Y-48456D01*
X61750Y-47932D02*
X61250Y-47621D01*
X61695Y-47932D02*
X61306Y-47932D01*
X61306Y-47932D02*
X61250Y-47888D01*
X61250Y-47888D02*
X61250Y-47665D01*
X61250Y-47665D02*
X61306Y-47621D01*
X61306Y-47621D02*
X61695Y-47621D01*
X61695Y-47621D02*
X61750Y-47665D01*
X61750Y-47665D02*
X61750Y-47888D01*
X61750Y-47888D02*
X61695Y-47932D01*
X61250Y-47408D02*
X61250Y-47097D01*
X61250Y-47097D02*
X61750Y-47408D01*
X58472Y-51100D02*
X58783Y-50700D01*
X58472Y-51056D02*
X58472Y-50745D01*
X58472Y-50745D02*
X58516Y-50700D01*
X58516Y-50700D02*
X58739Y-50700D01*
X58739Y-50700D02*
X58783Y-50745D01*
X58783Y-50745D02*
X58783Y-51056D01*
X58783Y-51056D02*
X58739Y-51100D01*
X58739Y-51100D02*
X58516Y-51100D01*
X58516Y-51100D02*
X58472Y-51056D01*
X59129Y-51100D02*
X59129Y-51056D01*
X59609Y-51100D02*
X59787Y-51100D01*
X59698Y-51100D02*
X59698Y-50700D01*
X59698Y-50745D02*
X59609Y-50834D01*
X60568Y-50834D02*
X60568Y-51012D01*
X60568Y-51012D02*
X60657Y-51100D01*
X60657Y-51100D02*
X60790Y-51100D01*
X60790Y-51100D02*
X60879Y-51012D01*
X60879Y-51012D02*
X60879Y-50834D01*
X61092Y-51100D02*
X61092Y-50700D01*
X61092Y-50700D02*
X61403Y-50700D01*
X61092Y-50878D02*
X61270Y-50878D01*
G54D11*
M02*
